<svg width="155" height="18" viewBox="0 0 155 18" fill="none" xmlns="http://www.w3.org/2000/svg">
<rect x="104" y="11" width="3" height="3" fill="white"/>
<path d="M6.28809 3.15967L3.3877 12H1.05127L5.01367 1.33594H6.50049L6.28809 3.15967ZM8.69775 12L5.79004 3.15967L5.55566 1.33594H7.05713L11.0415 12H8.69775ZM8.56592 8.03027V9.75146H2.93359V8.03027H8.56592ZM13.7734 5.59863V15.0469H11.6641V4.0752H13.6196L13.7734 5.59863ZM18.7905 7.94971V8.10352C18.7905 8.67969 18.7222 9.21436 18.5854 9.70752C18.4536 10.2007 18.2583 10.6304 17.9995 10.9966C17.7407 11.3579 17.4185 11.6411 17.0327 11.8462C16.6519 12.0464 16.2124 12.1465 15.7144 12.1465C15.231 12.1465 14.811 12.0488 14.4546 11.8535C14.0981 11.6582 13.7979 11.3848 13.5537 11.0332C13.3145 10.6768 13.1216 10.2642 12.9751 9.79541C12.8286 9.32666 12.7163 8.82373 12.6382 8.28662V7.88379C12.7163 7.30762 12.8286 6.78027 12.9751 6.30176C13.1216 5.81836 13.3145 5.40088 13.5537 5.04932C13.7979 4.69287 14.0957 4.41699 14.4473 4.22168C14.8037 4.02637 15.2212 3.92871 15.6997 3.92871C16.2026 3.92871 16.6445 4.02393 17.0254 4.21436C17.4111 4.40479 17.7334 4.67822 17.9922 5.03467C18.2559 5.39111 18.4536 5.81592 18.5854 6.30908C18.7222 6.80225 18.7905 7.34912 18.7905 7.94971ZM16.6738 8.10352V7.94971C16.6738 7.61279 16.6445 7.30273 16.5859 7.01953C16.5322 6.73145 16.4443 6.47998 16.3223 6.26514C16.2051 6.05029 16.0488 5.88428 15.8535 5.76709C15.6631 5.64502 15.4312 5.58398 15.1577 5.58398C14.8696 5.58398 14.623 5.63037 14.418 5.72314C14.2178 5.81592 14.0542 5.9502 13.9272 6.12598C13.8003 6.30176 13.7051 6.51172 13.6416 6.75586C13.5781 7 13.5391 7.27588 13.5244 7.5835V8.60156C13.5488 8.96289 13.6172 9.2876 13.7295 9.57568C13.8418 9.85889 14.0151 10.0835 14.2495 10.2495C14.4839 10.4155 14.7915 10.4985 15.1724 10.4985C15.4507 10.4985 15.6851 10.4375 15.8755 10.3154C16.0659 10.1885 16.2197 10.0151 16.3369 9.79541C16.459 9.57568 16.5444 9.32178 16.5933 9.03369C16.647 8.74561 16.6738 8.43555 16.6738 8.10352ZM22.2109 5.80371V12H20.1016V4.0752H22.0864L22.2109 5.80371ZM24.5986 4.02393L24.562 5.97949C24.4595 5.96484 24.335 5.95264 24.1885 5.94287C24.0469 5.92822 23.9175 5.9209 23.8003 5.9209C23.5024 5.9209 23.2437 5.95996 23.0239 6.03809C22.8091 6.11133 22.6284 6.22119 22.4819 6.36768C22.3403 6.51416 22.2329 6.69238 22.1597 6.90234C22.0913 7.1123 22.0522 7.35156 22.0425 7.62012L21.6177 7.48828C21.6177 6.97559 21.6689 6.50439 21.7715 6.07471C21.874 5.64014 22.0229 5.26172 22.2183 4.93945C22.4185 4.61719 22.6626 4.36816 22.9507 4.19238C23.2388 4.0166 23.5684 3.92871 23.9395 3.92871C24.0566 3.92871 24.1763 3.93848 24.2983 3.95801C24.4204 3.97266 24.5205 3.99463 24.5986 4.02393ZM27.8213 4.0752V12H25.7046V4.0752H27.8213ZM25.5728 2.00977C25.5728 1.70215 25.6802 1.44824 25.895 1.24805C26.1099 1.04785 26.3979 0.947754 26.7593 0.947754C27.1157 0.947754 27.4014 1.04785 27.6162 1.24805C27.8359 1.44824 27.9458 1.70215 27.9458 2.00977C27.9458 2.31738 27.8359 2.57129 27.6162 2.77148C27.4014 2.97168 27.1157 3.07178 26.7593 3.07178C26.3979 3.07178 26.1099 2.97168 25.895 2.77148C25.6802 2.57129 25.5728 2.31738 25.5728 2.00977ZM31.791 0.75V12H29.6743V0.75H31.791ZM42.3232 1.31396V12H40.2139V3.74561L37.6797 4.55127V2.88867L42.0962 1.31396H42.3232ZM51.2368 1.22607H51.5444V2.91064H51.4199C50.8633 2.91064 50.3677 2.99365 49.9331 3.15967C49.4985 3.32568 49.1299 3.5625 48.8271 3.87012C48.5293 4.17285 48.2998 4.53906 48.1387 4.96875C47.9824 5.39844 47.9043 5.87939 47.9043 6.41162V8.18408C47.9043 8.56494 47.9409 8.90186 48.0142 9.19482C48.0923 9.48291 48.2021 9.72461 48.3438 9.91992C48.4902 10.1104 48.6611 10.2544 48.8564 10.3521C49.0518 10.4448 49.2715 10.4912 49.5156 10.4912C49.7451 10.4912 49.9526 10.4424 50.1382 10.3447C50.3286 10.2471 50.4897 10.1104 50.6216 9.93457C50.7583 9.75391 50.8608 9.54395 50.9292 9.30469C51.0024 9.06055 51.0391 8.79443 51.0391 8.50635C51.0391 8.21826 51.0024 7.95215 50.9292 7.70801C50.8608 7.46387 50.7583 7.25391 50.6216 7.07812C50.4849 6.89746 50.3188 6.7583 50.1235 6.66064C49.9282 6.56299 49.7085 6.51416 49.4644 6.51416C49.1323 6.51416 48.8394 6.59229 48.5854 6.74854C48.3364 6.8999 48.1411 7.09521 47.9995 7.33447C47.8579 7.57373 47.7822 7.8252 47.7725 8.08887L47.1353 7.67871C47.1499 7.30273 47.228 6.94629 47.3696 6.60938C47.5161 6.27246 47.7163 5.97461 47.9702 5.71582C48.229 5.45215 48.5391 5.24707 48.9004 5.10059C49.2617 4.94922 49.6694 4.87354 50.1235 4.87354C50.6216 4.87354 51.0586 4.96875 51.4346 5.15918C51.8154 5.34961 52.1328 5.61084 52.3867 5.94287C52.6406 6.2749 52.8311 6.6582 52.958 7.09277C53.085 7.52734 53.1484 7.99121 53.1484 8.48438C53.1484 9.00195 53.063 9.48291 52.8921 9.92725C52.7261 10.3716 52.4844 10.7598 52.167 11.0918C51.8545 11.4238 51.4785 11.6826 51.0391 11.8682C50.5996 12.0537 50.1064 12.1465 49.5596 12.1465C48.9932 12.1465 48.478 12.0439 48.0142 11.8389C47.5552 11.6289 47.1597 11.3359 46.8276 10.96C46.4956 10.584 46.2393 10.1372 46.0586 9.61963C45.8828 9.10205 45.7949 8.53564 45.7949 7.92041V7.1001C45.7949 6.24072 45.9194 5.45459 46.1685 4.7417C46.4224 4.02393 46.7861 3.40381 47.2598 2.88135C47.7334 2.354 48.3047 1.94629 48.9736 1.6582C49.6426 1.37012 50.397 1.22607 51.2368 1.22607ZM56.4956 10.2202L56.4883 11.6338C56.4883 12.1758 56.3516 12.7227 56.0781 13.2744C55.8096 13.8262 55.4678 14.2778 55.0527 14.6294L53.9541 14.0654C54.0762 13.8408 54.1958 13.6162 54.313 13.3916C54.4302 13.167 54.5278 12.9204 54.606 12.6519C54.6841 12.3833 54.7231 12.0781 54.7231 11.7363V10.2202H56.4956ZM69.1299 10.3521V12H61.835V10.5938L65.2847 6.89502C65.6313 6.50928 65.9048 6.16992 66.105 5.87695C66.3052 5.5791 66.4492 5.31299 66.5371 5.07861C66.6299 4.83936 66.6763 4.6123 66.6763 4.39746C66.6763 4.0752 66.6226 3.79932 66.5151 3.56982C66.4077 3.33545 66.249 3.15479 66.0391 3.02783C65.834 2.90088 65.5801 2.8374 65.2773 2.8374C64.9551 2.8374 64.6768 2.91553 64.4424 3.07178C64.2129 3.22803 64.0371 3.44531 63.915 3.72363C63.7979 4.00195 63.7393 4.31689 63.7393 4.66846H61.6226C61.6226 4.03369 61.7739 3.45264 62.0767 2.92529C62.3794 2.39307 62.8066 1.9707 63.3584 1.6582C63.9102 1.34082 64.5645 1.18213 65.3213 1.18213C66.0684 1.18213 66.6982 1.3042 67.2109 1.54834C67.7285 1.7876 68.1191 2.13428 68.3828 2.58838C68.6514 3.0376 68.7856 3.57471 68.7856 4.19971C68.7856 4.55127 68.7295 4.89551 68.6172 5.23242C68.5049 5.56445 68.3438 5.89648 68.1338 6.22852C67.9287 6.55566 67.6797 6.8877 67.3867 7.22461C67.0938 7.56152 66.769 7.91064 66.4126 8.27197L64.5596 10.3521H69.1299ZM77.626 5.73047V7.57617C77.626 8.37695 77.5405 9.06787 77.3696 9.64893C77.1987 10.2251 76.9521 10.6987 76.6299 11.0698C76.3125 11.436 75.9341 11.707 75.4946 11.8828C75.0552 12.0586 74.5669 12.1465 74.0298 12.1465C73.6001 12.1465 73.1997 12.0928 72.8286 11.9854C72.4575 11.873 72.123 11.6997 71.8252 11.4653C71.5322 11.231 71.2783 10.9355 71.0635 10.5791C70.8535 10.2178 70.6924 9.78809 70.5801 9.29004C70.4678 8.79199 70.4116 8.2207 70.4116 7.57617V5.73047C70.4116 4.92969 70.4971 4.24365 70.668 3.67236C70.8438 3.09619 71.0903 2.625 71.4077 2.25879C71.73 1.89258 72.1108 1.62402 72.5503 1.45312C72.9897 1.27734 73.478 1.18945 74.0151 1.18945C74.4448 1.18945 74.8428 1.24561 75.209 1.35791C75.5801 1.46533 75.9146 1.63379 76.2124 1.86328C76.5103 2.09277 76.7642 2.38818 76.9741 2.74951C77.1841 3.10596 77.3452 3.5332 77.4575 4.03125C77.5698 4.52441 77.626 5.09082 77.626 5.73047ZM75.5093 7.85449V5.44482C75.5093 5.05908 75.4873 4.72217 75.4434 4.43408C75.4043 4.146 75.3433 3.90186 75.2603 3.70166C75.1772 3.49658 75.0747 3.33057 74.9526 3.20361C74.8306 3.07666 74.6914 2.98389 74.5352 2.92529C74.3789 2.8667 74.2056 2.8374 74.0151 2.8374C73.7759 2.8374 73.5635 2.88379 73.3779 2.97656C73.1973 3.06934 73.0435 3.21826 72.9165 3.42334C72.7896 3.62354 72.6919 3.89209 72.6235 4.229C72.5601 4.56104 72.5283 4.96631 72.5283 5.44482V7.85449C72.5283 8.24023 72.5479 8.57959 72.5869 8.87256C72.6309 9.16553 72.6943 9.41699 72.7773 9.62695C72.8652 9.83203 72.9678 10.0005 73.085 10.1323C73.207 10.2593 73.3462 10.3521 73.5024 10.4106C73.6636 10.4692 73.8394 10.4985 74.0298 10.4985C74.2642 10.4985 74.4717 10.4521 74.6523 10.3594C74.8379 10.2617 74.9941 10.1104 75.1211 9.90527C75.2529 9.69531 75.3506 9.42188 75.4141 9.08496C75.4775 8.74805 75.5093 8.33789 75.5093 7.85449ZM86.3564 10.3521V12H79.0615V10.5938L82.5112 6.89502C82.8579 6.50928 83.1313 6.16992 83.3315 5.87695C83.5317 5.5791 83.6758 5.31299 83.7637 5.07861C83.8564 4.83936 83.9028 4.6123 83.9028 4.39746C83.9028 4.0752 83.8491 3.79932 83.7417 3.56982C83.6343 3.33545 83.4756 3.15479 83.2656 3.02783C83.0605 2.90088 82.8066 2.8374 82.5039 2.8374C82.1816 2.8374 81.9033 2.91553 81.6689 3.07178C81.4395 3.22803 81.2637 3.44531 81.1416 3.72363C81.0244 4.00195 80.9658 4.31689 80.9658 4.66846H78.8491C78.8491 4.03369 79.0005 3.45264 79.3032 2.92529C79.606 2.39307 80.0332 1.9707 80.585 1.6582C81.1367 1.34082 81.791 1.18213 82.5479 1.18213C83.2949 1.18213 83.9248 1.3042 84.4375 1.54834C84.9551 1.7876 85.3457 2.13428 85.6094 2.58838C85.8779 3.0376 86.0122 3.57471 86.0122 4.19971C86.0122 4.55127 85.9561 4.89551 85.8438 5.23242C85.7314 5.56445 85.5703 5.89648 85.3604 6.22852C85.1553 6.55566 84.9062 6.8877 84.6133 7.22461C84.3203 7.56152 83.9956 7.91064 83.6392 8.27197L81.7861 10.3521H86.3564ZM92.8164 1.31396V12H90.707V3.74561L88.1729 4.55127V2.88867L92.5894 1.31396H92.8164Z" fill="white" fill-opacity="0.7"/>
<path d="M115.763 1.94434H116.05V3.5166H115.934C115.414 3.5166 114.951 3.59408 114.546 3.74902C114.14 3.90397 113.796 4.125 113.514 4.41211C113.236 4.69466 113.021 5.03646 112.871 5.4375C112.725 5.83854 112.652 6.28743 112.652 6.78418V8.43848C112.652 8.79395 112.687 9.1084 112.755 9.38184C112.828 9.65072 112.93 9.8763 113.062 10.0586C113.199 10.2363 113.359 10.3708 113.541 10.4619C113.723 10.5485 113.928 10.5918 114.156 10.5918C114.37 10.5918 114.564 10.5462 114.737 10.4551C114.915 10.3639 115.065 10.2363 115.188 10.0723C115.316 9.90365 115.412 9.70768 115.476 9.48438C115.544 9.25651 115.578 9.00814 115.578 8.73926C115.578 8.47038 115.544 8.22201 115.476 7.99414C115.412 7.76628 115.316 7.57031 115.188 7.40625C115.061 7.23763 114.906 7.10775 114.724 7.0166C114.541 6.92546 114.336 6.87988 114.108 6.87988C113.799 6.87988 113.525 6.9528 113.288 7.09863C113.056 7.23991 112.873 7.4222 112.741 7.64551C112.609 7.86882 112.538 8.10352 112.529 8.34961L111.935 7.9668C111.948 7.61589 112.021 7.2832 112.153 6.96875C112.29 6.6543 112.477 6.3763 112.714 6.13477C112.955 5.88867 113.245 5.69727 113.582 5.56055C113.919 5.41927 114.3 5.34863 114.724 5.34863C115.188 5.34863 115.596 5.4375 115.947 5.61523C116.303 5.79297 116.599 6.03678 116.836 6.34668C117.073 6.65658 117.251 7.01432 117.369 7.41992C117.488 7.82552 117.547 8.25846 117.547 8.71875C117.547 9.20182 117.467 9.65072 117.308 10.0654C117.153 10.4801 116.927 10.8424 116.631 11.1523C116.339 11.4622 115.988 11.7038 115.578 11.877C115.168 12.0501 114.708 12.1367 114.197 12.1367C113.669 12.1367 113.188 12.041 112.755 11.8496C112.326 11.6536 111.957 11.3802 111.647 11.0293C111.338 10.6784 111.098 10.2614 110.93 9.77832C110.766 9.29525 110.684 8.7666 110.684 8.19238V7.42676C110.684 6.62467 110.8 5.89095 111.032 5.22559C111.269 4.55566 111.609 3.97689 112.051 3.48926C112.493 2.99707 113.026 2.61654 113.65 2.34766C114.275 2.07878 114.979 1.94434 115.763 1.94434ZM124.26 6.13477V12H122.284V4.60352H124.137L124.26 6.13477ZM123.986 8.04199H123.439C123.439 7.52702 123.501 7.05306 123.624 6.62012C123.752 6.18262 123.936 5.80436 124.178 5.48535C124.424 5.16178 124.727 4.91113 125.087 4.7334C125.447 4.55566 125.864 4.4668 126.338 4.4668C126.666 4.4668 126.967 4.51693 127.24 4.61719C127.514 4.71289 127.748 4.86556 127.944 5.0752C128.145 5.28027 128.3 5.54915 128.409 5.88184C128.519 6.20996 128.573 6.60417 128.573 7.06445V12H126.604V7.2832C126.604 6.94596 126.559 6.6862 126.468 6.50391C126.377 6.32161 126.247 6.19401 126.078 6.12109C125.914 6.04818 125.716 6.01172 125.483 6.01172C125.228 6.01172 125.005 6.06413 124.813 6.16895C124.627 6.27376 124.472 6.4196 124.349 6.60645C124.226 6.78874 124.134 7.00293 124.075 7.24902C124.016 7.49512 123.986 7.75944 123.986 8.04199ZM128.389 7.81641L127.685 7.90527C127.685 7.4222 127.744 6.97331 127.862 6.55859C127.985 6.14388 128.165 5.7793 128.402 5.46484C128.644 5.15039 128.942 4.90658 129.298 4.7334C129.653 4.55566 130.063 4.4668 130.528 4.4668C130.884 4.4668 131.207 4.51921 131.499 4.62402C131.791 4.72428 132.039 4.88607 132.244 5.10938C132.454 5.32812 132.613 5.61523 132.723 5.9707C132.837 6.32617 132.894 6.76139 132.894 7.27637V12H130.918V7.27637C130.918 6.93457 130.872 6.6748 130.781 6.49707C130.695 6.31478 130.567 6.18945 130.398 6.12109C130.234 6.04818 130.038 6.01172 129.811 6.01172C129.574 6.01172 129.366 6.05957 129.188 6.15527C129.011 6.24642 128.863 6.37402 128.744 6.53809C128.626 6.70215 128.537 6.89355 128.478 7.1123C128.418 7.3265 128.389 7.5612 128.389 7.81641ZM136.496 4.60352V12H134.521V4.60352H136.496ZM134.397 2.67578C134.397 2.38867 134.498 2.15169 134.698 1.96484C134.899 1.77799 135.168 1.68457 135.505 1.68457C135.838 1.68457 136.104 1.77799 136.305 1.96484C136.51 2.15169 136.612 2.38867 136.612 2.67578C136.612 2.96289 136.51 3.19987 136.305 3.38672C136.104 3.57357 135.838 3.66699 135.505 3.66699C135.168 3.66699 134.899 3.57357 134.698 3.38672C134.498 3.19987 134.397 2.96289 134.397 2.67578ZM140.051 6.18262V12H138.082V4.60352H139.928L140.051 6.18262ZM139.764 8.04199H139.23C139.23 7.49512 139.301 7.00293 139.442 6.56543C139.584 6.12337 139.782 5.7474 140.037 5.4375C140.292 5.12305 140.595 4.88379 140.946 4.71973C141.302 4.55111 141.698 4.4668 142.136 4.4668C142.482 4.4668 142.799 4.51693 143.086 4.61719C143.373 4.71745 143.619 4.87695 143.824 5.0957C144.034 5.31445 144.193 5.60384 144.303 5.96387C144.417 6.32389 144.474 6.76367 144.474 7.2832V12H142.491V7.27637C142.491 6.94824 142.446 6.69303 142.354 6.51074C142.263 6.32845 142.129 6.20085 141.951 6.12793C141.778 6.05046 141.564 6.01172 141.309 6.01172C141.044 6.01172 140.814 6.06413 140.618 6.16895C140.427 6.27376 140.267 6.4196 140.14 6.60645C140.017 6.78874 139.923 7.00293 139.859 7.24902C139.796 7.49512 139.764 7.75944 139.764 8.04199ZM149.97 9.95605C149.97 9.81478 149.929 9.68717 149.847 9.57324C149.765 9.45931 149.612 9.35449 149.389 9.25879C149.17 9.15853 148.853 9.06738 148.438 8.98535C148.065 8.90332 147.716 8.80078 147.393 8.67773C147.074 8.55013 146.796 8.39746 146.559 8.21973C146.326 8.04199 146.144 7.83236 146.012 7.59082C145.88 7.34473 145.813 7.06445 145.813 6.75C145.813 6.4401 145.88 6.14844 146.012 5.875C146.148 5.60156 146.342 5.36003 146.593 5.15039C146.848 4.9362 147.158 4.76986 147.522 4.65137C147.892 4.52832 148.306 4.4668 148.767 4.4668C149.409 4.4668 149.961 4.56934 150.421 4.77441C150.886 4.97949 151.241 5.26204 151.487 5.62207C151.738 5.97754 151.863 6.38314 151.863 6.83887H149.895C149.895 6.64746 149.854 6.47656 149.771 6.32617C149.694 6.17122 149.571 6.05046 149.402 5.96387C149.238 5.87272 149.024 5.82715 148.76 5.82715C148.541 5.82715 148.352 5.86589 148.192 5.94336C148.033 6.01628 147.91 6.11654 147.823 6.24414C147.741 6.36719 147.7 6.50391 147.7 6.6543C147.7 6.76823 147.723 6.87077 147.769 6.96191C147.819 7.0485 147.898 7.12826 148.008 7.20117C148.117 7.27409 148.258 7.34245 148.432 7.40625C148.609 7.46549 148.828 7.52018 149.088 7.57031C149.621 7.67969 150.097 7.82324 150.517 8.00098C150.936 8.17415 151.269 8.41113 151.515 8.71191C151.761 9.00814 151.884 9.39779 151.884 9.88086C151.884 10.209 151.811 10.5098 151.665 10.7832C151.519 11.0566 151.31 11.2959 151.036 11.501C150.763 11.7015 150.435 11.8587 150.052 11.9727C149.674 12.082 149.247 12.1367 148.773 12.1367C148.085 12.1367 147.502 12.0137 147.023 11.7676C146.549 11.5215 146.189 11.2093 145.943 10.8311C145.702 10.4482 145.581 10.0563 145.581 9.65527H147.447C147.456 9.92415 147.525 10.1406 147.652 10.3047C147.785 10.4688 147.951 10.5872 148.151 10.6602C148.356 10.7331 148.577 10.7695 148.814 10.7695C149.07 10.7695 149.282 10.7354 149.45 10.667C149.619 10.5941 149.746 10.4984 149.833 10.3799C149.924 10.2568 149.97 10.1156 149.97 9.95605Z" fill="white" fill-opacity="0.7"/>
</svg>
