<svg width="167" height="22" viewBox="0 0 167 22" fill="none" xmlns="http://www.w3.org/2000/svg">
<g clip-path="url(#clip0_1_668)">
<path d="M163.143 10.6483L158.673 6.17833L159.852 5L166.333 11.4817L159.852 17.9633L158.673 16.785L163.143 12.315H153V10.6483H163.143Z" fill="white"/>
</g>
<path d="M2.14258 1.20312H6.91504C7.89355 1.20312 8.73438 1.34961 9.4375 1.64258C10.1465 1.93555 10.6914 2.36914 11.0723 2.94336C11.4531 3.51758 11.6436 4.22363 11.6436 5.06152C11.6436 5.74707 11.5264 6.33594 11.292 6.82812C11.0635 7.31445 10.7383 7.72168 10.3164 8.0498C9.90039 8.37207 9.41113 8.62988 8.84863 8.82324L8.01367 9.2627H3.86523L3.84766 7.20605H6.93262C7.39551 7.20605 7.7793 7.12402 8.08398 6.95996C8.38867 6.7959 8.61719 6.56738 8.76953 6.27441C8.92773 5.98145 9.00684 5.6416 9.00684 5.25488C9.00684 4.84473 8.93066 4.49023 8.77832 4.19141C8.62598 3.89258 8.39453 3.66406 8.08398 3.50586C7.77344 3.34766 7.38379 3.26855 6.91504 3.26855H4.7793V14H2.14258V1.20312ZM9.29688 14L6.37891 8.2959L9.16504 8.27832L12.1182 13.877V14H9.29688ZM17.8926 14.1758C17.1543 14.1758 16.4922 14.0586 15.9062 13.8242C15.3203 13.584 14.8223 13.2529 14.4121 12.8311C14.0078 12.4092 13.6973 11.9199 13.4805 11.3633C13.2637 10.8008 13.1553 10.2031 13.1553 9.57031V9.21875C13.1553 8.49805 13.2578 7.83887 13.4629 7.24121C13.668 6.64355 13.9609 6.125 14.3418 5.68555C14.7285 5.24609 15.1973 4.90918 15.748 4.6748C16.2988 4.43457 16.9199 4.31445 17.6113 4.31445C18.2852 4.31445 18.8828 4.42578 19.4043 4.64844C19.9258 4.87109 20.3623 5.1875 20.7139 5.59766C21.0713 6.00781 21.3408 6.5 21.5225 7.07422C21.7041 7.64258 21.7949 8.27539 21.7949 8.97266V10.0273H14.2363V8.33984H19.3076V8.14648C19.3076 7.79492 19.2432 7.48145 19.1143 7.20605C18.9912 6.9248 18.8037 6.70215 18.5518 6.53809C18.2998 6.37402 17.9775 6.29199 17.585 6.29199C17.251 6.29199 16.9639 6.36523 16.7236 6.51172C16.4834 6.6582 16.2871 6.86328 16.1348 7.12695C15.9883 7.39062 15.877 7.70117 15.8008 8.05859C15.7305 8.41016 15.6953 8.79688 15.6953 9.21875V9.57031C15.6953 9.95117 15.748 10.3027 15.8535 10.625C15.9648 10.9473 16.1201 11.2256 16.3193 11.46C16.5244 11.6943 16.7705 11.876 17.0576 12.0049C17.3506 12.1338 17.6816 12.1982 18.0508 12.1982C18.5078 12.1982 18.9326 12.1104 19.3252 11.9346C19.7236 11.7529 20.0664 11.4805 20.3535 11.1172L21.584 12.4531C21.3848 12.7402 21.1123 13.0156 20.7666 13.2793C20.4268 13.543 20.0166 13.7598 19.5361 13.9297C19.0557 14.0938 18.5078 14.1758 17.8926 14.1758ZM28.3691 11.8555V7.61914C28.3691 7.31445 28.3193 7.05371 28.2197 6.83691C28.1201 6.61426 27.9648 6.44141 27.7539 6.31836C27.5488 6.19531 27.2822 6.13379 26.9541 6.13379C26.6729 6.13379 26.4297 6.18359 26.2246 6.2832C26.0195 6.37695 25.8613 6.51465 25.75 6.69629C25.6387 6.87207 25.583 7.08008 25.583 7.32031H23.0518C23.0518 6.91602 23.1455 6.53223 23.333 6.16895C23.5205 5.80566 23.793 5.48633 24.1504 5.21094C24.5078 4.92969 24.9326 4.70996 25.4248 4.55176C25.9229 4.39355 26.4795 4.31445 27.0947 4.31445C27.833 4.31445 28.4893 4.4375 29.0635 4.68359C29.6377 4.92969 30.0889 5.29883 30.417 5.79102C30.751 6.2832 30.918 6.89844 30.918 7.63672V11.7061C30.918 12.2275 30.9502 12.6553 31.0146 12.9893C31.0791 13.3174 31.1729 13.6045 31.2959 13.8506V14H28.7383C28.6152 13.7422 28.5215 13.4199 28.457 13.0332C28.3984 12.6406 28.3691 12.248 28.3691 11.8555ZM28.7031 8.20801L28.7207 9.64062H27.3057C26.9717 9.64062 26.6816 9.67871 26.4355 9.75488C26.1895 9.83105 25.9873 9.93945 25.8291 10.0801C25.6709 10.2148 25.5537 10.373 25.4775 10.5547C25.4072 10.7363 25.3721 10.9355 25.3721 11.1523C25.3721 11.3691 25.4219 11.5654 25.5215 11.7412C25.6211 11.9111 25.7646 12.0459 25.9521 12.1455C26.1396 12.2393 26.3594 12.2861 26.6113 12.2861C26.9922 12.2861 27.3232 12.21 27.6045 12.0576C27.8857 11.9053 28.1025 11.7178 28.2549 11.4951C28.4131 11.2725 28.4951 11.0615 28.501 10.8623L29.1689 11.9346C29.0752 12.1748 28.9463 12.4238 28.7822 12.6816C28.624 12.9395 28.4219 13.1826 28.1758 13.4111C27.9297 13.6338 27.6338 13.8184 27.2881 13.9648C26.9424 14.1055 26.5322 14.1758 26.0576 14.1758C25.4541 14.1758 24.9062 14.0557 24.4141 13.8154C23.9277 13.5693 23.541 13.2324 23.2539 12.8047C22.9727 12.3711 22.832 11.8789 22.832 11.3281C22.832 10.8301 22.9258 10.3877 23.1133 10.001C23.3008 9.61426 23.5762 9.28906 23.9395 9.02539C24.3086 8.75586 24.7686 8.55371 25.3193 8.41895C25.8701 8.27832 26.5088 8.20801 27.2354 8.20801H28.7031ZM38.4854 11.9258V0.5H41.0342V14H38.7402L38.4854 11.9258ZM32.4736 9.35938V9.1748C32.4736 8.44824 32.5557 7.78906 32.7197 7.19727C32.8838 6.59961 33.124 6.08691 33.4404 5.65918C33.7568 5.23145 34.1465 4.90039 34.6094 4.66602C35.0723 4.43164 35.5996 4.31445 36.1914 4.31445C36.748 4.31445 37.2344 4.43164 37.6504 4.66602C38.0723 4.90039 38.4297 5.23438 38.7227 5.66797C39.0215 6.0957 39.2617 6.60254 39.4434 7.18848C39.625 7.76855 39.7568 8.4043 39.8389 9.0957V9.5C39.7568 10.1621 39.625 10.7773 39.4434 11.3457C39.2617 11.9141 39.0215 12.4121 38.7227 12.8398C38.4297 13.2617 38.0723 13.5898 37.6504 13.8242C37.2285 14.0586 36.7363 14.1758 36.1738 14.1758C35.582 14.1758 35.0547 14.0557 34.5918 13.8154C34.1348 13.5752 33.748 13.2383 33.4316 12.8047C33.1211 12.3711 32.8838 11.8613 32.7197 11.2754C32.5557 10.6895 32.4736 10.0508 32.4736 9.35938ZM35.0049 9.1748V9.35938C35.0049 9.75195 35.0342 10.1182 35.0928 10.458C35.1572 10.7979 35.2598 11.0996 35.4004 11.3633C35.5469 11.6211 35.7344 11.8232 35.9629 11.9697C36.1973 12.1104 36.4814 12.1807 36.8154 12.1807C37.249 12.1807 37.6064 12.084 37.8877 11.8906C38.1689 11.6914 38.3828 11.4189 38.5293 11.0732C38.6816 10.7275 38.7695 10.3291 38.793 9.87793V8.72656C38.7754 8.35742 38.7227 8.02637 38.6348 7.7334C38.5527 7.43457 38.4297 7.17969 38.2656 6.96875C38.1074 6.75781 37.9082 6.59375 37.668 6.47656C37.4336 6.35938 37.1553 6.30078 36.833 6.30078C36.5049 6.30078 36.2236 6.37695 35.9893 6.5293C35.7549 6.67578 35.5645 6.87793 35.418 7.13574C35.2773 7.39355 35.1719 7.69824 35.1016 8.0498C35.0371 8.39551 35.0049 8.77051 35.0049 9.1748ZM52.1523 4.49023V6.2832H46.6152V4.49023H52.1523ZM47.9863 2.14355H50.5176V11.1348C50.5176 11.4102 50.5527 11.6211 50.623 11.7676C50.6992 11.9141 50.8105 12.0166 50.957 12.0752C51.1035 12.1279 51.2881 12.1543 51.5107 12.1543C51.6689 12.1543 51.8096 12.1484 51.9326 12.1367C52.0615 12.1191 52.1699 12.1016 52.2578 12.084L52.2666 13.9473C52.0498 14.0176 51.8154 14.0732 51.5635 14.1143C51.3115 14.1553 51.0332 14.1758 50.7285 14.1758C50.1719 14.1758 49.6855 14.085 49.2695 13.9033C48.8594 13.7158 48.543 13.417 48.3203 13.0068C48.0977 12.5967 47.9863 12.0576 47.9863 11.3896V2.14355ZM56.0635 0.5V14H53.5322V0.5H56.0635ZM55.7031 8.91113H55.0088C55.0146 8.24902 55.1025 7.63965 55.2725 7.08301C55.4424 6.52051 55.6855 6.03418 56.002 5.62402C56.3184 5.20801 56.6963 4.88574 57.1357 4.65723C57.5811 4.42871 58.0732 4.31445 58.6123 4.31445C59.0811 4.31445 59.5059 4.38184 59.8867 4.5166C60.2734 4.64551 60.6045 4.85645 60.8799 5.14941C61.1611 5.43652 61.3779 5.81445 61.5303 6.2832C61.6826 6.75195 61.7588 7.32031 61.7588 7.98828V14H59.21V7.9707C59.21 7.54883 59.1484 7.21777 59.0254 6.97754C58.9082 6.73145 58.7354 6.55859 58.5068 6.45898C58.2842 6.35352 58.0088 6.30078 57.6807 6.30078C57.3174 6.30078 57.0068 6.36816 56.749 6.50293C56.4971 6.6377 56.2949 6.8252 56.1426 7.06543C55.9902 7.2998 55.8789 7.5752 55.8086 7.8916C55.7383 8.20801 55.7031 8.54785 55.7031 8.91113ZM68.0605 14.1758C67.3223 14.1758 66.6602 14.0586 66.0742 13.8242C65.4883 13.584 64.9902 13.2529 64.5801 12.8311C64.1758 12.4092 63.8652 11.9199 63.6484 11.3633C63.4316 10.8008 63.3232 10.2031 63.3232 9.57031V9.21875C63.3232 8.49805 63.4258 7.83887 63.6309 7.24121C63.8359 6.64355 64.1289 6.125 64.5098 5.68555C64.8965 5.24609 65.3652 4.90918 65.916 4.6748C66.4668 4.43457 67.0879 4.31445 67.7793 4.31445C68.4531 4.31445 69.0508 4.42578 69.5723 4.64844C70.0938 4.87109 70.5303 5.1875 70.8818 5.59766C71.2393 6.00781 71.5088 6.5 71.6904 7.07422C71.8721 7.64258 71.9629 8.27539 71.9629 8.97266V10.0273H64.4043V8.33984H69.4756V8.14648C69.4756 7.79492 69.4111 7.48145 69.2822 7.20605C69.1592 6.9248 68.9717 6.70215 68.7197 6.53809C68.4678 6.37402 68.1455 6.29199 67.7529 6.29199C67.4189 6.29199 67.1318 6.36523 66.8916 6.51172C66.6514 6.6582 66.4551 6.86328 66.3027 7.12695C66.1562 7.39062 66.0449 7.70117 65.9688 8.05859C65.8984 8.41016 65.8633 8.79688 65.8633 9.21875V9.57031C65.8633 9.95117 65.916 10.3027 66.0215 10.625C66.1328 10.9473 66.2881 11.2256 66.4873 11.46C66.6924 11.6943 66.9385 11.876 67.2256 12.0049C67.5186 12.1338 67.8496 12.1982 68.2188 12.1982C68.6758 12.1982 69.1006 12.1104 69.4932 11.9346C69.8916 11.7529 70.2344 11.4805 70.5215 11.1172L71.752 12.4531C71.5527 12.7402 71.2803 13.0156 70.9346 13.2793C70.5947 13.543 70.1846 13.7598 69.7041 13.9297C69.2236 14.0938 68.6758 14.1758 68.0605 14.1758ZM83.0195 11.8555V7.61914C83.0195 7.31445 82.9697 7.05371 82.8701 6.83691C82.7705 6.61426 82.6152 6.44141 82.4043 6.31836C82.1992 6.19531 81.9326 6.13379 81.6045 6.13379C81.3232 6.13379 81.0801 6.18359 80.875 6.2832C80.6699 6.37695 80.5117 6.51465 80.4004 6.69629C80.2891 6.87207 80.2334 7.08008 80.2334 7.32031H77.7021C77.7021 6.91602 77.7959 6.53223 77.9834 6.16895C78.1709 5.80566 78.4434 5.48633 78.8008 5.21094C79.1582 4.92969 79.583 4.70996 80.0752 4.55176C80.5732 4.39355 81.1299 4.31445 81.7451 4.31445C82.4834 4.31445 83.1396 4.4375 83.7139 4.68359C84.2881 4.92969 84.7393 5.29883 85.0674 5.79102C85.4014 6.2832 85.5684 6.89844 85.5684 7.63672V11.7061C85.5684 12.2275 85.6006 12.6553 85.665 12.9893C85.7295 13.3174 85.8232 13.6045 85.9463 13.8506V14H83.3887C83.2656 13.7422 83.1719 13.4199 83.1074 13.0332C83.0488 12.6406 83.0195 12.248 83.0195 11.8555ZM83.3535 8.20801L83.3711 9.64062H81.9561C81.6221 9.64062 81.332 9.67871 81.0859 9.75488C80.8398 9.83105 80.6377 9.93945 80.4795 10.0801C80.3213 10.2148 80.2041 10.373 80.1279 10.5547C80.0576 10.7363 80.0225 10.9355 80.0225 11.1523C80.0225 11.3691 80.0723 11.5654 80.1719 11.7412C80.2715 11.9111 80.415 12.0459 80.6025 12.1455C80.79 12.2393 81.0098 12.2861 81.2617 12.2861C81.6426 12.2861 81.9736 12.21 82.2549 12.0576C82.5361 11.9053 82.7529 11.7178 82.9053 11.4951C83.0635 11.2725 83.1455 11.0615 83.1514 10.8623L83.8193 11.9346C83.7256 12.1748 83.5967 12.4238 83.4326 12.6816C83.2744 12.9395 83.0723 13.1826 82.8262 13.4111C82.5801 13.6338 82.2842 13.8184 81.9385 13.9648C81.5928 14.1055 81.1826 14.1758 80.708 14.1758C80.1045 14.1758 79.5566 14.0557 79.0645 13.8154C78.5781 13.5693 78.1914 13.2324 77.9043 12.8047C77.623 12.3711 77.4824 11.8789 77.4824 11.3281C77.4824 10.8301 77.5762 10.3877 77.7637 10.001C77.9512 9.61426 78.2266 9.28906 78.5898 9.02539C78.959 8.75586 79.4189 8.55371 79.9697 8.41895C80.5205 8.27832 81.1592 8.20801 81.8857 8.20801H83.3535ZM90.0508 6.56445V14H87.5195V4.49023H89.9014L90.0508 6.56445ZM92.916 4.42871L92.8721 6.77539C92.749 6.75781 92.5996 6.74316 92.4238 6.73145C92.2539 6.71387 92.0986 6.70508 91.958 6.70508C91.6006 6.70508 91.29 6.75195 91.0264 6.8457C90.7686 6.93359 90.5518 7.06543 90.376 7.24121C90.2061 7.41699 90.0771 7.63086 89.9893 7.88281C89.9072 8.13477 89.8604 8.42188 89.8486 8.74414L89.3389 8.58594C89.3389 7.9707 89.4004 7.40527 89.5234 6.88965C89.6465 6.36816 89.8252 5.91406 90.0596 5.52734C90.2998 5.14062 90.5928 4.8418 90.9385 4.63086C91.2842 4.41992 91.6797 4.31445 92.125 4.31445C92.2656 4.31445 92.4092 4.32617 92.5557 4.34961C92.7021 4.36719 92.8223 4.39355 92.916 4.42871ZM99.209 4.49023V6.2832H93.6719V4.49023H99.209ZM95.043 2.14355H97.5742V11.1348C97.5742 11.4102 97.6094 11.6211 97.6797 11.7676C97.7559 11.9141 97.8672 12.0166 98.0137 12.0752C98.1602 12.1279 98.3447 12.1543 98.5674 12.1543C98.7256 12.1543 98.8662 12.1484 98.9893 12.1367C99.1182 12.1191 99.2266 12.1016 99.3145 12.084L99.3232 13.9473C99.1064 14.0176 98.8721 14.0732 98.6201 14.1143C98.3682 14.1553 98.0898 14.1758 97.7852 14.1758C97.2285 14.1758 96.7422 14.085 96.3262 13.9033C95.916 13.7158 95.5996 13.417 95.377 13.0068C95.1543 12.5967 95.043 12.0576 95.043 11.3896V2.14355ZM103.322 4.49023V14H100.782V4.49023H103.322ZM100.624 2.01172C100.624 1.64258 100.753 1.33789 101.011 1.09766C101.269 0.857422 101.614 0.737305 102.048 0.737305C102.476 0.737305 102.818 0.857422 103.076 1.09766C103.34 1.33789 103.472 1.64258 103.472 2.01172C103.472 2.38086 103.34 2.68555 103.076 2.92578C102.818 3.16602 102.476 3.28613 102.048 3.28613C101.614 3.28613 101.269 3.16602 101.011 2.92578C100.753 2.68555 100.624 2.38086 100.624 2.01172ZM109.343 12.1982C109.653 12.1982 109.929 12.1396 110.169 12.0225C110.409 11.8994 110.597 11.7295 110.731 11.5127C110.872 11.29 110.945 11.0293 110.951 10.7305H113.333C113.327 11.3984 113.148 11.9932 112.797 12.5146C112.445 13.0303 111.974 13.4375 111.382 13.7363C110.79 14.0293 110.128 14.1758 109.396 14.1758C108.657 14.1758 108.013 14.0527 107.462 13.8066C106.917 13.5605 106.463 13.2207 106.1 12.7871C105.736 12.3477 105.464 11.8379 105.282 11.2578C105.101 10.6719 105.01 10.0449 105.01 9.37695V9.12207C105.01 8.44824 105.101 7.82129 105.282 7.24121C105.464 6.65527 105.736 6.14551 106.1 5.71191C106.463 5.27246 106.917 4.92969 107.462 4.68359C108.007 4.4375 108.646 4.31445 109.378 4.31445C110.157 4.31445 110.84 4.46387 111.426 4.7627C112.018 5.06152 112.48 5.48926 112.814 6.0459C113.154 6.59668 113.327 7.25 113.333 8.00586H110.951C110.945 7.68945 110.878 7.40234 110.749 7.14453C110.626 6.88672 110.444 6.68164 110.204 6.5293C109.97 6.37109 109.68 6.29199 109.334 6.29199C108.965 6.29199 108.663 6.37109 108.429 6.5293C108.194 6.68164 108.013 6.89258 107.884 7.16211C107.755 7.42578 107.664 7.72754 107.611 8.06738C107.564 8.40137 107.541 8.75293 107.541 9.12207V9.37695C107.541 9.74609 107.564 10.1006 107.611 10.4404C107.658 10.7803 107.746 11.082 107.875 11.3457C108.01 11.6094 108.194 11.8174 108.429 11.9697C108.663 12.1221 108.968 12.1982 109.343 12.1982ZM117.473 0.5V14H114.933V0.5H117.473ZM123.941 14.1758C123.203 14.1758 122.541 14.0586 121.955 13.8242C121.369 13.584 120.871 13.2529 120.461 12.8311C120.057 12.4092 119.746 11.9199 119.529 11.3633C119.312 10.8008 119.204 10.2031 119.204 9.57031V9.21875C119.204 8.49805 119.307 7.83887 119.512 7.24121C119.717 6.64355 120.01 6.125 120.391 5.68555C120.777 5.24609 121.246 4.90918 121.797 4.6748C122.348 4.43457 122.969 4.31445 123.66 4.31445C124.334 4.31445 124.932 4.42578 125.453 4.64844C125.975 4.87109 126.411 5.1875 126.763 5.59766C127.12 6.00781 127.39 6.5 127.571 7.07422C127.753 7.64258 127.844 8.27539 127.844 8.97266V10.0273H120.285V8.33984H125.356V8.14648C125.356 7.79492 125.292 7.48145 125.163 7.20605C125.04 6.9248 124.853 6.70215 124.601 6.53809C124.349 6.37402 124.026 6.29199 123.634 6.29199C123.3 6.29199 123.013 6.36523 122.772 6.51172C122.532 6.6582 122.336 6.86328 122.184 7.12695C122.037 7.39062 121.926 7.70117 121.85 8.05859C121.779 8.41016 121.744 8.79688 121.744 9.21875V9.57031C121.744 9.95117 121.797 10.3027 121.902 10.625C122.014 10.9473 122.169 11.2256 122.368 11.46C122.573 11.6943 122.819 11.876 123.106 12.0049C123.399 12.1338 123.73 12.1982 124.1 12.1982C124.557 12.1982 124.981 12.1104 125.374 11.9346C125.772 11.7529 126.115 11.4805 126.402 11.1172L127.633 12.4531C127.434 12.7402 127.161 13.0156 126.815 13.2793C126.476 13.543 126.065 13.7598 125.585 13.9297C125.104 14.0938 124.557 14.1758 123.941 14.1758Z" fill="white"/>
<defs>
<clipPath id="clip0_1_668">
<rect width="14" height="13" fill="white" transform="translate(153 5)"/>
</clipPath>
</defs>
</svg>
