<svg width="584" height="95" viewBox="0 0 584 95" fill="none" xmlns="http://www.w3.org/2000/svg">
<path d="M575.671 10.8062L566.705 19.7719L565.232 18.299L574.197 9.33333H566.296V7.25H577.754V18.7083H575.671V10.8062Z" fill="black"/>
<path d="M423.086 44.2812V43.9609C423.086 43.513 423.227 43.1432 423.508 42.8516C423.794 42.5599 424.182 42.4141 424.672 42.4141C425.167 42.4141 425.557 42.5599 425.844 42.8516C426.13 43.1432 426.273 43.513 426.273 43.9609V44.2812C426.273 44.724 426.13 45.0911 425.844 45.3828C425.562 45.6693 425.174 45.8125 424.68 45.8125C424.19 45.8125 423.802 45.6693 423.516 45.3828C423.229 45.0911 423.086 44.724 423.086 44.2812ZM439.773 48.8125V50H432.328V48.9609L436.055 44.8125C436.513 44.3021 436.867 43.8698 437.117 43.5156C437.372 43.1562 437.549 42.8359 437.648 42.5547C437.753 42.2682 437.805 41.9766 437.805 41.6797C437.805 41.3047 437.727 40.9661 437.57 40.6641C437.419 40.3568 437.195 40.112 436.898 39.9297C436.602 39.7474 436.242 39.6562 435.82 39.6562C435.315 39.6562 434.893 39.7552 434.555 39.9531C434.221 40.1458 433.971 40.4167 433.805 40.7656C433.638 41.1146 433.555 41.5156 433.555 41.9688H432.109C432.109 41.3281 432.25 40.7422 432.531 40.2109C432.812 39.6797 433.229 39.2578 433.781 38.9453C434.333 38.6276 435.013 38.4688 435.82 38.4688C436.539 38.4688 437.154 38.5964 437.664 38.8516C438.174 39.1016 438.565 39.4557 438.836 39.9141C439.112 40.3672 439.25 40.8984 439.25 41.5078C439.25 41.8411 439.193 42.1797 439.078 42.5234C438.969 42.862 438.815 43.2005 438.617 43.5391C438.424 43.8776 438.198 44.2109 437.938 44.5391C437.682 44.8672 437.409 45.1901 437.117 45.5078L434.07 48.8125H439.773ZM448.461 43.4062V45.1406C448.461 46.0729 448.378 46.8594 448.211 47.5C448.044 48.1406 447.805 48.6562 447.492 49.0469C447.18 49.4375 446.802 49.7214 446.359 49.8984C445.922 50.0703 445.427 50.1562 444.875 50.1562C444.438 50.1562 444.034 50.1016 443.664 49.9922C443.294 49.8828 442.961 49.7083 442.664 49.4688C442.372 49.224 442.122 48.9062 441.914 48.5156C441.706 48.125 441.547 47.651 441.438 47.0938C441.328 46.5365 441.273 45.8854 441.273 45.1406V43.4062C441.273 42.474 441.357 41.6927 441.523 41.0625C441.695 40.4323 441.938 39.9271 442.25 39.5469C442.562 39.1615 442.938 38.8854 443.375 38.7188C443.818 38.5521 444.312 38.4688 444.859 38.4688C445.302 38.4688 445.708 38.5234 446.078 38.6328C446.453 38.737 446.786 38.9062 447.078 39.1406C447.37 39.3698 447.617 39.6771 447.82 40.0625C448.029 40.4427 448.188 40.9089 448.297 41.4609C448.406 42.013 448.461 42.6615 448.461 43.4062ZM447.008 45.375V43.1641C447.008 42.6536 446.977 42.2057 446.914 41.8203C446.857 41.4297 446.771 41.0964 446.656 40.8203C446.542 40.5443 446.396 40.3203 446.219 40.1484C446.047 39.9766 445.846 39.8516 445.617 39.7734C445.393 39.6901 445.141 39.6484 444.859 39.6484C444.516 39.6484 444.211 39.7135 443.945 39.8438C443.68 39.9688 443.456 40.1693 443.273 40.4453C443.096 40.7214 442.961 41.0833 442.867 41.5312C442.773 41.9792 442.727 42.5234 442.727 43.1641V45.375C442.727 45.8854 442.755 46.3359 442.812 46.7266C442.875 47.1172 442.966 47.4557 443.086 47.7422C443.206 48.0234 443.352 48.2552 443.523 48.4375C443.695 48.6198 443.893 48.7552 444.117 48.8438C444.346 48.9271 444.599 48.9688 444.875 48.9688C445.229 48.9688 445.539 48.901 445.805 48.7656C446.07 48.6302 446.292 48.4193 446.469 48.1328C446.651 47.8411 446.786 47.4688 446.875 47.0156C446.964 46.5573 447.008 46.0104 447.008 45.375ZM457.461 43.4062V45.1406C457.461 46.0729 457.378 46.8594 457.211 47.5C457.044 48.1406 456.805 48.6562 456.492 49.0469C456.18 49.4375 455.802 49.7214 455.359 49.8984C454.922 50.0703 454.427 50.1562 453.875 50.1562C453.438 50.1562 453.034 50.1016 452.664 49.9922C452.294 49.8828 451.961 49.7083 451.664 49.4688C451.372 49.224 451.122 48.9062 450.914 48.5156C450.706 48.125 450.547 47.651 450.438 47.0938C450.328 46.5365 450.273 45.8854 450.273 45.1406V43.4062C450.273 42.474 450.357 41.6927 450.523 41.0625C450.695 40.4323 450.938 39.9271 451.25 39.5469C451.562 39.1615 451.938 38.8854 452.375 38.7188C452.818 38.5521 453.312 38.4688 453.859 38.4688C454.302 38.4688 454.708 38.5234 455.078 38.6328C455.453 38.737 455.786 38.9062 456.078 39.1406C456.37 39.3698 456.617 39.6771 456.82 40.0625C457.029 40.4427 457.188 40.9089 457.297 41.4609C457.406 42.013 457.461 42.6615 457.461 43.4062ZM456.008 45.375V43.1641C456.008 42.6536 455.977 42.2057 455.914 41.8203C455.857 41.4297 455.771 41.0964 455.656 40.8203C455.542 40.5443 455.396 40.3203 455.219 40.1484C455.047 39.9766 454.846 39.8516 454.617 39.7734C454.393 39.6901 454.141 39.6484 453.859 39.6484C453.516 39.6484 453.211 39.7135 452.945 39.8438C452.68 39.9688 452.456 40.1693 452.273 40.4453C452.096 40.7214 451.961 41.0833 451.867 41.5312C451.773 41.9792 451.727 42.5234 451.727 43.1641V45.375C451.727 45.8854 451.755 46.3359 451.812 46.7266C451.875 47.1172 451.966 47.4557 452.086 47.7422C452.206 48.0234 452.352 48.2552 452.523 48.4375C452.695 48.6198 452.893 48.7552 453.117 48.8438C453.346 48.9271 453.599 48.9688 453.875 48.9688C454.229 48.9688 454.539 48.901 454.805 48.7656C455.07 48.6302 455.292 48.4193 455.469 48.1328C455.651 47.8411 455.786 47.4688 455.875 47.0156C455.964 46.5573 456.008 46.0104 456.008 45.375ZM460.758 48.7891H460.906C461.74 48.7891 462.417 48.6719 462.938 48.4375C463.458 48.2031 463.859 47.888 464.141 47.4922C464.422 47.0964 464.615 46.651 464.719 46.1562C464.823 45.6562 464.875 45.1432 464.875 44.6172V42.875C464.875 42.3594 464.815 41.901 464.695 41.5C464.581 41.099 464.419 40.763 464.211 40.4922C464.008 40.2214 463.776 40.0156 463.516 39.875C463.255 39.7344 462.979 39.6641 462.688 39.6641C462.354 39.6641 462.055 39.7318 461.789 39.8672C461.529 39.9974 461.307 40.1823 461.125 40.4219C460.948 40.6615 460.812 40.9427 460.719 41.2656C460.625 41.5885 460.578 41.9401 460.578 42.3203C460.578 42.6589 460.62 42.987 460.703 43.3047C460.786 43.6224 460.914 43.9089 461.086 44.1641C461.258 44.4193 461.471 44.6224 461.727 44.7734C461.987 44.9193 462.292 44.9922 462.641 44.9922C462.964 44.9922 463.266 44.9297 463.547 44.8047C463.833 44.6745 464.086 44.5 464.305 44.2812C464.529 44.0573 464.706 43.8047 464.836 43.5234C464.971 43.2422 465.049 42.9479 465.07 42.6406H465.758C465.758 43.0729 465.672 43.5 465.5 43.9219C465.333 44.3385 465.099 44.7188 464.797 45.0625C464.495 45.4062 464.141 45.6823 463.734 45.8906C463.328 46.0938 462.885 46.1953 462.406 46.1953C461.844 46.1953 461.357 46.0859 460.945 45.8672C460.534 45.6484 460.195 45.3568 459.93 44.9922C459.669 44.6276 459.474 44.2214 459.344 43.7734C459.219 43.3203 459.156 42.862 459.156 42.3984C459.156 41.8568 459.232 41.349 459.383 40.875C459.534 40.401 459.758 39.9844 460.055 39.625C460.352 39.2604 460.719 38.9766 461.156 38.7734C461.599 38.5703 462.109 38.4688 462.688 38.4688C463.339 38.4688 463.893 38.599 464.352 38.8594C464.81 39.1198 465.182 39.4688 465.469 39.9062C465.76 40.3438 465.974 40.8359 466.109 41.3828C466.245 41.9297 466.312 42.4922 466.312 43.0703V43.5938C466.312 44.1823 466.273 44.7812 466.195 45.3906C466.122 45.9948 465.979 46.5729 465.766 47.125C465.557 47.6771 465.253 48.1719 464.852 48.6094C464.451 49.0417 463.927 49.3854 463.281 49.6406C462.641 49.8906 461.849 50.0156 460.906 50.0156H460.758V48.7891ZM471.484 44.5703V45.7578H467.672V44.5703H471.484ZM480.195 48.8125V50H472.75V48.9609L476.477 44.8125C476.935 44.3021 477.289 43.8698 477.539 43.5156C477.794 43.1562 477.971 42.8359 478.07 42.5547C478.174 42.2682 478.227 41.9766 478.227 41.6797C478.227 41.3047 478.148 40.9661 477.992 40.6641C477.841 40.3568 477.617 40.112 477.32 39.9297C477.023 39.7474 476.664 39.6562 476.242 39.6562C475.737 39.6562 475.315 39.7552 474.977 39.9531C474.643 40.1458 474.393 40.4167 474.227 40.7656C474.06 41.1146 473.977 41.5156 473.977 41.9688H472.531C472.531 41.3281 472.672 40.7422 472.953 40.2109C473.234 39.6797 473.651 39.2578 474.203 38.9453C474.755 38.6276 475.435 38.4688 476.242 38.4688C476.961 38.4688 477.576 38.5964 478.086 38.8516C478.596 39.1016 478.987 39.4557 479.258 39.9141C479.534 40.3672 479.672 40.8984 479.672 41.5078C479.672 41.8411 479.615 42.1797 479.5 42.5234C479.391 42.862 479.237 43.2005 479.039 43.5391C478.846 43.8776 478.62 44.2109 478.359 44.5391C478.104 44.8672 477.831 45.1901 477.539 45.5078L474.492 48.8125H480.195ZM488.883 43.4062V45.1406C488.883 46.0729 488.799 46.8594 488.633 47.5C488.466 48.1406 488.227 48.6562 487.914 49.0469C487.602 49.4375 487.224 49.7214 486.781 49.8984C486.344 50.0703 485.849 50.1562 485.297 50.1562C484.859 50.1562 484.456 50.1016 484.086 49.9922C483.716 49.8828 483.383 49.7083 483.086 49.4688C482.794 49.224 482.544 48.9062 482.336 48.5156C482.128 48.125 481.969 47.651 481.859 47.0938C481.75 46.5365 481.695 45.8854 481.695 45.1406V43.4062C481.695 42.474 481.779 41.6927 481.945 41.0625C482.117 40.4323 482.359 39.9271 482.672 39.5469C482.984 39.1615 483.359 38.8854 483.797 38.7188C484.24 38.5521 484.734 38.4688 485.281 38.4688C485.724 38.4688 486.13 38.5234 486.5 38.6328C486.875 38.737 487.208 38.9062 487.5 39.1406C487.792 39.3698 488.039 39.6771 488.242 40.0625C488.451 40.4427 488.609 40.9089 488.719 41.4609C488.828 42.013 488.883 42.6615 488.883 43.4062ZM487.43 45.375V43.1641C487.43 42.6536 487.398 42.2057 487.336 41.8203C487.279 41.4297 487.193 41.0964 487.078 40.8203C486.964 40.5443 486.818 40.3203 486.641 40.1484C486.469 39.9766 486.268 39.8516 486.039 39.7734C485.815 39.6901 485.562 39.6484 485.281 39.6484C484.938 39.6484 484.633 39.7135 484.367 39.8438C484.102 39.9688 483.878 40.1693 483.695 40.4453C483.518 40.7214 483.383 41.0833 483.289 41.5312C483.195 41.9792 483.148 42.5234 483.148 43.1641V45.375C483.148 45.8854 483.177 46.3359 483.234 46.7266C483.297 47.1172 483.388 47.4557 483.508 47.7422C483.628 48.0234 483.773 48.2552 483.945 48.4375C484.117 48.6198 484.315 48.7552 484.539 48.8438C484.768 48.9271 485.021 48.9688 485.297 48.9688C485.651 48.9688 485.961 48.901 486.227 48.7656C486.492 48.6302 486.714 48.4193 486.891 48.1328C487.073 47.8411 487.208 47.4688 487.297 47.0156C487.385 46.5573 487.43 46.0104 487.43 45.375ZM495.492 38.5625V50H494.047V40.3672L491.133 41.4297V40.125L495.266 38.5625H495.492ZM507.195 48.8125V50H499.75V48.9609L503.477 44.8125C503.935 44.3021 504.289 43.8698 504.539 43.5156C504.794 43.1562 504.971 42.8359 505.07 42.5547C505.174 42.2682 505.227 41.9766 505.227 41.6797C505.227 41.3047 505.148 40.9661 504.992 40.6641C504.841 40.3568 504.617 40.112 504.32 39.9297C504.023 39.7474 503.664 39.6562 503.242 39.6562C502.737 39.6562 502.315 39.7552 501.977 39.9531C501.643 40.1458 501.393 40.4167 501.227 40.7656C501.06 41.1146 500.977 41.5156 500.977 41.9688H499.531C499.531 41.3281 499.672 40.7422 499.953 40.2109C500.234 39.6797 500.651 39.2578 501.203 38.9453C501.755 38.6276 502.435 38.4688 503.242 38.4688C503.961 38.4688 504.576 38.5964 505.086 38.8516C505.596 39.1016 505.987 39.4557 506.258 39.9141C506.534 40.3672 506.672 40.8984 506.672 41.5078C506.672 41.8411 506.615 42.1797 506.5 42.5234C506.391 42.862 506.237 43.2005 506.039 43.5391C505.846 43.8776 505.62 44.2109 505.359 44.5391C505.104 44.8672 504.831 45.1901 504.539 45.5078L501.492 48.8125H507.195Z" fill="black" fill-opacity="0.6"/>
<g clip-path="url(#clip0_1_754)">
<path d="M1 94H584V95H1V94Z" fill="#E5E5E5"/>
</g>
<path d="M12.4141 13.3398H15.918C15.8477 14.4883 15.5312 15.5078 14.9688 16.3984C14.4141 17.2891 13.6367 17.9844 12.6367 18.4844C11.6445 18.9844 10.4492 19.2344 9.05078 19.2344C7.95703 19.2344 6.97656 19.0469 6.10938 18.6719C5.24219 18.2891 4.5 17.7422 3.88281 17.0312C3.27344 16.3203 2.80859 15.4609 2.48828 14.4531C2.16797 13.4453 2.00781 12.3164 2.00781 11.0664V9.88281C2.00781 8.63281 2.17188 7.50391 2.5 6.49609C2.83594 5.48047 3.3125 4.61719 3.92969 3.90625C4.55469 3.19531 5.30078 2.64844 6.16797 2.26562C7.03516 1.88281 8.00391 1.69141 9.07422 1.69141C10.4961 1.69141 11.6953 1.94922 12.6719 2.46484C13.6562 2.98047 14.418 3.69141 14.957 4.59766C15.5039 5.50391 15.832 6.53516 15.9414 7.69141H12.4258C12.3867 7.00391 12.25 6.42188 12.0156 5.94531C11.7812 5.46094 11.4258 5.09766 10.9492 4.85547C10.4805 4.60547 9.85547 4.48047 9.07422 4.48047C8.48828 4.48047 7.97656 4.58984 7.53906 4.80859C7.10156 5.02734 6.73438 5.35938 6.4375 5.80469C6.14062 6.25 5.91797 6.8125 5.76953 7.49219C5.62891 8.16406 5.55859 8.95312 5.55859 9.85938V11.0664C5.55859 11.9492 5.625 12.7266 5.75781 13.3984C5.89062 14.0625 6.09375 14.625 6.36719 15.0859C6.64844 15.5391 7.00781 15.8828 7.44531 16.1172C7.89062 16.3438 8.42578 16.457 9.05078 16.457C9.78516 16.457 10.3906 16.3398 10.8672 16.1055C11.3438 15.8711 11.707 15.5234 11.957 15.0625C12.2148 14.6016 12.3672 14.0273 12.4141 13.3398ZM24.8594 16.1406V10.4922C24.8594 10.0859 24.793 9.73828 24.6602 9.44922C24.5273 9.15234 24.3203 8.92188 24.0391 8.75781C23.7656 8.59375 23.4102 8.51172 22.9727 8.51172C22.5977 8.51172 22.2734 8.57812 22 8.71094C21.7266 8.83594 21.5156 9.01953 21.3672 9.26172C21.2188 9.49609 21.1445 9.77344 21.1445 10.0938H17.7695C17.7695 9.55469 17.8945 9.04297 18.1445 8.55859C18.3945 8.07422 18.7578 7.64844 19.2344 7.28125C19.7109 6.90625 20.2773 6.61328 20.9336 6.40234C21.5977 6.19141 22.3398 6.08594 23.1602 6.08594C24.1445 6.08594 25.0195 6.25 25.7852 6.57812C26.5508 6.90625 27.1523 7.39844 27.5898 8.05469C28.0352 8.71094 28.2578 9.53125 28.2578 10.5156V15.9414C28.2578 16.6367 28.3008 17.207 28.3867 17.6523C28.4727 18.0898 28.5977 18.4727 28.7617 18.8008V19H25.3516C25.1875 18.6562 25.0625 18.2266 24.9766 17.7109C24.8984 17.1875 24.8594 16.6641 24.8594 16.1406ZM25.3047 11.2773L25.3281 13.1875H23.4414C22.9961 13.1875 22.6094 13.2383 22.2812 13.3398C21.9531 13.4414 21.6836 13.5859 21.4727 13.7734C21.2617 13.9531 21.1055 14.1641 21.0039 14.4062C20.9102 14.6484 20.8633 14.9141 20.8633 15.2031C20.8633 15.4922 20.9297 15.7539 21.0625 15.9883C21.1953 16.2148 21.3867 16.3945 21.6367 16.5273C21.8867 16.6523 22.1797 16.7148 22.5156 16.7148C23.0234 16.7148 23.4648 16.6133 23.8398 16.4102C24.2148 16.207 24.5039 15.957 24.707 15.6602C24.918 15.3633 25.0273 15.082 25.0352 14.8164L25.9258 16.2461C25.8008 16.5664 25.6289 16.8984 25.4102 17.2422C25.1992 17.5859 24.9297 17.9102 24.6016 18.2148C24.2734 18.5117 23.8789 18.7578 23.418 18.9531C22.957 19.1406 22.4102 19.2344 21.7773 19.2344C20.9727 19.2344 20.2422 19.0742 19.5859 18.7539C18.9375 18.4258 18.4219 17.9766 18.0391 17.4062C17.6641 16.8281 17.4766 16.1719 17.4766 15.4375C17.4766 14.7734 17.6016 14.1836 17.8516 13.668C18.1016 13.1523 18.4688 12.7188 18.9531 12.3672C19.4453 12.0078 20.0586 11.7383 20.793 11.5586C21.5273 11.3711 22.3789 11.2773 23.3477 11.2773H25.3047ZM34.4219 1V19H31.0352V1H34.4219ZM40.7734 6.32031V19H37.3867V6.32031H40.7734ZM37.1758 3.01562C37.1758 2.52344 37.3477 2.11719 37.6914 1.79688C38.0352 1.47656 38.4961 1.31641 39.0742 1.31641C39.6445 1.31641 40.1016 1.47656 40.4453 1.79688C40.7969 2.11719 40.9727 2.52344 40.9727 3.01562C40.9727 3.50781 40.7969 3.91406 40.4453 4.23438C40.1016 4.55469 39.6445 4.71484 39.0742 4.71484C38.4961 4.71484 38.0352 4.55469 37.6914 4.23438C37.3477 3.91406 37.1758 3.50781 37.1758 3.01562ZM47.8633 19H44.4648V5.19531C44.4648 4.23438 44.6523 3.42578 45.0273 2.76953C45.4102 2.10547 45.9453 1.60547 46.6328 1.26953C47.3281 0.925781 48.1523 0.753906 49.1055 0.753906C49.418 0.753906 49.7188 0.777344 50.0078 0.824219C50.2969 0.863281 50.5781 0.914063 50.8516 0.976562L50.8164 3.51953C50.668 3.48047 50.5117 3.45312 50.3477 3.4375C50.1836 3.42188 49.9922 3.41406 49.7734 3.41406C49.3672 3.41406 49.0195 3.48438 48.7305 3.625C48.4492 3.75781 48.2344 3.95703 48.0859 4.22266C47.9375 4.48828 47.8633 4.8125 47.8633 5.19531V19ZM50.3945 6.32031V8.71094H42.5781V6.32031H50.3945ZM51.625 12.7891V12.543C51.625 11.6133 51.7578 10.7578 52.0234 9.97656C52.2891 9.1875 52.6758 8.50391 53.1836 7.92578C53.6914 7.34766 54.3164 6.89844 55.0586 6.57812C55.8008 6.25 56.6523 6.08594 57.6133 6.08594C58.5742 6.08594 59.4297 6.25 60.1797 6.57812C60.9297 6.89844 61.5586 7.34766 62.0664 7.92578C62.582 8.50391 62.9727 9.1875 63.2383 9.97656C63.5039 10.7578 63.6367 11.6133 63.6367 12.543V12.7891C63.6367 13.7109 63.5039 14.5664 63.2383 15.3555C62.9727 16.1367 62.582 16.8203 62.0664 17.4062C61.5586 17.9844 60.9336 18.4336 60.1914 18.7539C59.4492 19.0742 58.5977 19.2344 57.6367 19.2344C56.6758 19.2344 55.8203 19.0742 55.0703 18.7539C54.3281 18.4336 53.6992 17.9844 53.1836 17.4062C52.6758 16.8203 52.2891 16.1367 52.0234 15.3555C51.7578 14.5664 51.625 13.7109 51.625 12.7891ZM55 12.543V12.7891C55 13.3203 55.0469 13.8164 55.1406 14.2773C55.2344 14.7383 55.3828 15.1445 55.5859 15.4961C55.7969 15.8398 56.0703 16.1094 56.4062 16.3047C56.7422 16.5 57.1523 16.5977 57.6367 16.5977C58.1055 16.5977 58.5078 16.5 58.8438 16.3047C59.1797 16.1094 59.4492 15.8398 59.6523 15.4961C59.8555 15.1445 60.0039 14.7383 60.0977 14.2773C60.1992 13.8164 60.25 13.3203 60.25 12.7891V12.543C60.25 12.0273 60.1992 11.543 60.0977 11.0898C60.0039 10.6289 59.8516 10.2227 59.6406 9.87109C59.4375 9.51172 59.168 9.23047 58.832 9.02734C58.4961 8.82422 58.0898 8.72266 57.6133 8.72266C57.1367 8.72266 56.7305 8.82422 56.3945 9.02734C56.0664 9.23047 55.7969 9.51172 55.5859 9.87109C55.3828 10.2227 55.2344 10.6289 55.1406 11.0898C55.0469 11.543 55 12.0273 55 12.543ZM69.0859 9.08594V19H65.7109V6.32031H68.8867L69.0859 9.08594ZM72.9062 6.23828L72.8477 9.36719C72.6836 9.34375 72.4844 9.32422 72.25 9.30859C72.0234 9.28516 71.8164 9.27344 71.6289 9.27344C71.1523 9.27344 70.7383 9.33594 70.3867 9.46094C70.043 9.57812 69.7539 9.75391 69.5195 9.98828C69.293 10.2227 69.1211 10.5078 69.0039 10.8438C68.8945 11.1797 68.832 11.5625 68.8164 11.9922L68.1367 11.7812C68.1367 10.9609 68.2188 10.207 68.3828 9.51953C68.5469 8.82422 68.7852 8.21875 69.0977 7.70312C69.418 7.1875 69.8086 6.78906 70.2695 6.50781C70.7305 6.22656 71.2578 6.08594 71.8516 6.08594C72.0391 6.08594 72.2305 6.10156 72.4258 6.13281C72.6211 6.15625 72.7812 6.19141 72.9062 6.23828ZM77.8047 9.02734V19H74.4297V6.32031H77.5938L77.8047 9.02734ZM77.3125 12.2148H76.3984C76.3984 11.2773 76.5195 10.4336 76.7617 9.68359C77.0039 8.92578 77.3438 8.28125 77.7812 7.75C78.2188 7.21094 78.7383 6.80078 79.3398 6.51953C79.9492 6.23047 80.6289 6.08594 81.3789 6.08594C81.9727 6.08594 82.5156 6.17188 83.0078 6.34375C83.5 6.51562 83.9219 6.78906 84.2734 7.16406C84.6328 7.53906 84.9062 8.03516 85.0938 8.65234C85.2891 9.26953 85.3867 10.0234 85.3867 10.9141V19H81.9883V10.9023C81.9883 10.3398 81.9102 9.90234 81.7539 9.58984C81.5977 9.27734 81.3672 9.05859 81.0625 8.93359C80.7656 8.80078 80.3984 8.73438 79.9609 8.73438C79.5078 8.73438 79.1133 8.82422 78.7773 9.00391C78.4492 9.18359 78.1758 9.43359 77.957 9.75391C77.7461 10.0664 77.5859 10.4336 77.4766 10.8555C77.3672 11.2773 77.3125 11.7305 77.3125 12.2148ZM91.5156 6.32031V19H88.1289V6.32031H91.5156ZM87.918 3.01562C87.918 2.52344 88.0898 2.11719 88.4336 1.79688C88.7773 1.47656 89.2383 1.31641 89.8164 1.31641C90.3867 1.31641 90.8438 1.47656 91.1875 1.79688C91.5391 2.11719 91.7148 2.52344 91.7148 3.01562C91.7148 3.50781 91.5391 3.91406 91.1875 4.23438C90.8438 4.55469 90.3867 4.71484 89.8164 4.71484C89.2383 4.71484 88.7773 4.55469 88.4336 4.23438C88.0898 3.91406 87.918 3.50781 87.918 3.01562ZM101.148 16.1406V10.4922C101.148 10.0859 101.082 9.73828 100.949 9.44922C100.816 9.15234 100.609 8.92188 100.328 8.75781C100.055 8.59375 99.6992 8.51172 99.2617 8.51172C98.8867 8.51172 98.5625 8.57812 98.2891 8.71094C98.0156 8.83594 97.8047 9.01953 97.6562 9.26172C97.5078 9.49609 97.4336 9.77344 97.4336 10.0938H94.0586C94.0586 9.55469 94.1836 9.04297 94.4336 8.55859C94.6836 8.07422 95.0469 7.64844 95.5234 7.28125C96 6.90625 96.5664 6.61328 97.2227 6.40234C97.8867 6.19141 98.6289 6.08594 99.4492 6.08594C100.434 6.08594 101.309 6.25 102.074 6.57812C102.84 6.90625 103.441 7.39844 103.879 8.05469C104.324 8.71094 104.547 9.53125 104.547 10.5156V15.9414C104.547 16.6367 104.59 17.207 104.676 17.6523C104.762 18.0898 104.887 18.4727 105.051 18.8008V19H101.641C101.477 18.6562 101.352 18.2266 101.266 17.7109C101.188 17.1875 101.148 16.6641 101.148 16.1406ZM101.594 11.2773L101.617 13.1875H99.7305C99.2852 13.1875 98.8984 13.2383 98.5703 13.3398C98.2422 13.4414 97.9727 13.5859 97.7617 13.7734C97.5508 13.9531 97.3945 14.1641 97.293 14.4062C97.1992 14.6484 97.1523 14.9141 97.1523 15.2031C97.1523 15.4922 97.2188 15.7539 97.3516 15.9883C97.4844 16.2148 97.6758 16.3945 97.9258 16.5273C98.1758 16.6523 98.4688 16.7148 98.8047 16.7148C99.3125 16.7148 99.7539 16.6133 100.129 16.4102C100.504 16.207 100.793 15.957 100.996 15.6602C101.207 15.3633 101.316 15.082 101.324 14.8164L102.215 16.2461C102.09 16.5664 101.918 16.8984 101.699 17.2422C101.488 17.5859 101.219 17.9102 100.891 18.2148C100.562 18.5117 100.168 18.7578 99.707 18.9531C99.2461 19.1406 98.6992 19.2344 98.0664 19.2344C97.2617 19.2344 96.5312 19.0742 95.875 18.7539C95.2266 18.4258 94.7109 17.9766 94.3281 17.4062C93.9531 16.8281 93.7656 16.1719 93.7656 15.4375C93.7656 14.7734 93.8906 14.1836 94.1406 13.668C94.3906 13.1523 94.7578 12.7188 95.2422 12.3672C95.7344 12.0078 96.3477 11.7383 97.082 11.5586C97.8164 11.3711 98.668 11.2773 99.6367 11.2773H101.594ZM122.219 14.5352C122.219 14.2305 122.172 13.957 122.078 13.7148C121.992 13.4648 121.828 13.2383 121.586 13.0352C121.344 12.8242 121.004 12.6172 120.566 12.4141C120.129 12.2109 119.562 12 118.867 11.7812C118.094 11.5312 117.359 11.25 116.664 10.9375C115.977 10.625 115.367 10.2617 114.836 9.84766C114.312 9.42578 113.898 8.9375 113.594 8.38281C113.297 7.82812 113.148 7.18359 113.148 6.44922C113.148 5.73828 113.305 5.09375 113.617 4.51562C113.93 3.92969 114.367 3.42969 114.93 3.01562C115.492 2.59375 116.156 2.26953 116.922 2.04297C117.695 1.81641 118.543 1.70312 119.465 1.70312C120.723 1.70312 121.82 1.92969 122.758 2.38281C123.695 2.83594 124.422 3.45703 124.938 4.24609C125.461 5.03516 125.723 5.9375 125.723 6.95312H122.23C122.23 6.45312 122.125 6.01562 121.914 5.64062C121.711 5.25781 121.398 4.95703 120.977 4.73828C120.562 4.51953 120.039 4.41016 119.406 4.41016C118.797 4.41016 118.289 4.50391 117.883 4.69141C117.477 4.87109 117.172 5.11719 116.969 5.42969C116.766 5.73438 116.664 6.07812 116.664 6.46094C116.664 6.75 116.734 7.01172 116.875 7.24609C117.023 7.48047 117.242 7.69922 117.531 7.90234C117.82 8.10547 118.176 8.29688 118.598 8.47656C119.02 8.65625 119.508 8.83203 120.062 9.00391C120.992 9.28516 121.809 9.60156 122.512 9.95312C123.223 10.3047 123.816 10.6992 124.293 11.1367C124.77 11.5742 125.129 12.0703 125.371 12.625C125.613 13.1797 125.734 13.8086 125.734 14.5117C125.734 15.2539 125.59 15.918 125.301 16.5039C125.012 17.0898 124.594 17.5859 124.047 17.9922C123.5 18.3984 122.848 18.707 122.09 18.918C121.332 19.1289 120.484 19.2344 119.547 19.2344C118.703 19.2344 117.871 19.125 117.051 18.9062C116.23 18.6797 115.484 18.3398 114.812 17.8867C114.148 17.4336 113.617 16.8555 113.219 16.1523C112.82 15.4492 112.621 14.6172 112.621 13.6562H116.148C116.148 14.1875 116.23 14.6367 116.395 15.0039C116.559 15.3711 116.789 15.668 117.086 15.8945C117.391 16.1211 117.75 16.2852 118.164 16.3867C118.586 16.4883 119.047 16.5391 119.547 16.5391C120.156 16.5391 120.656 16.4531 121.047 16.2812C121.445 16.1094 121.738 15.8711 121.926 15.5664C122.121 15.2617 122.219 14.918 122.219 14.5352ZM134.125 6.32031V8.71094H126.742V6.32031H134.125ZM128.57 3.19141H131.945V15.1797C131.945 15.5469 131.992 15.8281 132.086 16.0234C132.188 16.2188 132.336 16.3555 132.531 16.4336C132.727 16.5039 132.973 16.5391 133.27 16.5391C133.48 16.5391 133.668 16.5312 133.832 16.5156C134.004 16.4922 134.148 16.4688 134.266 16.4453L134.277 18.9297C133.988 19.0234 133.676 19.0977 133.34 19.1523C133.004 19.207 132.633 19.2344 132.227 19.2344C131.484 19.2344 130.836 19.1133 130.281 18.8711C129.734 18.6211 129.312 18.2227 129.016 17.6758C128.719 17.1289 128.57 16.4102 128.57 15.5195V3.19141ZM142.891 16.1406V10.4922C142.891 10.0859 142.824 9.73828 142.691 9.44922C142.559 9.15234 142.352 8.92188 142.07 8.75781C141.797 8.59375 141.441 8.51172 141.004 8.51172C140.629 8.51172 140.305 8.57812 140.031 8.71094C139.758 8.83594 139.547 9.01953 139.398 9.26172C139.25 9.49609 139.176 9.77344 139.176 10.0938H135.801C135.801 9.55469 135.926 9.04297 136.176 8.55859C136.426 8.07422 136.789 7.64844 137.266 7.28125C137.742 6.90625 138.309 6.61328 138.965 6.40234C139.629 6.19141 140.371 6.08594 141.191 6.08594C142.176 6.08594 143.051 6.25 143.816 6.57812C144.582 6.90625 145.184 7.39844 145.621 8.05469C146.066 8.71094 146.289 9.53125 146.289 10.5156V15.9414C146.289 16.6367 146.332 17.207 146.418 17.6523C146.504 18.0898 146.629 18.4727 146.793 18.8008V19H143.383C143.219 18.6562 143.094 18.2266 143.008 17.7109C142.93 17.1875 142.891 16.6641 142.891 16.1406ZM143.336 11.2773L143.359 13.1875H141.473C141.027 13.1875 140.641 13.2383 140.312 13.3398C139.984 13.4414 139.715 13.5859 139.504 13.7734C139.293 13.9531 139.137 14.1641 139.035 14.4062C138.941 14.6484 138.895 14.9141 138.895 15.2031C138.895 15.4922 138.961 15.7539 139.094 15.9883C139.227 16.2148 139.418 16.3945 139.668 16.5273C139.918 16.6523 140.211 16.7148 140.547 16.7148C141.055 16.7148 141.496 16.6133 141.871 16.4102C142.246 16.207 142.535 15.957 142.738 15.6602C142.949 15.3633 143.059 15.082 143.066 14.8164L143.957 16.2461C143.832 16.5664 143.66 16.8984 143.441 17.2422C143.23 17.5859 142.961 17.9102 142.633 18.2148C142.305 18.5117 141.91 18.7578 141.449 18.9531C140.988 19.1406 140.441 19.2344 139.809 19.2344C139.004 19.2344 138.273 19.0742 137.617 18.7539C136.969 18.4258 136.453 17.9766 136.07 17.4062C135.695 16.8281 135.508 16.1719 135.508 15.4375C135.508 14.7734 135.633 14.1836 135.883 13.668C136.133 13.1523 136.5 12.7188 136.984 12.3672C137.477 12.0078 138.09 11.7383 138.824 11.5586C139.559 11.3711 140.41 11.2773 141.379 11.2773H143.336ZM155.102 6.32031V8.71094H147.719V6.32031H155.102ZM149.547 3.19141H152.922V15.1797C152.922 15.5469 152.969 15.8281 153.062 16.0234C153.164 16.2188 153.312 16.3555 153.508 16.4336C153.703 16.5039 153.949 16.5391 154.246 16.5391C154.457 16.5391 154.645 16.5312 154.809 16.5156C154.98 16.4922 155.125 16.4688 155.242 16.4453L155.254 18.9297C154.965 19.0234 154.652 19.0977 154.316 19.1523C153.98 19.207 153.609 19.2344 153.203 19.2344C152.461 19.2344 151.812 19.1133 151.258 18.8711C150.711 18.6211 150.289 18.2227 149.992 17.6758C149.695 17.1289 149.547 16.4102 149.547 15.5195V3.19141ZM162.859 19.2344C161.875 19.2344 160.992 19.0781 160.211 18.7656C159.43 18.4453 158.766 18.0039 158.219 17.4414C157.68 16.8789 157.266 16.2266 156.977 15.4844C156.688 14.7344 156.543 13.9375 156.543 13.0938V12.625C156.543 11.6641 156.68 10.7852 156.953 9.98828C157.227 9.19141 157.617 8.5 158.125 7.91406C158.641 7.32812 159.266 6.87891 160 6.56641C160.734 6.24609 161.562 6.08594 162.484 6.08594C163.383 6.08594 164.18 6.23438 164.875 6.53125C165.57 6.82812 166.152 7.25 166.621 7.79688C167.098 8.34375 167.457 9 167.699 9.76562C167.941 10.5234 168.062 11.3672 168.062 12.2969V13.7031H157.984V11.4531H164.746V11.1953C164.746 10.7266 164.66 10.3086 164.488 9.94141C164.324 9.56641 164.074 9.26953 163.738 9.05078C163.402 8.83203 162.973 8.72266 162.449 8.72266C162.004 8.72266 161.621 8.82031 161.301 9.01562C160.98 9.21094 160.719 9.48438 160.516 9.83594C160.32 10.1875 160.172 10.6016 160.07 11.0781C159.977 11.5469 159.93 12.0625 159.93 12.625V13.0938C159.93 13.6016 160 14.0703 160.141 14.5C160.289 14.9297 160.496 15.3008 160.762 15.6133C161.035 15.9258 161.363 16.168 161.746 16.3398C162.137 16.5117 162.578 16.5977 163.07 16.5977C163.68 16.5977 164.246 16.4805 164.77 16.2461C165.301 16.0039 165.758 15.6406 166.141 15.1562L167.781 16.9375C167.516 17.3203 167.152 17.6875 166.691 18.0391C166.238 18.3906 165.691 18.6797 165.051 18.9062C164.41 19.125 163.68 19.2344 162.859 19.2344ZM185.594 1.9375H189.098V13.2109C189.098 14.5234 188.816 15.6289 188.254 16.5273C187.699 17.4258 186.93 18.1016 185.945 18.5547C184.969 19.0078 183.844 19.2344 182.57 19.2344C181.297 19.2344 180.164 19.0078 179.172 18.5547C178.188 18.1016 177.414 17.4258 176.852 16.5273C176.297 15.6289 176.02 14.5234 176.02 13.2109V1.9375H179.535V13.2109C179.535 13.9766 179.656 14.6016 179.898 15.0859C180.141 15.5703 180.488 15.9258 180.941 16.1523C181.402 16.3789 181.945 16.4922 182.57 16.4922C183.211 16.4922 183.754 16.3789 184.199 16.1523C184.652 15.9258 184.996 15.5703 185.23 15.0859C185.473 14.6016 185.594 13.9766 185.594 13.2109V1.9375ZM195.086 9.02734V19H191.711V6.32031H194.875L195.086 9.02734ZM194.594 12.2148H193.68C193.68 11.2773 193.801 10.4336 194.043 9.68359C194.285 8.92578 194.625 8.28125 195.062 7.75C195.5 7.21094 196.02 6.80078 196.621 6.51953C197.23 6.23047 197.91 6.08594 198.66 6.08594C199.254 6.08594 199.797 6.17188 200.289 6.34375C200.781 6.51562 201.203 6.78906 201.555 7.16406C201.914 7.53906 202.188 8.03516 202.375 8.65234C202.57 9.26953 202.668 10.0234 202.668 10.9141V19H199.27V10.9023C199.27 10.3398 199.191 9.90234 199.035 9.58984C198.879 9.27734 198.648 9.05859 198.344 8.93359C198.047 8.80078 197.68 8.73438 197.242 8.73438C196.789 8.73438 196.395 8.82422 196.059 9.00391C195.73 9.18359 195.457 9.43359 195.238 9.75391C195.027 10.0664 194.867 10.4336 194.758 10.8555C194.648 11.2773 194.594 11.7305 194.594 12.2148ZM208.797 6.32031V19H205.41V6.32031H208.797ZM205.199 3.01562C205.199 2.52344 205.371 2.11719 205.715 1.79688C206.059 1.47656 206.52 1.31641 207.098 1.31641C207.668 1.31641 208.125 1.47656 208.469 1.79688C208.82 2.11719 208.996 2.52344 208.996 3.01562C208.996 3.50781 208.82 3.91406 208.469 4.23438C208.125 4.55469 207.668 4.71484 207.098 4.71484C206.52 4.71484 206.059 4.55469 205.715 4.23438C205.371 3.91406 205.199 3.50781 205.199 3.01562ZM215.898 16.5391L218.711 6.32031H222.238L217.961 19H215.828L215.898 16.5391ZM213.965 6.32031L216.789 16.5508L216.848 19H214.703L210.426 6.32031H213.965ZM229.422 19.2344C228.438 19.2344 227.555 19.0781 226.773 18.7656C225.992 18.4453 225.328 18.0039 224.781 17.4414C224.242 16.8789 223.828 16.2266 223.539 15.4844C223.25 14.7344 223.105 13.9375 223.105 13.0938V12.625C223.105 11.6641 223.242 10.7852 223.516 9.98828C223.789 9.19141 224.18 8.5 224.688 7.91406C225.203 7.32812 225.828 6.87891 226.562 6.56641C227.297 6.24609 228.125 6.08594 229.047 6.08594C229.945 6.08594 230.742 6.23438 231.438 6.53125C232.133 6.82812 232.715 7.25 233.184 7.79688C233.66 8.34375 234.02 9 234.262 9.76562C234.504 10.5234 234.625 11.3672 234.625 12.2969V13.7031H224.547V11.4531H231.309V11.1953C231.309 10.7266 231.223 10.3086 231.051 9.94141C230.887 9.56641 230.637 9.26953 230.301 9.05078C229.965 8.83203 229.535 8.72266 229.012 8.72266C228.566 8.72266 228.184 8.82031 227.863 9.01562C227.543 9.21094 227.281 9.48438 227.078 9.83594C226.883 10.1875 226.734 10.6016 226.633 11.0781C226.539 11.5469 226.492 12.0625 226.492 12.625V13.0938C226.492 13.6016 226.562 14.0703 226.703 14.5C226.852 14.9297 227.059 15.3008 227.324 15.6133C227.598 15.9258 227.926 16.168 228.309 16.3398C228.699 16.5117 229.141 16.5977 229.633 16.5977C230.242 16.5977 230.809 16.4805 231.332 16.2461C231.863 16.0039 232.32 15.6406 232.703 15.1562L234.344 16.9375C234.078 17.3203 233.715 17.6875 233.254 18.0391C232.801 18.3906 232.254 18.6797 231.613 18.9062C230.973 19.125 230.242 19.2344 229.422 19.2344ZM239.922 9.08594V19H236.547V6.32031H239.723L239.922 9.08594ZM243.742 6.23828L243.684 9.36719C243.52 9.34375 243.32 9.32422 243.086 9.30859C242.859 9.28516 242.652 9.27344 242.465 9.27344C241.988 9.27344 241.574 9.33594 241.223 9.46094C240.879 9.57812 240.59 9.75391 240.355 9.98828C240.129 10.2227 239.957 10.5078 239.84 10.8438C239.73 11.1797 239.668 11.5625 239.652 11.9922L238.973 11.7812C238.973 10.9609 239.055 10.207 239.219 9.51953C239.383 8.82422 239.621 8.21875 239.934 7.70312C240.254 7.1875 240.645 6.78906 241.105 6.50781C241.566 6.22656 242.094 6.08594 242.688 6.08594C242.875 6.08594 243.066 6.10156 243.262 6.13281C243.457 6.15625 243.617 6.19141 243.742 6.23828ZM252.191 15.4961C252.191 15.2539 252.121 15.0352 251.98 14.8398C251.84 14.6445 251.578 14.4648 251.195 14.3008C250.82 14.1289 250.277 13.9727 249.566 13.832C248.926 13.6914 248.328 13.5156 247.773 13.3047C247.227 13.0859 246.75 12.8242 246.344 12.5195C245.945 12.2148 245.633 11.8555 245.406 11.4414C245.18 11.0195 245.066 10.5391 245.066 10C245.066 9.46875 245.18 8.96875 245.406 8.5C245.641 8.03125 245.973 7.61719 246.402 7.25781C246.84 6.89062 247.371 6.60547 247.996 6.40234C248.629 6.19141 249.34 6.08594 250.129 6.08594C251.23 6.08594 252.176 6.26172 252.965 6.61328C253.762 6.96484 254.371 7.44922 254.793 8.06641C255.223 8.67578 255.438 9.37109 255.438 10.1523H252.062C252.062 9.82422 251.992 9.53125 251.852 9.27344C251.719 9.00781 251.508 8.80078 251.219 8.65234C250.938 8.49609 250.57 8.41797 250.117 8.41797C249.742 8.41797 249.418 8.48438 249.145 8.61719C248.871 8.74219 248.66 8.91406 248.512 9.13281C248.371 9.34375 248.301 9.57812 248.301 9.83594C248.301 10.0312 248.34 10.207 248.418 10.3633C248.504 10.5117 248.641 10.6484 248.828 10.7734C249.016 10.8984 249.258 11.0156 249.555 11.125C249.859 11.2266 250.234 11.3203 250.68 11.4062C251.594 11.5938 252.41 11.8398 253.129 12.1445C253.848 12.4414 254.418 12.8477 254.84 13.3633C255.262 13.8711 255.473 14.5391 255.473 15.3672C255.473 15.9297 255.348 16.4453 255.098 16.9141C254.848 17.3828 254.488 17.793 254.02 18.1445C253.551 18.4883 252.988 18.7578 252.332 18.9531C251.684 19.1406 250.953 19.2344 250.141 19.2344C248.961 19.2344 247.961 19.0234 247.141 18.6016C246.328 18.1797 245.711 17.6445 245.289 16.9961C244.875 16.3398 244.668 15.668 244.668 14.9805H247.867C247.883 15.4414 248 15.8125 248.219 16.0938C248.445 16.375 248.73 16.5781 249.074 16.7031C249.426 16.8281 249.805 16.8906 250.211 16.8906C250.648 16.8906 251.012 16.832 251.301 16.7148C251.59 16.5898 251.809 16.4258 251.957 16.2227C252.113 16.0117 252.191 15.7695 252.191 15.4961ZM261.227 6.32031V19H257.84V6.32031H261.227ZM257.629 3.01562C257.629 2.52344 257.801 2.11719 258.145 1.79688C258.488 1.47656 258.949 1.31641 259.527 1.31641C260.098 1.31641 260.555 1.47656 260.898 1.79688C261.25 2.11719 261.426 2.52344 261.426 3.01562C261.426 3.50781 261.25 3.91406 260.898 4.23438C260.555 4.55469 260.098 4.71484 259.527 4.71484C258.949 4.71484 258.488 4.55469 258.145 4.23438C257.801 3.91406 257.629 3.50781 257.629 3.01562ZM270.227 6.32031V8.71094H262.844V6.32031H270.227ZM264.672 3.19141H268.047V15.1797C268.047 15.5469 268.094 15.8281 268.188 16.0234C268.289 16.2188 268.438 16.3555 268.633 16.4336C268.828 16.5039 269.074 16.5391 269.371 16.5391C269.582 16.5391 269.77 16.5312 269.934 16.5156C270.105 16.4922 270.25 16.4688 270.367 16.4453L270.379 18.9297C270.09 19.0234 269.777 19.0977 269.441 19.1523C269.105 19.207 268.734 19.2344 268.328 19.2344C267.586 19.2344 266.938 19.1133 266.383 18.8711C265.836 18.6211 265.414 18.2227 265.117 17.6758C264.82 17.1289 264.672 16.4102 264.672 15.5195V3.19141ZM275.91 17.5703L279.273 6.32031H282.895L277.797 20.9102C277.688 21.2305 277.539 21.5742 277.352 21.9414C277.172 22.3086 276.926 22.6562 276.613 22.9844C276.309 23.3203 275.922 23.5938 275.453 23.8047C274.992 24.0156 274.426 24.1211 273.754 24.1211C273.434 24.1211 273.172 24.1016 272.969 24.0625C272.766 24.0234 272.523 23.9688 272.242 23.8984V21.4258C272.328 21.4258 272.418 21.4258 272.512 21.4258C272.605 21.4336 272.695 21.4375 272.781 21.4375C273.227 21.4375 273.59 21.3867 273.871 21.2852C274.152 21.1836 274.379 21.0273 274.551 20.8164C274.723 20.6133 274.859 20.3477 274.961 20.0195L275.91 17.5703ZM274.504 6.32031L277.258 15.5078L277.738 19.082L275.441 19.3281L270.883 6.32031H274.504Z" fill="black"/>
<path d="M6.375 44.6797H3.49219L3.47656 43.4688H6.09375C6.52604 43.4688 6.90365 43.3958 7.22656 43.25C7.54948 43.1042 7.79948 42.8958 7.97656 42.625C8.15885 42.349 8.25 42.0208 8.25 41.6406C8.25 41.224 8.16927 40.8854 8.00781 40.625C7.85156 40.3594 7.60938 40.1667 7.28125 40.0469C6.95833 39.9219 6.54688 39.8594 6.04688 39.8594H3.82812V50H2.32031V38.625H6.04688C6.63021 38.625 7.15104 38.6849 7.60938 38.8047C8.06771 38.9193 8.45573 39.1016 8.77344 39.3516C9.09635 39.5964 9.34115 39.9089 9.50781 40.2891C9.67448 40.6693 9.75781 41.125 9.75781 41.6562C9.75781 42.125 9.63802 42.5495 9.39844 42.9297C9.15885 43.3047 8.82552 43.612 8.39844 43.8516C7.97656 44.0911 7.48177 44.2448 6.91406 44.3125L6.375 44.6797ZM6.30469 50H2.89844L3.75 48.7734H6.30469C6.78385 48.7734 7.1901 48.6901 7.52344 48.5234C7.86198 48.3568 8.11979 48.1224 8.29688 47.8203C8.47396 47.513 8.5625 47.151 8.5625 46.7344C8.5625 46.3125 8.48698 45.9479 8.33594 45.6406C8.1849 45.3333 7.94792 45.0964 7.625 44.9297C7.30208 44.763 6.88542 44.6797 6.375 44.6797H4.22656L4.24219 43.4688H7.17969L7.5 43.9062C8.04688 43.9531 8.51042 44.1094 8.89062 44.375C9.27083 44.6354 9.5599 44.9688 9.75781 45.375C9.96094 45.7812 10.0625 46.2292 10.0625 46.7188C10.0625 47.4271 9.90625 48.026 9.59375 48.5156C9.28646 49 8.85156 49.3698 8.28906 49.625C7.72656 49.875 7.0651 50 6.30469 50ZM18.3516 47.125C18.3516 46.8594 18.3099 46.625 18.2266 46.4219C18.1484 46.2135 18.0078 46.026 17.8047 45.8594C17.6068 45.6927 17.3307 45.5339 16.9766 45.3828C16.6276 45.2318 16.1849 45.0781 15.6484 44.9219C15.0859 44.7552 14.5781 44.5703 14.125 44.3672C13.6719 44.1589 13.2839 43.9219 12.9609 43.6562C12.638 43.3906 12.3906 43.0859 12.2188 42.7422C12.0469 42.3984 11.9609 42.0052 11.9609 41.5625C11.9609 41.1198 12.0521 40.7109 12.2344 40.3359C12.4167 39.9609 12.6771 39.6354 13.0156 39.3594C13.3594 39.0781 13.7682 38.8594 14.2422 38.7031C14.7161 38.5469 15.2448 38.4688 15.8281 38.4688C16.6823 38.4688 17.4062 38.6328 18 38.9609C18.599 39.2839 19.0547 39.7083 19.3672 40.2344C19.6797 40.7552 19.8359 41.3125 19.8359 41.9062H18.3359C18.3359 41.4792 18.2448 41.1016 18.0625 40.7734C17.8802 40.4401 17.6042 40.1797 17.2344 39.9922C16.8646 39.7995 16.3958 39.7031 15.8281 39.7031C15.2917 39.7031 14.849 39.7839 14.5 39.9453C14.151 40.1068 13.8906 40.3255 13.7188 40.6016C13.5521 40.8776 13.4688 41.1927 13.4688 41.5469C13.4688 41.7865 13.5182 42.0052 13.6172 42.2031C13.7214 42.3958 13.8802 42.5755 14.0938 42.7422C14.3125 42.9089 14.5885 43.0625 14.9219 43.2031C15.2604 43.3438 15.6641 43.4792 16.1328 43.6094C16.7786 43.7917 17.3359 43.9948 17.8047 44.2188C18.2734 44.4427 18.6589 44.6953 18.9609 44.9766C19.2682 45.2526 19.4948 45.5677 19.6406 45.9219C19.7917 46.2708 19.8672 46.6667 19.8672 47.1094C19.8672 47.5729 19.7734 47.9922 19.5859 48.3672C19.3984 48.7422 19.1302 49.0625 18.7812 49.3281C18.4323 49.5938 18.013 49.7995 17.5234 49.9453C17.0391 50.0859 16.4974 50.1562 15.8984 50.1562C15.3724 50.1562 14.8542 50.0833 14.3438 49.9375C13.8385 49.7917 13.3776 49.5729 12.9609 49.2812C12.5495 48.9896 12.2188 48.6302 11.9688 48.2031C11.724 47.7708 11.6016 47.2708 11.6016 46.7031H13.1016C13.1016 47.0938 13.1771 47.4297 13.3281 47.7109C13.4792 47.987 13.6849 48.2161 13.9453 48.3984C14.2109 48.5807 14.5104 48.7161 14.8438 48.8047C15.1823 48.888 15.5339 48.9297 15.8984 48.9297C16.4245 48.9297 16.8698 48.8568 17.2344 48.7109C17.599 48.5651 17.875 48.3568 18.0625 48.0859C18.2552 47.8151 18.3516 47.4948 18.3516 47.125ZM24.9531 48.9688C25.2969 48.9688 25.6146 48.8984 25.9062 48.7578C26.1979 48.6172 26.4375 48.4245 26.625 48.1797C26.8125 47.9297 26.9193 47.6458 26.9453 47.3281H28.3203C28.2943 47.8281 28.125 48.2943 27.8125 48.7266C27.5052 49.1536 27.1016 49.5 26.6016 49.7656C26.1016 50.026 25.5521 50.1562 24.9531 50.1562C24.3177 50.1562 23.763 50.0443 23.2891 49.8203C22.8203 49.5964 22.4297 49.2891 22.1172 48.8984C21.8099 48.5078 21.5781 48.0599 21.4219 47.5547C21.2708 47.0443 21.1953 46.5052 21.1953 45.9375V45.6094C21.1953 45.0417 21.2708 44.5052 21.4219 44C21.5781 43.4896 21.8099 43.0391 22.1172 42.6484C22.4297 42.2578 22.8203 41.9505 23.2891 41.7266C23.763 41.5026 24.3177 41.3906 24.9531 41.3906C25.6146 41.3906 26.1927 41.526 26.6875 41.7969C27.1823 42.0625 27.5703 42.4271 27.8516 42.8906C28.138 43.349 28.2943 43.8698 28.3203 44.4531H26.9453C26.9193 44.1042 26.8203 43.7891 26.6484 43.5078C26.4818 43.2266 26.2526 43.0026 25.9609 42.8359C25.6745 42.6641 25.3385 42.5781 24.9531 42.5781C24.5104 42.5781 24.138 42.6667 23.8359 42.8438C23.5391 43.0156 23.3021 43.25 23.125 43.5469C22.9531 43.8385 22.8281 44.1641 22.75 44.5234C22.6771 44.8776 22.6406 45.2396 22.6406 45.6094V45.9375C22.6406 46.3073 22.6771 46.6719 22.75 47.0312C22.8229 47.3906 22.9453 47.7161 23.1172 48.0078C23.2943 48.2995 23.5312 48.5339 23.8281 48.7109C24.1302 48.8828 24.5052 48.9688 24.9531 48.9688ZM35.4844 41.5469V50H34.0312V41.5469H35.4844ZM33.9219 39.3047C33.9219 39.0703 33.9922 38.8724 34.1328 38.7109C34.2786 38.5495 34.4922 38.4688 34.7734 38.4688C35.0495 38.4688 35.2604 38.5495 35.4062 38.7109C35.5573 38.8724 35.6328 39.0703 35.6328 39.3047C35.6328 39.5286 35.5573 39.7214 35.4062 39.8828C35.2604 40.0391 35.0495 40.1172 34.7734 40.1172C34.4922 40.1172 34.2786 40.0391 34.1328 39.8828C33.9922 39.7214 33.9219 39.5286 33.9219 39.3047ZM39.25 43.3516V50H37.8047V41.5469H39.1719L39.25 43.3516ZM38.9062 45.4531L38.3047 45.4297C38.3099 44.8516 38.3958 44.3177 38.5625 43.8281C38.7292 43.3333 38.9635 42.9036 39.2656 42.5391C39.5677 42.1745 39.9271 41.8932 40.3438 41.6953C40.7656 41.4922 41.2318 41.3906 41.7422 41.3906C42.1589 41.3906 42.5339 41.4479 42.8672 41.5625C43.2005 41.6719 43.4844 41.849 43.7188 42.0938C43.9583 42.3385 44.1406 42.6562 44.2656 43.0469C44.3906 43.4323 44.4531 43.9036 44.4531 44.4609V50H43V44.4453C43 44.0026 42.9349 43.6484 42.8047 43.3828C42.6745 43.112 42.4844 42.9167 42.2344 42.7969C41.9844 42.6719 41.6771 42.6094 41.3125 42.6094C40.9531 42.6094 40.625 42.6849 40.3281 42.8359C40.0365 42.987 39.7839 43.1953 39.5703 43.4609C39.362 43.7266 39.1979 44.0312 39.0781 44.375C38.9635 44.7135 38.9062 45.0729 38.9062 45.4531ZM56.8984 47.125C56.8984 46.8594 56.8568 46.625 56.7734 46.4219C56.6953 46.2135 56.5547 46.026 56.3516 45.8594C56.1536 45.6927 55.8776 45.5339 55.5234 45.3828C55.1745 45.2318 54.7318 45.0781 54.1953 44.9219C53.6328 44.7552 53.125 44.5703 52.6719 44.3672C52.2188 44.1589 51.8307 43.9219 51.5078 43.6562C51.1849 43.3906 50.9375 43.0859 50.7656 42.7422C50.5938 42.3984 50.5078 42.0052 50.5078 41.5625C50.5078 41.1198 50.599 40.7109 50.7812 40.3359C50.9635 39.9609 51.224 39.6354 51.5625 39.3594C51.9062 39.0781 52.3151 38.8594 52.7891 38.7031C53.263 38.5469 53.7917 38.4688 54.375 38.4688C55.2292 38.4688 55.9531 38.6328 56.5469 38.9609C57.1458 39.2839 57.6016 39.7083 57.9141 40.2344C58.2266 40.7552 58.3828 41.3125 58.3828 41.9062H56.8828C56.8828 41.4792 56.7917 41.1016 56.6094 40.7734C56.4271 40.4401 56.151 40.1797 55.7812 39.9922C55.4115 39.7995 54.9427 39.7031 54.375 39.7031C53.8385 39.7031 53.3958 39.7839 53.0469 39.9453C52.6979 40.1068 52.4375 40.3255 52.2656 40.6016C52.099 40.8776 52.0156 41.1927 52.0156 41.5469C52.0156 41.7865 52.0651 42.0052 52.1641 42.2031C52.2682 42.3958 52.4271 42.5755 52.6406 42.7422C52.8594 42.9089 53.1354 43.0625 53.4688 43.2031C53.8073 43.3438 54.2109 43.4792 54.6797 43.6094C55.3255 43.7917 55.8828 43.9948 56.3516 44.2188C56.8203 44.4427 57.2057 44.6953 57.5078 44.9766C57.8151 45.2526 58.0417 45.5677 58.1875 45.9219C58.3385 46.2708 58.4141 46.6667 58.4141 47.1094C58.4141 47.5729 58.3203 47.9922 58.1328 48.3672C57.9453 48.7422 57.6771 49.0625 57.3281 49.3281C56.9792 49.5938 56.5599 49.7995 56.0703 49.9453C55.5859 50.0859 55.0443 50.1562 54.4453 50.1562C53.9193 50.1562 53.401 50.0833 52.8906 49.9375C52.3854 49.7917 51.9245 49.5729 51.5078 49.2812C51.0964 48.9896 50.7656 48.6302 50.5156 48.2031C50.2708 47.7708 50.1484 47.2708 50.1484 46.7031H51.6484C51.6484 47.0938 51.724 47.4297 51.875 47.7109C52.026 47.987 52.2318 48.2161 52.4922 48.3984C52.7578 48.5807 53.0573 48.7161 53.3906 48.8047C53.7292 48.888 54.0807 48.9297 54.4453 48.9297C54.9714 48.9297 55.4167 48.8568 55.7812 48.7109C56.1458 48.5651 56.4219 48.3568 56.6094 48.0859C56.8021 47.8151 56.8984 47.4948 56.8984 47.125ZM59.7344 45.8672V45.6875C59.7344 45.0781 59.8229 44.513 60 43.9922C60.1771 43.4661 60.4323 43.0104 60.7656 42.625C61.099 42.2344 61.5026 41.9323 61.9766 41.7188C62.4505 41.5 62.9818 41.3906 63.5703 41.3906C64.1641 41.3906 64.6979 41.5 65.1719 41.7188C65.651 41.9323 66.0573 42.2344 66.3906 42.625C66.7292 43.0104 66.987 43.4661 67.1641 43.9922C67.3411 44.513 67.4297 45.0781 67.4297 45.6875V45.8672C67.4297 46.4766 67.3411 47.0417 67.1641 47.5625C66.987 48.0833 66.7292 48.5391 66.3906 48.9297C66.0573 49.3151 65.6536 49.6172 65.1797 49.8359C64.7109 50.0495 64.1797 50.1562 63.5859 50.1562C62.9922 50.1562 62.4583 50.0495 61.9844 49.8359C61.5104 49.6172 61.1042 49.3151 60.7656 48.9297C60.4323 48.5391 60.1771 48.0833 60 47.5625C59.8229 47.0417 59.7344 46.4766 59.7344 45.8672ZM61.1797 45.6875V45.8672C61.1797 46.2891 61.2292 46.6875 61.3281 47.0625C61.4271 47.4323 61.5755 47.7604 61.7734 48.0469C61.9766 48.3333 62.2292 48.5599 62.5312 48.7266C62.8333 48.888 63.1849 48.9688 63.5859 48.9688C63.9818 48.9688 64.3281 48.888 64.625 48.7266C64.9271 48.5599 65.1771 48.3333 65.375 48.0469C65.5729 47.7604 65.7214 47.4323 65.8203 47.0625C65.9245 46.6875 65.9766 46.2891 65.9766 45.8672V45.6875C65.9766 45.2708 65.9245 44.8776 65.8203 44.5078C65.7214 44.1328 65.5703 43.8021 65.3672 43.5156C65.1693 43.224 64.9193 42.9948 64.6172 42.8281C64.3203 42.6615 63.9714 42.5781 63.5703 42.5781C63.1745 42.5781 62.8255 42.6615 62.5234 42.8281C62.2266 42.9948 61.9766 43.224 61.7734 43.5156C61.5755 43.8021 61.4271 44.1328 61.3281 44.5078C61.2292 44.8776 61.1797 45.2708 61.1797 45.6875ZM71.3984 50H69.9531V40.6562C69.9531 40.0469 70.0625 39.5339 70.2812 39.1172C70.5052 38.6953 70.8255 38.3776 71.2422 38.1641C71.6589 37.9453 72.1536 37.8359 72.7266 37.8359C72.8932 37.8359 73.0599 37.8464 73.2266 37.8672C73.3984 37.888 73.5651 37.9193 73.7266 37.9609L73.6484 39.1406C73.5391 39.1146 73.4141 39.0964 73.2734 39.0859C73.138 39.0755 73.0026 39.0703 72.8672 39.0703C72.5599 39.0703 72.2943 39.1328 72.0703 39.2578C71.8516 39.3776 71.6849 39.5547 71.5703 39.7891C71.4557 40.0234 71.3984 40.3125 71.3984 40.6562V50ZM73.1953 41.5469V42.6562H68.6172V41.5469H73.1953ZM78.3438 41.5469V42.6562H73.7734V41.5469H78.3438ZM75.3203 39.4922H76.7656V47.9062C76.7656 48.1927 76.8099 48.4089 76.8984 48.5547C76.987 48.7005 77.1016 48.7969 77.2422 48.8438C77.3828 48.8906 77.5339 48.9141 77.6953 48.9141C77.8151 48.9141 77.9401 48.9036 78.0703 48.8828C78.2057 48.8568 78.3073 48.8359 78.375 48.8203L78.3828 50C78.2682 50.0365 78.1172 50.0703 77.9297 50.1016C77.7474 50.138 77.526 50.1562 77.2656 50.1562C76.9115 50.1562 76.5859 50.0859 76.2891 49.9453C75.9922 49.8047 75.7552 49.5703 75.5781 49.2422C75.4062 48.9089 75.3203 48.4609 75.3203 47.8984V39.4922ZM82.1797 48.5L84.3516 41.5469H85.3047L85.1172 42.9297L82.9062 50H81.9766L82.1797 48.5ZM80.7188 41.5469L82.5703 48.5781L82.7031 50H81.7266L79.2734 41.5469H80.7188ZM87.3828 48.5234L89.1484 41.5469H90.5859L88.1328 50H87.1641L87.3828 48.5234ZM85.5156 41.5469L87.6406 48.3828L87.8828 50H86.9609L84.6875 42.9141L84.5 41.5469H85.5156ZM97.0547 48.5547V44.2031C97.0547 43.8698 96.987 43.5807 96.8516 43.3359C96.7214 43.0859 96.5234 42.8932 96.2578 42.7578C95.9922 42.6224 95.6641 42.5547 95.2734 42.5547C94.9089 42.5547 94.5885 42.6172 94.3125 42.7422C94.0417 42.8672 93.8281 43.0312 93.6719 43.2344C93.5208 43.4375 93.4453 43.6562 93.4453 43.8906H92C92 43.5885 92.0781 43.2891 92.2344 42.9922C92.3906 42.6953 92.6146 42.4271 92.9062 42.1875C93.2031 41.9427 93.5573 41.75 93.9688 41.6094C94.3854 41.4635 94.849 41.3906 95.3594 41.3906C95.974 41.3906 96.5156 41.4948 96.9844 41.7031C97.4583 41.9115 97.8281 42.2266 98.0938 42.6484C98.3646 43.0651 98.5 43.5885 98.5 44.2188V48.1562C98.5 48.4375 98.5234 48.737 98.5703 49.0547C98.6224 49.3724 98.6979 49.6458 98.7969 49.875V50H97.2891C97.2161 49.8333 97.1589 49.612 97.1172 49.3359C97.0755 49.0547 97.0547 48.7943 97.0547 48.5547ZM97.3047 44.875L97.3203 45.8906H95.8594C95.4479 45.8906 95.0807 45.9245 94.7578 45.9922C94.4349 46.0547 94.1641 46.151 93.9453 46.2812C93.7266 46.4115 93.5599 46.5755 93.4453 46.7734C93.3307 46.9661 93.2734 47.1927 93.2734 47.4531C93.2734 47.7188 93.3333 47.9609 93.4531 48.1797C93.5729 48.3984 93.7526 48.5729 93.9922 48.7031C94.237 48.8281 94.5365 48.8906 94.8906 48.8906C95.3333 48.8906 95.724 48.7969 96.0625 48.6094C96.401 48.4219 96.6693 48.1927 96.8672 47.9219C97.0703 47.651 97.1797 47.388 97.1953 47.1328L97.8125 47.8281C97.776 48.0469 97.6771 48.2891 97.5156 48.5547C97.3542 48.8203 97.138 49.0755 96.8672 49.3203C96.6016 49.5599 96.2839 49.7604 95.9141 49.9219C95.5495 50.0781 95.138 50.1562 94.6797 50.1562C94.1068 50.1562 93.6042 50.0443 93.1719 49.8203C92.7448 49.5964 92.4115 49.2969 92.1719 48.9219C91.9375 48.5417 91.8203 48.1172 91.8203 47.6484C91.8203 47.1953 91.9089 46.7969 92.0859 46.4531C92.263 46.1042 92.5182 45.8151 92.8516 45.5859C93.1849 45.3516 93.5859 45.1745 94.0547 45.0547C94.5234 44.9349 95.0469 44.875 95.625 44.875H97.3047ZM102.219 42.875V50H100.773V41.5469H102.18L102.219 42.875ZM104.859 41.5L104.852 42.8438C104.732 42.8177 104.617 42.8021 104.508 42.7969C104.404 42.7865 104.284 42.7812 104.148 42.7812C103.815 42.7812 103.521 42.8333 103.266 42.9375C103.01 43.0417 102.794 43.1875 102.617 43.375C102.44 43.5625 102.299 43.7865 102.195 44.0469C102.096 44.3021 102.031 44.5833 102 44.8906L101.594 45.125C101.594 44.6146 101.643 44.1354 101.742 43.6875C101.846 43.2396 102.005 42.8438 102.219 42.5C102.432 42.151 102.703 41.8802 103.031 41.6875C103.365 41.4896 103.76 41.3906 104.219 41.3906C104.323 41.3906 104.443 41.4036 104.578 41.4297C104.714 41.4505 104.807 41.474 104.859 41.5ZM109.547 50.1562C108.958 50.1562 108.424 50.0573 107.945 49.8594C107.471 49.6562 107.062 49.3724 106.719 49.0078C106.38 48.6432 106.12 48.2109 105.938 47.7109C105.755 47.2109 105.664 46.6641 105.664 46.0703V45.7422C105.664 45.0547 105.766 44.4427 105.969 43.9062C106.172 43.3646 106.448 42.9062 106.797 42.5312C107.146 42.1562 107.542 41.8724 107.984 41.6797C108.427 41.487 108.885 41.3906 109.359 41.3906C109.964 41.3906 110.484 41.4948 110.922 41.7031C111.365 41.9115 111.727 42.2031 112.008 42.5781C112.289 42.9479 112.497 43.3854 112.633 43.8906C112.768 44.3906 112.836 44.9375 112.836 45.5312V46.1797H106.523V45H111.391V44.8906C111.37 44.5156 111.292 44.151 111.156 43.7969C111.026 43.4427 110.818 43.151 110.531 42.9219C110.245 42.6927 109.854 42.5781 109.359 42.5781C109.031 42.5781 108.729 42.6484 108.453 42.7891C108.177 42.9245 107.94 43.1276 107.742 43.3984C107.544 43.6693 107.391 44 107.281 44.3906C107.172 44.7812 107.117 45.2318 107.117 45.7422V46.0703C107.117 46.4714 107.172 46.849 107.281 47.2031C107.396 47.5521 107.56 47.8594 107.773 48.125C107.992 48.3906 108.255 48.599 108.562 48.75C108.875 48.901 109.229 48.9766 109.625 48.9766C110.135 48.9766 110.568 48.8724 110.922 48.6641C111.276 48.4557 111.586 48.1771 111.852 47.8281L112.727 48.5234C112.544 48.7995 112.312 49.0625 112.031 49.3125C111.75 49.5625 111.404 49.7656 110.992 49.9219C110.586 50.0781 110.104 50.1562 109.547 50.1562ZM125.938 48.7734V50H119.914V48.7734H125.938ZM120.219 38.625V50H118.711V38.625H120.219ZM125.141 43.5156V44.7422H119.914V43.5156H125.141ZM125.859 38.625V39.8594H119.914V38.625H125.859ZM129.031 43.3516V50H127.586V41.5469H128.953L129.031 43.3516ZM128.688 45.4531L128.086 45.4297C128.091 44.8516 128.177 44.3177 128.344 43.8281C128.51 43.3333 128.745 42.9036 129.047 42.5391C129.349 42.1745 129.708 41.8932 130.125 41.6953C130.547 41.4922 131.013 41.3906 131.523 41.3906C131.94 41.3906 132.315 41.4479 132.648 41.5625C132.982 41.6719 133.266 41.849 133.5 42.0938C133.74 42.3385 133.922 42.6562 134.047 43.0469C134.172 43.4323 134.234 43.9036 134.234 44.4609V50H132.781V44.4453C132.781 44.0026 132.716 43.6484 132.586 43.3828C132.456 43.112 132.266 42.9167 132.016 42.7969C131.766 42.6719 131.458 42.6094 131.094 42.6094C130.734 42.6094 130.406 42.6849 130.109 42.8359C129.818 42.987 129.565 43.1953 129.352 43.4609C129.143 43.7266 128.979 44.0312 128.859 44.375C128.745 44.7135 128.688 45.0729 128.688 45.4531ZM141.906 41.5469H143.219V49.8203C143.219 50.5651 143.068 51.2005 142.766 51.7266C142.464 52.2526 142.042 52.651 141.5 52.9219C140.964 53.1979 140.344 53.3359 139.641 53.3359C139.349 53.3359 139.005 53.2891 138.609 53.1953C138.219 53.1068 137.833 52.9531 137.453 52.7344C137.078 52.5208 136.763 52.2318 136.508 51.8672L137.266 51.0078C137.62 51.4349 137.99 51.7318 138.375 51.8984C138.766 52.0651 139.151 52.1484 139.531 52.1484C139.99 52.1484 140.385 52.0625 140.719 51.8906C141.052 51.7188 141.31 51.4635 141.492 51.125C141.68 50.7917 141.773 50.3802 141.773 49.8906V43.4062L141.906 41.5469ZM136.086 45.8672V45.7031C136.086 45.0573 136.161 44.4714 136.312 43.9453C136.469 43.4141 136.69 42.9583 136.977 42.5781C137.268 42.1979 137.62 41.9062 138.031 41.7031C138.443 41.4948 138.906 41.3906 139.422 41.3906C139.953 41.3906 140.417 41.4844 140.812 41.6719C141.214 41.8542 141.552 42.1224 141.828 42.4766C142.109 42.8255 142.331 43.2474 142.492 43.7422C142.654 44.237 142.766 44.7969 142.828 45.4219V46.1406C142.771 46.7604 142.659 47.3177 142.492 47.8125C142.331 48.3073 142.109 48.7292 141.828 49.0781C141.552 49.4271 141.214 49.6953 140.812 49.8828C140.411 50.0651 139.943 50.1562 139.406 50.1562C138.901 50.1562 138.443 50.0495 138.031 49.8359C137.625 49.6224 137.276 49.3229 136.984 48.9375C136.693 48.5521 136.469 48.099 136.312 47.5781C136.161 47.0521 136.086 46.4818 136.086 45.8672ZM137.531 45.7031V45.8672C137.531 46.2891 137.573 46.6849 137.656 47.0547C137.745 47.4245 137.878 47.75 138.055 48.0312C138.237 48.3125 138.469 48.5339 138.75 48.6953C139.031 48.8516 139.367 48.9297 139.758 48.9297C140.237 48.9297 140.633 48.8281 140.945 48.625C141.258 48.4219 141.505 48.1536 141.688 47.8203C141.875 47.487 142.021 47.125 142.125 46.7344V44.8516C142.068 44.5651 141.979 44.2891 141.859 44.0234C141.745 43.7526 141.594 43.513 141.406 43.3047C141.224 43.0911 140.997 42.9219 140.727 42.7969C140.456 42.6719 140.138 42.6094 139.773 42.6094C139.378 42.6094 139.036 42.6927 138.75 42.8594C138.469 43.0208 138.237 43.2448 138.055 43.5312C137.878 43.8125 137.745 44.1406 137.656 44.5156C137.573 44.8854 137.531 45.2812 137.531 45.7031ZM146.984 41.5469V50H145.531V41.5469H146.984ZM145.422 39.3047C145.422 39.0703 145.492 38.8724 145.633 38.7109C145.779 38.5495 145.992 38.4688 146.273 38.4688C146.549 38.4688 146.76 38.5495 146.906 38.7109C147.057 38.8724 147.133 39.0703 147.133 39.3047C147.133 39.5286 147.057 39.7214 146.906 39.8828C146.76 40.0391 146.549 40.1172 146.273 40.1172C145.992 40.1172 145.779 40.0391 145.633 39.8828C145.492 39.7214 145.422 39.5286 145.422 39.3047ZM150.75 43.3516V50H149.305V41.5469H150.672L150.75 43.3516ZM150.406 45.4531L149.805 45.4297C149.81 44.8516 149.896 44.3177 150.062 43.8281C150.229 43.3333 150.464 42.9036 150.766 42.5391C151.068 42.1745 151.427 41.8932 151.844 41.6953C152.266 41.4922 152.732 41.3906 153.242 41.3906C153.659 41.3906 154.034 41.4479 154.367 41.5625C154.701 41.6719 154.984 41.849 155.219 42.0938C155.458 42.3385 155.641 42.6562 155.766 43.0469C155.891 43.4323 155.953 43.9036 155.953 44.4609V50H154.5V44.4453C154.5 44.0026 154.435 43.6484 154.305 43.3828C154.174 43.112 153.984 42.9167 153.734 42.7969C153.484 42.6719 153.177 42.6094 152.812 42.6094C152.453 42.6094 152.125 42.6849 151.828 42.8359C151.536 42.987 151.284 43.1953 151.07 43.4609C150.862 43.7266 150.698 44.0312 150.578 44.375C150.464 44.7135 150.406 45.0729 150.406 45.4531ZM161.656 50.1562C161.068 50.1562 160.534 50.0573 160.055 49.8594C159.581 49.6562 159.172 49.3724 158.828 49.0078C158.49 48.6432 158.229 48.2109 158.047 47.7109C157.865 47.2109 157.773 46.6641 157.773 46.0703V45.7422C157.773 45.0547 157.875 44.4427 158.078 43.9062C158.281 43.3646 158.557 42.9062 158.906 42.5312C159.255 42.1562 159.651 41.8724 160.094 41.6797C160.536 41.487 160.995 41.3906 161.469 41.3906C162.073 41.3906 162.594 41.4948 163.031 41.7031C163.474 41.9115 163.836 42.2031 164.117 42.5781C164.398 42.9479 164.607 43.3854 164.742 43.8906C164.878 44.3906 164.945 44.9375 164.945 45.5312V46.1797H158.633V45H163.5V44.8906C163.479 44.5156 163.401 44.151 163.266 43.7969C163.135 43.4427 162.927 43.151 162.641 42.9219C162.354 42.6927 161.964 42.5781 161.469 42.5781C161.141 42.5781 160.839 42.6484 160.562 42.7891C160.286 42.9245 160.049 43.1276 159.852 43.3984C159.654 43.6693 159.5 44 159.391 44.3906C159.281 44.7812 159.227 45.2318 159.227 45.7422V46.0703C159.227 46.4714 159.281 46.849 159.391 47.2031C159.505 47.5521 159.669 47.8594 159.883 48.125C160.102 48.3906 160.365 48.599 160.672 48.75C160.984 48.901 161.339 48.9766 161.734 48.9766C162.245 48.9766 162.677 48.8724 163.031 48.6641C163.385 48.4557 163.695 48.1771 163.961 47.8281L164.836 48.5234C164.654 48.7995 164.422 49.0625 164.141 49.3125C163.859 49.5625 163.513 49.7656 163.102 49.9219C162.695 50.0781 162.214 50.1562 161.656 50.1562ZM170.141 50.1562C169.552 50.1562 169.018 50.0573 168.539 49.8594C168.065 49.6562 167.656 49.3724 167.312 49.0078C166.974 48.6432 166.714 48.2109 166.531 47.7109C166.349 47.2109 166.258 46.6641 166.258 46.0703V45.7422C166.258 45.0547 166.359 44.4427 166.562 43.9062C166.766 43.3646 167.042 42.9062 167.391 42.5312C167.74 42.1562 168.135 41.8724 168.578 41.6797C169.021 41.487 169.479 41.3906 169.953 41.3906C170.557 41.3906 171.078 41.4948 171.516 41.7031C171.958 41.9115 172.32 42.2031 172.602 42.5781C172.883 42.9479 173.091 43.3854 173.227 43.8906C173.362 44.3906 173.43 44.9375 173.43 45.5312V46.1797H167.117V45H171.984V44.8906C171.964 44.5156 171.885 44.151 171.75 43.7969C171.62 43.4427 171.411 43.151 171.125 42.9219C170.839 42.6927 170.448 42.5781 169.953 42.5781C169.625 42.5781 169.323 42.6484 169.047 42.7891C168.771 42.9245 168.534 43.1276 168.336 43.3984C168.138 43.6693 167.984 44 167.875 44.3906C167.766 44.7812 167.711 45.2318 167.711 45.7422V46.0703C167.711 46.4714 167.766 46.849 167.875 47.2031C167.99 47.5521 168.154 47.8594 168.367 48.125C168.586 48.3906 168.849 48.599 169.156 48.75C169.469 48.901 169.823 48.9766 170.219 48.9766C170.729 48.9766 171.161 48.8724 171.516 48.6641C171.87 48.4557 172.18 48.1771 172.445 47.8281L173.32 48.5234C173.138 48.7995 172.906 49.0625 172.625 49.3125C172.344 49.5625 171.997 49.7656 171.586 49.9219C171.18 50.0781 170.698 50.1562 170.141 50.1562ZM176.562 42.875V50H175.117V41.5469H176.523L176.562 42.875ZM179.203 41.5L179.195 42.8438C179.076 42.8177 178.961 42.8021 178.852 42.7969C178.747 42.7865 178.628 42.7812 178.492 42.7812C178.159 42.7812 177.865 42.8333 177.609 42.9375C177.354 43.0417 177.138 43.1875 176.961 43.375C176.784 43.5625 176.643 43.7865 176.539 44.0469C176.44 44.3021 176.375 44.5833 176.344 44.8906L175.938 45.125C175.938 44.6146 175.987 44.1354 176.086 43.6875C176.19 43.2396 176.349 42.8438 176.562 42.5C176.776 42.151 177.047 41.8802 177.375 41.6875C177.708 41.4896 178.104 41.3906 178.562 41.3906C178.667 41.3906 178.786 41.4036 178.922 41.4297C179.057 41.4505 179.151 41.474 179.203 41.5ZM182.109 41.5469V50H180.656V41.5469H182.109ZM180.547 39.3047C180.547 39.0703 180.617 38.8724 180.758 38.7109C180.904 38.5495 181.117 38.4688 181.398 38.4688C181.674 38.4688 181.885 38.5495 182.031 38.7109C182.182 38.8724 182.258 39.0703 182.258 39.3047C182.258 39.5286 182.182 39.7214 182.031 39.8828C181.885 40.0391 181.674 40.1172 181.398 40.1172C181.117 40.1172 180.904 40.0391 180.758 39.8828C180.617 39.7214 180.547 39.5286 180.547 39.3047ZM185.875 43.3516V50H184.43V41.5469H185.797L185.875 43.3516ZM185.531 45.4531L184.93 45.4297C184.935 44.8516 185.021 44.3177 185.188 43.8281C185.354 43.3333 185.589 42.9036 185.891 42.5391C186.193 42.1745 186.552 41.8932 186.969 41.6953C187.391 41.4922 187.857 41.3906 188.367 41.3906C188.784 41.3906 189.159 41.4479 189.492 41.5625C189.826 41.6719 190.109 41.849 190.344 42.0938C190.583 42.3385 190.766 42.6562 190.891 43.0469C191.016 43.4323 191.078 43.9036 191.078 44.4609V50H189.625V44.4453C189.625 44.0026 189.56 43.6484 189.43 43.3828C189.299 43.112 189.109 42.9167 188.859 42.7969C188.609 42.6719 188.302 42.6094 187.938 42.6094C187.578 42.6094 187.25 42.6849 186.953 42.8359C186.661 42.987 186.409 43.1953 186.195 43.4609C185.987 43.7266 185.823 44.0312 185.703 44.375C185.589 44.7135 185.531 45.0729 185.531 45.4531ZM198.75 41.5469H200.062V49.8203C200.062 50.5651 199.911 51.2005 199.609 51.7266C199.307 52.2526 198.885 52.651 198.344 52.9219C197.807 53.1979 197.188 53.3359 196.484 53.3359C196.193 53.3359 195.849 53.2891 195.453 53.1953C195.062 53.1068 194.677 52.9531 194.297 52.7344C193.922 52.5208 193.607 52.2318 193.352 51.8672L194.109 51.0078C194.464 51.4349 194.833 51.7318 195.219 51.8984C195.609 52.0651 195.995 52.1484 196.375 52.1484C196.833 52.1484 197.229 52.0625 197.562 51.8906C197.896 51.7188 198.154 51.4635 198.336 51.125C198.523 50.7917 198.617 50.3802 198.617 49.8906V43.4062L198.75 41.5469ZM192.93 45.8672V45.7031C192.93 45.0573 193.005 44.4714 193.156 43.9453C193.312 43.4141 193.534 42.9583 193.82 42.5781C194.112 42.1979 194.464 41.9062 194.875 41.7031C195.286 41.4948 195.75 41.3906 196.266 41.3906C196.797 41.3906 197.26 41.4844 197.656 41.6719C198.057 41.8542 198.396 42.1224 198.672 42.4766C198.953 42.8255 199.174 43.2474 199.336 43.7422C199.497 44.237 199.609 44.7969 199.672 45.4219V46.1406C199.615 46.7604 199.503 47.3177 199.336 47.8125C199.174 48.3073 198.953 48.7292 198.672 49.0781C198.396 49.4271 198.057 49.6953 197.656 49.8828C197.255 50.0651 196.786 50.1562 196.25 50.1562C195.745 50.1562 195.286 50.0495 194.875 49.8359C194.469 49.6224 194.12 49.3229 193.828 48.9375C193.536 48.5521 193.312 48.099 193.156 47.5781C193.005 47.0521 192.93 46.4818 192.93 45.8672ZM194.375 45.7031V45.8672C194.375 46.2891 194.417 46.6849 194.5 47.0547C194.589 47.4245 194.721 47.75 194.898 48.0312C195.081 48.3125 195.312 48.5339 195.594 48.6953C195.875 48.8516 196.211 48.9297 196.602 48.9297C197.081 48.9297 197.477 48.8281 197.789 48.625C198.102 48.4219 198.349 48.1536 198.531 47.8203C198.719 47.487 198.865 47.125 198.969 46.7344V44.8516C198.911 44.5651 198.823 44.2891 198.703 44.0234C198.589 43.7526 198.438 43.513 198.25 43.3047C198.068 43.0911 197.841 42.9219 197.57 42.7969C197.299 42.6719 196.982 42.6094 196.617 42.6094C196.221 42.6094 195.88 42.6927 195.594 42.8594C195.312 43.0208 195.081 43.2448 194.898 43.5312C194.721 43.8125 194.589 44.1406 194.5 44.5156C194.417 44.8854 194.375 45.2812 194.375 45.7031Z" fill="black" fill-opacity="0.6"/>
<defs>
<clipPath id="clip0_1_754">
<rect width="583" height="1" fill="white" transform="translate(1 94)"/>
</clipPath>
</defs>
</svg>
