<svg width="584" height="95" viewBox="0 0 584 95" fill="none" xmlns="http://www.w3.org/2000/svg">
<g clip-path="url(#clip0_1_768)">
<path d="M50 28C50 14.1929 38.8071 3 25 3C11.1929 3 0 14.1929 0 28C0 41.8071 11.1929 53 25 53C38.8071 53 50 41.8071 50 28Z" fill="#FFB4E9"/>
<path d="M26.5625 36.5938H23.4375C23.2303 36.5938 23.0316 36.6761 22.8851 36.8226C22.7386 36.9691 22.6562 37.1678 22.6562 37.375C22.6562 37.5822 22.7386 37.7809 22.8851 37.9274C23.0316 38.0739 23.2303 38.1562 23.4375 38.1562H26.5625C26.7697 38.1562 26.9684 38.0739 27.1149 37.9274C27.2614 37.7809 27.3438 37.5822 27.3438 37.375C27.3438 37.1678 27.2614 36.9691 27.1149 36.8226C26.9684 36.6761 26.7697 36.5938 26.5625 36.5938Z" fill="#D10094"/>
<path d="M33.9481 29.5485L30.9953 26.0051C30.9008 24.8379 30.6384 23.6906 30.216 22.5985C29.0815 19.6481 27.0757 17.7158 25.9811 16.8265C25.7035 16.6031 25.3582 16.4807 25.0018 16.4795C24.6455 16.4783 24.2993 16.5984 24.0203 16.82C22.9114 17.7083 20.8799 19.6393 19.734 22.59C19.2974 23.7068 19.0308 24.8829 18.9432 26.0787L16.0518 29.5485C15.8995 29.7324 15.7911 29.9486 15.7347 30.1806C15.6784 30.4126 15.6757 30.6544 15.7268 30.8877L16.9341 36.3206C16.9914 36.5798 17.1137 36.8202 17.2897 37.019C17.4657 37.2177 17.6894 37.3683 17.9398 37.4565C18.1902 37.5447 18.459 37.5676 18.7207 37.523C18.9824 37.4785 19.2284 37.3679 19.4354 37.2018L22.149 35.031H27.8509L30.5643 37.2018C30.8401 37.4237 31.1834 37.5449 31.5375 37.5452C31.7154 37.545 31.8919 37.5147 32.0596 37.4554C32.3103 37.368 32.5344 37.2179 32.7106 37.0192C32.8867 36.8205 33.009 36.5801 33.0658 36.3207L34.2731 30.8878C34.3242 30.6545 34.3215 30.4127 34.2651 30.1806C34.2088 29.9486 34.1004 29.7324 33.9481 29.5485ZM18.4594 35.9817L17.2521 30.5487L19.0027 28.4479C19.2247 30.2733 19.8477 32.1412 20.8719 34.0517L18.4594 35.9817ZM24.9999 26.0466C24.7682 26.0466 24.5416 25.9779 24.3489 25.8491C24.1561 25.7204 24.006 25.5373 23.9172 25.3232C23.8286 25.109 23.8054 24.8734 23.8506 24.6461C23.8958 24.4188 24.0074 24.21 24.1713 24.0461C24.3352 23.8822 24.544 23.7706 24.7713 23.7254C24.9986 23.6802 25.2343 23.7034 25.4484 23.7921C25.6625 23.8808 25.8455 24.031 25.9743 24.2237C26.1031 24.4164 26.1718 24.6429 26.1718 24.8747C26.1718 25.1855 26.0483 25.4836 25.8286 25.7034C25.6088 25.9232 25.3108 26.0466 24.9999 26.0466ZM31.5404 35.9817L29.1235 34.0481C30.1346 32.1241 30.7447 30.2401 30.9539 28.3961L32.7478 30.5487L31.5404 35.9817Z" fill="#D10094"/>
</g>
<path d="M80.4062 14.5352C80.4062 14.2305 80.3594 13.957 80.2656 13.7148C80.1797 13.4648 80.0156 13.2383 79.7734 13.0352C79.5312 12.8242 79.1914 12.6172 78.7539 12.4141C78.3164 12.2109 77.75 12 77.0547 11.7812C76.2812 11.5312 75.5469 11.25 74.8516 10.9375C74.1641 10.625 73.5547 10.2617 73.0234 9.84766C72.5 9.42578 72.0859 8.9375 71.7812 8.38281C71.4844 7.82812 71.3359 7.18359 71.3359 6.44922C71.3359 5.73828 71.4922 5.09375 71.8047 4.51562C72.1172 3.92969 72.5547 3.42969 73.1172 3.01562C73.6797 2.59375 74.3438 2.26953 75.1094 2.04297C75.8828 1.81641 76.7305 1.70312 77.6523 1.70312C78.9102 1.70312 80.0078 1.92969 80.9453 2.38281C81.8828 2.83594 82.6094 3.45703 83.125 4.24609C83.6484 5.03516 83.9102 5.9375 83.9102 6.95312H80.418C80.418 6.45312 80.3125 6.01562 80.1016 5.64062C79.8984 5.25781 79.5859 4.95703 79.1641 4.73828C78.75 4.51953 78.2266 4.41016 77.5938 4.41016C76.9844 4.41016 76.4766 4.50391 76.0703 4.69141C75.6641 4.87109 75.3594 5.11719 75.1562 5.42969C74.9531 5.73438 74.8516 6.07812 74.8516 6.46094C74.8516 6.75 74.9219 7.01172 75.0625 7.24609C75.2109 7.48047 75.4297 7.69922 75.7188 7.90234C76.0078 8.10547 76.3633 8.29688 76.7852 8.47656C77.207 8.65625 77.6953 8.83203 78.25 9.00391C79.1797 9.28516 79.9961 9.60156 80.6992 9.95312C81.4102 10.3047 82.0039 10.6992 82.4805 11.1367C82.957 11.5742 83.3164 12.0703 83.5586 12.625C83.8008 13.1797 83.9219 13.8086 83.9219 14.5117C83.9219 15.2539 83.7773 15.918 83.4883 16.5039C83.1992 17.0898 82.7812 17.5859 82.2344 17.9922C81.6875 18.3984 81.0352 18.707 80.2773 18.918C79.5195 19.1289 78.6719 19.2344 77.7344 19.2344C76.8906 19.2344 76.0586 19.125 75.2383 18.9062C74.418 18.6797 73.6719 18.3398 73 17.8867C72.3359 17.4336 71.8047 16.8555 71.4062 16.1523C71.0078 15.4492 70.8086 14.6172 70.8086 13.6562H74.3359C74.3359 14.1875 74.418 14.6367 74.582 15.0039C74.7461 15.3711 74.9766 15.668 75.2734 15.8945C75.5781 16.1211 75.9375 16.2852 76.3516 16.3867C76.7734 16.4883 77.2344 16.5391 77.7344 16.5391C78.3438 16.5391 78.8438 16.4531 79.2344 16.2812C79.6328 16.1094 79.9258 15.8711 80.1133 15.5664C80.3086 15.2617 80.4062 14.918 80.4062 14.5352ZM89.4766 8.75781V23.875H86.1016V6.32031H89.2305L89.4766 8.75781ZM97.5039 12.5195V12.7656C97.5039 13.6875 97.3945 14.543 97.1758 15.332C96.9648 16.1211 96.6523 16.8086 96.2383 17.3945C95.8242 17.9727 95.3086 18.4258 94.6914 18.7539C94.082 19.0742 93.3789 19.2344 92.582 19.2344C91.8086 19.2344 91.1367 19.0781 90.5664 18.7656C89.9961 18.4531 89.5156 18.0156 89.125 17.4531C88.7422 16.8828 88.4336 16.2227 88.1992 15.4727C87.9648 14.7227 87.7852 13.918 87.6602 13.0586V12.4141C87.7852 11.4922 87.9648 10.6484 88.1992 9.88281C88.4336 9.10938 88.7422 8.44141 89.125 7.87891C89.5156 7.30859 89.9922 6.86719 90.5547 6.55469C91.125 6.24219 91.793 6.08594 92.5586 6.08594C93.3633 6.08594 94.0703 6.23828 94.6797 6.54297C95.2969 6.84766 95.8125 7.28516 96.2266 7.85547C96.6484 8.42578 96.9648 9.10547 97.1758 9.89453C97.3945 10.6836 97.5039 11.5586 97.5039 12.5195ZM94.1172 12.7656V12.5195C94.1172 11.9805 94.0703 11.4844 93.9766 11.0312C93.8906 10.5703 93.75 10.168 93.5547 9.82422C93.3672 9.48047 93.1172 9.21484 92.8047 9.02734C92.5 8.83203 92.1289 8.73438 91.6914 8.73438C91.2305 8.73438 90.8359 8.80859 90.5078 8.95703C90.1875 9.10547 89.9258 9.32031 89.7227 9.60156C89.5195 9.88281 89.3672 10.2188 89.2656 10.6094C89.1641 11 89.1016 11.4414 89.0781 11.9336V13.5625C89.1172 14.1406 89.2266 14.6602 89.4062 15.1211C89.5859 15.5742 89.8633 15.9336 90.2383 16.1992C90.6133 16.4648 91.1055 16.5977 91.7148 16.5977C92.1602 16.5977 92.5352 16.5 92.8398 16.3047C93.1445 16.1016 93.3906 15.8242 93.5781 15.4727C93.7734 15.1211 93.9102 14.7148 93.9883 14.2539C94.0742 13.793 94.1172 13.2969 94.1172 12.7656ZM106.445 16.1406V10.4922C106.445 10.0859 106.379 9.73828 106.246 9.44922C106.113 9.15234 105.906 8.92188 105.625 8.75781C105.352 8.59375 104.996 8.51172 104.559 8.51172C104.184 8.51172 103.859 8.57812 103.586 8.71094C103.312 8.83594 103.102 9.01953 102.953 9.26172C102.805 9.49609 102.73 9.77344 102.73 10.0938H99.3555C99.3555 9.55469 99.4805 9.04297 99.7305 8.55859C99.9805 8.07422 100.344 7.64844 100.82 7.28125C101.297 6.90625 101.863 6.61328 102.52 6.40234C103.184 6.19141 103.926 6.08594 104.746 6.08594C105.73 6.08594 106.605 6.25 107.371 6.57812C108.137 6.90625 108.738 7.39844 109.176 8.05469C109.621 8.71094 109.844 9.53125 109.844 10.5156V15.9414C109.844 16.6367 109.887 17.207 109.973 17.6523C110.059 18.0898 110.184 18.4727 110.348 18.8008V19H106.938C106.773 18.6562 106.648 18.2266 106.562 17.7109C106.484 17.1875 106.445 16.6641 106.445 16.1406ZM106.891 11.2773L106.914 13.1875H105.027C104.582 13.1875 104.195 13.2383 103.867 13.3398C103.539 13.4414 103.27 13.5859 103.059 13.7734C102.848 13.9531 102.691 14.1641 102.59 14.4062C102.496 14.6484 102.449 14.9141 102.449 15.2031C102.449 15.4922 102.516 15.7539 102.648 15.9883C102.781 16.2148 102.973 16.3945 103.223 16.5273C103.473 16.6523 103.766 16.7148 104.102 16.7148C104.609 16.7148 105.051 16.6133 105.426 16.4102C105.801 16.207 106.09 15.957 106.293 15.6602C106.504 15.3633 106.613 15.082 106.621 14.8164L107.512 16.2461C107.387 16.5664 107.215 16.8984 106.996 17.2422C106.785 17.5859 106.516 17.9102 106.188 18.2148C105.859 18.5117 105.465 18.7578 105.004 18.9531C104.543 19.1406 103.996 19.2344 103.363 19.2344C102.559 19.2344 101.828 19.0742 101.172 18.7539C100.523 18.4258 100.008 17.9766 99.625 17.4062C99.25 16.8281 99.0625 16.1719 99.0625 15.4375C99.0625 14.7734 99.1875 14.1836 99.4375 13.668C99.6875 13.1523 100.055 12.7188 100.539 12.3672C101.031 12.0078 101.645 11.7383 102.379 11.5586C103.113 11.3711 103.965 11.2773 104.934 11.2773H106.891ZM117.684 16.5977C118.098 16.5977 118.465 16.5195 118.785 16.3633C119.105 16.1992 119.355 15.9727 119.535 15.6836C119.723 15.3867 119.82 15.0391 119.828 14.6406H123.004C122.996 15.5312 122.758 16.3242 122.289 17.0195C121.82 17.707 121.191 18.25 120.402 18.6484C119.613 19.0391 118.73 19.2344 117.754 19.2344C116.77 19.2344 115.91 19.0703 115.176 18.7422C114.449 18.4141 113.844 17.9609 113.359 17.3828C112.875 16.7969 112.512 16.1172 112.27 15.3438C112.027 14.5625 111.906 13.7266 111.906 12.8359V12.4961C111.906 11.5977 112.027 10.7617 112.27 9.98828C112.512 9.20703 112.875 8.52734 113.359 7.94922C113.844 7.36328 114.449 6.90625 115.176 6.57812C115.902 6.25 116.754 6.08594 117.73 6.08594C118.77 6.08594 119.68 6.28516 120.461 6.68359C121.25 7.08203 121.867 7.65234 122.312 8.39453C122.766 9.12891 122.996 10 123.004 11.0078H119.828C119.82 10.5859 119.73 10.2031 119.559 9.85938C119.395 9.51562 119.152 9.24219 118.832 9.03906C118.52 8.82812 118.133 8.72266 117.672 8.72266C117.18 8.72266 116.777 8.82812 116.465 9.03906C116.152 9.24219 115.91 9.52344 115.738 9.88281C115.566 10.2344 115.445 10.6367 115.375 11.0898C115.312 11.5352 115.281 12.0039 115.281 12.4961V12.8359C115.281 13.3281 115.312 13.8008 115.375 14.2539C115.438 14.707 115.555 15.1094 115.727 15.4609C115.906 15.8125 116.152 16.0898 116.465 16.293C116.777 16.4961 117.184 16.5977 117.684 16.5977ZM130.797 19.2344C129.812 19.2344 128.93 19.0781 128.148 18.7656C127.367 18.4453 126.703 18.0039 126.156 17.4414C125.617 16.8789 125.203 16.2266 124.914 15.4844C124.625 14.7344 124.48 13.9375 124.48 13.0938V12.625C124.48 11.6641 124.617 10.7852 124.891 9.98828C125.164 9.19141 125.555 8.5 126.062 7.91406C126.578 7.32812 127.203 6.87891 127.938 6.56641C128.672 6.24609 129.5 6.08594 130.422 6.08594C131.32 6.08594 132.117 6.23438 132.812 6.53125C133.508 6.82812 134.09 7.25 134.559 7.79688C135.035 8.34375 135.395 9 135.637 9.76562C135.879 10.5234 136 11.3672 136 12.2969V13.7031H125.922V11.4531H132.684V11.1953C132.684 10.7266 132.598 10.3086 132.426 9.94141C132.262 9.56641 132.012 9.26953 131.676 9.05078C131.34 8.83203 130.91 8.72266 130.387 8.72266C129.941 8.72266 129.559 8.82031 129.238 9.01562C128.918 9.21094 128.656 9.48438 128.453 9.83594C128.258 10.1875 128.109 10.6016 128.008 11.0781C127.914 11.5469 127.867 12.0625 127.867 12.625V13.0938C127.867 13.6016 127.938 14.0703 128.078 14.5C128.227 14.9297 128.434 15.3008 128.699 15.6133C128.973 15.9258 129.301 16.168 129.684 16.3398C130.074 16.5117 130.516 16.5977 131.008 16.5977C131.617 16.5977 132.184 16.4805 132.707 16.2461C133.238 16.0039 133.695 15.6406 134.078 15.1562L135.719 16.9375C135.453 17.3203 135.09 17.6875 134.629 18.0391C134.176 18.3906 133.629 18.6797 132.988 18.9062C132.348 19.125 131.617 19.2344 130.797 19.2344ZM141.648 1.9375V19H138.133V1.9375H141.648ZM148.445 9.22656V11.9688H140.688V9.22656H148.445ZM149.266 1.9375V4.69141H140.688V1.9375H149.266ZM154.656 1V19H151.27V1H154.656ZM163.281 19.2344C162.297 19.2344 161.414 19.0781 160.633 18.7656C159.852 18.4453 159.188 18.0039 158.641 17.4414C158.102 16.8789 157.688 16.2266 157.398 15.4844C157.109 14.7344 156.965 13.9375 156.965 13.0938V12.625C156.965 11.6641 157.102 10.7852 157.375 9.98828C157.648 9.19141 158.039 8.5 158.547 7.91406C159.062 7.32812 159.688 6.87891 160.422 6.56641C161.156 6.24609 161.984 6.08594 162.906 6.08594C163.805 6.08594 164.602 6.23438 165.297 6.53125C165.992 6.82812 166.574 7.25 167.043 7.79688C167.52 8.34375 167.879 9 168.121 9.76562C168.363 10.5234 168.484 11.3672 168.484 12.2969V13.7031H158.406V11.4531H165.168V11.1953C165.168 10.7266 165.082 10.3086 164.91 9.94141C164.746 9.56641 164.496 9.26953 164.16 9.05078C163.824 8.83203 163.395 8.72266 162.871 8.72266C162.426 8.72266 162.043 8.82031 161.723 9.01562C161.402 9.21094 161.141 9.48438 160.938 9.83594C160.742 10.1875 160.594 10.6016 160.492 11.0781C160.398 11.5469 160.352 12.0625 160.352 12.625V13.0938C160.352 13.6016 160.422 14.0703 160.562 14.5C160.711 14.9297 160.918 15.3008 161.184 15.6133C161.457 15.9258 161.785 16.168 162.168 16.3398C162.559 16.5117 163 16.5977 163.492 16.5977C164.102 16.5977 164.668 16.4805 165.191 16.2461C165.723 16.0039 166.18 15.6406 166.562 15.1562L168.203 16.9375C167.938 17.3203 167.574 17.6875 167.113 18.0391C166.66 18.3906 166.113 18.6797 165.473 18.9062C164.832 19.125 164.102 19.2344 163.281 19.2344ZM176.242 19.2344C175.258 19.2344 174.375 19.0781 173.594 18.7656C172.812 18.4453 172.148 18.0039 171.602 17.4414C171.062 16.8789 170.648 16.2266 170.359 15.4844C170.07 14.7344 169.926 13.9375 169.926 13.0938V12.625C169.926 11.6641 170.062 10.7852 170.336 9.98828C170.609 9.19141 171 8.5 171.508 7.91406C172.023 7.32812 172.648 6.87891 173.383 6.56641C174.117 6.24609 174.945 6.08594 175.867 6.08594C176.766 6.08594 177.562 6.23438 178.258 6.53125C178.953 6.82812 179.535 7.25 180.004 7.79688C180.48 8.34375 180.84 9 181.082 9.76562C181.324 10.5234 181.445 11.3672 181.445 12.2969V13.7031H171.367V11.4531H178.129V11.1953C178.129 10.7266 178.043 10.3086 177.871 9.94141C177.707 9.56641 177.457 9.26953 177.121 9.05078C176.785 8.83203 176.355 8.72266 175.832 8.72266C175.387 8.72266 175.004 8.82031 174.684 9.01562C174.363 9.21094 174.102 9.48438 173.898 9.83594C173.703 10.1875 173.555 10.6016 173.453 11.0781C173.359 11.5469 173.312 12.0625 173.312 12.625V13.0938C173.312 13.6016 173.383 14.0703 173.523 14.5C173.672 14.9297 173.879 15.3008 174.145 15.6133C174.418 15.9258 174.746 16.168 175.129 16.3398C175.52 16.5117 175.961 16.5977 176.453 16.5977C177.062 16.5977 177.629 16.4805 178.152 16.2461C178.684 16.0039 179.141 15.6406 179.523 15.1562L181.164 16.9375C180.898 17.3203 180.535 17.6875 180.074 18.0391C179.621 18.3906 179.074 18.6797 178.434 18.9062C177.793 19.125 177.062 19.2344 176.242 19.2344ZM189.578 6.32031V8.71094H182.195V6.32031H189.578ZM184.023 3.19141H187.398V15.1797C187.398 15.5469 187.445 15.8281 187.539 16.0234C187.641 16.2188 187.789 16.3555 187.984 16.4336C188.18 16.5039 188.426 16.5391 188.723 16.5391C188.934 16.5391 189.121 16.5312 189.285 16.5156C189.457 16.4922 189.602 16.4688 189.719 16.4453L189.73 18.9297C189.441 19.0234 189.129 19.0977 188.793 19.1523C188.457 19.207 188.086 19.2344 187.68 19.2344C186.938 19.2344 186.289 19.1133 185.734 18.8711C185.188 18.6211 184.766 18.2227 184.469 17.6758C184.172 17.1289 184.023 16.4102 184.023 15.5195V3.19141Z" fill="black"/>
<path d="M77.3828 47.125C77.3828 46.8594 77.3411 46.625 77.2578 46.4219C77.1797 46.2135 77.0391 46.026 76.8359 45.8594C76.638 45.6927 76.362 45.5339 76.0078 45.3828C75.6589 45.2318 75.2161 45.0781 74.6797 44.9219C74.1172 44.7552 73.6094 44.5703 73.1562 44.3672C72.7031 44.1589 72.3151 43.9219 71.9922 43.6562C71.6693 43.3906 71.4219 43.0859 71.25 42.7422C71.0781 42.3984 70.9922 42.0052 70.9922 41.5625C70.9922 41.1198 71.0833 40.7109 71.2656 40.3359C71.4479 39.9609 71.7083 39.6354 72.0469 39.3594C72.3906 39.0781 72.7995 38.8594 73.2734 38.7031C73.7474 38.5469 74.276 38.4688 74.8594 38.4688C75.7135 38.4688 76.4375 38.6328 77.0312 38.9609C77.6302 39.2839 78.0859 39.7083 78.3984 40.2344C78.7109 40.7552 78.8672 41.3125 78.8672 41.9062H77.3672C77.3672 41.4792 77.276 41.1016 77.0938 40.7734C76.9115 40.4401 76.6354 40.1797 76.2656 39.9922C75.8958 39.7995 75.4271 39.7031 74.8594 39.7031C74.3229 39.7031 73.8802 39.7839 73.5312 39.9453C73.1823 40.1068 72.9219 40.3255 72.75 40.6016C72.5833 40.8776 72.5 41.1927 72.5 41.5469C72.5 41.7865 72.5495 42.0052 72.6484 42.2031C72.7526 42.3958 72.9115 42.5755 73.125 42.7422C73.3438 42.9089 73.6198 43.0625 73.9531 43.2031C74.2917 43.3438 74.6953 43.4792 75.1641 43.6094C75.8099 43.7917 76.3672 43.9948 76.8359 44.2188C77.3047 44.4427 77.6901 44.6953 77.9922 44.9766C78.2995 45.2526 78.526 45.5677 78.6719 45.9219C78.8229 46.2708 78.8984 46.6667 78.8984 47.1094C78.8984 47.5729 78.8047 47.9922 78.6172 48.3672C78.4297 48.7422 78.1615 49.0625 77.8125 49.3281C77.4635 49.5938 77.0443 49.7995 76.5547 49.9453C76.0703 50.0859 75.5286 50.1562 74.9297 50.1562C74.4036 50.1562 73.8854 50.0833 73.375 49.9375C72.8698 49.7917 72.4089 49.5729 71.9922 49.2812C71.5807 48.9896 71.25 48.6302 71 48.2031C70.7552 47.7708 70.6328 47.2708 70.6328 46.7031H72.1328C72.1328 47.0938 72.2083 47.4297 72.3594 47.7109C72.5104 47.987 72.7161 48.2161 72.9766 48.3984C73.2422 48.5807 73.5417 48.7161 73.875 48.8047C74.2135 48.888 74.5651 48.9297 74.9297 48.9297C75.4557 48.9297 75.901 48.8568 76.2656 48.7109C76.6302 48.5651 76.9062 48.3568 77.0938 48.0859C77.2865 47.8151 77.3828 47.4948 77.3828 47.125ZM84.1094 50.1562C83.5208 50.1562 82.987 50.0573 82.5078 49.8594C82.0339 49.6562 81.625 49.3724 81.2812 49.0078C80.9427 48.6432 80.6823 48.2109 80.5 47.7109C80.3177 47.2109 80.2266 46.6641 80.2266 46.0703V45.7422C80.2266 45.0547 80.3281 44.4427 80.5312 43.9062C80.7344 43.3646 81.0104 42.9062 81.3594 42.5312C81.7083 42.1562 82.1042 41.8724 82.5469 41.6797C82.9896 41.487 83.4479 41.3906 83.9219 41.3906C84.526 41.3906 85.0469 41.4948 85.4844 41.7031C85.9271 41.9115 86.2891 42.2031 86.5703 42.5781C86.8516 42.9479 87.0599 43.3854 87.1953 43.8906C87.3307 44.3906 87.3984 44.9375 87.3984 45.5312V46.1797H81.0859V45H85.9531V44.8906C85.9323 44.5156 85.8542 44.151 85.7188 43.7969C85.5885 43.4427 85.3802 43.151 85.0938 42.9219C84.8073 42.6927 84.4167 42.5781 83.9219 42.5781C83.5938 42.5781 83.2917 42.6484 83.0156 42.7891C82.7396 42.9245 82.5026 43.1276 82.3047 43.3984C82.1068 43.6693 81.9531 44 81.8438 44.3906C81.7344 44.7812 81.6797 45.2318 81.6797 45.7422V46.0703C81.6797 46.4714 81.7344 46.849 81.8438 47.2031C81.9583 47.5521 82.1224 47.8594 82.3359 48.125C82.5547 48.3906 82.8177 48.599 83.125 48.75C83.4375 48.901 83.7917 48.9766 84.1875 48.9766C84.6979 48.9766 85.1302 48.8724 85.4844 48.6641C85.8385 48.4557 86.1484 48.1771 86.4141 47.8281L87.2891 48.5234C87.1068 48.7995 86.875 49.0625 86.5938 49.3125C86.3125 49.5625 85.9661 49.7656 85.5547 49.9219C85.1484 50.0781 84.6667 50.1562 84.1094 50.1562ZM90.5312 43.3516V50H89.0859V41.5469H90.4531L90.5312 43.3516ZM90.1875 45.4531L89.5859 45.4297C89.5911 44.8516 89.6771 44.3177 89.8438 43.8281C90.0104 43.3333 90.2448 42.9036 90.5469 42.5391C90.849 42.1745 91.2083 41.8932 91.625 41.6953C92.0469 41.4922 92.513 41.3906 93.0234 41.3906C93.4401 41.3906 93.8151 41.4479 94.1484 41.5625C94.4818 41.6719 94.7656 41.849 95 42.0938C95.2396 42.3385 95.4219 42.6562 95.5469 43.0469C95.6719 43.4323 95.7344 43.9036 95.7344 44.4609V50H94.2812V44.4453C94.2812 44.0026 94.2161 43.6484 94.0859 43.3828C93.9557 43.112 93.7656 42.9167 93.5156 42.7969C93.2656 42.6719 92.9583 42.6094 92.5938 42.6094C92.2344 42.6094 91.9062 42.6849 91.6094 42.8359C91.3177 42.987 91.0651 43.1953 90.8516 43.4609C90.6432 43.7266 90.4792 44.0312 90.3594 44.375C90.2448 44.7135 90.1875 45.0729 90.1875 45.4531ZM99.5 41.5469V50H98.0469V41.5469H99.5ZM97.9375 39.3047C97.9375 39.0703 98.0078 38.8724 98.1484 38.7109C98.2943 38.5495 98.5078 38.4688 98.7891 38.4688C99.0651 38.4688 99.276 38.5495 99.4219 38.7109C99.5729 38.8724 99.6484 39.0703 99.6484 39.3047C99.6484 39.5286 99.5729 39.7214 99.4219 39.8828C99.276 40.0391 99.0651 40.1172 98.7891 40.1172C98.5078 40.1172 98.2943 40.0391 98.1484 39.8828C98.0078 39.7214 97.9375 39.5286 97.9375 39.3047ZM101.438 45.8672V45.6875C101.438 45.0781 101.526 44.513 101.703 43.9922C101.88 43.4661 102.135 43.0104 102.469 42.625C102.802 42.2344 103.206 41.9323 103.68 41.7188C104.154 41.5 104.685 41.3906 105.273 41.3906C105.867 41.3906 106.401 41.5 106.875 41.7188C107.354 41.9323 107.76 42.2344 108.094 42.625C108.432 43.0104 108.69 43.4661 108.867 43.9922C109.044 44.513 109.133 45.0781 109.133 45.6875V45.8672C109.133 46.4766 109.044 47.0417 108.867 47.5625C108.69 48.0833 108.432 48.5391 108.094 48.9297C107.76 49.3151 107.357 49.6172 106.883 49.8359C106.414 50.0495 105.883 50.1562 105.289 50.1562C104.695 50.1562 104.161 50.0495 103.688 49.8359C103.214 49.6172 102.807 49.3151 102.469 48.9297C102.135 48.5391 101.88 48.0833 101.703 47.5625C101.526 47.0417 101.438 46.4766 101.438 45.8672ZM102.883 45.6875V45.8672C102.883 46.2891 102.932 46.6875 103.031 47.0625C103.13 47.4323 103.279 47.7604 103.477 48.0469C103.68 48.3333 103.932 48.5599 104.234 48.7266C104.536 48.888 104.888 48.9688 105.289 48.9688C105.685 48.9688 106.031 48.888 106.328 48.7266C106.63 48.5599 106.88 48.3333 107.078 48.0469C107.276 47.7604 107.424 47.4323 107.523 47.0625C107.628 46.6875 107.68 46.2891 107.68 45.8672V45.6875C107.68 45.2708 107.628 44.8776 107.523 44.5078C107.424 44.1328 107.273 43.8021 107.07 43.5156C106.872 43.224 106.622 42.9948 106.32 42.8281C106.023 42.6615 105.674 42.5781 105.273 42.5781C104.878 42.5781 104.529 42.6615 104.227 42.8281C103.93 42.9948 103.68 43.224 103.477 43.5156C103.279 43.8021 103.13 44.1328 103.031 44.5078C102.932 44.8776 102.883 45.2708 102.883 45.6875ZM112.391 42.875V50H110.945V41.5469H112.352L112.391 42.875ZM115.031 41.5L115.023 42.8438C114.904 42.8177 114.789 42.8021 114.68 42.7969C114.576 42.7865 114.456 42.7812 114.32 42.7812C113.987 42.7812 113.693 42.8333 113.438 42.9375C113.182 43.0417 112.966 43.1875 112.789 43.375C112.612 43.5625 112.471 43.7865 112.367 44.0469C112.268 44.3021 112.203 44.5833 112.172 44.8906L111.766 45.125C111.766 44.6146 111.815 44.1354 111.914 43.6875C112.018 43.2396 112.177 42.8438 112.391 42.5C112.604 42.151 112.875 41.8802 113.203 41.6875C113.536 41.4896 113.932 41.3906 114.391 41.3906C114.495 41.3906 114.615 41.4036 114.75 41.4297C114.885 41.4505 114.979 41.474 115.031 41.5ZM124.75 45.5391H121.711V44.3125H124.75C125.339 44.3125 125.815 44.2188 126.18 44.0312C126.544 43.8438 126.81 43.5833 126.977 43.25C127.148 42.9167 127.234 42.5365 127.234 42.1094C127.234 41.7188 127.148 41.3516 126.977 41.0078C126.81 40.6641 126.544 40.388 126.18 40.1797C125.815 39.9661 125.339 39.8594 124.75 39.8594H122.062V50H120.555V38.625H124.75C125.609 38.625 126.336 38.7734 126.93 39.0703C127.523 39.3672 127.974 39.7786 128.281 40.3047C128.589 40.8255 128.742 41.4219 128.742 42.0938C128.742 42.8229 128.589 43.4453 128.281 43.9609C127.974 44.4766 127.523 44.8698 126.93 45.1406C126.336 45.4062 125.609 45.5391 124.75 45.5391ZM131.875 42.875V50H130.43V41.5469H131.836L131.875 42.875ZM134.516 41.5L134.508 42.8438C134.388 42.8177 134.273 42.8021 134.164 42.7969C134.06 42.7865 133.94 42.7812 133.805 42.7812C133.471 42.7812 133.177 42.8333 132.922 42.9375C132.667 43.0417 132.451 43.1875 132.273 43.375C132.096 43.5625 131.956 43.7865 131.852 44.0469C131.753 44.3021 131.688 44.5833 131.656 44.8906L131.25 45.125C131.25 44.6146 131.299 44.1354 131.398 43.6875C131.503 43.2396 131.661 42.8438 131.875 42.5C132.089 42.151 132.359 41.8802 132.688 41.6875C133.021 41.4896 133.417 41.3906 133.875 41.3906C133.979 41.3906 134.099 41.4036 134.234 41.4297C134.37 41.4505 134.464 41.474 134.516 41.5ZM135.312 45.8672V45.6875C135.312 45.0781 135.401 44.513 135.578 43.9922C135.755 43.4661 136.01 43.0104 136.344 42.625C136.677 42.2344 137.081 41.9323 137.555 41.7188C138.029 41.5 138.56 41.3906 139.148 41.3906C139.742 41.3906 140.276 41.5 140.75 41.7188C141.229 41.9323 141.635 42.2344 141.969 42.625C142.307 43.0104 142.565 43.4661 142.742 43.9922C142.919 44.513 143.008 45.0781 143.008 45.6875V45.8672C143.008 46.4766 142.919 47.0417 142.742 47.5625C142.565 48.0833 142.307 48.5391 141.969 48.9297C141.635 49.3151 141.232 49.6172 140.758 49.8359C140.289 50.0495 139.758 50.1562 139.164 50.1562C138.57 50.1562 138.036 50.0495 137.562 49.8359C137.089 49.6172 136.682 49.3151 136.344 48.9297C136.01 48.5391 135.755 48.0833 135.578 47.5625C135.401 47.0417 135.312 46.4766 135.312 45.8672ZM136.758 45.6875V45.8672C136.758 46.2891 136.807 46.6875 136.906 47.0625C137.005 47.4323 137.154 47.7604 137.352 48.0469C137.555 48.3333 137.807 48.5599 138.109 48.7266C138.411 48.888 138.763 48.9688 139.164 48.9688C139.56 48.9688 139.906 48.888 140.203 48.7266C140.505 48.5599 140.755 48.3333 140.953 48.0469C141.151 47.7604 141.299 47.4323 141.398 47.0625C141.503 46.6875 141.555 46.2891 141.555 45.8672V45.6875C141.555 45.2708 141.503 44.8776 141.398 44.5078C141.299 44.1328 141.148 43.8021 140.945 43.5156C140.747 43.224 140.497 42.9948 140.195 42.8281C139.898 42.6615 139.549 42.5781 139.148 42.5781C138.753 42.5781 138.404 42.6615 138.102 42.8281C137.805 42.9948 137.555 43.224 137.352 43.5156C137.154 43.8021 137.005 44.1328 136.906 44.5078C136.807 44.8776 136.758 45.2708 136.758 45.6875ZM150.148 48.3594V38H151.602V50H150.273L150.148 48.3594ZM144.461 45.8672V45.7031C144.461 45.0573 144.539 44.4714 144.695 43.9453C144.857 43.4141 145.083 42.9583 145.375 42.5781C145.672 42.1979 146.023 41.9062 146.43 41.7031C146.841 41.4948 147.299 41.3906 147.805 41.3906C148.336 41.3906 148.799 41.4844 149.195 41.6719C149.596 41.8542 149.935 42.1224 150.211 42.4766C150.492 42.8255 150.714 43.2474 150.875 43.7422C151.036 44.237 151.148 44.7969 151.211 45.4219V46.1406C151.154 46.7604 151.042 47.3177 150.875 47.8125C150.714 48.3073 150.492 48.7292 150.211 49.0781C149.935 49.4271 149.596 49.6953 149.195 49.8828C148.794 50.0651 148.326 50.1562 147.789 50.1562C147.294 50.1562 146.841 50.0495 146.43 49.8359C146.023 49.6224 145.672 49.3229 145.375 48.9375C145.083 48.5521 144.857 48.099 144.695 47.5781C144.539 47.0521 144.461 46.4818 144.461 45.8672ZM145.914 45.7031V45.8672C145.914 46.2891 145.956 46.6849 146.039 47.0547C146.128 47.4245 146.263 47.75 146.445 48.0312C146.628 48.3125 146.859 48.5339 147.141 48.6953C147.422 48.8516 147.758 48.9297 148.148 48.9297C148.628 48.9297 149.021 48.8281 149.328 48.625C149.641 48.4219 149.891 48.1536 150.078 47.8203C150.266 47.487 150.411 47.125 150.516 46.7344V44.8516C150.453 44.5651 150.362 44.2891 150.242 44.0234C150.128 43.7526 149.977 43.513 149.789 43.3047C149.607 43.0911 149.38 42.9219 149.109 42.7969C148.844 42.6719 148.529 42.6094 148.164 42.6094C147.768 42.6094 147.427 42.6927 147.141 42.8594C146.859 43.0208 146.628 43.2448 146.445 43.5312C146.263 43.8125 146.128 44.1406 146.039 44.5156C145.956 44.8854 145.914 45.2812 145.914 45.7031ZM159.023 48.0469V41.5469H160.477V50H159.094L159.023 48.0469ZM159.297 46.2656L159.898 46.25C159.898 46.8125 159.839 47.3333 159.719 47.8125C159.604 48.2865 159.417 48.6979 159.156 49.0469C158.896 49.3958 158.555 49.6693 158.133 49.8672C157.711 50.0599 157.198 50.1562 156.594 50.1562C156.182 50.1562 155.805 50.0964 155.461 49.9766C155.122 49.8568 154.831 49.6719 154.586 49.4219C154.341 49.1719 154.151 48.8464 154.016 48.4453C153.885 48.0443 153.82 47.5625 153.82 47V41.5469H155.266V47.0156C155.266 47.3958 155.307 47.7109 155.391 47.9609C155.479 48.2057 155.596 48.401 155.742 48.5469C155.893 48.6875 156.06 48.7865 156.242 48.8438C156.43 48.901 156.622 48.9297 156.82 48.9297C157.435 48.9297 157.922 48.8125 158.281 48.5781C158.641 48.3385 158.898 48.0182 159.055 47.6172C159.216 47.2109 159.297 46.7604 159.297 46.2656ZM166.062 48.9688C166.406 48.9688 166.724 48.8984 167.016 48.7578C167.307 48.6172 167.547 48.4245 167.734 48.1797C167.922 47.9297 168.029 47.6458 168.055 47.3281H169.43C169.404 47.8281 169.234 48.2943 168.922 48.7266C168.615 49.1536 168.211 49.5 167.711 49.7656C167.211 50.026 166.661 50.1562 166.062 50.1562C165.427 50.1562 164.872 50.0443 164.398 49.8203C163.93 49.5964 163.539 49.2891 163.227 48.8984C162.919 48.5078 162.688 48.0599 162.531 47.5547C162.38 47.0443 162.305 46.5052 162.305 45.9375V45.6094C162.305 45.0417 162.38 44.5052 162.531 44C162.688 43.4896 162.919 43.0391 163.227 42.6484C163.539 42.2578 163.93 41.9505 164.398 41.7266C164.872 41.5026 165.427 41.3906 166.062 41.3906C166.724 41.3906 167.302 41.526 167.797 41.7969C168.292 42.0625 168.68 42.4271 168.961 42.8906C169.247 43.349 169.404 43.8698 169.43 44.4531H168.055C168.029 44.1042 167.93 43.7891 167.758 43.5078C167.591 43.2266 167.362 43.0026 167.07 42.8359C166.784 42.6641 166.448 42.5781 166.062 42.5781C165.62 42.5781 165.247 42.6667 164.945 42.8438C164.648 43.0156 164.411 43.25 164.234 43.5469C164.062 43.8385 163.938 44.1641 163.859 44.5234C163.786 44.8776 163.75 45.2396 163.75 45.6094V45.9375C163.75 46.3073 163.786 46.6719 163.859 47.0312C163.932 47.3906 164.055 47.7161 164.227 48.0078C164.404 48.2995 164.641 48.5339 164.938 48.7109C165.24 48.8828 165.615 48.9688 166.062 48.9688ZM174.594 41.5469V42.6562H170.023V41.5469H174.594ZM171.57 39.4922H173.016V47.9062C173.016 48.1927 173.06 48.4089 173.148 48.5547C173.237 48.7005 173.352 48.7969 173.492 48.8438C173.633 48.8906 173.784 48.9141 173.945 48.9141C174.065 48.9141 174.19 48.9036 174.32 48.8828C174.456 48.8568 174.557 48.8359 174.625 48.8203L174.633 50C174.518 50.0365 174.367 50.0703 174.18 50.1016C173.997 50.138 173.776 50.1562 173.516 50.1562C173.161 50.1562 172.836 50.0859 172.539 49.9453C172.242 49.8047 172.005 49.5703 171.828 49.2422C171.656 48.9089 171.57 48.4609 171.57 47.8984V39.4922ZM183.555 50H181.18L181.195 48.7734H183.555C184.367 48.7734 185.044 48.6042 185.586 48.2656C186.128 47.9219 186.534 47.4427 186.805 46.8281C187.081 46.2083 187.219 45.4844 187.219 44.6562V43.9609C187.219 43.3099 187.141 42.7318 186.984 42.2266C186.828 41.7161 186.599 41.2865 186.297 40.9375C185.995 40.5833 185.625 40.3151 185.188 40.1328C184.755 39.9505 184.258 39.8594 183.695 39.8594H181.133V38.625H183.695C184.44 38.625 185.12 38.75 185.734 39C186.349 39.2448 186.878 39.6016 187.32 40.0703C187.768 40.5339 188.112 41.0964 188.352 41.7578C188.591 42.4141 188.711 43.1536 188.711 43.9766V44.6562C188.711 45.4792 188.591 46.2214 188.352 46.8828C188.112 47.5391 187.766 48.099 187.312 48.5625C186.865 49.026 186.323 49.3828 185.688 49.6328C185.057 49.8776 184.346 50 183.555 50ZM181.984 38.625V50H180.477V38.625H181.984ZM194.266 50.1562C193.677 50.1562 193.143 50.0573 192.664 49.8594C192.19 49.6562 191.781 49.3724 191.438 49.0078C191.099 48.6432 190.839 48.2109 190.656 47.7109C190.474 47.2109 190.383 46.6641 190.383 46.0703V45.7422C190.383 45.0547 190.484 44.4427 190.688 43.9062C190.891 43.3646 191.167 42.9062 191.516 42.5312C191.865 42.1562 192.26 41.8724 192.703 41.6797C193.146 41.487 193.604 41.3906 194.078 41.3906C194.682 41.3906 195.203 41.4948 195.641 41.7031C196.083 41.9115 196.445 42.2031 196.727 42.5781C197.008 42.9479 197.216 43.3854 197.352 43.8906C197.487 44.3906 197.555 44.9375 197.555 45.5312V46.1797H191.242V45H196.109V44.8906C196.089 44.5156 196.01 44.151 195.875 43.7969C195.745 43.4427 195.536 43.151 195.25 42.9219C194.964 42.6927 194.573 42.5781 194.078 42.5781C193.75 42.5781 193.448 42.6484 193.172 42.7891C192.896 42.9245 192.659 43.1276 192.461 43.3984C192.263 43.6693 192.109 44 192 44.3906C191.891 44.7812 191.836 45.2318 191.836 45.7422V46.0703C191.836 46.4714 191.891 46.849 192 47.2031C192.115 47.5521 192.279 47.8594 192.492 48.125C192.711 48.3906 192.974 48.599 193.281 48.75C193.594 48.901 193.948 48.9766 194.344 48.9766C194.854 48.9766 195.286 48.8724 195.641 48.6641C195.995 48.4557 196.305 48.1771 196.57 47.8281L197.445 48.5234C197.263 48.7995 197.031 49.0625 196.75 49.3125C196.469 49.5625 196.122 49.7656 195.711 49.9219C195.305 50.0781 194.823 50.1562 194.266 50.1562ZM204.164 47.7578C204.164 47.5495 204.117 47.3568 204.023 47.1797C203.935 46.9974 203.75 46.8333 203.469 46.6875C203.193 46.5365 202.776 46.4062 202.219 46.2969C201.75 46.1979 201.326 46.0807 200.945 45.9453C200.57 45.8099 200.25 45.6458 199.984 45.4531C199.724 45.2604 199.523 45.0339 199.383 44.7734C199.242 44.513 199.172 44.2083 199.172 43.8594C199.172 43.526 199.245 43.2109 199.391 42.9141C199.542 42.6172 199.753 42.3542 200.023 42.125C200.299 41.8958 200.63 41.7161 201.016 41.5859C201.401 41.4557 201.831 41.3906 202.305 41.3906C202.982 41.3906 203.56 41.5104 204.039 41.75C204.518 41.9896 204.885 42.3099 205.141 42.7109C205.396 43.1068 205.523 43.5469 205.523 44.0312H204.078C204.078 43.7969 204.008 43.5703 203.867 43.3516C203.732 43.1276 203.531 42.9427 203.266 42.7969C203.005 42.651 202.685 42.5781 202.305 42.5781C201.904 42.5781 201.578 42.6406 201.328 42.7656C201.083 42.8854 200.904 43.0391 200.789 43.2266C200.68 43.4141 200.625 43.612 200.625 43.8203C200.625 43.9766 200.651 44.1172 200.703 44.2422C200.76 44.362 200.859 44.474 201 44.5781C201.141 44.6771 201.339 44.7708 201.594 44.8594C201.849 44.9479 202.174 45.0365 202.57 45.125C203.263 45.2812 203.833 45.4688 204.281 45.6875C204.729 45.9062 205.062 46.1745 205.281 46.4922C205.5 46.8099 205.609 47.1953 205.609 47.6484C205.609 48.0182 205.531 48.3568 205.375 48.6641C205.224 48.9714 205.003 49.237 204.711 49.4609C204.424 49.6797 204.081 49.8516 203.68 49.9766C203.284 50.0964 202.839 50.1562 202.344 50.1562C201.599 50.1562 200.969 50.0234 200.453 49.7578C199.938 49.4922 199.547 49.1484 199.281 48.7266C199.016 48.3047 198.883 47.8594 198.883 47.3906H200.336C200.357 47.7865 200.471 48.1016 200.68 48.3359C200.888 48.5651 201.143 48.7292 201.445 48.8281C201.747 48.9219 202.047 48.9688 202.344 48.9688C202.74 48.9688 203.07 48.9167 203.336 48.8125C203.607 48.7083 203.812 48.5651 203.953 48.3828C204.094 48.2005 204.164 47.9922 204.164 47.7578ZM209.078 41.5469V50H207.625V41.5469H209.078ZM207.516 39.3047C207.516 39.0703 207.586 38.8724 207.727 38.7109C207.872 38.5495 208.086 38.4688 208.367 38.4688C208.643 38.4688 208.854 38.5495 209 38.7109C209.151 38.8724 209.227 39.0703 209.227 39.3047C209.227 39.5286 209.151 39.7214 209 39.8828C208.854 40.0391 208.643 40.1172 208.367 40.1172C208.086 40.1172 207.872 40.0391 207.727 39.8828C207.586 39.7214 207.516 39.5286 207.516 39.3047ZM216.875 41.5469H218.188V49.8203C218.188 50.5651 218.036 51.2005 217.734 51.7266C217.432 52.2526 217.01 52.651 216.469 52.9219C215.932 53.1979 215.312 53.3359 214.609 53.3359C214.318 53.3359 213.974 53.2891 213.578 53.1953C213.188 53.1068 212.802 52.9531 212.422 52.7344C212.047 52.5208 211.732 52.2318 211.477 51.8672L212.234 51.0078C212.589 51.4349 212.958 51.7318 213.344 51.8984C213.734 52.0651 214.12 52.1484 214.5 52.1484C214.958 52.1484 215.354 52.0625 215.688 51.8906C216.021 51.7188 216.279 51.4635 216.461 51.125C216.648 50.7917 216.742 50.3802 216.742 49.8906V43.4062L216.875 41.5469ZM211.055 45.8672V45.7031C211.055 45.0573 211.13 44.4714 211.281 43.9453C211.438 43.4141 211.659 42.9583 211.945 42.5781C212.237 42.1979 212.589 41.9062 213 41.7031C213.411 41.4948 213.875 41.3906 214.391 41.3906C214.922 41.3906 215.385 41.4844 215.781 41.6719C216.182 41.8542 216.521 42.1224 216.797 42.4766C217.078 42.8255 217.299 43.2474 217.461 43.7422C217.622 44.237 217.734 44.7969 217.797 45.4219V46.1406C217.74 46.7604 217.628 47.3177 217.461 47.8125C217.299 48.3073 217.078 48.7292 216.797 49.0781C216.521 49.4271 216.182 49.6953 215.781 49.8828C215.38 50.0651 214.911 50.1562 214.375 50.1562C213.87 50.1562 213.411 50.0495 213 49.8359C212.594 49.6224 212.245 49.3229 211.953 48.9375C211.661 48.5521 211.438 48.099 211.281 47.5781C211.13 47.0521 211.055 46.4818 211.055 45.8672ZM212.5 45.7031V45.8672C212.5 46.2891 212.542 46.6849 212.625 47.0547C212.714 47.4245 212.846 47.75 213.023 48.0312C213.206 48.3125 213.438 48.5339 213.719 48.6953C214 48.8516 214.336 48.9297 214.727 48.9297C215.206 48.9297 215.602 48.8281 215.914 48.625C216.227 48.4219 216.474 48.1536 216.656 47.8203C216.844 47.487 216.99 47.125 217.094 46.7344V44.8516C217.036 44.5651 216.948 44.2891 216.828 44.0234C216.714 43.7526 216.562 43.513 216.375 43.3047C216.193 43.0911 215.966 42.9219 215.695 42.7969C215.424 42.6719 215.107 42.6094 214.742 42.6094C214.346 42.6094 214.005 42.6927 213.719 42.8594C213.438 43.0208 213.206 43.2448 213.023 43.5312C212.846 43.8125 212.714 44.1406 212.625 44.5156C212.542 44.8854 212.5 45.2812 212.5 45.7031ZM221.828 43.3516V50H220.383V41.5469H221.75L221.828 43.3516ZM221.484 45.4531L220.883 45.4297C220.888 44.8516 220.974 44.3177 221.141 43.8281C221.307 43.3333 221.542 42.9036 221.844 42.5391C222.146 42.1745 222.505 41.8932 222.922 41.6953C223.344 41.4922 223.81 41.3906 224.32 41.3906C224.737 41.3906 225.112 41.4479 225.445 41.5625C225.779 41.6719 226.062 41.849 226.297 42.0938C226.536 42.3385 226.719 42.6562 226.844 43.0469C226.969 43.4323 227.031 43.9036 227.031 44.4609V50H225.578V44.4453C225.578 44.0026 225.513 43.6484 225.383 43.3828C225.253 43.112 225.062 42.9167 224.812 42.7969C224.562 42.6719 224.255 42.6094 223.891 42.6094C223.531 42.6094 223.203 42.6849 222.906 42.8359C222.615 42.987 222.362 43.1953 222.148 43.4609C221.94 43.7266 221.776 44.0312 221.656 44.375C221.542 44.7135 221.484 45.0729 221.484 45.4531ZM232.734 50.1562C232.146 50.1562 231.612 50.0573 231.133 49.8594C230.659 49.6562 230.25 49.3724 229.906 49.0078C229.568 48.6432 229.307 48.2109 229.125 47.7109C228.943 47.2109 228.852 46.6641 228.852 46.0703V45.7422C228.852 45.0547 228.953 44.4427 229.156 43.9062C229.359 43.3646 229.635 42.9062 229.984 42.5312C230.333 42.1562 230.729 41.8724 231.172 41.6797C231.615 41.487 232.073 41.3906 232.547 41.3906C233.151 41.3906 233.672 41.4948 234.109 41.7031C234.552 41.9115 234.914 42.2031 235.195 42.5781C235.477 42.9479 235.685 43.3854 235.82 43.8906C235.956 44.3906 236.023 44.9375 236.023 45.5312V46.1797H229.711V45H234.578V44.8906C234.557 44.5156 234.479 44.151 234.344 43.7969C234.214 43.4427 234.005 43.151 233.719 42.9219C233.432 42.6927 233.042 42.5781 232.547 42.5781C232.219 42.5781 231.917 42.6484 231.641 42.7891C231.365 42.9245 231.128 43.1276 230.93 43.3984C230.732 43.6693 230.578 44 230.469 44.3906C230.359 44.7812 230.305 45.2318 230.305 45.7422V46.0703C230.305 46.4714 230.359 46.849 230.469 47.2031C230.583 47.5521 230.747 47.8594 230.961 48.125C231.18 48.3906 231.443 48.599 231.75 48.75C232.062 48.901 232.417 48.9766 232.812 48.9766C233.323 48.9766 233.755 48.8724 234.109 48.6641C234.464 48.4557 234.773 48.1771 235.039 47.8281L235.914 48.5234C235.732 48.7995 235.5 49.0625 235.219 49.3125C234.938 49.5625 234.591 49.7656 234.18 49.9219C233.773 50.0781 233.292 50.1562 232.734 50.1562ZM239.156 42.875V50H237.711V41.5469H239.117L239.156 42.875ZM241.797 41.5L241.789 42.8438C241.669 42.8177 241.555 42.8021 241.445 42.7969C241.341 42.7865 241.221 42.7812 241.086 42.7812C240.753 42.7812 240.458 42.8333 240.203 42.9375C239.948 43.0417 239.732 43.1875 239.555 43.375C239.378 43.5625 239.237 43.7865 239.133 44.0469C239.034 44.3021 238.969 44.5833 238.938 44.8906L238.531 45.125C238.531 44.6146 238.581 44.1354 238.68 43.6875C238.784 43.2396 238.943 42.8438 239.156 42.5C239.37 42.151 239.641 41.8802 239.969 41.6875C240.302 41.4896 240.698 41.3906 241.156 41.3906C241.26 41.3906 241.38 41.4036 241.516 41.4297C241.651 41.4505 241.745 41.474 241.797 41.5Z" fill="black" fill-opacity="0.6"/>
<path d="M575.671 10.8062L566.705 19.7719L565.232 18.299L574.197 9.33333H566.296V7.25H577.754V18.7083H575.671V10.8062Z" fill="black"/>
<path d="M356.086 44.2812V43.9609C356.086 43.513 356.227 43.1432 356.508 42.8516C356.794 42.5599 357.182 42.4141 357.672 42.4141C358.167 42.4141 358.557 42.5599 358.844 42.8516C359.13 43.1432 359.273 43.513 359.273 43.9609V44.2812C359.273 44.724 359.13 45.0911 358.844 45.3828C358.562 45.6693 358.174 45.8125 357.68 45.8125C357.19 45.8125 356.802 45.6693 356.516 45.3828C356.229 45.0911 356.086 44.724 356.086 44.2812ZM369.906 39.6328L366.141 50H364.602L368.938 38.625H369.93L369.906 39.6328ZM373.062 50L369.289 39.6328L369.266 38.625H370.258L374.609 50H373.062ZM372.867 45.7891V47.0234H366.477V45.7891H372.867ZM377.359 43.1719V53.25H375.906V41.5469H377.234L377.359 43.1719ZM383.055 45.7031V45.8672C383.055 46.4818 382.982 47.0521 382.836 47.5781C382.69 48.099 382.477 48.5521 382.195 48.9375C381.919 49.3229 381.578 49.6224 381.172 49.8359C380.766 50.0495 380.299 50.1562 379.773 50.1562C379.237 50.1562 378.763 50.0677 378.352 49.8906C377.94 49.7135 377.591 49.4557 377.305 49.1172C377.018 48.7786 376.789 48.3724 376.617 47.8984C376.451 47.4245 376.336 46.8906 376.273 46.2969V45.4219C376.336 44.7969 376.453 44.237 376.625 43.7422C376.797 43.2474 377.023 42.8255 377.305 42.4766C377.591 42.1224 377.938 41.8542 378.344 41.6719C378.75 41.4844 379.219 41.3906 379.75 41.3906C380.281 41.3906 380.753 41.4948 381.164 41.7031C381.576 41.9062 381.922 42.1979 382.203 42.5781C382.484 42.9583 382.695 43.4141 382.836 43.9453C382.982 44.4714 383.055 45.0573 383.055 45.7031ZM381.602 45.8672V45.7031C381.602 45.2812 381.557 44.8854 381.469 44.5156C381.38 44.1406 381.242 43.8125 381.055 43.5312C380.872 43.2448 380.638 43.0208 380.352 42.8594C380.065 42.6927 379.724 42.6094 379.328 42.6094C378.964 42.6094 378.646 42.6719 378.375 42.7969C378.109 42.9219 377.883 43.0911 377.695 43.3047C377.508 43.513 377.354 43.7526 377.234 44.0234C377.12 44.2891 377.034 44.5651 376.977 44.8516V46.875C377.081 47.2396 377.227 47.5833 377.414 47.9062C377.602 48.224 377.852 48.4818 378.164 48.6797C378.477 48.8724 378.87 48.9688 379.344 48.9688C379.734 48.9688 380.07 48.888 380.352 48.7266C380.638 48.5599 380.872 48.3333 381.055 48.0469C381.242 47.7604 381.38 47.4323 381.469 47.0625C381.557 46.6875 381.602 46.2891 381.602 45.8672ZM386.344 42.875V50H384.898V41.5469H386.305L386.344 42.875ZM388.984 41.5L388.977 42.8438C388.857 42.8177 388.742 42.8021 388.633 42.7969C388.529 42.7865 388.409 42.7812 388.273 42.7812C387.94 42.7812 387.646 42.8333 387.391 42.9375C387.135 43.0417 386.919 43.1875 386.742 43.375C386.565 43.5625 386.424 43.7865 386.32 44.0469C386.221 44.3021 386.156 44.5833 386.125 44.8906L385.719 45.125C385.719 44.6146 385.768 44.1354 385.867 43.6875C385.971 43.2396 386.13 42.8438 386.344 42.5C386.557 42.151 386.828 41.8802 387.156 41.6875C387.49 41.4896 387.885 41.3906 388.344 41.3906C388.448 41.3906 388.568 41.4036 388.703 41.4297C388.839 41.4505 388.932 41.474 388.984 41.5ZM391.891 41.5469V50H390.438V41.5469H391.891ZM390.328 39.3047C390.328 39.0703 390.398 38.8724 390.539 38.7109C390.685 38.5495 390.898 38.4688 391.18 38.4688C391.456 38.4688 391.667 38.5495 391.812 38.7109C391.964 38.8724 392.039 39.0703 392.039 39.3047C392.039 39.5286 391.964 39.7214 391.812 39.8828C391.667 40.0391 391.456 40.1172 391.18 40.1172C390.898 40.1172 390.685 40.0391 390.539 39.8828C390.398 39.7214 390.328 39.5286 390.328 39.3047ZM395.781 38V50H394.328V38H395.781ZM409.367 48.8125V50H401.922V48.9609L405.648 44.8125C406.107 44.3021 406.461 43.8698 406.711 43.5156C406.966 43.1562 407.143 42.8359 407.242 42.5547C407.346 42.2682 407.398 41.9766 407.398 41.6797C407.398 41.3047 407.32 40.9661 407.164 40.6641C407.013 40.3568 406.789 40.112 406.492 39.9297C406.195 39.7474 405.836 39.6562 405.414 39.6562C404.909 39.6562 404.487 39.7552 404.148 39.9531C403.815 40.1458 403.565 40.4167 403.398 40.7656C403.232 41.1146 403.148 41.5156 403.148 41.9688H401.703C401.703 41.3281 401.844 40.7422 402.125 40.2109C402.406 39.6797 402.823 39.2578 403.375 38.9453C403.927 38.6276 404.607 38.4688 405.414 38.4688C406.133 38.4688 406.747 38.5964 407.258 38.8516C407.768 39.1016 408.159 39.4557 408.43 39.9141C408.706 40.3672 408.844 40.8984 408.844 41.5078C408.844 41.8411 408.786 42.1797 408.672 42.5234C408.562 42.862 408.409 43.2005 408.211 43.5391C408.018 43.8776 407.792 44.2109 407.531 44.5391C407.276 44.8672 407.003 45.1901 406.711 45.5078L403.664 48.8125H409.367ZM418.055 43.4062V45.1406C418.055 46.0729 417.971 46.8594 417.805 47.5C417.638 48.1406 417.398 48.6562 417.086 49.0469C416.773 49.4375 416.396 49.7214 415.953 49.8984C415.516 50.0703 415.021 50.1562 414.469 50.1562C414.031 50.1562 413.628 50.1016 413.258 49.9922C412.888 49.8828 412.555 49.7083 412.258 49.4688C411.966 49.224 411.716 48.9062 411.508 48.5156C411.299 48.125 411.141 47.651 411.031 47.0938C410.922 46.5365 410.867 45.8854 410.867 45.1406V43.4062C410.867 42.474 410.951 41.6927 411.117 41.0625C411.289 40.4323 411.531 39.9271 411.844 39.5469C412.156 39.1615 412.531 38.8854 412.969 38.7188C413.411 38.5521 413.906 38.4688 414.453 38.4688C414.896 38.4688 415.302 38.5234 415.672 38.6328C416.047 38.737 416.38 38.9062 416.672 39.1406C416.964 39.3698 417.211 39.6771 417.414 40.0625C417.622 40.4427 417.781 40.9089 417.891 41.4609C418 42.013 418.055 42.6615 418.055 43.4062ZM416.602 45.375V43.1641C416.602 42.6536 416.57 42.2057 416.508 41.8203C416.451 41.4297 416.365 41.0964 416.25 40.8203C416.135 40.5443 415.99 40.3203 415.812 40.1484C415.641 39.9766 415.44 39.8516 415.211 39.7734C414.987 39.6901 414.734 39.6484 414.453 39.6484C414.109 39.6484 413.805 39.7135 413.539 39.8438C413.273 39.9688 413.049 40.1693 412.867 40.4453C412.69 40.7214 412.555 41.0833 412.461 41.5312C412.367 41.9792 412.32 42.5234 412.32 43.1641V45.375C412.32 45.8854 412.349 46.3359 412.406 46.7266C412.469 47.1172 412.56 47.4557 412.68 47.7422C412.799 48.0234 412.945 48.2552 413.117 48.4375C413.289 48.6198 413.487 48.7552 413.711 48.8438C413.94 48.9271 414.193 48.9688 414.469 48.9688C414.823 48.9688 415.133 48.901 415.398 48.7656C415.664 48.6302 415.885 48.4193 416.062 48.1328C416.245 47.8411 416.38 47.4688 416.469 47.0156C416.557 46.5573 416.602 46.0104 416.602 45.375ZM424.664 38.5625V50H423.219V40.3672L420.305 41.4297V40.125L424.438 38.5625H424.664ZM430.352 48.7891H430.5C431.333 48.7891 432.01 48.6719 432.531 48.4375C433.052 48.2031 433.453 47.888 433.734 47.4922C434.016 47.0964 434.208 46.651 434.312 46.1562C434.417 45.6562 434.469 45.1432 434.469 44.6172V42.875C434.469 42.3594 434.409 41.901 434.289 41.5C434.174 41.099 434.013 40.763 433.805 40.4922C433.602 40.2214 433.37 40.0156 433.109 39.875C432.849 39.7344 432.573 39.6641 432.281 39.6641C431.948 39.6641 431.648 39.7318 431.383 39.8672C431.122 39.9974 430.901 40.1823 430.719 40.4219C430.542 40.6615 430.406 40.9427 430.312 41.2656C430.219 41.5885 430.172 41.9401 430.172 42.3203C430.172 42.6589 430.214 42.987 430.297 43.3047C430.38 43.6224 430.508 43.9089 430.68 44.1641C430.852 44.4193 431.065 44.6224 431.32 44.7734C431.581 44.9193 431.885 44.9922 432.234 44.9922C432.557 44.9922 432.859 44.9297 433.141 44.8047C433.427 44.6745 433.68 44.5 433.898 44.2812C434.122 44.0573 434.299 43.8047 434.43 43.5234C434.565 43.2422 434.643 42.9479 434.664 42.6406H435.352C435.352 43.0729 435.266 43.5 435.094 43.9219C434.927 44.3385 434.693 44.7188 434.391 45.0625C434.089 45.4062 433.734 45.6823 433.328 45.8906C432.922 46.0938 432.479 46.1953 432 46.1953C431.438 46.1953 430.951 46.0859 430.539 45.8672C430.128 45.6484 429.789 45.3568 429.523 44.9922C429.263 44.6276 429.068 44.2214 428.938 43.7734C428.812 43.3203 428.75 42.862 428.75 42.3984C428.75 41.8568 428.826 41.349 428.977 40.875C429.128 40.401 429.352 39.9844 429.648 39.625C429.945 39.2604 430.312 38.9766 430.75 38.7734C431.193 38.5703 431.703 38.4688 432.281 38.4688C432.932 38.4688 433.487 38.599 433.945 38.8594C434.404 39.1198 434.776 39.4688 435.062 39.9062C435.354 40.3438 435.568 40.8359 435.703 41.3828C435.839 41.9297 435.906 42.4922 435.906 43.0703V43.5938C435.906 44.1823 435.867 44.7812 435.789 45.3906C435.716 45.9948 435.573 46.5729 435.359 47.125C435.151 47.6771 434.846 48.1719 434.445 48.6094C434.044 49.0417 433.521 49.3854 432.875 49.6406C432.234 49.8906 431.443 50.0156 430.5 50.0156H430.352V48.7891ZM445.047 44.5703V45.7578H441.234V44.5703H445.047ZM457.516 46.3828H459.016C458.938 47.1016 458.732 47.7448 458.398 48.3125C458.065 48.8802 457.594 49.3307 456.984 49.6641C456.375 49.9922 455.615 50.1562 454.703 50.1562C454.036 50.1562 453.43 50.0312 452.883 49.7812C452.341 49.5312 451.875 49.1771 451.484 48.7188C451.094 48.2552 450.792 47.7005 450.578 47.0547C450.37 46.4036 450.266 45.6797 450.266 44.8828V43.75C450.266 42.9531 450.37 42.2318 450.578 41.5859C450.792 40.9349 451.096 40.3776 451.492 39.9141C451.893 39.4505 452.375 39.0938 452.938 38.8438C453.5 38.5938 454.133 38.4688 454.836 38.4688C455.695 38.4688 456.422 38.6302 457.016 38.9531C457.609 39.276 458.07 39.724 458.398 40.2969C458.732 40.8646 458.938 41.5234 459.016 42.2734H457.516C457.443 41.7422 457.307 41.2865 457.109 40.9062C456.911 40.5208 456.63 40.224 456.266 40.0156C455.901 39.8073 455.424 39.7031 454.836 39.7031C454.331 39.7031 453.885 39.7995 453.5 39.9922C453.12 40.1849 452.799 40.4583 452.539 40.8125C452.284 41.1667 452.091 41.5911 451.961 42.0859C451.831 42.5807 451.766 43.1302 451.766 43.7344V44.8828C451.766 45.4401 451.823 45.9635 451.938 46.4531C452.057 46.9427 452.237 47.3724 452.477 47.7422C452.716 48.112 453.021 48.4036 453.391 48.6172C453.76 48.8255 454.198 48.9297 454.703 48.9297C455.344 48.9297 455.854 48.8281 456.234 48.625C456.615 48.4219 456.901 48.1302 457.094 47.75C457.292 47.3698 457.432 46.9141 457.516 46.3828ZM466.023 48.0469V41.5469H467.477V50H466.094L466.023 48.0469ZM466.297 46.2656L466.898 46.25C466.898 46.8125 466.839 47.3333 466.719 47.8125C466.604 48.2865 466.417 48.6979 466.156 49.0469C465.896 49.3958 465.555 49.6693 465.133 49.8672C464.711 50.0599 464.198 50.1562 463.594 50.1562C463.182 50.1562 462.805 50.0964 462.461 49.9766C462.122 49.8568 461.831 49.6719 461.586 49.4219C461.341 49.1719 461.151 48.8464 461.016 48.4453C460.885 48.0443 460.82 47.5625 460.82 47V41.5469H462.266V47.0156C462.266 47.3958 462.307 47.7109 462.391 47.9609C462.479 48.2057 462.596 48.401 462.742 48.5469C462.893 48.6875 463.06 48.7865 463.242 48.8438C463.43 48.901 463.622 48.9297 463.82 48.9297C464.435 48.9297 464.922 48.8125 465.281 48.5781C465.641 48.3385 465.898 48.0182 466.055 47.6172C466.216 47.2109 466.297 46.7604 466.297 46.2656ZM471.125 42.875V50H469.68V41.5469H471.086L471.125 42.875ZM473.766 41.5L473.758 42.8438C473.638 42.8177 473.523 42.8021 473.414 42.7969C473.31 42.7865 473.19 42.7812 473.055 42.7812C472.721 42.7812 472.427 42.8333 472.172 42.9375C471.917 43.0417 471.701 43.1875 471.523 43.375C471.346 43.5625 471.206 43.7865 471.102 44.0469C471.003 44.3021 470.938 44.5833 470.906 44.8906L470.5 45.125C470.5 44.6146 470.549 44.1354 470.648 43.6875C470.753 43.2396 470.911 42.8438 471.125 42.5C471.339 42.151 471.609 41.8802 471.938 41.6875C472.271 41.4896 472.667 41.3906 473.125 41.3906C473.229 41.3906 473.349 41.4036 473.484 41.4297C473.62 41.4505 473.714 41.474 473.766 41.5ZM476.547 42.875V50H475.102V41.5469H476.508L476.547 42.875ZM479.188 41.5L479.18 42.8438C479.06 42.8177 478.945 42.8021 478.836 42.7969C478.732 42.7865 478.612 42.7812 478.477 42.7812C478.143 42.7812 477.849 42.8333 477.594 42.9375C477.339 43.0417 477.122 43.1875 476.945 43.375C476.768 43.5625 476.628 43.7865 476.523 44.0469C476.424 44.3021 476.359 44.5833 476.328 44.8906L475.922 45.125C475.922 44.6146 475.971 44.1354 476.07 43.6875C476.174 43.2396 476.333 42.8438 476.547 42.5C476.76 42.151 477.031 41.8802 477.359 41.6875C477.693 41.4896 478.089 41.3906 478.547 41.3906C478.651 41.3906 478.771 41.4036 478.906 41.4297C479.042 41.4505 479.135 41.474 479.188 41.5ZM483.875 50.1562C483.286 50.1562 482.753 50.0573 482.273 49.8594C481.799 49.6562 481.391 49.3724 481.047 49.0078C480.708 48.6432 480.448 48.2109 480.266 47.7109C480.083 47.2109 479.992 46.6641 479.992 46.0703V45.7422C479.992 45.0547 480.094 44.4427 480.297 43.9062C480.5 43.3646 480.776 42.9062 481.125 42.5312C481.474 42.1562 481.87 41.8724 482.312 41.6797C482.755 41.487 483.214 41.3906 483.688 41.3906C484.292 41.3906 484.812 41.4948 485.25 41.7031C485.693 41.9115 486.055 42.2031 486.336 42.5781C486.617 42.9479 486.826 43.3854 486.961 43.8906C487.096 44.3906 487.164 44.9375 487.164 45.5312V46.1797H480.852V45H485.719V44.8906C485.698 44.5156 485.62 44.151 485.484 43.7969C485.354 43.4427 485.146 43.151 484.859 42.9219C484.573 42.6927 484.182 42.5781 483.688 42.5781C483.359 42.5781 483.057 42.6484 482.781 42.7891C482.505 42.9245 482.268 43.1276 482.07 43.3984C481.872 43.6693 481.719 44 481.609 44.3906C481.5 44.7812 481.445 45.2318 481.445 45.7422V46.0703C481.445 46.4714 481.5 46.849 481.609 47.2031C481.724 47.5521 481.888 47.8594 482.102 48.125C482.32 48.3906 482.583 48.599 482.891 48.75C483.203 48.901 483.557 48.9766 483.953 48.9766C484.464 48.9766 484.896 48.8724 485.25 48.6641C485.604 48.4557 485.914 48.1771 486.18 47.8281L487.055 48.5234C486.872 48.7995 486.641 49.0625 486.359 49.3125C486.078 49.5625 485.732 49.7656 485.32 49.9219C484.914 50.0781 484.432 50.1562 483.875 50.1562ZM490.297 43.3516V50H488.852V41.5469H490.219L490.297 43.3516ZM489.953 45.4531L489.352 45.4297C489.357 44.8516 489.443 44.3177 489.609 43.8281C489.776 43.3333 490.01 42.9036 490.312 42.5391C490.615 42.1745 490.974 41.8932 491.391 41.6953C491.812 41.4922 492.279 41.3906 492.789 41.3906C493.206 41.3906 493.581 41.4479 493.914 41.5625C494.247 41.6719 494.531 41.849 494.766 42.0938C495.005 42.3385 495.188 42.6562 495.312 43.0469C495.438 43.4323 495.5 43.9036 495.5 44.4609V50H494.047V44.4453C494.047 44.0026 493.982 43.6484 493.852 43.3828C493.721 43.112 493.531 42.9167 493.281 42.7969C493.031 42.6719 492.724 42.6094 492.359 42.6094C492 42.6094 491.672 42.6849 491.375 42.8359C491.083 42.987 490.831 43.1953 490.617 43.4609C490.409 43.7266 490.245 44.0312 490.125 44.375C490.01 44.7135 489.953 45.0729 489.953 45.4531ZM501.234 41.5469V42.6562H496.664V41.5469H501.234ZM498.211 39.4922H499.656V47.9062C499.656 48.1927 499.701 48.4089 499.789 48.5547C499.878 48.7005 499.992 48.7969 500.133 48.8438C500.273 48.8906 500.424 48.9141 500.586 48.9141C500.706 48.9141 500.831 48.9036 500.961 48.8828C501.096 48.8568 501.198 48.8359 501.266 48.8203L501.273 50C501.159 50.0365 501.008 50.0703 500.82 50.1016C500.638 50.138 500.417 50.1562 500.156 50.1562C499.802 50.1562 499.477 50.0859 499.18 49.9453C498.883 49.8047 498.646 49.5703 498.469 49.2422C498.297 48.9089 498.211 48.4609 498.211 47.8984V39.4922Z" fill="black" fill-opacity="0.6"/>
<g clip-path="url(#clip1_1_768)">
<path d="M0 94H583V95H0V94Z" fill="#E5E5E5"/>
</g>
<defs>
<clipPath id="clip0_1_768">
<rect width="50" height="50" fill="white" transform="translate(0 3)"/>
</clipPath>
<clipPath id="clip1_1_768">
<rect width="583" height="1" fill="white" transform="translate(0 94)"/>
</clipPath>
</defs>
</svg>
