<svg width="584" height="95" viewBox="0 0 584 95" fill="none" xmlns="http://www.w3.org/2000/svg">
<g clip-path="url(#clip0_1_799)">
<path d="M50 27.8151C50 14.2204 38.8071 3.19971 25 3.19971C11.1929 3.19971 0 14.2204 0 27.8151C0 41.4098 11.1929 52.4305 25 52.4305C38.8071 52.4305 50 41.4098 50 27.8151Z" fill="#FFC960"/>
<path d="M35.8131 23.1475C35.5896 22.9638 35.3181 22.8457 35.0297 22.8065C34.7412 22.7675 34.4474 22.809 34.1818 22.9264L29.242 25.0881L26.3658 19.9906C26.2305 19.7508 26.0324 19.5509 25.7923 19.4118C25.5521 19.2726 25.2786 19.1992 24.9999 19.1992C24.7212 19.1992 24.4477 19.2726 24.2075 19.4118C23.9673 19.5509 23.7694 19.7508 23.6341 19.9906L20.7577 25.0881L15.8172 22.926C15.5513 22.8097 15.2578 22.7688 14.9697 22.8078C14.6815 22.8469 14.4101 22.9644 14.1861 23.1471C13.962 23.3298 13.7943 23.5704 13.7016 23.8418C13.6089 24.1134 13.5951 24.4049 13.6616 24.6838L16.1465 35.1004C16.1937 35.3021 16.2823 35.4921 16.4066 35.6589C16.5311 35.8258 16.6887 35.9659 16.8699 36.0708C17.0521 36.1763 17.254 36.2448 17.4636 36.2721C17.6731 36.2994 17.8862 36.2849 18.09 36.2295C22.6105 35.0008 27.3845 35.0003 31.9052 36.2282C32.109 36.2835 32.3219 36.2979 32.5314 36.2707C32.7409 36.2434 32.9427 36.175 33.1248 36.0695C33.3059 35.9647 33.4634 35.8247 33.5879 35.6579C33.7123 35.4912 33.8008 35.3013 33.8482 35.0998L36.3373 24.6846C36.4051 24.4058 36.3919 24.1138 36.2991 23.842C36.2065 23.5702 36.038 23.3296 35.8131 23.1475ZM28.9019 31.7033C28.8912 31.8038 28.8606 31.9013 28.8117 31.9901C28.7627 32.079 28.6966 32.1575 28.6168 32.221C28.537 32.2846 28.4453 32.3321 28.3469 32.3607C28.2484 32.3894 28.1452 32.3986 28.0432 32.3878C26.0199 32.1787 23.9799 32.1787 21.9566 32.3878C21.7509 32.4085 21.5454 32.3479 21.3849 32.2196C21.2245 32.0912 21.1223 31.9055 21.1006 31.7031C21.079 31.5006 21.1398 31.298 21.2695 31.1396C21.3994 30.9811 21.5877 30.8798 21.7932 30.8578C23.9252 30.6374 26.0747 30.6374 28.2066 30.8578C28.3087 30.8685 28.4076 30.8987 28.4977 30.9468C28.5879 30.9951 28.6676 31.0603 28.7321 31.1388C28.7966 31.2173 28.8449 31.3076 28.874 31.4045C28.9031 31.5013 28.9126 31.6028 28.9019 31.7033Z" fill="#543700"/>
</g>
<path d="M75.0391 1.9375V19H71.5234V1.9375H75.0391ZM85.2578 1.9375L78.4961 10.3633L74.5938 14.5586L73.9609 11.2305L76.5977 7.62109L80.9453 1.9375H85.2578ZM81.2617 19L76.2344 11.1133L78.8359 8.93359L85.4219 19H81.2617ZM90.1328 6.32031V19H86.7461V6.32031H90.1328ZM86.5352 3.01562C86.5352 2.52344 86.707 2.11719 87.0508 1.79688C87.3945 1.47656 87.8555 1.31641 88.4336 1.31641C89.0039 1.31641 89.4609 1.47656 89.8047 1.79688C90.1562 2.11719 90.332 2.52344 90.332 3.01562C90.332 3.50781 90.1562 3.91406 89.8047 4.23438C89.4609 4.55469 89.0039 4.71484 88.4336 4.71484C87.8555 4.71484 87.3945 4.55469 87.0508 4.23438C86.707 3.91406 86.5352 3.50781 86.5352 3.01562ZM96.2266 9.02734V19H92.8516V6.32031H96.0156L96.2266 9.02734ZM95.7344 12.2148H94.8203C94.8203 11.2773 94.9414 10.4336 95.1836 9.68359C95.4258 8.92578 95.7656 8.28125 96.2031 7.75C96.6406 7.21094 97.1602 6.80078 97.7617 6.51953C98.3711 6.23047 99.0508 6.08594 99.8008 6.08594C100.395 6.08594 100.938 6.17188 101.43 6.34375C101.922 6.51562 102.344 6.78906 102.695 7.16406C103.055 7.53906 103.328 8.03516 103.516 8.65234C103.711 9.26953 103.809 10.0234 103.809 10.9141V19H100.41V10.9023C100.41 10.3398 100.332 9.90234 100.176 9.58984C100.02 9.27734 99.7891 9.05859 99.4844 8.93359C99.1875 8.80078 98.8203 8.73438 98.3828 8.73438C97.9297 8.73438 97.5352 8.82422 97.1992 9.00391C96.8711 9.18359 96.5977 9.43359 96.3789 9.75391C96.168 10.0664 96.0078 10.4336 95.8984 10.8555C95.7891 11.2773 95.7344 11.7305 95.7344 12.2148ZM114.402 6.32031H117.461V18.5781C117.461 19.7344 117.203 20.7148 116.688 21.5195C116.18 22.332 115.469 22.9453 114.555 23.3594C113.641 23.7812 112.578 23.9922 111.367 23.9922C110.836 23.9922 110.273 23.9219 109.68 23.7812C109.094 23.6406 108.531 23.4219 107.992 23.125C107.461 22.8281 107.016 22.4531 106.656 22L108.145 20.0078C108.535 20.4609 108.988 20.8125 109.504 21.0625C110.02 21.3203 110.59 21.4492 111.215 21.4492C111.824 21.4492 112.34 21.3359 112.762 21.1094C113.184 20.8906 113.508 20.5664 113.734 20.1367C113.961 19.7148 114.074 19.2031 114.074 18.6016V9.25L114.402 6.32031ZM105.871 12.8125V12.5664C105.871 11.5977 105.988 10.7188 106.223 9.92969C106.465 9.13281 106.805 8.44922 107.242 7.87891C107.688 7.30859 108.227 6.86719 108.859 6.55469C109.492 6.24219 110.207 6.08594 111.004 6.08594C111.848 6.08594 112.555 6.24219 113.125 6.55469C113.695 6.86719 114.164 7.3125 114.531 7.89062C114.898 8.46094 115.184 9.13672 115.387 9.91797C115.598 10.6914 115.762 11.5391 115.879 12.4609V13C115.762 13.8828 115.586 14.7031 115.352 15.4609C115.117 16.2188 114.809 16.8828 114.426 17.4531C114.043 18.0156 113.566 18.4531 112.996 18.7656C112.434 19.0781 111.762 19.2344 110.98 19.2344C110.199 19.2344 109.492 19.0742 108.859 18.7539C108.234 18.4336 107.699 17.9844 107.254 17.4062C106.809 16.8281 106.465 16.1484 106.223 15.3672C105.988 14.5859 105.871 13.7344 105.871 12.8125ZM109.246 12.5664V12.8125C109.246 13.3359 109.297 13.8242 109.398 14.2773C109.5 14.7305 109.656 15.1328 109.867 15.4844C110.086 15.8281 110.355 16.0977 110.676 16.293C111.004 16.4805 111.391 16.5742 111.836 16.5742C112.453 16.5742 112.957 16.4453 113.348 16.1875C113.738 15.9219 114.031 15.5586 114.227 15.0977C114.422 14.6367 114.535 14.1055 114.566 13.5039V11.9688C114.551 11.4766 114.484 11.0352 114.367 10.6445C114.25 10.2461 114.086 9.90625 113.875 9.625C113.664 9.34375 113.391 9.125 113.055 8.96875C112.719 8.8125 112.32 8.73438 111.859 8.73438C111.414 8.73438 111.027 8.83594 110.699 9.03906C110.379 9.23438 110.109 9.50391 109.891 9.84766C109.68 10.1914 109.52 10.5977 109.41 11.0664C109.301 11.5273 109.246 12.0273 109.246 12.5664ZM127.574 16.2344V1H130.973V19H127.914L127.574 16.2344ZM119.559 12.8125V12.5664C119.559 11.5977 119.668 10.7188 119.887 9.92969C120.105 9.13281 120.426 8.44922 120.848 7.87891C121.27 7.30859 121.789 6.86719 122.406 6.55469C123.023 6.24219 123.727 6.08594 124.516 6.08594C125.258 6.08594 125.906 6.24219 126.461 6.55469C127.023 6.86719 127.5 7.3125 127.891 7.89062C128.289 8.46094 128.609 9.13672 128.852 9.91797C129.094 10.6914 129.27 11.5391 129.379 12.4609V13C129.27 13.8828 129.094 14.7031 128.852 15.4609C128.609 16.2188 128.289 16.8828 127.891 17.4531C127.5 18.0156 127.023 18.4531 126.461 18.7656C125.898 19.0781 125.242 19.2344 124.492 19.2344C123.703 19.2344 123 19.0742 122.383 18.7539C121.773 18.4336 121.258 17.9844 120.836 17.4062C120.422 16.8281 120.105 16.1484 119.887 15.3672C119.668 14.5859 119.559 13.7344 119.559 12.8125ZM122.934 12.5664V12.8125C122.934 13.3359 122.973 13.8242 123.051 14.2773C123.137 14.7305 123.273 15.1328 123.461 15.4844C123.656 15.8281 123.906 16.0977 124.211 16.293C124.523 16.4805 124.902 16.5742 125.348 16.5742C125.926 16.5742 126.402 16.4453 126.777 16.1875C127.152 15.9219 127.438 15.5586 127.633 15.0977C127.836 14.6367 127.953 14.1055 127.984 13.5039V11.9688C127.961 11.4766 127.891 11.0352 127.773 10.6445C127.664 10.2461 127.5 9.90625 127.281 9.625C127.07 9.34375 126.805 9.125 126.484 8.96875C126.172 8.8125 125.801 8.73438 125.371 8.73438C124.934 8.73438 124.559 8.83594 124.246 9.03906C123.934 9.23438 123.68 9.50391 123.484 9.84766C123.297 10.1914 123.156 10.5977 123.062 11.0664C122.977 11.5273 122.934 12.0273 122.934 12.5664ZM133.07 12.7891V12.543C133.07 11.6133 133.203 10.7578 133.469 9.97656C133.734 9.1875 134.121 8.50391 134.629 7.92578C135.137 7.34766 135.762 6.89844 136.504 6.57812C137.246 6.25 138.098 6.08594 139.059 6.08594C140.02 6.08594 140.875 6.25 141.625 6.57812C142.375 6.89844 143.004 7.34766 143.512 7.92578C144.027 8.50391 144.418 9.1875 144.684 9.97656C144.949 10.7578 145.082 11.6133 145.082 12.543V12.7891C145.082 13.7109 144.949 14.5664 144.684 15.3555C144.418 16.1367 144.027 16.8203 143.512 17.4062C143.004 17.9844 142.379 18.4336 141.637 18.7539C140.895 19.0742 140.043 19.2344 139.082 19.2344C138.121 19.2344 137.266 19.0742 136.516 18.7539C135.773 18.4336 135.145 17.9844 134.629 17.4062C134.121 16.8203 133.734 16.1367 133.469 15.3555C133.203 14.5664 133.07 13.7109 133.07 12.7891ZM136.445 12.543V12.7891C136.445 13.3203 136.492 13.8164 136.586 14.2773C136.68 14.7383 136.828 15.1445 137.031 15.4961C137.242 15.8398 137.516 16.1094 137.852 16.3047C138.188 16.5 138.598 16.5977 139.082 16.5977C139.551 16.5977 139.953 16.5 140.289 16.3047C140.625 16.1094 140.895 15.8398 141.098 15.4961C141.301 15.1445 141.449 14.7383 141.543 14.2773C141.645 13.8164 141.695 13.3203 141.695 12.7891V12.543C141.695 12.0273 141.645 11.543 141.543 11.0898C141.449 10.6289 141.297 10.2227 141.086 9.87109C140.883 9.51172 140.613 9.23047 140.277 9.02734C139.941 8.82422 139.535 8.72266 139.059 8.72266C138.582 8.72266 138.176 8.82422 137.84 9.02734C137.512 9.23047 137.242 9.51172 137.031 9.87109C136.828 10.2227 136.68 10.6289 136.586 11.0898C136.492 11.543 136.445 12.0273 136.445 12.543ZM150.531 8.94531V19H147.145V6.32031H150.32L150.531 8.94531ZM150.062 12.2148H149.125C149.125 11.332 149.23 10.5195 149.441 9.77734C149.66 9.02734 149.977 8.37891 150.391 7.83203C150.812 7.27734 151.332 6.84766 151.949 6.54297C152.566 6.23828 153.281 6.08594 154.094 6.08594C154.656 6.08594 155.172 6.17188 155.641 6.34375C156.109 6.50781 156.512 6.76953 156.848 7.12891C157.191 7.48047 157.457 7.94141 157.645 8.51172C157.832 9.07422 157.926 9.75 157.926 10.5391V19H154.551V10.9141C154.551 10.3359 154.473 9.89062 154.316 9.57812C154.16 9.26562 153.938 9.04688 153.648 8.92188C153.367 8.79688 153.027 8.73438 152.629 8.73438C152.191 8.73438 151.809 8.82422 151.48 9.00391C151.16 9.18359 150.895 9.43359 150.684 9.75391C150.473 10.0664 150.316 10.4336 150.215 10.8555C150.113 11.2773 150.062 11.7305 150.062 12.2148ZM157.609 11.8281L156.402 11.9805C156.402 11.1523 156.504 10.3828 156.707 9.67188C156.918 8.96094 157.227 8.33594 157.633 7.79688C158.047 7.25781 158.559 6.83984 159.168 6.54297C159.777 6.23828 160.48 6.08594 161.277 6.08594C161.887 6.08594 162.441 6.17578 162.941 6.35547C163.441 6.52734 163.867 6.80469 164.219 7.1875C164.578 7.5625 164.852 8.05469 165.039 8.66406C165.234 9.27344 165.332 10.0195 165.332 10.9023V19H161.945V10.9023C161.945 10.3164 161.867 9.87109 161.711 9.56641C161.562 9.25391 161.344 9.03906 161.055 8.92188C160.773 8.79688 160.438 8.73438 160.047 8.73438C159.641 8.73438 159.285 8.81641 158.98 8.98047C158.676 9.13672 158.422 9.35547 158.219 9.63672C158.016 9.91797 157.863 10.2461 157.762 10.6211C157.66 10.9883 157.609 11.3906 157.609 11.8281Z" fill="black"/>
<path d="M77.8281 38.625H79.3281V46.3203C79.3281 47.1745 79.138 47.8854 78.7578 48.4531C78.3776 49.0208 77.8724 49.4479 77.2422 49.7344C76.6172 50.0156 75.9375 50.1562 75.2031 50.1562C74.4323 50.1562 73.7344 50.0156 73.1094 49.7344C72.4896 49.4479 71.9974 49.0208 71.6328 48.4531C71.2734 47.8854 71.0938 47.1745 71.0938 46.3203V38.625H72.5859V46.3203C72.5859 46.9141 72.6953 47.4036 72.9141 47.7891C73.1328 48.1745 73.4375 48.4609 73.8281 48.6484C74.224 48.8359 74.6823 48.9297 75.2031 48.9297C75.7292 48.9297 76.1875 48.8359 76.5781 48.6484C76.974 48.4609 77.2812 48.1745 77.5 47.7891C77.7188 47.4036 77.8281 46.9141 77.8281 46.3203V38.625ZM83.3125 38.625V50H81.8047V38.625H83.3125ZM93.1016 50H90.7266L90.7422 48.7734H93.1016C93.9141 48.7734 94.5911 48.6042 95.1328 48.2656C95.6745 47.9219 96.0807 47.4427 96.3516 46.8281C96.6276 46.2083 96.7656 45.4844 96.7656 44.6562V43.9609C96.7656 43.3099 96.6875 42.7318 96.5312 42.2266C96.375 41.7161 96.1458 41.2865 95.8438 40.9375C95.5417 40.5833 95.1719 40.3151 94.7344 40.1328C94.3021 39.9505 93.8047 39.8594 93.2422 39.8594H90.6797V38.625H93.2422C93.987 38.625 94.6667 38.75 95.2812 39C95.8958 39.2448 96.4245 39.6016 96.8672 40.0703C97.3151 40.5339 97.6589 41.0964 97.8984 41.7578C98.138 42.4141 98.2578 43.1536 98.2578 43.9766V44.6562C98.2578 45.4792 98.138 46.2214 97.8984 46.8828C97.6589 47.5391 97.3125 48.099 96.8594 48.5625C96.4115 49.026 95.8698 49.3828 95.2344 49.6328C94.6042 49.8776 93.8932 50 93.1016 50ZM91.5312 38.625V50H90.0234V38.625H91.5312ZM103.812 50.1562C103.224 50.1562 102.69 50.0573 102.211 49.8594C101.737 49.6562 101.328 49.3724 100.984 49.0078C100.646 48.6432 100.385 48.2109 100.203 47.7109C100.021 47.2109 99.9297 46.6641 99.9297 46.0703V45.7422C99.9297 45.0547 100.031 44.4427 100.234 43.9062C100.438 43.3646 100.714 42.9062 101.062 42.5312C101.411 42.1562 101.807 41.8724 102.25 41.6797C102.693 41.487 103.151 41.3906 103.625 41.3906C104.229 41.3906 104.75 41.4948 105.188 41.7031C105.63 41.9115 105.992 42.2031 106.273 42.5781C106.555 42.9479 106.763 43.3854 106.898 43.8906C107.034 44.3906 107.102 44.9375 107.102 45.5312V46.1797H100.789V45H105.656V44.8906C105.635 44.5156 105.557 44.151 105.422 43.7969C105.292 43.4427 105.083 43.151 104.797 42.9219C104.51 42.6927 104.12 42.5781 103.625 42.5781C103.297 42.5781 102.995 42.6484 102.719 42.7891C102.443 42.9245 102.206 43.1276 102.008 43.3984C101.81 43.6693 101.656 44 101.547 44.3906C101.438 44.7812 101.383 45.2318 101.383 45.7422V46.0703C101.383 46.4714 101.438 46.849 101.547 47.2031C101.661 47.5521 101.826 47.8594 102.039 48.125C102.258 48.3906 102.521 48.599 102.828 48.75C103.141 48.901 103.495 48.9766 103.891 48.9766C104.401 48.9766 104.833 48.8724 105.188 48.6641C105.542 48.4557 105.852 48.1771 106.117 47.8281L106.992 48.5234C106.81 48.7995 106.578 49.0625 106.297 49.3125C106.016 49.5625 105.669 49.7656 105.258 49.9219C104.852 50.0781 104.37 50.1562 103.812 50.1562ZM113.711 47.7578C113.711 47.5495 113.664 47.3568 113.57 47.1797C113.482 46.9974 113.297 46.8333 113.016 46.6875C112.74 46.5365 112.323 46.4062 111.766 46.2969C111.297 46.1979 110.872 46.0807 110.492 45.9453C110.117 45.8099 109.797 45.6458 109.531 45.4531C109.271 45.2604 109.07 45.0339 108.93 44.7734C108.789 44.513 108.719 44.2083 108.719 43.8594C108.719 43.526 108.792 43.2109 108.938 42.9141C109.089 42.6172 109.299 42.3542 109.57 42.125C109.846 41.8958 110.177 41.7161 110.562 41.5859C110.948 41.4557 111.378 41.3906 111.852 41.3906C112.529 41.3906 113.107 41.5104 113.586 41.75C114.065 41.9896 114.432 42.3099 114.688 42.7109C114.943 43.1068 115.07 43.5469 115.07 44.0312H113.625C113.625 43.7969 113.555 43.5703 113.414 43.3516C113.279 43.1276 113.078 42.9427 112.812 42.7969C112.552 42.651 112.232 42.5781 111.852 42.5781C111.451 42.5781 111.125 42.6406 110.875 42.7656C110.63 42.8854 110.451 43.0391 110.336 43.2266C110.227 43.4141 110.172 43.612 110.172 43.8203C110.172 43.9766 110.198 44.1172 110.25 44.2422C110.307 44.362 110.406 44.474 110.547 44.5781C110.688 44.6771 110.885 44.7708 111.141 44.8594C111.396 44.9479 111.721 45.0365 112.117 45.125C112.81 45.2812 113.38 45.4688 113.828 45.6875C114.276 45.9062 114.609 46.1745 114.828 46.4922C115.047 46.8099 115.156 47.1953 115.156 47.6484C115.156 48.0182 115.078 48.3568 114.922 48.6641C114.771 48.9714 114.549 49.237 114.258 49.4609C113.971 49.6797 113.628 49.8516 113.227 49.9766C112.831 50.0964 112.385 50.1562 111.891 50.1562C111.146 50.1562 110.516 50.0234 110 49.7578C109.484 49.4922 109.094 49.1484 108.828 48.7266C108.562 48.3047 108.43 47.8594 108.43 47.3906H109.883C109.904 47.7865 110.018 48.1016 110.227 48.3359C110.435 48.5651 110.69 48.7292 110.992 48.8281C111.294 48.9219 111.594 48.9688 111.891 48.9688C112.286 48.9688 112.617 48.9167 112.883 48.8125C113.154 48.7083 113.359 48.5651 113.5 48.3828C113.641 48.2005 113.711 47.9922 113.711 47.7578ZM118.625 41.5469V50H117.172V41.5469H118.625ZM117.062 39.3047C117.062 39.0703 117.133 38.8724 117.273 38.7109C117.419 38.5495 117.633 38.4688 117.914 38.4688C118.19 38.4688 118.401 38.5495 118.547 38.7109C118.698 38.8724 118.773 39.0703 118.773 39.3047C118.773 39.5286 118.698 39.7214 118.547 39.8828C118.401 40.0391 118.19 40.1172 117.914 40.1172C117.633 40.1172 117.419 40.0391 117.273 39.8828C117.133 39.7214 117.062 39.5286 117.062 39.3047ZM126.422 41.5469H127.734V49.8203C127.734 50.5651 127.583 51.2005 127.281 51.7266C126.979 52.2526 126.557 52.651 126.016 52.9219C125.479 53.1979 124.859 53.3359 124.156 53.3359C123.865 53.3359 123.521 53.2891 123.125 53.1953C122.734 53.1068 122.349 52.9531 121.969 52.7344C121.594 52.5208 121.279 52.2318 121.023 51.8672L121.781 51.0078C122.135 51.4349 122.505 51.7318 122.891 51.8984C123.281 52.0651 123.667 52.1484 124.047 52.1484C124.505 52.1484 124.901 52.0625 125.234 51.8906C125.568 51.7188 125.826 51.4635 126.008 51.125C126.195 50.7917 126.289 50.3802 126.289 49.8906V43.4062L126.422 41.5469ZM120.602 45.8672V45.7031C120.602 45.0573 120.677 44.4714 120.828 43.9453C120.984 43.4141 121.206 42.9583 121.492 42.5781C121.784 42.1979 122.135 41.9062 122.547 41.7031C122.958 41.4948 123.422 41.3906 123.938 41.3906C124.469 41.3906 124.932 41.4844 125.328 41.6719C125.729 41.8542 126.068 42.1224 126.344 42.4766C126.625 42.8255 126.846 43.2474 127.008 43.7422C127.169 44.237 127.281 44.7969 127.344 45.4219V46.1406C127.286 46.7604 127.174 47.3177 127.008 47.8125C126.846 48.3073 126.625 48.7292 126.344 49.0781C126.068 49.4271 125.729 49.6953 125.328 49.8828C124.927 50.0651 124.458 50.1562 123.922 50.1562C123.417 50.1562 122.958 50.0495 122.547 49.8359C122.141 49.6224 121.792 49.3229 121.5 48.9375C121.208 48.5521 120.984 48.099 120.828 47.5781C120.677 47.0521 120.602 46.4818 120.602 45.8672ZM122.047 45.7031V45.8672C122.047 46.2891 122.089 46.6849 122.172 47.0547C122.26 47.4245 122.393 47.75 122.57 48.0312C122.753 48.3125 122.984 48.5339 123.266 48.6953C123.547 48.8516 123.883 48.9297 124.273 48.9297C124.753 48.9297 125.148 48.8281 125.461 48.625C125.773 48.4219 126.021 48.1536 126.203 47.8203C126.391 47.487 126.536 47.125 126.641 46.7344V44.8516C126.583 44.5651 126.495 44.2891 126.375 44.0234C126.26 43.7526 126.109 43.513 125.922 43.3047C125.74 43.0911 125.513 42.9219 125.242 42.7969C124.971 42.6719 124.654 42.6094 124.289 42.6094C123.893 42.6094 123.552 42.6927 123.266 42.8594C122.984 43.0208 122.753 43.2448 122.57 43.5312C122.393 43.8125 122.26 44.1406 122.172 44.5156C122.089 44.8854 122.047 45.2812 122.047 45.7031ZM131.375 43.3516V50H129.93V41.5469H131.297L131.375 43.3516ZM131.031 45.4531L130.43 45.4297C130.435 44.8516 130.521 44.3177 130.688 43.8281C130.854 43.3333 131.089 42.9036 131.391 42.5391C131.693 42.1745 132.052 41.8932 132.469 41.6953C132.891 41.4922 133.357 41.3906 133.867 41.3906C134.284 41.3906 134.659 41.4479 134.992 41.5625C135.326 41.6719 135.609 41.849 135.844 42.0938C136.083 42.3385 136.266 42.6562 136.391 43.0469C136.516 43.4323 136.578 43.9036 136.578 44.4609V50H135.125V44.4453C135.125 44.0026 135.06 43.6484 134.93 43.3828C134.799 43.112 134.609 42.9167 134.359 42.7969C134.109 42.6719 133.802 42.6094 133.438 42.6094C133.078 42.6094 132.75 42.6849 132.453 42.8359C132.161 42.987 131.909 43.1953 131.695 43.4609C131.487 43.7266 131.323 44.0312 131.203 44.375C131.089 44.7135 131.031 45.0729 131.031 45.4531ZM142.281 50.1562C141.693 50.1562 141.159 50.0573 140.68 49.8594C140.206 49.6562 139.797 49.3724 139.453 49.0078C139.115 48.6432 138.854 48.2109 138.672 47.7109C138.49 47.2109 138.398 46.6641 138.398 46.0703V45.7422C138.398 45.0547 138.5 44.4427 138.703 43.9062C138.906 43.3646 139.182 42.9062 139.531 42.5312C139.88 42.1562 140.276 41.8724 140.719 41.6797C141.161 41.487 141.62 41.3906 142.094 41.3906C142.698 41.3906 143.219 41.4948 143.656 41.7031C144.099 41.9115 144.461 42.2031 144.742 42.5781C145.023 42.9479 145.232 43.3854 145.367 43.8906C145.503 44.3906 145.57 44.9375 145.57 45.5312V46.1797H139.258V45H144.125V44.8906C144.104 44.5156 144.026 44.151 143.891 43.7969C143.76 43.4427 143.552 43.151 143.266 42.9219C142.979 42.6927 142.589 42.5781 142.094 42.5781C141.766 42.5781 141.464 42.6484 141.188 42.7891C140.911 42.9245 140.674 43.1276 140.477 43.3984C140.279 43.6693 140.125 44 140.016 44.3906C139.906 44.7812 139.852 45.2318 139.852 45.7422V46.0703C139.852 46.4714 139.906 46.849 140.016 47.2031C140.13 47.5521 140.294 47.8594 140.508 48.125C140.727 48.3906 140.99 48.599 141.297 48.75C141.609 48.901 141.964 48.9766 142.359 48.9766C142.87 48.9766 143.302 48.8724 143.656 48.6641C144.01 48.4557 144.32 48.1771 144.586 47.8281L145.461 48.5234C145.279 48.7995 145.047 49.0625 144.766 49.3125C144.484 49.5625 144.138 49.7656 143.727 49.9219C143.32 50.0781 142.839 50.1562 142.281 50.1562ZM148.703 42.875V50H147.258V41.5469H148.664L148.703 42.875ZM151.344 41.5L151.336 42.8438C151.216 42.8177 151.102 42.8021 150.992 42.7969C150.888 42.7865 150.768 42.7812 150.633 42.7812C150.299 42.7812 150.005 42.8333 149.75 42.9375C149.495 43.0417 149.279 43.1875 149.102 43.375C148.924 43.5625 148.784 43.7865 148.68 44.0469C148.581 44.3021 148.516 44.5833 148.484 44.8906L148.078 45.125C148.078 44.6146 148.128 44.1354 148.227 43.6875C148.331 43.2396 148.49 42.8438 148.703 42.5C148.917 42.151 149.188 41.8802 149.516 41.6875C149.849 41.4896 150.245 41.3906 150.703 41.3906C150.807 41.3906 150.927 41.4036 151.062 41.4297C151.198 41.4505 151.292 41.474 151.344 41.5Z" fill="black" fill-opacity="0.6"/>
<path d="M575.671 10.8062L566.705 19.7719L565.232 18.299L574.197 9.33333H566.296V7.25H577.754V18.7083H575.671V10.8062Z" fill="black"/>
<path d="M346.086 44.2812V43.9609C346.086 43.513 346.227 43.1432 346.508 42.8516C346.794 42.5599 347.182 42.4141 347.672 42.4141C348.167 42.4141 348.557 42.5599 348.844 42.8516C349.13 43.1432 349.273 43.513 349.273 43.9609V44.2812C349.273 44.724 349.13 45.0911 348.844 45.3828C348.562 45.6693 348.174 45.8125 347.68 45.8125C347.19 45.8125 346.802 45.6693 346.516 45.3828C346.229 45.0911 346.086 44.724 346.086 44.2812ZM359.906 39.6328L356.141 50H354.602L358.938 38.625H359.93L359.906 39.6328ZM363.062 50L359.289 39.6328L359.266 38.625H360.258L364.609 50H363.062ZM362.867 45.7891V47.0234H356.477V45.7891H362.867ZM367.359 43.1719V53.25H365.906V41.5469H367.234L367.359 43.1719ZM373.055 45.7031V45.8672C373.055 46.4818 372.982 47.0521 372.836 47.5781C372.69 48.099 372.477 48.5521 372.195 48.9375C371.919 49.3229 371.578 49.6224 371.172 49.8359C370.766 50.0495 370.299 50.1562 369.773 50.1562C369.237 50.1562 368.763 50.0677 368.352 49.8906C367.94 49.7135 367.591 49.4557 367.305 49.1172C367.018 48.7786 366.789 48.3724 366.617 47.8984C366.451 47.4245 366.336 46.8906 366.273 46.2969V45.4219C366.336 44.7969 366.453 44.237 366.625 43.7422C366.797 43.2474 367.023 42.8255 367.305 42.4766C367.591 42.1224 367.938 41.8542 368.344 41.6719C368.75 41.4844 369.219 41.3906 369.75 41.3906C370.281 41.3906 370.753 41.4948 371.164 41.7031C371.576 41.9062 371.922 42.1979 372.203 42.5781C372.484 42.9583 372.695 43.4141 372.836 43.9453C372.982 44.4714 373.055 45.0573 373.055 45.7031ZM371.602 45.8672V45.7031C371.602 45.2812 371.557 44.8854 371.469 44.5156C371.38 44.1406 371.242 43.8125 371.055 43.5312C370.872 43.2448 370.638 43.0208 370.352 42.8594C370.065 42.6927 369.724 42.6094 369.328 42.6094C368.964 42.6094 368.646 42.6719 368.375 42.7969C368.109 42.9219 367.883 43.0911 367.695 43.3047C367.508 43.513 367.354 43.7526 367.234 44.0234C367.12 44.2891 367.034 44.5651 366.977 44.8516V46.875C367.081 47.2396 367.227 47.5833 367.414 47.9062C367.602 48.224 367.852 48.4818 368.164 48.6797C368.477 48.8724 368.87 48.9688 369.344 48.9688C369.734 48.9688 370.07 48.888 370.352 48.7266C370.638 48.5599 370.872 48.3333 371.055 48.0469C371.242 47.7604 371.38 47.4323 371.469 47.0625C371.557 46.6875 371.602 46.2891 371.602 45.8672ZM376.344 42.875V50H374.898V41.5469H376.305L376.344 42.875ZM378.984 41.5L378.977 42.8438C378.857 42.8177 378.742 42.8021 378.633 42.7969C378.529 42.7865 378.409 42.7812 378.273 42.7812C377.94 42.7812 377.646 42.8333 377.391 42.9375C377.135 43.0417 376.919 43.1875 376.742 43.375C376.565 43.5625 376.424 43.7865 376.32 44.0469C376.221 44.3021 376.156 44.5833 376.125 44.8906L375.719 45.125C375.719 44.6146 375.768 44.1354 375.867 43.6875C375.971 43.2396 376.13 42.8438 376.344 42.5C376.557 42.151 376.828 41.8802 377.156 41.6875C377.49 41.4896 377.885 41.3906 378.344 41.3906C378.448 41.3906 378.568 41.4036 378.703 41.4297C378.839 41.4505 378.932 41.474 378.984 41.5ZM381.891 41.5469V50H380.438V41.5469H381.891ZM380.328 39.3047C380.328 39.0703 380.398 38.8724 380.539 38.7109C380.685 38.5495 380.898 38.4688 381.18 38.4688C381.456 38.4688 381.667 38.5495 381.812 38.7109C381.964 38.8724 382.039 39.0703 382.039 39.3047C382.039 39.5286 381.964 39.7214 381.812 39.8828C381.667 40.0391 381.456 40.1172 381.18 40.1172C380.898 40.1172 380.685 40.0391 380.539 39.8828C380.398 39.7214 380.328 39.5286 380.328 39.3047ZM385.781 38V50H384.328V38H385.781ZM399.367 48.8125V50H391.922V48.9609L395.648 44.8125C396.107 44.3021 396.461 43.8698 396.711 43.5156C396.966 43.1562 397.143 42.8359 397.242 42.5547C397.346 42.2682 397.398 41.9766 397.398 41.6797C397.398 41.3047 397.32 40.9661 397.164 40.6641C397.013 40.3568 396.789 40.112 396.492 39.9297C396.195 39.7474 395.836 39.6562 395.414 39.6562C394.909 39.6562 394.487 39.7552 394.148 39.9531C393.815 40.1458 393.565 40.4167 393.398 40.7656C393.232 41.1146 393.148 41.5156 393.148 41.9688H391.703C391.703 41.3281 391.844 40.7422 392.125 40.2109C392.406 39.6797 392.823 39.2578 393.375 38.9453C393.927 38.6276 394.607 38.4688 395.414 38.4688C396.133 38.4688 396.747 38.5964 397.258 38.8516C397.768 39.1016 398.159 39.4557 398.43 39.9141C398.706 40.3672 398.844 40.8984 398.844 41.5078C398.844 41.8411 398.786 42.1797 398.672 42.5234C398.562 42.862 398.409 43.2005 398.211 43.5391C398.018 43.8776 397.792 44.2109 397.531 44.5391C397.276 44.8672 397.003 45.1901 396.711 45.5078L393.664 48.8125H399.367ZM408.055 43.4062V45.1406C408.055 46.0729 407.971 46.8594 407.805 47.5C407.638 48.1406 407.398 48.6562 407.086 49.0469C406.773 49.4375 406.396 49.7214 405.953 49.8984C405.516 50.0703 405.021 50.1562 404.469 50.1562C404.031 50.1562 403.628 50.1016 403.258 49.9922C402.888 49.8828 402.555 49.7083 402.258 49.4688C401.966 49.224 401.716 48.9062 401.508 48.5156C401.299 48.125 401.141 47.651 401.031 47.0938C400.922 46.5365 400.867 45.8854 400.867 45.1406V43.4062C400.867 42.474 400.951 41.6927 401.117 41.0625C401.289 40.4323 401.531 39.9271 401.844 39.5469C402.156 39.1615 402.531 38.8854 402.969 38.7188C403.411 38.5521 403.906 38.4688 404.453 38.4688C404.896 38.4688 405.302 38.5234 405.672 38.6328C406.047 38.737 406.38 38.9062 406.672 39.1406C406.964 39.3698 407.211 39.6771 407.414 40.0625C407.622 40.4427 407.781 40.9089 407.891 41.4609C408 42.013 408.055 42.6615 408.055 43.4062ZM406.602 45.375V43.1641C406.602 42.6536 406.57 42.2057 406.508 41.8203C406.451 41.4297 406.365 41.0964 406.25 40.8203C406.135 40.5443 405.99 40.3203 405.812 40.1484C405.641 39.9766 405.44 39.8516 405.211 39.7734C404.987 39.6901 404.734 39.6484 404.453 39.6484C404.109 39.6484 403.805 39.7135 403.539 39.8438C403.273 39.9688 403.049 40.1693 402.867 40.4453C402.69 40.7214 402.555 41.0833 402.461 41.5312C402.367 41.9792 402.32 42.5234 402.32 43.1641V45.375C402.32 45.8854 402.349 46.3359 402.406 46.7266C402.469 47.1172 402.56 47.4557 402.68 47.7422C402.799 48.0234 402.945 48.2552 403.117 48.4375C403.289 48.6198 403.487 48.7552 403.711 48.8438C403.94 48.9271 404.193 48.9688 404.469 48.9688C404.823 48.9688 405.133 48.901 405.398 48.7656C405.664 48.6302 405.885 48.4193 406.062 48.1328C406.245 47.8411 406.38 47.4688 406.469 47.0156C406.557 46.5573 406.602 46.0104 406.602 45.375ZM414.664 38.5625V50H413.219V40.3672L410.305 41.4297V40.125L414.438 38.5625H414.664ZM424.461 38.6094H424.586V39.8359H424.461C423.695 39.8359 423.055 39.9609 422.539 40.2109C422.023 40.4557 421.615 40.7865 421.312 41.2031C421.01 41.6146 420.792 42.0781 420.656 42.5938C420.526 43.1094 420.461 43.6328 420.461 44.1641V45.8359C420.461 46.3411 420.521 46.7891 420.641 47.1797C420.76 47.5651 420.924 47.8906 421.133 48.1562C421.341 48.4219 421.576 48.6224 421.836 48.7578C422.102 48.8932 422.378 48.9609 422.664 48.9609C422.997 48.9609 423.294 48.8984 423.555 48.7734C423.815 48.6432 424.034 48.4635 424.211 48.2344C424.393 48 424.531 47.724 424.625 47.4062C424.719 47.0885 424.766 46.7396 424.766 46.3594C424.766 46.0208 424.724 45.6953 424.641 45.3828C424.557 45.0651 424.43 44.7839 424.258 44.5391C424.086 44.2891 423.87 44.0938 423.609 43.9531C423.354 43.8073 423.049 43.7344 422.695 43.7344C422.294 43.7344 421.919 43.8333 421.57 44.0312C421.227 44.224 420.943 44.4792 420.719 44.7969C420.5 45.1094 420.375 45.4505 420.344 45.8203L419.578 45.8125C419.651 45.2292 419.786 44.7318 419.984 44.3203C420.188 43.9036 420.438 43.5651 420.734 43.3047C421.036 43.0391 421.372 42.8464 421.742 42.7266C422.117 42.6016 422.513 42.5391 422.93 42.5391C423.497 42.5391 423.987 42.6458 424.398 42.8594C424.81 43.0729 425.148 43.3594 425.414 43.7188C425.68 44.0729 425.875 44.474 426 44.9219C426.13 45.3646 426.195 45.8203 426.195 46.2891C426.195 46.8255 426.12 47.3281 425.969 47.7969C425.818 48.2656 425.591 48.6771 425.289 49.0312C424.992 49.3854 424.625 49.6615 424.188 49.8594C423.75 50.0573 423.242 50.1562 422.664 50.1562C422.049 50.1562 421.513 50.0312 421.055 49.7812C420.596 49.526 420.216 49.1875 419.914 48.7656C419.612 48.3438 419.385 47.875 419.234 47.3594C419.083 46.8438 419.008 46.3203 419.008 45.7891V45.1094C419.008 44.3073 419.089 43.5208 419.25 42.75C419.411 41.9792 419.69 41.2812 420.086 40.6562C420.487 40.0312 421.042 39.5339 421.75 39.1641C422.458 38.7943 423.362 38.6094 424.461 38.6094ZM435.047 44.5703V45.7578H431.234V44.5703H435.047ZM441.125 38.625H442.586L446.312 47.8984L450.031 38.625H451.5L446.875 50H445.734L441.125 38.625ZM440.648 38.625H441.938L442.148 45.5625V50H440.648V38.625ZM450.68 38.625H451.969V50H450.469V45.5625L450.68 38.625ZM459.383 48.5547V44.2031C459.383 43.8698 459.315 43.5807 459.18 43.3359C459.049 43.0859 458.852 42.8932 458.586 42.7578C458.32 42.6224 457.992 42.5547 457.602 42.5547C457.237 42.5547 456.917 42.6172 456.641 42.7422C456.37 42.8672 456.156 43.0312 456 43.2344C455.849 43.4375 455.773 43.6562 455.773 43.8906H454.328C454.328 43.5885 454.406 43.2891 454.562 42.9922C454.719 42.6953 454.943 42.4271 455.234 42.1875C455.531 41.9427 455.885 41.75 456.297 41.6094C456.714 41.4635 457.177 41.3906 457.688 41.3906C458.302 41.3906 458.844 41.4948 459.312 41.7031C459.786 41.9115 460.156 42.2266 460.422 42.6484C460.693 43.0651 460.828 43.5885 460.828 44.2188V48.1562C460.828 48.4375 460.852 48.737 460.898 49.0547C460.951 49.3724 461.026 49.6458 461.125 49.875V50H459.617C459.544 49.8333 459.487 49.612 459.445 49.3359C459.404 49.0547 459.383 48.7943 459.383 48.5547ZM459.633 44.875L459.648 45.8906H458.188C457.776 45.8906 457.409 45.9245 457.086 45.9922C456.763 46.0547 456.492 46.151 456.273 46.2812C456.055 46.4115 455.888 46.5755 455.773 46.7734C455.659 46.9661 455.602 47.1927 455.602 47.4531C455.602 47.7188 455.661 47.9609 455.781 48.1797C455.901 48.3984 456.081 48.5729 456.32 48.7031C456.565 48.8281 456.865 48.8906 457.219 48.8906C457.661 48.8906 458.052 48.7969 458.391 48.6094C458.729 48.4219 458.997 48.1927 459.195 47.9219C459.398 47.651 459.508 47.388 459.523 47.1328L460.141 47.8281C460.104 48.0469 460.005 48.2891 459.844 48.5547C459.682 48.8203 459.466 49.0755 459.195 49.3203C458.93 49.5599 458.612 49.7604 458.242 49.9219C457.878 50.0781 457.466 50.1562 457.008 50.1562C456.435 50.1562 455.932 50.0443 455.5 49.8203C455.073 49.5964 454.74 49.2969 454.5 48.9219C454.266 48.5417 454.148 48.1172 454.148 47.6484C454.148 47.1953 454.237 46.7969 454.414 46.4531C454.591 46.1042 454.846 45.8151 455.18 45.5859C455.513 45.3516 455.914 45.1745 456.383 45.0547C456.852 44.9349 457.375 44.875 457.953 44.875H459.633ZM465.352 49.125L467.703 41.5469H469.25L465.859 51.3047C465.781 51.513 465.677 51.737 465.547 51.9766C465.422 52.2214 465.26 52.4531 465.062 52.6719C464.865 52.8906 464.625 53.0677 464.344 53.2031C464.068 53.3438 463.737 53.4141 463.352 53.4141C463.237 53.4141 463.091 53.3984 462.914 53.3672C462.737 53.3359 462.612 53.3099 462.539 53.2891L462.531 52.1172C462.573 52.1224 462.638 52.1276 462.727 52.1328C462.82 52.1432 462.885 52.1484 462.922 52.1484C463.25 52.1484 463.529 52.1042 463.758 52.0156C463.987 51.9323 464.18 51.7891 464.336 51.5859C464.497 51.388 464.635 51.1146 464.75 50.7656L465.352 49.125ZM463.625 41.5469L465.82 48.1094L466.195 49.6328L465.156 50.1641L462.047 41.5469H463.625ZM481.82 48.8125V50H474.375V48.9609L478.102 44.8125C478.56 44.3021 478.914 43.8698 479.164 43.5156C479.419 43.1562 479.596 42.8359 479.695 42.5547C479.799 42.2682 479.852 41.9766 479.852 41.6797C479.852 41.3047 479.773 40.9661 479.617 40.6641C479.466 40.3568 479.242 40.112 478.945 39.9297C478.648 39.7474 478.289 39.6562 477.867 39.6562C477.362 39.6562 476.94 39.7552 476.602 39.9531C476.268 40.1458 476.018 40.4167 475.852 40.7656C475.685 41.1146 475.602 41.5156 475.602 41.9688H474.156C474.156 41.3281 474.297 40.7422 474.578 40.2109C474.859 39.6797 475.276 39.2578 475.828 38.9453C476.38 38.6276 477.06 38.4688 477.867 38.4688C478.586 38.4688 479.201 38.5964 479.711 38.8516C480.221 39.1016 480.612 39.4557 480.883 39.9141C481.159 40.3672 481.297 40.8984 481.297 41.5078C481.297 41.8411 481.24 42.1797 481.125 42.5234C481.016 42.862 480.862 43.2005 480.664 43.5391C480.471 43.8776 480.245 44.2109 479.984 44.5391C479.729 44.8672 479.456 45.1901 479.164 45.5078L476.117 48.8125H481.82ZM490.508 43.4062V45.1406C490.508 46.0729 490.424 46.8594 490.258 47.5C490.091 48.1406 489.852 48.6562 489.539 49.0469C489.227 49.4375 488.849 49.7214 488.406 49.8984C487.969 50.0703 487.474 50.1562 486.922 50.1562C486.484 50.1562 486.081 50.1016 485.711 49.9922C485.341 49.8828 485.008 49.7083 484.711 49.4688C484.419 49.224 484.169 48.9062 483.961 48.5156C483.753 48.125 483.594 47.651 483.484 47.0938C483.375 46.5365 483.32 45.8854 483.32 45.1406V43.4062C483.32 42.474 483.404 41.6927 483.57 41.0625C483.742 40.4323 483.984 39.9271 484.297 39.5469C484.609 39.1615 484.984 38.8854 485.422 38.7188C485.865 38.5521 486.359 38.4688 486.906 38.4688C487.349 38.4688 487.755 38.5234 488.125 38.6328C488.5 38.737 488.833 38.9062 489.125 39.1406C489.417 39.3698 489.664 39.6771 489.867 40.0625C490.076 40.4427 490.234 40.9089 490.344 41.4609C490.453 42.013 490.508 42.6615 490.508 43.4062ZM489.055 45.375V43.1641C489.055 42.6536 489.023 42.2057 488.961 41.8203C488.904 41.4297 488.818 41.0964 488.703 40.8203C488.589 40.5443 488.443 40.3203 488.266 40.1484C488.094 39.9766 487.893 39.8516 487.664 39.7734C487.44 39.6901 487.188 39.6484 486.906 39.6484C486.562 39.6484 486.258 39.7135 485.992 39.8438C485.727 39.9688 485.503 40.1693 485.32 40.4453C485.143 40.7214 485.008 41.0833 484.914 41.5312C484.82 41.9792 484.773 42.5234 484.773 43.1641V45.375C484.773 45.8854 484.802 46.3359 484.859 46.7266C484.922 47.1172 485.013 47.4557 485.133 47.7422C485.253 48.0234 485.398 48.2552 485.57 48.4375C485.742 48.6198 485.94 48.7552 486.164 48.8438C486.393 48.9271 486.646 48.9688 486.922 48.9688C487.276 48.9688 487.586 48.901 487.852 48.7656C488.117 48.6302 488.339 48.4193 488.516 48.1328C488.698 47.8411 488.833 47.4688 488.922 47.0156C489.01 46.5573 489.055 46.0104 489.055 45.375ZM497.117 38.5625V50H495.672V40.3672L492.758 41.4297V40.125L496.891 38.5625H497.117ZM508.719 38.625V39.4375L504.008 50H502.484L507.188 39.8125H501.031V38.625H508.719Z" fill="black" fill-opacity="0.6"/>
<g clip-path="url(#clip1_1_799)">
<path d="M0 94H583V95H0V94Z" fill="#E5E5E5"/>
</g>
<defs>
<clipPath id="clip0_1_799">
<rect width="50" height="50" fill="white" transform="translate(0 3)"/>
</clipPath>
<clipPath id="clip1_1_799">
<rect width="583" height="1" fill="white" transform="translate(0 94)"/>
</clipPath>
</defs>
</svg>
