<svg width="584" height="95" viewBox="0 0 584 95" fill="none" xmlns="http://www.w3.org/2000/svg">
<path d="M575.671 10.8062L566.705 19.7719L565.232 18.299L574.197 9.33333H566.296V7.25H577.754V18.7083H575.671V10.8062Z" fill="black"/>
<path d="M426.086 44.2812V43.9609C426.086 43.513 426.227 43.1432 426.508 42.8516C426.794 42.5599 427.182 42.4141 427.672 42.4141C428.167 42.4141 428.557 42.5599 428.844 42.8516C429.13 43.1432 429.273 43.513 429.273 43.9609V44.2812C429.273 44.724 429.13 45.0911 428.844 45.3828C428.562 45.6693 428.174 45.8125 427.68 45.8125C427.19 45.8125 426.802 45.6693 426.516 45.3828C426.229 45.0911 426.086 44.724 426.086 44.2812ZM442.773 48.8125V50H435.328V48.9609L439.055 44.8125C439.513 44.3021 439.867 43.8698 440.117 43.5156C440.372 43.1562 440.549 42.8359 440.648 42.5547C440.753 42.2682 440.805 41.9766 440.805 41.6797C440.805 41.3047 440.727 40.9661 440.57 40.6641C440.419 40.3568 440.195 40.112 439.898 39.9297C439.602 39.7474 439.242 39.6562 438.82 39.6562C438.315 39.6562 437.893 39.7552 437.555 39.9531C437.221 40.1458 436.971 40.4167 436.805 40.7656C436.638 41.1146 436.555 41.5156 436.555 41.9688H435.109C435.109 41.3281 435.25 40.7422 435.531 40.2109C435.812 39.6797 436.229 39.2578 436.781 38.9453C437.333 38.6276 438.013 38.4688 438.82 38.4688C439.539 38.4688 440.154 38.5964 440.664 38.8516C441.174 39.1016 441.565 39.4557 441.836 39.9141C442.112 40.3672 442.25 40.8984 442.25 41.5078C442.25 41.8411 442.193 42.1797 442.078 42.5234C441.969 42.862 441.815 43.2005 441.617 43.5391C441.424 43.8776 441.198 44.2109 440.938 44.5391C440.682 44.8672 440.409 45.1901 440.117 45.5078L437.07 48.8125H442.773ZM451.461 43.4062V45.1406C451.461 46.0729 451.378 46.8594 451.211 47.5C451.044 48.1406 450.805 48.6562 450.492 49.0469C450.18 49.4375 449.802 49.7214 449.359 49.8984C448.922 50.0703 448.427 50.1562 447.875 50.1562C447.438 50.1562 447.034 50.1016 446.664 49.9922C446.294 49.8828 445.961 49.7083 445.664 49.4688C445.372 49.224 445.122 48.9062 444.914 48.5156C444.706 48.125 444.547 47.651 444.438 47.0938C444.328 46.5365 444.273 45.8854 444.273 45.1406V43.4062C444.273 42.474 444.357 41.6927 444.523 41.0625C444.695 40.4323 444.938 39.9271 445.25 39.5469C445.562 39.1615 445.938 38.8854 446.375 38.7188C446.818 38.5521 447.312 38.4688 447.859 38.4688C448.302 38.4688 448.708 38.5234 449.078 38.6328C449.453 38.737 449.786 38.9062 450.078 39.1406C450.37 39.3698 450.617 39.6771 450.82 40.0625C451.029 40.4427 451.188 40.9089 451.297 41.4609C451.406 42.013 451.461 42.6615 451.461 43.4062ZM450.008 45.375V43.1641C450.008 42.6536 449.977 42.2057 449.914 41.8203C449.857 41.4297 449.771 41.0964 449.656 40.8203C449.542 40.5443 449.396 40.3203 449.219 40.1484C449.047 39.9766 448.846 39.8516 448.617 39.7734C448.393 39.6901 448.141 39.6484 447.859 39.6484C447.516 39.6484 447.211 39.7135 446.945 39.8438C446.68 39.9688 446.456 40.1693 446.273 40.4453C446.096 40.7214 445.961 41.0833 445.867 41.5312C445.773 41.9792 445.727 42.5234 445.727 43.1641V45.375C445.727 45.8854 445.755 46.3359 445.812 46.7266C445.875 47.1172 445.966 47.4557 446.086 47.7422C446.206 48.0234 446.352 48.2552 446.523 48.4375C446.695 48.6198 446.893 48.7552 447.117 48.8438C447.346 48.9271 447.599 48.9688 447.875 48.9688C448.229 48.9688 448.539 48.901 448.805 48.7656C449.07 48.6302 449.292 48.4193 449.469 48.1328C449.651 47.8411 449.786 47.4688 449.875 47.0156C449.964 46.5573 450.008 46.0104 450.008 45.375ZM458.07 38.5625V50H456.625V40.3672L453.711 41.4297V40.125L457.844 38.5625H458.07ZM464.43 43.6016H465.461C465.966 43.6016 466.383 43.5182 466.711 43.3516C467.044 43.1797 467.292 42.9479 467.453 42.6562C467.62 42.3594 467.703 42.026 467.703 41.6562C467.703 41.2188 467.63 40.8516 467.484 40.5547C467.339 40.2578 467.12 40.0339 466.828 39.8828C466.536 39.7318 466.167 39.6562 465.719 39.6562C465.312 39.6562 464.953 39.737 464.641 39.8984C464.333 40.0547 464.091 40.2786 463.914 40.5703C463.742 40.862 463.656 41.2057 463.656 41.6016H462.211C462.211 41.0234 462.357 40.4974 462.648 40.0234C462.94 39.5495 463.349 39.1719 463.875 38.8906C464.406 38.6094 465.021 38.4688 465.719 38.4688C466.406 38.4688 467.008 38.5911 467.523 38.8359C468.039 39.0755 468.44 39.4349 468.727 39.9141C469.013 40.388 469.156 40.9792 469.156 41.6875C469.156 41.974 469.089 42.2812 468.953 42.6094C468.823 42.9323 468.617 43.2344 468.336 43.5156C468.06 43.7969 467.701 44.0286 467.258 44.2109C466.815 44.388 466.284 44.4766 465.664 44.4766H464.43V43.6016ZM464.43 44.7891V43.9219H465.664C466.388 43.9219 466.987 44.0078 467.461 44.1797C467.935 44.3516 468.307 44.5807 468.578 44.8672C468.854 45.1536 469.047 45.4688 469.156 45.8125C469.271 46.151 469.328 46.4896 469.328 46.8281C469.328 47.3594 469.237 47.8307 469.055 48.2422C468.878 48.6536 468.625 49.0026 468.297 49.2891C467.974 49.5755 467.594 49.7917 467.156 49.9375C466.719 50.0833 466.242 50.1562 465.727 50.1562C465.232 50.1562 464.766 50.0859 464.328 49.9453C463.896 49.8047 463.513 49.6016 463.18 49.3359C462.846 49.0651 462.586 48.7344 462.398 48.3438C462.211 47.9479 462.117 47.4974 462.117 46.9922H463.562C463.562 47.388 463.648 47.7344 463.82 48.0312C463.997 48.3281 464.247 48.5599 464.57 48.7266C464.898 48.888 465.284 48.9688 465.727 48.9688C466.169 48.9688 466.549 48.8932 466.867 48.7422C467.19 48.5859 467.438 48.3516 467.609 48.0391C467.786 47.7266 467.875 47.3333 467.875 46.8594C467.875 46.3854 467.776 45.9974 467.578 45.6953C467.38 45.388 467.099 45.1615 466.734 45.0156C466.375 44.8646 465.951 44.7891 465.461 44.7891H464.43ZM474.484 44.5703V45.7578H470.672V44.5703H474.484ZM483.195 48.8125V50H475.75V48.9609L479.477 44.8125C479.935 44.3021 480.289 43.8698 480.539 43.5156C480.794 43.1562 480.971 42.8359 481.07 42.5547C481.174 42.2682 481.227 41.9766 481.227 41.6797C481.227 41.3047 481.148 40.9661 480.992 40.6641C480.841 40.3568 480.617 40.112 480.32 39.9297C480.023 39.7474 479.664 39.6562 479.242 39.6562C478.737 39.6562 478.315 39.7552 477.977 39.9531C477.643 40.1458 477.393 40.4167 477.227 40.7656C477.06 41.1146 476.977 41.5156 476.977 41.9688H475.531C475.531 41.3281 475.672 40.7422 475.953 40.2109C476.234 39.6797 476.651 39.2578 477.203 38.9453C477.755 38.6276 478.435 38.4688 479.242 38.4688C479.961 38.4688 480.576 38.5964 481.086 38.8516C481.596 39.1016 481.987 39.4557 482.258 39.9141C482.534 40.3672 482.672 40.8984 482.672 41.5078C482.672 41.8411 482.615 42.1797 482.5 42.5234C482.391 42.862 482.237 43.2005 482.039 43.5391C481.846 43.8776 481.62 44.2109 481.359 44.5391C481.104 44.8672 480.831 45.1901 480.539 45.5078L477.492 48.8125H483.195ZM491.883 43.4062V45.1406C491.883 46.0729 491.799 46.8594 491.633 47.5C491.466 48.1406 491.227 48.6562 490.914 49.0469C490.602 49.4375 490.224 49.7214 489.781 49.8984C489.344 50.0703 488.849 50.1562 488.297 50.1562C487.859 50.1562 487.456 50.1016 487.086 49.9922C486.716 49.8828 486.383 49.7083 486.086 49.4688C485.794 49.224 485.544 48.9062 485.336 48.5156C485.128 48.125 484.969 47.651 484.859 47.0938C484.75 46.5365 484.695 45.8854 484.695 45.1406V43.4062C484.695 42.474 484.779 41.6927 484.945 41.0625C485.117 40.4323 485.359 39.9271 485.672 39.5469C485.984 39.1615 486.359 38.8854 486.797 38.7188C487.24 38.5521 487.734 38.4688 488.281 38.4688C488.724 38.4688 489.13 38.5234 489.5 38.6328C489.875 38.737 490.208 38.9062 490.5 39.1406C490.792 39.3698 491.039 39.6771 491.242 40.0625C491.451 40.4427 491.609 40.9089 491.719 41.4609C491.828 42.013 491.883 42.6615 491.883 43.4062ZM490.43 45.375V43.1641C490.43 42.6536 490.398 42.2057 490.336 41.8203C490.279 41.4297 490.193 41.0964 490.078 40.8203C489.964 40.5443 489.818 40.3203 489.641 40.1484C489.469 39.9766 489.268 39.8516 489.039 39.7734C488.815 39.6901 488.562 39.6484 488.281 39.6484C487.938 39.6484 487.633 39.7135 487.367 39.8438C487.102 39.9688 486.878 40.1693 486.695 40.4453C486.518 40.7214 486.383 41.0833 486.289 41.5312C486.195 41.9792 486.148 42.5234 486.148 43.1641V45.375C486.148 45.8854 486.177 46.3359 486.234 46.7266C486.297 47.1172 486.388 47.4557 486.508 47.7422C486.628 48.0234 486.773 48.2552 486.945 48.4375C487.117 48.6198 487.315 48.7552 487.539 48.8438C487.768 48.9271 488.021 48.9688 488.297 48.9688C488.651 48.9688 488.961 48.901 489.227 48.7656C489.492 48.6302 489.714 48.4193 489.891 48.1328C490.073 47.8411 490.208 47.4688 490.297 47.0156C490.385 46.5573 490.43 46.0104 490.43 45.375ZM498.492 38.5625V50H497.047V40.3672L494.133 41.4297V40.125L498.266 38.5625H498.492ZM510.43 46.1719V47.3594H502.211V46.5078L507.305 38.625H508.484L507.219 40.9062L503.852 46.1719H510.43ZM508.844 38.625V50H507.398V38.625H508.844Z" fill="black" fill-opacity="0.6"/>
<g clip-path="url(#clip0_1_743)">
<path d="M1 94H584V95H1V94Z" fill="#E5E5E5"/>
</g>
<path d="M4.12891 1.9375H7.10547L11.4883 14.4648L15.8711 1.9375H18.8477L12.6836 19H10.293L4.12891 1.9375ZM2.52344 1.9375H5.48828L6.02734 14.1484V19H2.52344V1.9375ZM17.4883 1.9375H20.4648V19H16.9492V14.1484L17.4883 1.9375ZM27.2852 1.9375V19H23.7812V1.9375H27.2852ZM37.8555 1.9375V19H34.3516V1.9375H37.8555ZM43.1055 1.9375V4.69141H29.1836V1.9375H43.1055ZM59.3359 14.5352C59.3359 14.2305 59.2891 13.957 59.1953 13.7148C59.1094 13.4648 58.9453 13.2383 58.7031 13.0352C58.4609 12.8242 58.1211 12.6172 57.6836 12.4141C57.2461 12.2109 56.6797 12 55.9844 11.7812C55.2109 11.5312 54.4766 11.25 53.7812 10.9375C53.0938 10.625 52.4844 10.2617 51.9531 9.84766C51.4297 9.42578 51.0156 8.9375 50.7109 8.38281C50.4141 7.82812 50.2656 7.18359 50.2656 6.44922C50.2656 5.73828 50.4219 5.09375 50.7344 4.51562C51.0469 3.92969 51.4844 3.42969 52.0469 3.01562C52.6094 2.59375 53.2734 2.26953 54.0391 2.04297C54.8125 1.81641 55.6602 1.70312 56.582 1.70312C57.8398 1.70312 58.9375 1.92969 59.875 2.38281C60.8125 2.83594 61.5391 3.45703 62.0547 4.24609C62.5781 5.03516 62.8398 5.9375 62.8398 6.95312H59.3477C59.3477 6.45312 59.2422 6.01562 59.0312 5.64062C58.8281 5.25781 58.5156 4.95703 58.0938 4.73828C57.6797 4.51953 57.1562 4.41016 56.5234 4.41016C55.9141 4.41016 55.4062 4.50391 55 4.69141C54.5938 4.87109 54.2891 5.11719 54.0859 5.42969C53.8828 5.73438 53.7812 6.07812 53.7812 6.46094C53.7812 6.75 53.8516 7.01172 53.9922 7.24609C54.1406 7.48047 54.3594 7.69922 54.6484 7.90234C54.9375 8.10547 55.293 8.29688 55.7148 8.47656C56.1367 8.65625 56.625 8.83203 57.1797 9.00391C58.1094 9.28516 58.9258 9.60156 59.6289 9.95312C60.3398 10.3047 60.9336 10.6992 61.4102 11.1367C61.8867 11.5742 62.2461 12.0703 62.4883 12.625C62.7305 13.1797 62.8516 13.8086 62.8516 14.5117C62.8516 15.2539 62.707 15.918 62.418 16.5039C62.1289 17.0898 61.7109 17.5859 61.1641 17.9922C60.6172 18.3984 59.9648 18.707 59.207 18.918C58.4492 19.1289 57.6016 19.2344 56.6641 19.2344C55.8203 19.2344 54.9883 19.125 54.168 18.9062C53.3477 18.6797 52.6016 18.3398 51.9297 17.8867C51.2656 17.4336 50.7344 16.8555 50.3359 16.1523C49.9375 15.4492 49.7383 14.6172 49.7383 13.6562H53.2656C53.2656 14.1875 53.3477 14.6367 53.5117 15.0039C53.6758 15.3711 53.9062 15.668 54.2031 15.8945C54.5078 16.1211 54.8672 16.2852 55.2812 16.3867C55.7031 16.4883 56.1641 16.5391 56.6641 16.5391C57.2734 16.5391 57.7734 16.4531 58.1641 16.2812C58.5625 16.1094 58.8555 15.8711 59.043 15.5664C59.2383 15.2617 59.3359 14.918 59.3359 14.5352ZM72.5312 15.9648V6.32031H75.9062V19H72.7305L72.5312 15.9648ZM72.9062 13.3633L73.9023 13.3398C73.9023 14.1836 73.8047 14.9688 73.6094 15.6953C73.4141 16.4141 73.1211 17.0391 72.7305 17.5703C72.3398 18.0938 71.8477 18.5039 71.2539 18.8008C70.6602 19.0898 69.9609 19.2344 69.1562 19.2344C68.5391 19.2344 67.9688 19.1484 67.4453 18.9766C66.9297 18.7969 66.4844 18.5195 66.1094 18.1445C65.7422 17.7617 65.4531 17.2734 65.2422 16.6797C65.0391 16.0781 64.9375 15.3555 64.9375 14.5117V6.32031H68.3125V14.5352C68.3125 14.9102 68.3555 15.2266 68.4414 15.4844C68.5352 15.7422 68.6641 15.9531 68.8281 16.1172C68.9922 16.2812 69.1836 16.3984 69.4023 16.4688C69.6289 16.5391 69.8789 16.5742 70.1523 16.5742C70.8477 16.5742 71.3945 16.4336 71.793 16.1523C72.1992 15.8711 72.4844 15.4883 72.6484 15.0039C72.8203 14.5117 72.9062 13.9648 72.9062 13.3633ZM81.8594 8.94531V19H78.4727V6.32031H81.6484L81.8594 8.94531ZM81.3906 12.2148H80.4531C80.4531 11.332 80.5586 10.5195 80.7695 9.77734C80.9883 9.02734 81.3047 8.37891 81.7188 7.83203C82.1406 7.27734 82.6602 6.84766 83.2773 6.54297C83.8945 6.23828 84.6094 6.08594 85.4219 6.08594C85.9844 6.08594 86.5 6.17188 86.9688 6.34375C87.4375 6.50781 87.8398 6.76953 88.1758 7.12891C88.5195 7.48047 88.7852 7.94141 88.9727 8.51172C89.1602 9.07422 89.2539 9.75 89.2539 10.5391V19H85.8789V10.9141C85.8789 10.3359 85.8008 9.89062 85.6445 9.57812C85.4883 9.26562 85.2656 9.04688 84.9766 8.92188C84.6953 8.79688 84.3555 8.73438 83.957 8.73438C83.5195 8.73438 83.1367 8.82422 82.8086 9.00391C82.4883 9.18359 82.2227 9.43359 82.0117 9.75391C81.8008 10.0664 81.6445 10.4336 81.543 10.8555C81.4414 11.2773 81.3906 11.7305 81.3906 12.2148ZM88.9375 11.8281L87.7305 11.9805C87.7305 11.1523 87.832 10.3828 88.0352 9.67188C88.2461 8.96094 88.5547 8.33594 88.9609 7.79688C89.375 7.25781 89.8867 6.83984 90.4961 6.54297C91.1055 6.23828 91.8086 6.08594 92.6055 6.08594C93.2148 6.08594 93.7695 6.17578 94.2695 6.35547C94.7695 6.52734 95.1953 6.80469 95.5469 7.1875C95.9062 7.5625 96.1797 8.05469 96.3672 8.66406C96.5625 9.27344 96.6602 10.0195 96.6602 10.9023V19H93.2734V10.9023C93.2734 10.3164 93.1953 9.87109 93.0391 9.56641C92.8906 9.25391 92.6719 9.03906 92.3828 8.92188C92.1016 8.79688 91.7656 8.73438 91.375 8.73438C90.9688 8.73438 90.6133 8.81641 90.3086 8.98047C90.0039 9.13672 89.75 9.35547 89.5469 9.63672C89.3438 9.91797 89.1914 10.2461 89.0898 10.6211C88.9883 10.9883 88.9375 11.3906 88.9375 11.8281ZM102.648 8.94531V19H99.2617V6.32031H102.438L102.648 8.94531ZM102.18 12.2148H101.242C101.242 11.332 101.348 10.5195 101.559 9.77734C101.777 9.02734 102.094 8.37891 102.508 7.83203C102.93 7.27734 103.449 6.84766 104.066 6.54297C104.684 6.23828 105.398 6.08594 106.211 6.08594C106.773 6.08594 107.289 6.17188 107.758 6.34375C108.227 6.50781 108.629 6.76953 108.965 7.12891C109.309 7.48047 109.574 7.94141 109.762 8.51172C109.949 9.07422 110.043 9.75 110.043 10.5391V19H106.668V10.9141C106.668 10.3359 106.59 9.89062 106.434 9.57812C106.277 9.26562 106.055 9.04688 105.766 8.92188C105.484 8.79688 105.145 8.73438 104.746 8.73438C104.309 8.73438 103.926 8.82422 103.598 9.00391C103.277 9.18359 103.012 9.43359 102.801 9.75391C102.59 10.0664 102.434 10.4336 102.332 10.8555C102.23 11.2773 102.18 11.7305 102.18 12.2148ZM109.727 11.8281L108.52 11.9805C108.52 11.1523 108.621 10.3828 108.824 9.67188C109.035 8.96094 109.344 8.33594 109.75 7.79688C110.164 7.25781 110.676 6.83984 111.285 6.54297C111.895 6.23828 112.598 6.08594 113.395 6.08594C114.004 6.08594 114.559 6.17578 115.059 6.35547C115.559 6.52734 115.984 6.80469 116.336 7.1875C116.695 7.5625 116.969 8.05469 117.156 8.66406C117.352 9.27344 117.449 10.0195 117.449 10.9023V19H114.062V10.9023C114.062 10.3164 113.984 9.87109 113.828 9.56641C113.68 9.25391 113.461 9.03906 113.172 8.92188C112.891 8.79688 112.555 8.73438 112.164 8.73438C111.758 8.73438 111.402 8.81641 111.098 8.98047C110.793 9.13672 110.539 9.35547 110.336 9.63672C110.133 9.91797 109.98 10.2461 109.879 10.6211C109.777 10.9883 109.727 11.3906 109.727 11.8281ZM125.898 19.2344C124.914 19.2344 124.031 19.0781 123.25 18.7656C122.469 18.4453 121.805 18.0039 121.258 17.4414C120.719 16.8789 120.305 16.2266 120.016 15.4844C119.727 14.7344 119.582 13.9375 119.582 13.0938V12.625C119.582 11.6641 119.719 10.7852 119.992 9.98828C120.266 9.19141 120.656 8.5 121.164 7.91406C121.68 7.32812 122.305 6.87891 123.039 6.56641C123.773 6.24609 124.602 6.08594 125.523 6.08594C126.422 6.08594 127.219 6.23438 127.914 6.53125C128.609 6.82812 129.191 7.25 129.66 7.79688C130.137 8.34375 130.496 9 130.738 9.76562C130.98 10.5234 131.102 11.3672 131.102 12.2969V13.7031H121.023V11.4531H127.785V11.1953C127.785 10.7266 127.699 10.3086 127.527 9.94141C127.363 9.56641 127.113 9.26953 126.777 9.05078C126.441 8.83203 126.012 8.72266 125.488 8.72266C125.043 8.72266 124.66 8.82031 124.34 9.01562C124.02 9.21094 123.758 9.48438 123.555 9.83594C123.359 10.1875 123.211 10.6016 123.109 11.0781C123.016 11.5469 122.969 12.0625 122.969 12.625V13.0938C122.969 13.6016 123.039 14.0703 123.18 14.5C123.328 14.9297 123.535 15.3008 123.801 15.6133C124.074 15.9258 124.402 16.168 124.785 16.3398C125.176 16.5117 125.617 16.5977 126.109 16.5977C126.719 16.5977 127.285 16.4805 127.809 16.2461C128.34 16.0039 128.797 15.6406 129.18 15.1562L130.82 16.9375C130.555 17.3203 130.191 17.6875 129.73 18.0391C129.277 18.3906 128.73 18.6797 128.09 18.9062C127.449 19.125 126.719 19.2344 125.898 19.2344ZM136.398 9.08594V19H133.023V6.32031H136.199L136.398 9.08594ZM140.219 6.23828L140.16 9.36719C139.996 9.34375 139.797 9.32422 139.562 9.30859C139.336 9.28516 139.129 9.27344 138.941 9.27344C138.465 9.27344 138.051 9.33594 137.699 9.46094C137.355 9.57812 137.066 9.75391 136.832 9.98828C136.605 10.2227 136.434 10.5078 136.316 10.8438C136.207 11.1797 136.145 11.5625 136.129 11.9922L135.449 11.7812C135.449 10.9609 135.531 10.207 135.695 9.51953C135.859 8.82422 136.098 8.21875 136.41 7.70312C136.73 7.1875 137.121 6.78906 137.582 6.50781C138.043 6.22656 138.57 6.08594 139.164 6.08594C139.352 6.08594 139.543 6.10156 139.738 6.13281C139.934 6.15625 140.094 6.19141 140.219 6.23828ZM156.883 14.5352C156.883 14.2305 156.836 13.957 156.742 13.7148C156.656 13.4648 156.492 13.2383 156.25 13.0352C156.008 12.8242 155.668 12.6172 155.23 12.4141C154.793 12.2109 154.227 12 153.531 11.7812C152.758 11.5312 152.023 11.25 151.328 10.9375C150.641 10.625 150.031 10.2617 149.5 9.84766C148.977 9.42578 148.562 8.9375 148.258 8.38281C147.961 7.82812 147.812 7.18359 147.812 6.44922C147.812 5.73828 147.969 5.09375 148.281 4.51562C148.594 3.92969 149.031 3.42969 149.594 3.01562C150.156 2.59375 150.82 2.26953 151.586 2.04297C152.359 1.81641 153.207 1.70312 154.129 1.70312C155.387 1.70312 156.484 1.92969 157.422 2.38281C158.359 2.83594 159.086 3.45703 159.602 4.24609C160.125 5.03516 160.387 5.9375 160.387 6.95312H156.895C156.895 6.45312 156.789 6.01562 156.578 5.64062C156.375 5.25781 156.062 4.95703 155.641 4.73828C155.227 4.51953 154.703 4.41016 154.07 4.41016C153.461 4.41016 152.953 4.50391 152.547 4.69141C152.141 4.87109 151.836 5.11719 151.633 5.42969C151.43 5.73438 151.328 6.07812 151.328 6.46094C151.328 6.75 151.398 7.01172 151.539 7.24609C151.688 7.48047 151.906 7.69922 152.195 7.90234C152.484 8.10547 152.84 8.29688 153.262 8.47656C153.684 8.65625 154.172 8.83203 154.727 9.00391C155.656 9.28516 156.473 9.60156 157.176 9.95312C157.887 10.3047 158.48 10.6992 158.957 11.1367C159.434 11.5742 159.793 12.0703 160.035 12.625C160.277 13.1797 160.398 13.8086 160.398 14.5117C160.398 15.2539 160.254 15.918 159.965 16.5039C159.676 17.0898 159.258 17.5859 158.711 17.9922C158.164 18.3984 157.512 18.707 156.754 18.918C155.996 19.1289 155.148 19.2344 154.211 19.2344C153.367 19.2344 152.535 19.125 151.715 18.9062C150.895 18.6797 150.148 18.3398 149.477 17.8867C148.812 17.4336 148.281 16.8555 147.883 16.1523C147.484 15.4492 147.285 14.6172 147.285 13.6562H150.812C150.812 14.1875 150.895 14.6367 151.059 15.0039C151.223 15.3711 151.453 15.668 151.75 15.8945C152.055 16.1211 152.414 16.2852 152.828 16.3867C153.25 16.4883 153.711 16.5391 154.211 16.5391C154.82 16.5391 155.32 16.4531 155.711 16.2812C156.109 16.1094 156.402 15.8711 156.59 15.5664C156.785 15.2617 156.883 14.918 156.883 14.5352ZM167.816 16.5977C168.23 16.5977 168.598 16.5195 168.918 16.3633C169.238 16.1992 169.488 15.9727 169.668 15.6836C169.855 15.3867 169.953 15.0391 169.961 14.6406H173.137C173.129 15.5312 172.891 16.3242 172.422 17.0195C171.953 17.707 171.324 18.25 170.535 18.6484C169.746 19.0391 168.863 19.2344 167.887 19.2344C166.902 19.2344 166.043 19.0703 165.309 18.7422C164.582 18.4141 163.977 17.9609 163.492 17.3828C163.008 16.7969 162.645 16.1172 162.402 15.3438C162.16 14.5625 162.039 13.7266 162.039 12.8359V12.4961C162.039 11.5977 162.16 10.7617 162.402 9.98828C162.645 9.20703 163.008 8.52734 163.492 7.94922C163.977 7.36328 164.582 6.90625 165.309 6.57812C166.035 6.25 166.887 6.08594 167.863 6.08594C168.902 6.08594 169.812 6.28516 170.594 6.68359C171.383 7.08203 172 7.65234 172.445 8.39453C172.898 9.12891 173.129 10 173.137 11.0078H169.961C169.953 10.5859 169.863 10.2031 169.691 9.85938C169.527 9.51562 169.285 9.24219 168.965 9.03906C168.652 8.82812 168.266 8.72266 167.805 8.72266C167.312 8.72266 166.91 8.82812 166.598 9.03906C166.285 9.24219 166.043 9.52344 165.871 9.88281C165.699 10.2344 165.578 10.6367 165.508 11.0898C165.445 11.5352 165.414 12.0039 165.414 12.4961V12.8359C165.414 13.3281 165.445 13.8008 165.508 14.2539C165.57 14.707 165.688 15.1094 165.859 15.4609C166.039 15.8125 166.285 16.0898 166.598 16.293C166.91 16.4961 167.316 16.5977 167.816 16.5977ZM178.387 1V19H175.012V1H178.387ZM177.906 12.2148H176.98C176.988 11.332 177.105 10.5195 177.332 9.77734C177.559 9.02734 177.883 8.37891 178.305 7.83203C178.727 7.27734 179.23 6.84766 179.816 6.54297C180.41 6.23828 181.066 6.08594 181.785 6.08594C182.41 6.08594 182.977 6.17578 183.484 6.35547C184 6.52734 184.441 6.80859 184.809 7.19922C185.184 7.58203 185.473 8.08594 185.676 8.71094C185.879 9.33594 185.98 10.0938 185.98 10.9844V19H182.582V10.9609C182.582 10.3984 182.5 9.95703 182.336 9.63672C182.18 9.30859 181.949 9.07812 181.645 8.94531C181.348 8.80469 180.98 8.73438 180.543 8.73438C180.059 8.73438 179.645 8.82422 179.301 9.00391C178.965 9.18359 178.695 9.43359 178.492 9.75391C178.289 10.0664 178.141 10.4336 178.047 10.8555C177.953 11.2773 177.906 11.7305 177.906 12.2148ZM188.008 12.7891V12.543C188.008 11.6133 188.141 10.7578 188.406 9.97656C188.672 9.1875 189.059 8.50391 189.566 7.92578C190.074 7.34766 190.699 6.89844 191.441 6.57812C192.184 6.25 193.035 6.08594 193.996 6.08594C194.957 6.08594 195.812 6.25 196.562 6.57812C197.312 6.89844 197.941 7.34766 198.449 7.92578C198.965 8.50391 199.355 9.1875 199.621 9.97656C199.887 10.7578 200.02 11.6133 200.02 12.543V12.7891C200.02 13.7109 199.887 14.5664 199.621 15.3555C199.355 16.1367 198.965 16.8203 198.449 17.4062C197.941 17.9844 197.316 18.4336 196.574 18.7539C195.832 19.0742 194.98 19.2344 194.02 19.2344C193.059 19.2344 192.203 19.0742 191.453 18.7539C190.711 18.4336 190.082 17.9844 189.566 17.4062C189.059 16.8203 188.672 16.1367 188.406 15.3555C188.141 14.5664 188.008 13.7109 188.008 12.7891ZM191.383 12.543V12.7891C191.383 13.3203 191.43 13.8164 191.523 14.2773C191.617 14.7383 191.766 15.1445 191.969 15.4961C192.18 15.8398 192.453 16.1094 192.789 16.3047C193.125 16.5 193.535 16.5977 194.02 16.5977C194.488 16.5977 194.891 16.5 195.227 16.3047C195.562 16.1094 195.832 15.8398 196.035 15.4961C196.238 15.1445 196.387 14.7383 196.48 14.2773C196.582 13.8164 196.633 13.3203 196.633 12.7891V12.543C196.633 12.0273 196.582 11.543 196.48 11.0898C196.387 10.6289 196.234 10.2227 196.023 9.87109C195.82 9.51172 195.551 9.23047 195.215 9.02734C194.879 8.82422 194.473 8.72266 193.996 8.72266C193.52 8.72266 193.113 8.82422 192.777 9.02734C192.449 9.23047 192.18 9.51172 191.969 9.87109C191.766 10.2227 191.617 10.6289 191.523 11.0898C191.43 11.543 191.383 12.0273 191.383 12.543ZM201.555 12.7891V12.543C201.555 11.6133 201.688 10.7578 201.953 9.97656C202.219 9.1875 202.605 8.50391 203.113 7.92578C203.621 7.34766 204.246 6.89844 204.988 6.57812C205.73 6.25 206.582 6.08594 207.543 6.08594C208.504 6.08594 209.359 6.25 210.109 6.57812C210.859 6.89844 211.488 7.34766 211.996 7.92578C212.512 8.50391 212.902 9.1875 213.168 9.97656C213.434 10.7578 213.566 11.6133 213.566 12.543V12.7891C213.566 13.7109 213.434 14.5664 213.168 15.3555C212.902 16.1367 212.512 16.8203 211.996 17.4062C211.488 17.9844 210.863 18.4336 210.121 18.7539C209.379 19.0742 208.527 19.2344 207.566 19.2344C206.605 19.2344 205.75 19.0742 205 18.7539C204.258 18.4336 203.629 17.9844 203.113 17.4062C202.605 16.8203 202.219 16.1367 201.953 15.3555C201.688 14.5664 201.555 13.7109 201.555 12.7891ZM204.93 12.543V12.7891C204.93 13.3203 204.977 13.8164 205.07 14.2773C205.164 14.7383 205.312 15.1445 205.516 15.4961C205.727 15.8398 206 16.1094 206.336 16.3047C206.672 16.5 207.082 16.5977 207.566 16.5977C208.035 16.5977 208.438 16.5 208.773 16.3047C209.109 16.1094 209.379 15.8398 209.582 15.4961C209.785 15.1445 209.934 14.7383 210.027 14.2773C210.129 13.8164 210.18 13.3203 210.18 12.7891V12.543C210.18 12.0273 210.129 11.543 210.027 11.0898C209.934 10.6289 209.781 10.2227 209.57 9.87109C209.367 9.51172 209.098 9.23047 208.762 9.02734C208.426 8.82422 208.02 8.72266 207.543 8.72266C207.066 8.72266 206.66 8.82422 206.324 9.02734C205.996 9.23047 205.727 9.51172 205.516 9.87109C205.312 10.2227 205.164 10.6289 205.07 11.0898C204.977 11.543 204.93 12.0273 204.93 12.543ZM219.203 1V19H215.816V1H219.203Z" fill="black"/>
<path d="M8.82812 38.625H10.3281V46.3203C10.3281 47.1745 10.138 47.8854 9.75781 48.4531C9.3776 49.0208 8.8724 49.4479 8.24219 49.7344C7.61719 50.0156 6.9375 50.1562 6.20312 50.1562C5.43229 50.1562 4.73438 50.0156 4.10938 49.7344C3.48958 49.4479 2.9974 49.0208 2.63281 48.4531C2.27344 47.8854 2.09375 47.1745 2.09375 46.3203V38.625H3.58594V46.3203C3.58594 46.9141 3.69531 47.4036 3.91406 47.7891C4.13281 48.1745 4.4375 48.4609 4.82812 48.6484C5.22396 48.8359 5.68229 48.9297 6.20312 48.9297C6.72917 48.9297 7.1875 48.8359 7.57812 48.6484C7.97396 48.4609 8.28125 48.1745 8.5 47.7891C8.71875 47.4036 8.82812 46.9141 8.82812 46.3203V38.625ZM13.6719 38.625L16.4062 42.9844L19.1406 38.625H20.8984L17.3047 44.2578L20.9844 50H19.2109L16.4062 45.5547L13.6016 50H11.8281L15.5078 44.2578L11.9141 38.625H13.6719ZM30.5859 38.625V50H29.1016V38.625H30.5859ZM34.2422 38.625V39.8594H25.4531V38.625H34.2422ZM36.5625 42.875V50H35.1172V41.5469H36.5234L36.5625 42.875ZM39.2031 41.5L39.1953 42.8438C39.0755 42.8177 38.9609 42.8021 38.8516 42.7969C38.7474 42.7865 38.6276 42.7812 38.4922 42.7812C38.1589 42.7812 37.8646 42.8333 37.6094 42.9375C37.3542 43.0417 37.138 43.1875 36.9609 43.375C36.7839 43.5625 36.6432 43.7865 36.5391 44.0469C36.4401 44.3021 36.375 44.5833 36.3438 44.8906L35.9375 45.125C35.9375 44.6146 35.987 44.1354 36.0859 43.6875C36.1901 43.2396 36.349 42.8438 36.5625 42.5C36.776 42.151 37.0469 41.8802 37.375 41.6875C37.7083 41.4896 38.1042 41.3906 38.5625 41.3906C38.6667 41.3906 38.7865 41.4036 38.9219 41.4297C39.0573 41.4505 39.151 41.474 39.2031 41.5ZM45.2109 48.5547V44.2031C45.2109 43.8698 45.1432 43.5807 45.0078 43.3359C44.8776 43.0859 44.6797 42.8932 44.4141 42.7578C44.1484 42.6224 43.8203 42.5547 43.4297 42.5547C43.0651 42.5547 42.7448 42.6172 42.4688 42.7422C42.1979 42.8672 41.9844 43.0312 41.8281 43.2344C41.6771 43.4375 41.6016 43.6562 41.6016 43.8906H40.1562C40.1562 43.5885 40.2344 43.2891 40.3906 42.9922C40.5469 42.6953 40.7708 42.4271 41.0625 42.1875C41.3594 41.9427 41.7135 41.75 42.125 41.6094C42.5417 41.4635 43.0052 41.3906 43.5156 41.3906C44.1302 41.3906 44.6719 41.4948 45.1406 41.7031C45.6146 41.9115 45.9844 42.2266 46.25 42.6484C46.5208 43.0651 46.6562 43.5885 46.6562 44.2188V48.1562C46.6562 48.4375 46.6797 48.737 46.7266 49.0547C46.7786 49.3724 46.8542 49.6458 46.9531 49.875V50H45.4453C45.3724 49.8333 45.3151 49.612 45.2734 49.3359C45.2318 49.0547 45.2109 48.7943 45.2109 48.5547ZM45.4609 44.875L45.4766 45.8906H44.0156C43.6042 45.8906 43.237 45.9245 42.9141 45.9922C42.5911 46.0547 42.3203 46.151 42.1016 46.2812C41.8828 46.4115 41.7161 46.5755 41.6016 46.7734C41.487 46.9661 41.4297 47.1927 41.4297 47.4531C41.4297 47.7188 41.4896 47.9609 41.6094 48.1797C41.7292 48.3984 41.9089 48.5729 42.1484 48.7031C42.3932 48.8281 42.6927 48.8906 43.0469 48.8906C43.4896 48.8906 43.8802 48.7969 44.2188 48.6094C44.5573 48.4219 44.8255 48.1927 45.0234 47.9219C45.2266 47.651 45.3359 47.388 45.3516 47.1328L45.9688 47.8281C45.9323 48.0469 45.8333 48.2891 45.6719 48.5547C45.5104 48.8203 45.2943 49.0755 45.0234 49.3203C44.7578 49.5599 44.4401 49.7604 44.0703 49.9219C43.7057 50.0781 43.2943 50.1562 42.8359 50.1562C42.263 50.1562 41.7604 50.0443 41.3281 49.8203C40.901 49.5964 40.5677 49.2969 40.3281 48.9219C40.0938 48.5417 39.9766 48.1172 39.9766 47.6484C39.9766 47.1953 40.0651 46.7969 40.2422 46.4531C40.4193 46.1042 40.6745 45.8151 41.0078 45.5859C41.3411 45.3516 41.7422 45.1745 42.2109 45.0547C42.6797 44.9349 43.2031 44.875 43.7812 44.875H45.4609ZM50.5 41.5469V50H49.0469V41.5469H50.5ZM48.9375 39.3047C48.9375 39.0703 49.0078 38.8724 49.1484 38.7109C49.2943 38.5495 49.5078 38.4688 49.7891 38.4688C50.0651 38.4688 50.276 38.5495 50.4219 38.7109C50.5729 38.8724 50.6484 39.0703 50.6484 39.3047C50.6484 39.5286 50.5729 39.7214 50.4219 39.8828C50.276 40.0391 50.0651 40.1172 49.7891 40.1172C49.5078 40.1172 49.2943 40.0391 49.1484 39.8828C49.0078 39.7214 48.9375 39.5286 48.9375 39.3047ZM54.2656 43.3516V50H52.8203V41.5469H54.1875L54.2656 43.3516ZM53.9219 45.4531L53.3203 45.4297C53.3255 44.8516 53.4115 44.3177 53.5781 43.8281C53.7448 43.3333 53.9792 42.9036 54.2812 42.5391C54.5833 42.1745 54.9427 41.8932 55.3594 41.6953C55.7812 41.4922 56.2474 41.3906 56.7578 41.3906C57.1745 41.3906 57.5495 41.4479 57.8828 41.5625C58.2161 41.6719 58.5 41.849 58.7344 42.0938C58.974 42.3385 59.1562 42.6562 59.2812 43.0469C59.4062 43.4323 59.4688 43.9036 59.4688 44.4609V50H58.0156V44.4453C58.0156 44.0026 57.9505 43.6484 57.8203 43.3828C57.6901 43.112 57.5 42.9167 57.25 42.7969C57 42.6719 56.6927 42.6094 56.3281 42.6094C55.9688 42.6094 55.6406 42.6849 55.3438 42.8359C55.0521 42.987 54.7995 43.1953 54.5859 43.4609C54.3776 43.7266 54.2135 44.0312 54.0938 44.375C53.9792 44.7135 53.9219 45.0729 53.9219 45.4531ZM63.2344 41.5469V50H61.7812V41.5469H63.2344ZM61.6719 39.3047C61.6719 39.0703 61.7422 38.8724 61.8828 38.7109C62.0286 38.5495 62.2422 38.4688 62.5234 38.4688C62.7995 38.4688 63.0104 38.5495 63.1562 38.7109C63.3073 38.8724 63.3828 39.0703 63.3828 39.3047C63.3828 39.5286 63.3073 39.7214 63.1562 39.8828C63.0104 40.0391 62.7995 40.1172 62.5234 40.1172C62.2422 40.1172 62.0286 40.0391 61.8828 39.8828C61.7422 39.7214 61.6719 39.5286 61.6719 39.3047ZM67 43.3516V50H65.5547V41.5469H66.9219L67 43.3516ZM66.6562 45.4531L66.0547 45.4297C66.0599 44.8516 66.1458 44.3177 66.3125 43.8281C66.4792 43.3333 66.7135 42.9036 67.0156 42.5391C67.3177 42.1745 67.6771 41.8932 68.0938 41.6953C68.5156 41.4922 68.9818 41.3906 69.4922 41.3906C69.9089 41.3906 70.2839 41.4479 70.6172 41.5625C70.9505 41.6719 71.2344 41.849 71.4688 42.0938C71.7083 42.3385 71.8906 42.6562 72.0156 43.0469C72.1406 43.4323 72.2031 43.9036 72.2031 44.4609V50H70.75V44.4453C70.75 44.0026 70.6849 43.6484 70.5547 43.3828C70.4245 43.112 70.2344 42.9167 69.9844 42.7969C69.7344 42.6719 69.4271 42.6094 69.0625 42.6094C68.7031 42.6094 68.375 42.6849 68.0781 42.8359C67.7865 42.987 67.5339 43.1953 67.3203 43.4609C67.112 43.7266 66.9479 44.0312 66.8281 44.375C66.7135 44.7135 66.6562 45.0729 66.6562 45.4531ZM79.875 41.5469H81.1875V49.8203C81.1875 50.5651 81.0365 51.2005 80.7344 51.7266C80.4323 52.2526 80.0104 52.651 79.4688 52.9219C78.9323 53.1979 78.3125 53.3359 77.6094 53.3359C77.3177 53.3359 76.974 53.2891 76.5781 53.1953C76.1875 53.1068 75.8021 52.9531 75.4219 52.7344C75.0469 52.5208 74.7318 52.2318 74.4766 51.8672L75.2344 51.0078C75.5885 51.4349 75.9583 51.7318 76.3438 51.8984C76.7344 52.0651 77.1198 52.1484 77.5 52.1484C77.9583 52.1484 78.3542 52.0625 78.6875 51.8906C79.0208 51.7188 79.2786 51.4635 79.4609 51.125C79.6484 50.7917 79.7422 50.3802 79.7422 49.8906V43.4062L79.875 41.5469ZM74.0547 45.8672V45.7031C74.0547 45.0573 74.1302 44.4714 74.2812 43.9453C74.4375 43.4141 74.6589 42.9583 74.9453 42.5781C75.237 42.1979 75.5885 41.9062 76 41.7031C76.4115 41.4948 76.875 41.3906 77.3906 41.3906C77.9219 41.3906 78.3854 41.4844 78.7812 41.6719C79.1823 41.8542 79.5208 42.1224 79.7969 42.4766C80.0781 42.8255 80.2995 43.2474 80.4609 43.7422C80.6224 44.237 80.7344 44.7969 80.7969 45.4219V46.1406C80.7396 46.7604 80.6276 47.3177 80.4609 47.8125C80.2995 48.3073 80.0781 48.7292 79.7969 49.0781C79.5208 49.4271 79.1823 49.6953 78.7812 49.8828C78.3802 50.0651 77.9115 50.1562 77.375 50.1562C76.8698 50.1562 76.4115 50.0495 76 49.8359C75.5938 49.6224 75.2448 49.3229 74.9531 48.9375C74.6615 48.5521 74.4375 48.099 74.2812 47.5781C74.1302 47.0521 74.0547 46.4818 74.0547 45.8672ZM75.5 45.7031V45.8672C75.5 46.2891 75.5417 46.6849 75.625 47.0547C75.7135 47.4245 75.8464 47.75 76.0234 48.0312C76.2057 48.3125 76.4375 48.5339 76.7188 48.6953C77 48.8516 77.3359 48.9297 77.7266 48.9297C78.2057 48.9297 78.6016 48.8281 78.9141 48.625C79.2266 48.4219 79.474 48.1536 79.6562 47.8203C79.8438 47.487 79.9896 47.125 80.0938 46.7344V44.8516C80.0365 44.5651 79.9479 44.2891 79.8281 44.0234C79.7135 43.7526 79.5625 43.513 79.375 43.3047C79.1927 43.0911 78.9661 42.9219 78.6953 42.7969C78.4245 42.6719 78.1068 42.6094 77.7422 42.6094C77.3464 42.6094 77.0052 42.6927 76.7188 42.8594C76.4375 43.0208 76.2057 43.2448 76.0234 43.5312C75.8464 43.8125 75.7135 44.1406 75.625 44.5156C75.5417 44.8854 75.5 45.2812 75.5 45.7031ZM91.625 44.6797H88.7422L88.7266 43.4688H91.3438C91.776 43.4688 92.1536 43.3958 92.4766 43.25C92.7995 43.1042 93.0495 42.8958 93.2266 42.625C93.4089 42.349 93.5 42.0208 93.5 41.6406C93.5 41.224 93.4193 40.8854 93.2578 40.625C93.1016 40.3594 92.8594 40.1667 92.5312 40.0469C92.2083 39.9219 91.7969 39.8594 91.2969 39.8594H89.0781V50H87.5703V38.625H91.2969C91.8802 38.625 92.401 38.6849 92.8594 38.8047C93.3177 38.9193 93.7057 39.1016 94.0234 39.3516C94.3464 39.5964 94.5911 39.9089 94.7578 40.2891C94.9245 40.6693 95.0078 41.125 95.0078 41.6562C95.0078 42.125 94.888 42.5495 94.6484 42.9297C94.4089 43.3047 94.0755 43.612 93.6484 43.8516C93.2266 44.0911 92.7318 44.2448 92.1641 44.3125L91.625 44.6797ZM91.5547 50H88.1484L89 48.7734H91.5547C92.0339 48.7734 92.4401 48.6901 92.7734 48.5234C93.112 48.3568 93.3698 48.1224 93.5469 47.8203C93.724 47.513 93.8125 47.151 93.8125 46.7344C93.8125 46.3125 93.737 45.9479 93.5859 45.6406C93.4349 45.3333 93.1979 45.0964 92.875 44.9297C92.5521 44.763 92.1354 44.6797 91.625 44.6797H89.4766L89.4922 43.4688H92.4297L92.75 43.9062C93.2969 43.9531 93.7604 44.1094 94.1406 44.375C94.5208 44.6354 94.8099 44.9688 95.0078 45.375C95.2109 45.7812 95.3125 46.2292 95.3125 46.7188C95.3125 47.4271 95.1562 48.026 94.8438 48.5156C94.5365 49 94.1016 49.3698 93.5391 49.625C92.9766 49.875 92.3151 50 91.5547 50ZM96.9375 45.8672V45.6875C96.9375 45.0781 97.026 44.513 97.2031 43.9922C97.3802 43.4661 97.6354 43.0104 97.9688 42.625C98.3021 42.2344 98.7057 41.9323 99.1797 41.7188C99.6536 41.5 100.185 41.3906 100.773 41.3906C101.367 41.3906 101.901 41.5 102.375 41.7188C102.854 41.9323 103.26 42.2344 103.594 42.625C103.932 43.0104 104.19 43.4661 104.367 43.9922C104.544 44.513 104.633 45.0781 104.633 45.6875V45.8672C104.633 46.4766 104.544 47.0417 104.367 47.5625C104.19 48.0833 103.932 48.5391 103.594 48.9297C103.26 49.3151 102.857 49.6172 102.383 49.8359C101.914 50.0495 101.383 50.1562 100.789 50.1562C100.195 50.1562 99.6615 50.0495 99.1875 49.8359C98.7135 49.6172 98.3073 49.3151 97.9688 48.9297C97.6354 48.5391 97.3802 48.0833 97.2031 47.5625C97.026 47.0417 96.9375 46.4766 96.9375 45.8672ZM98.3828 45.6875V45.8672C98.3828 46.2891 98.4323 46.6875 98.5312 47.0625C98.6302 47.4323 98.7786 47.7604 98.9766 48.0469C99.1797 48.3333 99.4323 48.5599 99.7344 48.7266C100.036 48.888 100.388 48.9688 100.789 48.9688C101.185 48.9688 101.531 48.888 101.828 48.7266C102.13 48.5599 102.38 48.3333 102.578 48.0469C102.776 47.7604 102.924 47.4323 103.023 47.0625C103.128 46.6875 103.18 46.2891 103.18 45.8672V45.6875C103.18 45.2708 103.128 44.8776 103.023 44.5078C102.924 44.1328 102.773 43.8021 102.57 43.5156C102.372 43.224 102.122 42.9948 101.82 42.8281C101.523 42.6615 101.174 42.5781 100.773 42.5781C100.378 42.5781 100.029 42.6615 99.7266 42.8281C99.4297 42.9948 99.1797 43.224 98.9766 43.5156C98.7786 43.8021 98.6302 44.1328 98.5312 44.5078C98.4323 44.8776 98.3828 45.2708 98.3828 45.6875ZM106.062 45.8672V45.6875C106.062 45.0781 106.151 44.513 106.328 43.9922C106.505 43.4661 106.76 43.0104 107.094 42.625C107.427 42.2344 107.831 41.9323 108.305 41.7188C108.779 41.5 109.31 41.3906 109.898 41.3906C110.492 41.3906 111.026 41.5 111.5 41.7188C111.979 41.9323 112.385 42.2344 112.719 42.625C113.057 43.0104 113.315 43.4661 113.492 43.9922C113.669 44.513 113.758 45.0781 113.758 45.6875V45.8672C113.758 46.4766 113.669 47.0417 113.492 47.5625C113.315 48.0833 113.057 48.5391 112.719 48.9297C112.385 49.3151 111.982 49.6172 111.508 49.8359C111.039 50.0495 110.508 50.1562 109.914 50.1562C109.32 50.1562 108.786 50.0495 108.312 49.8359C107.839 49.6172 107.432 49.3151 107.094 48.9297C106.76 48.5391 106.505 48.0833 106.328 47.5625C106.151 47.0417 106.062 46.4766 106.062 45.8672ZM107.508 45.6875V45.8672C107.508 46.2891 107.557 46.6875 107.656 47.0625C107.755 47.4323 107.904 47.7604 108.102 48.0469C108.305 48.3333 108.557 48.5599 108.859 48.7266C109.161 48.888 109.513 48.9688 109.914 48.9688C110.31 48.9688 110.656 48.888 110.953 48.7266C111.255 48.5599 111.505 48.3333 111.703 48.0469C111.901 47.7604 112.049 47.4323 112.148 47.0625C112.253 46.6875 112.305 46.2891 112.305 45.8672V45.6875C112.305 45.2708 112.253 44.8776 112.148 44.5078C112.049 44.1328 111.898 43.8021 111.695 43.5156C111.497 43.224 111.247 42.9948 110.945 42.8281C110.648 42.6615 110.299 42.5781 109.898 42.5781C109.503 42.5781 109.154 42.6615 108.852 42.8281C108.555 42.9948 108.305 43.224 108.102 43.5156C107.904 43.8021 107.755 44.1328 107.656 44.5078C107.557 44.8776 107.508 45.2708 107.508 45.6875ZM119.109 41.5469V42.6562H114.539V41.5469H119.109ZM116.086 39.4922H117.531V47.9062C117.531 48.1927 117.576 48.4089 117.664 48.5547C117.753 48.7005 117.867 48.7969 118.008 48.8438C118.148 48.8906 118.299 48.9141 118.461 48.9141C118.581 48.9141 118.706 48.9036 118.836 48.8828C118.971 48.8568 119.073 48.8359 119.141 48.8203L119.148 50C119.034 50.0365 118.883 50.0703 118.695 50.1016C118.513 50.138 118.292 50.1562 118.031 50.1562C117.677 50.1562 117.352 50.0859 117.055 49.9453C116.758 49.8047 116.521 49.5703 116.344 49.2422C116.172 48.9089 116.086 48.4609 116.086 47.8984V39.4922ZM124.188 48.9688C124.531 48.9688 124.849 48.8984 125.141 48.7578C125.432 48.6172 125.672 48.4245 125.859 48.1797C126.047 47.9297 126.154 47.6458 126.18 47.3281H127.555C127.529 47.8281 127.359 48.2943 127.047 48.7266C126.74 49.1536 126.336 49.5 125.836 49.7656C125.336 50.026 124.786 50.1562 124.188 50.1562C123.552 50.1562 122.997 50.0443 122.523 49.8203C122.055 49.5964 121.664 49.2891 121.352 48.8984C121.044 48.5078 120.812 48.0599 120.656 47.5547C120.505 47.0443 120.43 46.5052 120.43 45.9375V45.6094C120.43 45.0417 120.505 44.5052 120.656 44C120.812 43.4896 121.044 43.0391 121.352 42.6484C121.664 42.2578 122.055 41.9505 122.523 41.7266C122.997 41.5026 123.552 41.3906 124.188 41.3906C124.849 41.3906 125.427 41.526 125.922 41.7969C126.417 42.0625 126.805 42.4271 127.086 42.8906C127.372 43.349 127.529 43.8698 127.555 44.4531H126.18C126.154 44.1042 126.055 43.7891 125.883 43.5078C125.716 43.2266 125.487 43.0026 125.195 42.8359C124.909 42.6641 124.573 42.5781 124.188 42.5781C123.745 42.5781 123.372 42.6667 123.07 42.8438C122.773 43.0156 122.536 43.25 122.359 43.5469C122.188 43.8385 122.062 44.1641 121.984 44.5234C121.911 44.8776 121.875 45.2396 121.875 45.6094V45.9375C121.875 46.3073 121.911 46.6719 121.984 47.0312C122.057 47.3906 122.18 47.7161 122.352 48.0078C122.529 48.2995 122.766 48.5339 123.062 48.7109C123.365 48.8828 123.74 48.9688 124.188 48.9688ZM134.164 48.5547V44.2031C134.164 43.8698 134.096 43.5807 133.961 43.3359C133.831 43.0859 133.633 42.8932 133.367 42.7578C133.102 42.6224 132.773 42.5547 132.383 42.5547C132.018 42.5547 131.698 42.6172 131.422 42.7422C131.151 42.8672 130.938 43.0312 130.781 43.2344C130.63 43.4375 130.555 43.6562 130.555 43.8906H129.109C129.109 43.5885 129.188 43.2891 129.344 42.9922C129.5 42.6953 129.724 42.4271 130.016 42.1875C130.312 41.9427 130.667 41.75 131.078 41.6094C131.495 41.4635 131.958 41.3906 132.469 41.3906C133.083 41.3906 133.625 41.4948 134.094 41.7031C134.568 41.9115 134.938 42.2266 135.203 42.6484C135.474 43.0651 135.609 43.5885 135.609 44.2188V48.1562C135.609 48.4375 135.633 48.737 135.68 49.0547C135.732 49.3724 135.807 49.6458 135.906 49.875V50H134.398C134.326 49.8333 134.268 49.612 134.227 49.3359C134.185 49.0547 134.164 48.7943 134.164 48.5547ZM134.414 44.875L134.43 45.8906H132.969C132.557 45.8906 132.19 45.9245 131.867 45.9922C131.544 46.0547 131.273 46.151 131.055 46.2812C130.836 46.4115 130.669 46.5755 130.555 46.7734C130.44 46.9661 130.383 47.1927 130.383 47.4531C130.383 47.7188 130.443 47.9609 130.562 48.1797C130.682 48.3984 130.862 48.5729 131.102 48.7031C131.346 48.8281 131.646 48.8906 132 48.8906C132.443 48.8906 132.833 48.7969 133.172 48.6094C133.51 48.4219 133.779 48.1927 133.977 47.9219C134.18 47.651 134.289 47.388 134.305 47.1328L134.922 47.8281C134.885 48.0469 134.786 48.2891 134.625 48.5547C134.464 48.8203 134.247 49.0755 133.977 49.3203C133.711 49.5599 133.393 49.7604 133.023 49.9219C132.659 50.0781 132.247 50.1562 131.789 50.1562C131.216 50.1562 130.714 50.0443 130.281 49.8203C129.854 49.5964 129.521 49.2969 129.281 48.9219C129.047 48.5417 128.93 48.1172 128.93 47.6484C128.93 47.1953 129.018 46.7969 129.195 46.4531C129.372 46.1042 129.628 45.8151 129.961 45.5859C130.294 45.3516 130.695 45.1745 131.164 45.0547C131.633 44.9349 132.156 44.875 132.734 44.875H134.414ZM139.32 43.2266V50H137.867V41.5469H139.242L139.32 43.2266ZM139.023 45.4531L138.352 45.4297C138.357 44.8516 138.432 44.3177 138.578 43.8281C138.724 43.3333 138.94 42.9036 139.227 42.5391C139.513 42.1745 139.87 41.8932 140.297 41.6953C140.724 41.4922 141.219 41.3906 141.781 41.3906C142.177 41.3906 142.542 41.4479 142.875 41.5625C143.208 41.6719 143.497 41.8464 143.742 42.0859C143.987 42.3255 144.177 42.6328 144.312 43.0078C144.448 43.3828 144.516 43.8359 144.516 44.3672V50H143.07V44.4375C143.07 43.9948 142.995 43.6406 142.844 43.375C142.698 43.1094 142.49 42.9167 142.219 42.7969C141.948 42.6719 141.63 42.6094 141.266 42.6094C140.839 42.6094 140.482 42.6849 140.195 42.8359C139.909 42.987 139.68 43.1953 139.508 43.4609C139.336 43.7266 139.211 44.0312 139.133 44.375C139.06 44.7135 139.023 45.0729 139.023 45.4531ZM144.5 44.6562L143.531 44.9531C143.536 44.4896 143.612 44.0443 143.758 43.6172C143.909 43.1901 144.125 42.8099 144.406 42.4766C144.693 42.1432 145.044 41.8802 145.461 41.6875C145.878 41.4896 146.354 41.3906 146.891 41.3906C147.344 41.3906 147.745 41.4505 148.094 41.5703C148.448 41.6901 148.745 41.875 148.984 42.125C149.229 42.3698 149.414 42.6849 149.539 43.0703C149.664 43.4557 149.727 43.9141 149.727 44.4453V50H148.273V44.4297C148.273 43.9557 148.198 43.5885 148.047 43.3281C147.901 43.0625 147.693 42.8776 147.422 42.7734C147.156 42.6641 146.839 42.6094 146.469 42.6094C146.151 42.6094 145.87 42.6641 145.625 42.7734C145.38 42.8828 145.174 43.0339 145.008 43.2266C144.841 43.4141 144.714 43.6302 144.625 43.875C144.542 44.1198 144.5 44.3802 144.5 44.6562ZM153.359 43.1719V53.25H151.906V41.5469H153.234L153.359 43.1719ZM159.055 45.7031V45.8672C159.055 46.4818 158.982 47.0521 158.836 47.5781C158.69 48.099 158.477 48.5521 158.195 48.9375C157.919 49.3229 157.578 49.6224 157.172 49.8359C156.766 50.0495 156.299 50.1562 155.773 50.1562C155.237 50.1562 154.763 50.0677 154.352 49.8906C153.94 49.7135 153.591 49.4557 153.305 49.1172C153.018 48.7786 152.789 48.3724 152.617 47.8984C152.451 47.4245 152.336 46.8906 152.273 46.2969V45.4219C152.336 44.7969 152.453 44.237 152.625 43.7422C152.797 43.2474 153.023 42.8255 153.305 42.4766C153.591 42.1224 153.938 41.8542 154.344 41.6719C154.75 41.4844 155.219 41.3906 155.75 41.3906C156.281 41.3906 156.753 41.4948 157.164 41.7031C157.576 41.9062 157.922 42.1979 158.203 42.5781C158.484 42.9583 158.695 43.4141 158.836 43.9453C158.982 44.4714 159.055 45.0573 159.055 45.7031ZM157.602 45.8672V45.7031C157.602 45.2812 157.557 44.8854 157.469 44.5156C157.38 44.1406 157.242 43.8125 157.055 43.5312C156.872 43.2448 156.638 43.0208 156.352 42.8594C156.065 42.6927 155.724 42.6094 155.328 42.6094C154.964 42.6094 154.646 42.6719 154.375 42.7969C154.109 42.9219 153.883 43.0911 153.695 43.3047C153.508 43.513 153.354 43.7526 153.234 44.0234C153.12 44.2891 153.034 44.5651 152.977 44.8516V46.875C153.081 47.2396 153.227 47.5833 153.414 47.9062C153.602 48.224 153.852 48.4818 154.164 48.6797C154.477 48.8724 154.87 48.9688 155.344 48.9688C155.734 48.9688 156.07 48.888 156.352 48.7266C156.638 48.5599 156.872 48.3333 157.055 48.0469C157.242 47.7604 157.38 47.4323 157.469 47.0625C157.557 46.6875 157.602 46.2891 157.602 45.8672Z" fill="black" fill-opacity="0.6"/>
<defs>
<clipPath id="clip0_1_743">
<rect width="583" height="1" fill="white" transform="translate(1 94)"/>
</clipPath>
</defs>
</svg>
