<svg width="584" height="95" viewBox="0 0 584 95" fill="none" xmlns="http://www.w3.org/2000/svg">
<g clip-path="url(#clip0_1_784)">
<path d="M50 27.8244C50 14.2297 38.8071 3.20898 25 3.20898C11.1929 3.20898 0 14.2297 0 27.8244C0 41.4191 11.1929 52.4398 25 52.4398C38.8071 52.4398 50 41.4191 50 27.8244Z" fill="#A5BEFF"/>
<path d="M33.0369 20.7249L25.2244 18.4172C25.1078 18.3828 24.9846 18.3756 24.8647 18.3964C24.7447 18.4172 24.6313 18.4652 24.5336 18.5368C24.4359 18.6085 24.3565 18.7015 24.3018 18.8087C24.2472 18.9158 24.2187 19.0341 24.2187 19.154V23.7521C24.2184 23.7638 24.2184 23.7755 24.2187 23.7873V29.5638C23.419 28.8598 22.398 28.4474 21.3266 28.3955C20.2551 28.3435 19.198 28.6552 18.3319 29.2785C17.4658 29.9017 16.8432 30.7987 16.5681 31.8196C16.2929 32.8405 16.382 33.9235 16.8204 34.8875C17.2586 35.8516 18.0197 36.6383 18.9764 37.1163C19.933 37.5942 21.0273 37.7345 22.0763 37.5135C23.1254 37.2925 24.0655 36.7238 24.7399 35.9023C25.4142 35.0808 25.7818 34.0564 25.7812 33.0002V24.8032L32.5879 26.8138C32.7046 26.8483 32.8279 26.8555 32.9478 26.8347C33.0677 26.8139 33.1811 26.7658 33.2788 26.6942C33.3765 26.6226 33.4559 26.5295 33.5106 26.4224C33.5652 26.3152 33.5937 26.197 33.5937 26.0771V21.4617C33.5937 21.2962 33.5396 21.1352 33.4393 21.0025C33.339 20.8698 33.1979 20.7725 33.0369 20.7249Z" fill="#0033B6"/>
</g>
<path d="M73.1289 1.9375H76.1055L80.4883 14.4648L84.8711 1.9375H87.8477L81.6836 19H79.293L73.1289 1.9375ZM71.5234 1.9375H74.4883L75.0273 14.1484V19H71.5234V1.9375ZM86.4883 1.9375H89.4648V19H85.9492V14.1484L86.4883 1.9375ZM99.8359 15.9648V6.32031H103.211V19H100.035L99.8359 15.9648ZM100.211 13.3633L101.207 13.3398C101.207 14.1836 101.109 14.9688 100.914 15.6953C100.719 16.4141 100.426 17.0391 100.035 17.5703C99.6445 18.0938 99.1523 18.5039 98.5586 18.8008C97.9648 19.0898 97.2656 19.2344 96.4609 19.2344C95.8438 19.2344 95.2734 19.1484 94.75 18.9766C94.2344 18.7969 93.7891 18.5195 93.4141 18.1445C93.0469 17.7617 92.7578 17.2734 92.5469 16.6797C92.3438 16.0781 92.2422 15.3555 92.2422 14.5117V6.32031H95.6172V14.5352C95.6172 14.9102 95.6602 15.2266 95.7461 15.4844C95.8398 15.7422 95.9688 15.9531 96.1328 16.1172C96.2969 16.2812 96.4883 16.3984 96.707 16.4688C96.9336 16.5391 97.1836 16.5742 97.457 16.5742C98.1523 16.5742 98.6992 16.4336 99.0977 16.1523C99.5039 15.8711 99.7891 15.4883 99.9531 15.0039C100.125 14.5117 100.211 13.9648 100.211 13.3633ZM112.645 15.4961C112.645 15.2539 112.574 15.0352 112.434 14.8398C112.293 14.6445 112.031 14.4648 111.648 14.3008C111.273 14.1289 110.73 13.9727 110.02 13.832C109.379 13.6914 108.781 13.5156 108.227 13.3047C107.68 13.0859 107.203 12.8242 106.797 12.5195C106.398 12.2148 106.086 11.8555 105.859 11.4414C105.633 11.0195 105.52 10.5391 105.52 10C105.52 9.46875 105.633 8.96875 105.859 8.5C106.094 8.03125 106.426 7.61719 106.855 7.25781C107.293 6.89062 107.824 6.60547 108.449 6.40234C109.082 6.19141 109.793 6.08594 110.582 6.08594C111.684 6.08594 112.629 6.26172 113.418 6.61328C114.215 6.96484 114.824 7.44922 115.246 8.06641C115.676 8.67578 115.891 9.37109 115.891 10.1523H112.516C112.516 9.82422 112.445 9.53125 112.305 9.27344C112.172 9.00781 111.961 8.80078 111.672 8.65234C111.391 8.49609 111.023 8.41797 110.57 8.41797C110.195 8.41797 109.871 8.48438 109.598 8.61719C109.324 8.74219 109.113 8.91406 108.965 9.13281C108.824 9.34375 108.754 9.57812 108.754 9.83594C108.754 10.0312 108.793 10.207 108.871 10.3633C108.957 10.5117 109.094 10.6484 109.281 10.7734C109.469 10.8984 109.711 11.0156 110.008 11.125C110.312 11.2266 110.688 11.3203 111.133 11.4062C112.047 11.5938 112.863 11.8398 113.582 12.1445C114.301 12.4414 114.871 12.8477 115.293 13.3633C115.715 13.8711 115.926 14.5391 115.926 15.3672C115.926 15.9297 115.801 16.4453 115.551 16.9141C115.301 17.3828 114.941 17.793 114.473 18.1445C114.004 18.4883 113.441 18.7578 112.785 18.9531C112.137 19.1406 111.406 19.2344 110.594 19.2344C109.414 19.2344 108.414 19.0234 107.594 18.6016C106.781 18.1797 106.164 17.6445 105.742 16.9961C105.328 16.3398 105.121 15.668 105.121 14.9805H108.32C108.336 15.4414 108.453 15.8125 108.672 16.0938C108.898 16.375 109.184 16.5781 109.527 16.7031C109.879 16.8281 110.258 16.8906 110.664 16.8906C111.102 16.8906 111.465 16.832 111.754 16.7148C112.043 16.5898 112.262 16.4258 112.41 16.2227C112.566 16.0117 112.645 15.7695 112.645 15.4961ZM121.68 6.32031V19H118.293V6.32031H121.68ZM118.082 3.01562C118.082 2.52344 118.254 2.11719 118.598 1.79688C118.941 1.47656 119.402 1.31641 119.98 1.31641C120.551 1.31641 121.008 1.47656 121.352 1.79688C121.703 2.11719 121.879 2.52344 121.879 3.01562C121.879 3.50781 121.703 3.91406 121.352 4.23438C121.008 4.55469 120.551 4.71484 119.98 4.71484C119.402 4.71484 118.941 4.55469 118.598 4.23438C118.254 3.91406 118.082 3.50781 118.082 3.01562ZM129.707 16.5977C130.121 16.5977 130.488 16.5195 130.809 16.3633C131.129 16.1992 131.379 15.9727 131.559 15.6836C131.746 15.3867 131.844 15.0391 131.852 14.6406H135.027C135.02 15.5312 134.781 16.3242 134.312 17.0195C133.844 17.707 133.215 18.25 132.426 18.6484C131.637 19.0391 130.754 19.2344 129.777 19.2344C128.793 19.2344 127.934 19.0703 127.199 18.7422C126.473 18.4141 125.867 17.9609 125.383 17.3828C124.898 16.7969 124.535 16.1172 124.293 15.3438C124.051 14.5625 123.93 13.7266 123.93 12.8359V12.4961C123.93 11.5977 124.051 10.7617 124.293 9.98828C124.535 9.20703 124.898 8.52734 125.383 7.94922C125.867 7.36328 126.473 6.90625 127.199 6.57812C127.926 6.25 128.777 6.08594 129.754 6.08594C130.793 6.08594 131.703 6.28516 132.484 6.68359C133.273 7.08203 133.891 7.65234 134.336 8.39453C134.789 9.12891 135.02 10 135.027 11.0078H131.852C131.844 10.5859 131.754 10.2031 131.582 9.85938C131.418 9.51562 131.176 9.24219 130.855 9.03906C130.543 8.82812 130.156 8.72266 129.695 8.72266C129.203 8.72266 128.801 8.82812 128.488 9.03906C128.176 9.24219 127.934 9.52344 127.762 9.88281C127.59 10.2344 127.469 10.6367 127.398 11.0898C127.336 11.5352 127.305 12.0039 127.305 12.4961V12.8359C127.305 13.3281 127.336 13.8008 127.398 14.2539C127.461 14.707 127.578 15.1094 127.75 15.4609C127.93 15.8125 128.176 16.0898 128.488 16.293C128.801 16.4961 129.207 16.5977 129.707 16.5977ZM138.801 1.9375H141.777L146.16 14.4648L150.543 1.9375H153.52L147.355 19H144.965L138.801 1.9375ZM137.195 1.9375H140.16L140.699 14.1484V19H137.195V1.9375ZM152.16 1.9375H155.137V19H151.621V14.1484L152.16 1.9375ZM164.852 16.1406V10.4922C164.852 10.0859 164.785 9.73828 164.652 9.44922C164.52 9.15234 164.312 8.92188 164.031 8.75781C163.758 8.59375 163.402 8.51172 162.965 8.51172C162.59 8.51172 162.266 8.57812 161.992 8.71094C161.719 8.83594 161.508 9.01953 161.359 9.26172C161.211 9.49609 161.137 9.77344 161.137 10.0938H157.762C157.762 9.55469 157.887 9.04297 158.137 8.55859C158.387 8.07422 158.75 7.64844 159.227 7.28125C159.703 6.90625 160.27 6.61328 160.926 6.40234C161.59 6.19141 162.332 6.08594 163.152 6.08594C164.137 6.08594 165.012 6.25 165.777 6.57812C166.543 6.90625 167.145 7.39844 167.582 8.05469C168.027 8.71094 168.25 9.53125 168.25 10.5156V15.9414C168.25 16.6367 168.293 17.207 168.379 17.6523C168.465 18.0898 168.59 18.4727 168.754 18.8008V19H165.344C165.18 18.6562 165.055 18.2266 164.969 17.7109C164.891 17.1875 164.852 16.6641 164.852 16.1406ZM165.297 11.2773L165.32 13.1875H163.434C162.988 13.1875 162.602 13.2383 162.273 13.3398C161.945 13.4414 161.676 13.5859 161.465 13.7734C161.254 13.9531 161.098 14.1641 160.996 14.4062C160.902 14.6484 160.855 14.9141 160.855 15.2031C160.855 15.4922 160.922 15.7539 161.055 15.9883C161.188 16.2148 161.379 16.3945 161.629 16.5273C161.879 16.6523 162.172 16.7148 162.508 16.7148C163.016 16.7148 163.457 16.6133 163.832 16.4102C164.207 16.207 164.496 15.957 164.699 15.6602C164.91 15.3633 165.02 15.082 165.027 14.8164L165.918 16.2461C165.793 16.5664 165.621 16.8984 165.402 17.2422C165.191 17.5859 164.922 17.9102 164.594 18.2148C164.266 18.5117 163.871 18.7578 163.41 18.9531C162.949 19.1406 162.402 19.2344 161.77 19.2344C160.965 19.2344 160.234 19.0742 159.578 18.7539C158.93 18.4258 158.414 17.9766 158.031 17.4062C157.656 16.8281 157.469 16.1719 157.469 15.4375C157.469 14.7734 157.594 14.1836 157.844 13.668C158.094 13.1523 158.461 12.7188 158.945 12.3672C159.438 12.0078 160.051 11.7383 160.785 11.5586C161.52 11.3711 162.371 11.2773 163.34 11.2773H165.297ZM177.707 15.4961C177.707 15.2539 177.637 15.0352 177.496 14.8398C177.355 14.6445 177.094 14.4648 176.711 14.3008C176.336 14.1289 175.793 13.9727 175.082 13.832C174.441 13.6914 173.844 13.5156 173.289 13.3047C172.742 13.0859 172.266 12.8242 171.859 12.5195C171.461 12.2148 171.148 11.8555 170.922 11.4414C170.695 11.0195 170.582 10.5391 170.582 10C170.582 9.46875 170.695 8.96875 170.922 8.5C171.156 8.03125 171.488 7.61719 171.918 7.25781C172.355 6.89062 172.887 6.60547 173.512 6.40234C174.145 6.19141 174.855 6.08594 175.645 6.08594C176.746 6.08594 177.691 6.26172 178.48 6.61328C179.277 6.96484 179.887 7.44922 180.309 8.06641C180.738 8.67578 180.953 9.37109 180.953 10.1523H177.578C177.578 9.82422 177.508 9.53125 177.367 9.27344C177.234 9.00781 177.023 8.80078 176.734 8.65234C176.453 8.49609 176.086 8.41797 175.633 8.41797C175.258 8.41797 174.934 8.48438 174.66 8.61719C174.387 8.74219 174.176 8.91406 174.027 9.13281C173.887 9.34375 173.816 9.57812 173.816 9.83594C173.816 10.0312 173.855 10.207 173.934 10.3633C174.02 10.5117 174.156 10.6484 174.344 10.7734C174.531 10.8984 174.773 11.0156 175.07 11.125C175.375 11.2266 175.75 11.3203 176.195 11.4062C177.109 11.5938 177.926 11.8398 178.645 12.1445C179.363 12.4414 179.934 12.8477 180.355 13.3633C180.777 13.8711 180.988 14.5391 180.988 15.3672C180.988 15.9297 180.863 16.4453 180.613 16.9141C180.363 17.3828 180.004 17.793 179.535 18.1445C179.066 18.4883 178.504 18.7578 177.848 18.9531C177.199 19.1406 176.469 19.2344 175.656 19.2344C174.477 19.2344 173.477 19.0234 172.656 18.6016C171.844 18.1797 171.227 17.6445 170.805 16.9961C170.391 16.3398 170.184 15.668 170.184 14.9805H173.383C173.398 15.4414 173.516 15.8125 173.734 16.0938C173.961 16.375 174.246 16.5781 174.59 16.7031C174.941 16.8281 175.32 16.8906 175.727 16.8906C176.164 16.8906 176.527 16.832 176.816 16.7148C177.105 16.5898 177.324 16.4258 177.473 16.2227C177.629 16.0117 177.707 15.7695 177.707 15.4961ZM186.473 1V19H183.098V1H186.473ZM185.992 12.2148H185.066C185.074 11.332 185.191 10.5195 185.418 9.77734C185.645 9.02734 185.969 8.37891 186.391 7.83203C186.812 7.27734 187.316 6.84766 187.902 6.54297C188.496 6.23828 189.152 6.08594 189.871 6.08594C190.496 6.08594 191.062 6.17578 191.57 6.35547C192.086 6.52734 192.527 6.80859 192.895 7.19922C193.27 7.58203 193.559 8.08594 193.762 8.71094C193.965 9.33594 194.066 10.0938 194.066 10.9844V19H190.668V10.9609C190.668 10.3984 190.586 9.95703 190.422 9.63672C190.266 9.30859 190.035 9.07812 189.73 8.94531C189.434 8.80469 189.066 8.73438 188.629 8.73438C188.145 8.73438 187.73 8.82422 187.387 9.00391C187.051 9.18359 186.781 9.43359 186.578 9.75391C186.375 10.0664 186.227 10.4336 186.133 10.8555C186.039 11.2773 185.992 11.7305 185.992 12.2148Z" fill="black"/>
<path d="M72.9375 38.625V50H71.4297V38.625H72.9375ZM76.9062 43.3516V50H75.4609V41.5469H76.8281L76.9062 43.3516ZM76.5625 45.4531L75.9609 45.4297C75.9661 44.8516 76.0521 44.3177 76.2188 43.8281C76.3854 43.3333 76.6198 42.9036 76.9219 42.5391C77.224 42.1745 77.5833 41.8932 78 41.6953C78.4219 41.4922 78.888 41.3906 79.3984 41.3906C79.8151 41.3906 80.1901 41.4479 80.5234 41.5625C80.8568 41.6719 81.1406 41.849 81.375 42.0938C81.6146 42.3385 81.7969 42.6562 81.9219 43.0469C82.0469 43.4323 82.1094 43.9036 82.1094 44.4609V50H80.6562V44.4453C80.6562 44.0026 80.5911 43.6484 80.4609 43.3828C80.3307 43.112 80.1406 42.9167 79.8906 42.7969C79.6406 42.6719 79.3333 42.6094 78.9688 42.6094C78.6094 42.6094 78.2812 42.6849 77.9844 42.8359C77.6927 42.987 77.4401 43.1953 77.2266 43.4609C77.0182 43.7266 76.8542 44.0312 76.7344 44.375C76.6198 44.7135 76.5625 45.0729 76.5625 45.4531ZM86.4609 50H85.0156V40.6562C85.0156 40.0469 85.125 39.5339 85.3438 39.1172C85.5677 38.6953 85.888 38.3776 86.3047 38.1641C86.7214 37.9453 87.2161 37.8359 87.7891 37.8359C87.9557 37.8359 88.1224 37.8464 88.2891 37.8672C88.4609 37.888 88.6276 37.9193 88.7891 37.9609L88.7109 39.1406C88.6016 39.1146 88.4766 39.0964 88.3359 39.0859C88.2005 39.0755 88.0651 39.0703 87.9297 39.0703C87.6224 39.0703 87.3568 39.1328 87.1328 39.2578C86.9141 39.3776 86.7474 39.5547 86.6328 39.7891C86.5182 40.0234 86.4609 40.3125 86.4609 40.6562V50ZM88.2578 41.5469V42.6562H83.6797V41.5469H88.2578ZM89.4844 45.8672V45.6875C89.4844 45.0781 89.5729 44.513 89.75 43.9922C89.9271 43.4661 90.1823 43.0104 90.5156 42.625C90.849 42.2344 91.2526 41.9323 91.7266 41.7188C92.2005 41.5 92.7318 41.3906 93.3203 41.3906C93.9141 41.3906 94.4479 41.5 94.9219 41.7188C95.401 41.9323 95.8073 42.2344 96.1406 42.625C96.4792 43.0104 96.737 43.4661 96.9141 43.9922C97.0911 44.513 97.1797 45.0781 97.1797 45.6875V45.8672C97.1797 46.4766 97.0911 47.0417 96.9141 47.5625C96.737 48.0833 96.4792 48.5391 96.1406 48.9297C95.8073 49.3151 95.4036 49.6172 94.9297 49.8359C94.4609 50.0495 93.9297 50.1562 93.3359 50.1562C92.7422 50.1562 92.2083 50.0495 91.7344 49.8359C91.2604 49.6172 90.8542 49.3151 90.5156 48.9297C90.1823 48.5391 89.9271 48.0833 89.75 47.5625C89.5729 47.0417 89.4844 46.4766 89.4844 45.8672ZM90.9297 45.6875V45.8672C90.9297 46.2891 90.9792 46.6875 91.0781 47.0625C91.1771 47.4323 91.3255 47.7604 91.5234 48.0469C91.7266 48.3333 91.9792 48.5599 92.2812 48.7266C92.5833 48.888 92.9349 48.9688 93.3359 48.9688C93.7318 48.9688 94.0781 48.888 94.375 48.7266C94.6771 48.5599 94.9271 48.3333 95.125 48.0469C95.3229 47.7604 95.4714 47.4323 95.5703 47.0625C95.6745 46.6875 95.7266 46.2891 95.7266 45.8672V45.6875C95.7266 45.2708 95.6745 44.8776 95.5703 44.5078C95.4714 44.1328 95.3203 43.8021 95.1172 43.5156C94.9193 43.224 94.6693 42.9948 94.3672 42.8281C94.0703 42.6615 93.7214 42.5781 93.3203 42.5781C92.9245 42.5781 92.5755 42.6615 92.2734 42.8281C91.9766 42.9948 91.7266 43.224 91.5234 43.5156C91.3255 43.8021 91.1771 44.1328 91.0781 44.5078C90.9792 44.8776 90.9297 45.2708 90.9297 45.6875ZM100.438 42.875V50H98.9922V41.5469H100.398L100.438 42.875ZM103.078 41.5L103.07 42.8438C102.951 42.8177 102.836 42.8021 102.727 42.7969C102.622 42.7865 102.503 42.7812 102.367 42.7812C102.034 42.7812 101.74 42.8333 101.484 42.9375C101.229 43.0417 101.013 43.1875 100.836 43.375C100.659 43.5625 100.518 43.7865 100.414 44.0469C100.315 44.3021 100.25 44.5833 100.219 44.8906L99.8125 45.125C99.8125 44.6146 99.862 44.1354 99.9609 43.6875C100.065 43.2396 100.224 42.8438 100.438 42.5C100.651 42.151 100.922 41.8802 101.25 41.6875C101.583 41.4896 101.979 41.3906 102.438 41.3906C102.542 41.3906 102.661 41.4036 102.797 41.4297C102.932 41.4505 103.026 41.474 103.078 41.5ZM105.852 43.2266V50H104.398V41.5469H105.773L105.852 43.2266ZM105.555 45.4531L104.883 45.4297C104.888 44.8516 104.964 44.3177 105.109 43.8281C105.255 43.3333 105.471 42.9036 105.758 42.5391C106.044 42.1745 106.401 41.8932 106.828 41.6953C107.255 41.4922 107.75 41.3906 108.312 41.3906C108.708 41.3906 109.073 41.4479 109.406 41.5625C109.74 41.6719 110.029 41.8464 110.273 42.0859C110.518 42.3255 110.708 42.6328 110.844 43.0078C110.979 43.3828 111.047 43.8359 111.047 44.3672V50H109.602V44.4375C109.602 43.9948 109.526 43.6406 109.375 43.375C109.229 43.1094 109.021 42.9167 108.75 42.7969C108.479 42.6719 108.161 42.6094 107.797 42.6094C107.37 42.6094 107.013 42.6849 106.727 42.8359C106.44 42.987 106.211 43.1953 106.039 43.4609C105.867 43.7266 105.742 44.0312 105.664 44.375C105.591 44.7135 105.555 45.0729 105.555 45.4531ZM111.031 44.6562L110.062 44.9531C110.068 44.4896 110.143 44.0443 110.289 43.6172C110.44 43.1901 110.656 42.8099 110.938 42.4766C111.224 42.1432 111.576 41.8802 111.992 41.6875C112.409 41.4896 112.885 41.3906 113.422 41.3906C113.875 41.3906 114.276 41.4505 114.625 41.5703C114.979 41.6901 115.276 41.875 115.516 42.125C115.76 42.3698 115.945 42.6849 116.07 43.0703C116.195 43.4557 116.258 43.9141 116.258 44.4453V50H114.805V44.4297C114.805 43.9557 114.729 43.5885 114.578 43.3281C114.432 43.0625 114.224 42.8776 113.953 42.7734C113.688 42.6641 113.37 42.6094 113 42.6094C112.682 42.6094 112.401 42.6641 112.156 42.7734C111.911 42.8828 111.706 43.0339 111.539 43.2266C111.372 43.4141 111.245 43.6302 111.156 43.875C111.073 44.1198 111.031 44.3802 111.031 44.6562ZM123.43 48.5547V44.2031C123.43 43.8698 123.362 43.5807 123.227 43.3359C123.096 43.0859 122.898 42.8932 122.633 42.7578C122.367 42.6224 122.039 42.5547 121.648 42.5547C121.284 42.5547 120.964 42.6172 120.688 42.7422C120.417 42.8672 120.203 43.0312 120.047 43.2344C119.896 43.4375 119.82 43.6562 119.82 43.8906H118.375C118.375 43.5885 118.453 43.2891 118.609 42.9922C118.766 42.6953 118.99 42.4271 119.281 42.1875C119.578 41.9427 119.932 41.75 120.344 41.6094C120.76 41.4635 121.224 41.3906 121.734 41.3906C122.349 41.3906 122.891 41.4948 123.359 41.7031C123.833 41.9115 124.203 42.2266 124.469 42.6484C124.74 43.0651 124.875 43.5885 124.875 44.2188V48.1562C124.875 48.4375 124.898 48.737 124.945 49.0547C124.997 49.3724 125.073 49.6458 125.172 49.875V50H123.664C123.591 49.8333 123.534 49.612 123.492 49.3359C123.451 49.0547 123.43 48.7943 123.43 48.5547ZM123.68 44.875L123.695 45.8906H122.234C121.823 45.8906 121.456 45.9245 121.133 45.9922C120.81 46.0547 120.539 46.151 120.32 46.2812C120.102 46.4115 119.935 46.5755 119.82 46.7734C119.706 46.9661 119.648 47.1927 119.648 47.4531C119.648 47.7188 119.708 47.9609 119.828 48.1797C119.948 48.3984 120.128 48.5729 120.367 48.7031C120.612 48.8281 120.911 48.8906 121.266 48.8906C121.708 48.8906 122.099 48.7969 122.438 48.6094C122.776 48.4219 123.044 48.1927 123.242 47.9219C123.445 47.651 123.555 47.388 123.57 47.1328L124.188 47.8281C124.151 48.0469 124.052 48.2891 123.891 48.5547C123.729 48.8203 123.513 49.0755 123.242 49.3203C122.977 49.5599 122.659 49.7604 122.289 49.9219C121.924 50.0781 121.513 50.1562 121.055 50.1562C120.482 50.1562 119.979 50.0443 119.547 49.8203C119.12 49.5964 118.786 49.2969 118.547 48.9219C118.312 48.5417 118.195 48.1172 118.195 47.6484C118.195 47.1953 118.284 46.7969 118.461 46.4531C118.638 46.1042 118.893 45.8151 119.227 45.5859C119.56 45.3516 119.961 45.1745 120.43 45.0547C120.898 44.9349 121.422 44.875 122 44.875H123.68ZM130.688 41.5469V42.6562H126.117V41.5469H130.688ZM127.664 39.4922H129.109V47.9062C129.109 48.1927 129.154 48.4089 129.242 48.5547C129.331 48.7005 129.445 48.7969 129.586 48.8438C129.727 48.8906 129.878 48.9141 130.039 48.9141C130.159 48.9141 130.284 48.9036 130.414 48.8828C130.549 48.8568 130.651 48.8359 130.719 48.8203L130.727 50C130.612 50.0365 130.461 50.0703 130.273 50.1016C130.091 50.138 129.87 50.1562 129.609 50.1562C129.255 50.1562 128.93 50.0859 128.633 49.9453C128.336 49.8047 128.099 49.5703 127.922 49.2422C127.75 48.9089 127.664 48.4609 127.664 47.8984V39.4922ZM133.953 41.5469V50H132.5V41.5469H133.953ZM132.391 39.3047C132.391 39.0703 132.461 38.8724 132.602 38.7109C132.747 38.5495 132.961 38.4688 133.242 38.4688C133.518 38.4688 133.729 38.5495 133.875 38.7109C134.026 38.8724 134.102 39.0703 134.102 39.3047C134.102 39.5286 134.026 39.7214 133.875 39.8828C133.729 40.0391 133.518 40.1172 133.242 40.1172C132.961 40.1172 132.747 40.0391 132.602 39.8828C132.461 39.7214 132.391 39.5286 132.391 39.3047ZM135.891 45.8672V45.6875C135.891 45.0781 135.979 44.513 136.156 43.9922C136.333 43.4661 136.589 43.0104 136.922 42.625C137.255 42.2344 137.659 41.9323 138.133 41.7188C138.607 41.5 139.138 41.3906 139.727 41.3906C140.32 41.3906 140.854 41.5 141.328 41.7188C141.807 41.9323 142.214 42.2344 142.547 42.625C142.885 43.0104 143.143 43.4661 143.32 43.9922C143.497 44.513 143.586 45.0781 143.586 45.6875V45.8672C143.586 46.4766 143.497 47.0417 143.32 47.5625C143.143 48.0833 142.885 48.5391 142.547 48.9297C142.214 49.3151 141.81 49.6172 141.336 49.8359C140.867 50.0495 140.336 50.1562 139.742 50.1562C139.148 50.1562 138.615 50.0495 138.141 49.8359C137.667 49.6172 137.26 49.3151 136.922 48.9297C136.589 48.5391 136.333 48.0833 136.156 47.5625C135.979 47.0417 135.891 46.4766 135.891 45.8672ZM137.336 45.6875V45.8672C137.336 46.2891 137.385 46.6875 137.484 47.0625C137.583 47.4323 137.732 47.7604 137.93 48.0469C138.133 48.3333 138.385 48.5599 138.688 48.7266C138.99 48.888 139.341 48.9688 139.742 48.9688C140.138 48.9688 140.484 48.888 140.781 48.7266C141.083 48.5599 141.333 48.3333 141.531 48.0469C141.729 47.7604 141.878 47.4323 141.977 47.0625C142.081 46.6875 142.133 46.2891 142.133 45.8672V45.6875C142.133 45.2708 142.081 44.8776 141.977 44.5078C141.878 44.1328 141.727 43.8021 141.523 43.5156C141.326 43.224 141.076 42.9948 140.773 42.8281C140.477 42.6615 140.128 42.5781 139.727 42.5781C139.331 42.5781 138.982 42.6615 138.68 42.8281C138.383 42.9948 138.133 43.224 137.93 43.5156C137.732 43.8021 137.583 44.1328 137.484 44.5078C137.385 44.8776 137.336 45.2708 137.336 45.6875ZM146.844 43.3516V50H145.398V41.5469H146.766L146.844 43.3516ZM146.5 45.4531L145.898 45.4297C145.904 44.8516 145.99 44.3177 146.156 43.8281C146.323 43.3333 146.557 42.9036 146.859 42.5391C147.161 42.1745 147.521 41.8932 147.938 41.6953C148.359 41.4922 148.826 41.3906 149.336 41.3906C149.753 41.3906 150.128 41.4479 150.461 41.5625C150.794 41.6719 151.078 41.849 151.312 42.0938C151.552 42.3385 151.734 42.6562 151.859 43.0469C151.984 43.4323 152.047 43.9036 152.047 44.4609V50H150.594V44.4453C150.594 44.0026 150.529 43.6484 150.398 43.3828C150.268 43.112 150.078 42.9167 149.828 42.7969C149.578 42.6719 149.271 42.6094 148.906 42.6094C148.547 42.6094 148.219 42.6849 147.922 42.8359C147.63 42.987 147.378 43.1953 147.164 43.4609C146.956 43.7266 146.792 44.0312 146.672 44.375C146.557 44.7135 146.5 45.0729 146.5 45.4531ZM162.641 39.6328L158.875 50H157.336L161.672 38.625H162.664L162.641 39.6328ZM165.797 50L162.023 39.6328L162 38.625H162.992L167.344 50H165.797ZM165.602 45.7891V47.0234H159.211V45.7891H165.602ZM170.094 42.875V50H168.648V41.5469H170.055L170.094 42.875ZM172.734 41.5L172.727 42.8438C172.607 42.8177 172.492 42.8021 172.383 42.7969C172.279 42.7865 172.159 42.7812 172.023 42.7812C171.69 42.7812 171.396 42.8333 171.141 42.9375C170.885 43.0417 170.669 43.1875 170.492 43.375C170.315 43.5625 170.174 43.7865 170.07 44.0469C169.971 44.3021 169.906 44.5833 169.875 44.8906L169.469 45.125C169.469 44.6146 169.518 44.1354 169.617 43.6875C169.721 43.2396 169.88 42.8438 170.094 42.5C170.307 42.151 170.578 41.8802 170.906 41.6875C171.24 41.4896 171.635 41.3906 172.094 41.3906C172.198 41.3906 172.318 41.4036 172.453 41.4297C172.589 41.4505 172.682 41.474 172.734 41.5ZM177.297 48.9688C177.641 48.9688 177.958 48.8984 178.25 48.7578C178.542 48.6172 178.781 48.4245 178.969 48.1797C179.156 47.9297 179.263 47.6458 179.289 47.3281H180.664C180.638 47.8281 180.469 48.2943 180.156 48.7266C179.849 49.1536 179.445 49.5 178.945 49.7656C178.445 50.026 177.896 50.1562 177.297 50.1562C176.661 50.1562 176.107 50.0443 175.633 49.8203C175.164 49.5964 174.773 49.2891 174.461 48.8984C174.154 48.5078 173.922 48.0599 173.766 47.5547C173.615 47.0443 173.539 46.5052 173.539 45.9375V45.6094C173.539 45.0417 173.615 44.5052 173.766 44C173.922 43.4896 174.154 43.0391 174.461 42.6484C174.773 42.2578 175.164 41.9505 175.633 41.7266C176.107 41.5026 176.661 41.3906 177.297 41.3906C177.958 41.3906 178.536 41.526 179.031 41.7969C179.526 42.0625 179.914 42.4271 180.195 42.8906C180.482 43.349 180.638 43.8698 180.664 44.4531H179.289C179.263 44.1042 179.164 43.7891 178.992 43.5078C178.826 43.2266 178.596 43.0026 178.305 42.8359C178.018 42.6641 177.682 42.5781 177.297 42.5781C176.854 42.5781 176.482 42.6667 176.18 42.8438C175.883 43.0156 175.646 43.25 175.469 43.5469C175.297 43.8385 175.172 44.1641 175.094 44.5234C175.021 44.8776 174.984 45.2396 174.984 45.6094V45.9375C174.984 46.3073 175.021 46.6719 175.094 47.0312C175.167 47.3906 175.289 47.7161 175.461 48.0078C175.638 48.2995 175.875 48.5339 176.172 48.7109C176.474 48.8828 176.849 48.9688 177.297 48.9688ZM183.734 38V50H182.289V38H183.734ZM183.391 45.4531L182.789 45.4297C182.794 44.8516 182.88 44.3177 183.047 43.8281C183.214 43.3333 183.448 42.9036 183.75 42.5391C184.052 42.1745 184.411 41.8932 184.828 41.6953C185.25 41.4922 185.716 41.3906 186.227 41.3906C186.643 41.3906 187.018 41.4479 187.352 41.5625C187.685 41.6719 187.969 41.849 188.203 42.0938C188.443 42.3385 188.625 42.6562 188.75 43.0469C188.875 43.4323 188.938 43.9036 188.938 44.4609V50H187.484V44.4453C187.484 44.0026 187.419 43.6484 187.289 43.3828C187.159 43.112 186.969 42.9167 186.719 42.7969C186.469 42.6719 186.161 42.6094 185.797 42.6094C185.438 42.6094 185.109 42.6849 184.812 42.8359C184.521 42.987 184.268 43.1953 184.055 43.4609C183.846 43.7266 183.682 44.0312 183.562 44.375C183.448 44.7135 183.391 45.0729 183.391 45.4531ZM192.672 41.5469V50H191.219V41.5469H192.672ZM191.109 39.3047C191.109 39.0703 191.18 38.8724 191.32 38.7109C191.466 38.5495 191.68 38.4688 191.961 38.4688C192.237 38.4688 192.448 38.5495 192.594 38.7109C192.745 38.8724 192.82 39.0703 192.82 39.3047C192.82 39.5286 192.745 39.7214 192.594 39.8828C192.448 40.0391 192.237 40.1172 191.961 40.1172C191.68 40.1172 191.466 40.0391 191.32 39.8828C191.18 39.7214 191.109 39.5286 191.109 39.3047ZM198.531 41.5469V42.6562H193.961V41.5469H198.531ZM195.508 39.4922H196.953V47.9062C196.953 48.1927 196.997 48.4089 197.086 48.5547C197.174 48.7005 197.289 48.7969 197.43 48.8438C197.57 48.8906 197.721 48.9141 197.883 48.9141C198.003 48.9141 198.128 48.9036 198.258 48.8828C198.393 48.8568 198.495 48.8359 198.562 48.8203L198.57 50C198.456 50.0365 198.305 50.0703 198.117 50.1016C197.935 50.138 197.714 50.1562 197.453 50.1562C197.099 50.1562 196.773 50.0859 196.477 49.9453C196.18 49.8047 195.943 49.5703 195.766 49.2422C195.594 48.9089 195.508 48.4609 195.508 47.8984V39.4922ZM203.734 50.1562C203.146 50.1562 202.612 50.0573 202.133 49.8594C201.659 49.6562 201.25 49.3724 200.906 49.0078C200.568 48.6432 200.307 48.2109 200.125 47.7109C199.943 47.2109 199.852 46.6641 199.852 46.0703V45.7422C199.852 45.0547 199.953 44.4427 200.156 43.9062C200.359 43.3646 200.635 42.9062 200.984 42.5312C201.333 42.1562 201.729 41.8724 202.172 41.6797C202.615 41.487 203.073 41.3906 203.547 41.3906C204.151 41.3906 204.672 41.4948 205.109 41.7031C205.552 41.9115 205.914 42.2031 206.195 42.5781C206.477 42.9479 206.685 43.3854 206.82 43.8906C206.956 44.3906 207.023 44.9375 207.023 45.5312V46.1797H200.711V45H205.578V44.8906C205.557 44.5156 205.479 44.151 205.344 43.7969C205.214 43.4427 205.005 43.151 204.719 42.9219C204.432 42.6927 204.042 42.5781 203.547 42.5781C203.219 42.5781 202.917 42.6484 202.641 42.7891C202.365 42.9245 202.128 43.1276 201.93 43.3984C201.732 43.6693 201.578 44 201.469 44.3906C201.359 44.7812 201.305 45.2318 201.305 45.7422V46.0703C201.305 46.4714 201.359 46.849 201.469 47.2031C201.583 47.5521 201.747 47.8594 201.961 48.125C202.18 48.3906 202.443 48.599 202.75 48.75C203.062 48.901 203.417 48.9766 203.812 48.9766C204.323 48.9766 204.755 48.8724 205.109 48.6641C205.464 48.4557 205.773 48.1771 206.039 47.8281L206.914 48.5234C206.732 48.7995 206.5 49.0625 206.219 49.3125C205.938 49.5625 205.591 49.7656 205.18 49.9219C204.773 50.0781 204.292 50.1562 203.734 50.1562ZM212.094 48.9688C212.438 48.9688 212.755 48.8984 213.047 48.7578C213.339 48.6172 213.578 48.4245 213.766 48.1797C213.953 47.9297 214.06 47.6458 214.086 47.3281H215.461C215.435 47.8281 215.266 48.2943 214.953 48.7266C214.646 49.1536 214.242 49.5 213.742 49.7656C213.242 50.026 212.693 50.1562 212.094 50.1562C211.458 50.1562 210.904 50.0443 210.43 49.8203C209.961 49.5964 209.57 49.2891 209.258 48.8984C208.951 48.5078 208.719 48.0599 208.562 47.5547C208.411 47.0443 208.336 46.5052 208.336 45.9375V45.6094C208.336 45.0417 208.411 44.5052 208.562 44C208.719 43.4896 208.951 43.0391 209.258 42.6484C209.57 42.2578 209.961 41.9505 210.43 41.7266C210.904 41.5026 211.458 41.3906 212.094 41.3906C212.755 41.3906 213.333 41.526 213.828 41.7969C214.323 42.0625 214.711 42.4271 214.992 42.8906C215.279 43.349 215.435 43.8698 215.461 44.4531H214.086C214.06 44.1042 213.961 43.7891 213.789 43.5078C213.622 43.2266 213.393 43.0026 213.102 42.8359C212.815 42.6641 212.479 42.5781 212.094 42.5781C211.651 42.5781 211.279 42.6667 210.977 42.8438C210.68 43.0156 210.443 43.25 210.266 43.5469C210.094 43.8385 209.969 44.1641 209.891 44.5234C209.818 44.8776 209.781 45.2396 209.781 45.6094V45.9375C209.781 46.3073 209.818 46.6719 209.891 47.0312C209.964 47.3906 210.086 47.7161 210.258 48.0078C210.435 48.2995 210.672 48.5339 210.969 48.7109C211.271 48.8828 211.646 48.9688 212.094 48.9688ZM220.625 41.5469V42.6562H216.055V41.5469H220.625ZM217.602 39.4922H219.047V47.9062C219.047 48.1927 219.091 48.4089 219.18 48.5547C219.268 48.7005 219.383 48.7969 219.523 48.8438C219.664 48.8906 219.815 48.9141 219.977 48.9141C220.096 48.9141 220.221 48.9036 220.352 48.8828C220.487 48.8568 220.589 48.8359 220.656 48.8203L220.664 50C220.549 50.0365 220.398 50.0703 220.211 50.1016C220.029 50.138 219.807 50.1562 219.547 50.1562C219.193 50.1562 218.867 50.0859 218.57 49.9453C218.273 49.8047 218.036 49.5703 217.859 49.2422C217.688 48.9089 217.602 48.4609 217.602 47.8984V39.4922Z" fill="black" fill-opacity="0.6"/>
<path d="M575.671 10.8062L566.705 19.7719L565.232 18.299L574.197 9.33333H566.296V7.25H577.754V18.7083H575.671V10.8062Z" fill="black"/>
<path d="M346.086 44.2812V43.9609C346.086 43.513 346.227 43.1432 346.508 42.8516C346.794 42.5599 347.182 42.4141 347.672 42.4141C348.167 42.4141 348.557 42.5599 348.844 42.8516C349.13 43.1432 349.273 43.513 349.273 43.9609V44.2812C349.273 44.724 349.13 45.0911 348.844 45.3828C348.562 45.6693 348.174 45.8125 347.68 45.8125C347.19 45.8125 346.802 45.6693 346.516 45.3828C346.229 45.0911 346.086 44.724 346.086 44.2812ZM359.906 39.6328L356.141 50H354.602L358.938 38.625H359.93L359.906 39.6328ZM363.062 50L359.289 39.6328L359.266 38.625H360.258L364.609 50H363.062ZM362.867 45.7891V47.0234H356.477V45.7891H362.867ZM367.359 43.1719V53.25H365.906V41.5469H367.234L367.359 43.1719ZM373.055 45.7031V45.8672C373.055 46.4818 372.982 47.0521 372.836 47.5781C372.69 48.099 372.477 48.5521 372.195 48.9375C371.919 49.3229 371.578 49.6224 371.172 49.8359C370.766 50.0495 370.299 50.1562 369.773 50.1562C369.237 50.1562 368.763 50.0677 368.352 49.8906C367.94 49.7135 367.591 49.4557 367.305 49.1172C367.018 48.7786 366.789 48.3724 366.617 47.8984C366.451 47.4245 366.336 46.8906 366.273 46.2969V45.4219C366.336 44.7969 366.453 44.237 366.625 43.7422C366.797 43.2474 367.023 42.8255 367.305 42.4766C367.591 42.1224 367.938 41.8542 368.344 41.6719C368.75 41.4844 369.219 41.3906 369.75 41.3906C370.281 41.3906 370.753 41.4948 371.164 41.7031C371.576 41.9062 371.922 42.1979 372.203 42.5781C372.484 42.9583 372.695 43.4141 372.836 43.9453C372.982 44.4714 373.055 45.0573 373.055 45.7031ZM371.602 45.8672V45.7031C371.602 45.2812 371.557 44.8854 371.469 44.5156C371.38 44.1406 371.242 43.8125 371.055 43.5312C370.872 43.2448 370.638 43.0208 370.352 42.8594C370.065 42.6927 369.724 42.6094 369.328 42.6094C368.964 42.6094 368.646 42.6719 368.375 42.7969C368.109 42.9219 367.883 43.0911 367.695 43.3047C367.508 43.513 367.354 43.7526 367.234 44.0234C367.12 44.2891 367.034 44.5651 366.977 44.8516V46.875C367.081 47.2396 367.227 47.5833 367.414 47.9062C367.602 48.224 367.852 48.4818 368.164 48.6797C368.477 48.8724 368.87 48.9688 369.344 48.9688C369.734 48.9688 370.07 48.888 370.352 48.7266C370.638 48.5599 370.872 48.3333 371.055 48.0469C371.242 47.7604 371.38 47.4323 371.469 47.0625C371.557 46.6875 371.602 46.2891 371.602 45.8672ZM376.344 42.875V50H374.898V41.5469H376.305L376.344 42.875ZM378.984 41.5L378.977 42.8438C378.857 42.8177 378.742 42.8021 378.633 42.7969C378.529 42.7865 378.409 42.7812 378.273 42.7812C377.94 42.7812 377.646 42.8333 377.391 42.9375C377.135 43.0417 376.919 43.1875 376.742 43.375C376.565 43.5625 376.424 43.7865 376.32 44.0469C376.221 44.3021 376.156 44.5833 376.125 44.8906L375.719 45.125C375.719 44.6146 375.768 44.1354 375.867 43.6875C375.971 43.2396 376.13 42.8438 376.344 42.5C376.557 42.151 376.828 41.8802 377.156 41.6875C377.49 41.4896 377.885 41.3906 378.344 41.3906C378.448 41.3906 378.568 41.4036 378.703 41.4297C378.839 41.4505 378.932 41.474 378.984 41.5ZM381.891 41.5469V50H380.438V41.5469H381.891ZM380.328 39.3047C380.328 39.0703 380.398 38.8724 380.539 38.7109C380.685 38.5495 380.898 38.4688 381.18 38.4688C381.456 38.4688 381.667 38.5495 381.812 38.7109C381.964 38.8724 382.039 39.0703 382.039 39.3047C382.039 39.5286 381.964 39.7214 381.812 39.8828C381.667 40.0391 381.456 40.1172 381.18 40.1172C380.898 40.1172 380.685 40.0391 380.539 39.8828C380.398 39.7214 380.328 39.5286 380.328 39.3047ZM385.781 38V50H384.328V38H385.781ZM399.367 48.8125V50H391.922V48.9609L395.648 44.8125C396.107 44.3021 396.461 43.8698 396.711 43.5156C396.966 43.1562 397.143 42.8359 397.242 42.5547C397.346 42.2682 397.398 41.9766 397.398 41.6797C397.398 41.3047 397.32 40.9661 397.164 40.6641C397.013 40.3568 396.789 40.112 396.492 39.9297C396.195 39.7474 395.836 39.6562 395.414 39.6562C394.909 39.6562 394.487 39.7552 394.148 39.9531C393.815 40.1458 393.565 40.4167 393.398 40.7656C393.232 41.1146 393.148 41.5156 393.148 41.9688H391.703C391.703 41.3281 391.844 40.7422 392.125 40.2109C392.406 39.6797 392.823 39.2578 393.375 38.9453C393.927 38.6276 394.607 38.4688 395.414 38.4688C396.133 38.4688 396.747 38.5964 397.258 38.8516C397.768 39.1016 398.159 39.4557 398.43 39.9141C398.706 40.3672 398.844 40.8984 398.844 41.5078C398.844 41.8411 398.786 42.1797 398.672 42.5234C398.562 42.862 398.409 43.2005 398.211 43.5391C398.018 43.8776 397.792 44.2109 397.531 44.5391C397.276 44.8672 397.003 45.1901 396.711 45.5078L393.664 48.8125H399.367ZM408.055 43.4062V45.1406C408.055 46.0729 407.971 46.8594 407.805 47.5C407.638 48.1406 407.398 48.6562 407.086 49.0469C406.773 49.4375 406.396 49.7214 405.953 49.8984C405.516 50.0703 405.021 50.1562 404.469 50.1562C404.031 50.1562 403.628 50.1016 403.258 49.9922C402.888 49.8828 402.555 49.7083 402.258 49.4688C401.966 49.224 401.716 48.9062 401.508 48.5156C401.299 48.125 401.141 47.651 401.031 47.0938C400.922 46.5365 400.867 45.8854 400.867 45.1406V43.4062C400.867 42.474 400.951 41.6927 401.117 41.0625C401.289 40.4323 401.531 39.9271 401.844 39.5469C402.156 39.1615 402.531 38.8854 402.969 38.7188C403.411 38.5521 403.906 38.4688 404.453 38.4688C404.896 38.4688 405.302 38.5234 405.672 38.6328C406.047 38.737 406.38 38.9062 406.672 39.1406C406.964 39.3698 407.211 39.6771 407.414 40.0625C407.622 40.4427 407.781 40.9089 407.891 41.4609C408 42.013 408.055 42.6615 408.055 43.4062ZM406.602 45.375V43.1641C406.602 42.6536 406.57 42.2057 406.508 41.8203C406.451 41.4297 406.365 41.0964 406.25 40.8203C406.135 40.5443 405.99 40.3203 405.812 40.1484C405.641 39.9766 405.44 39.8516 405.211 39.7734C404.987 39.6901 404.734 39.6484 404.453 39.6484C404.109 39.6484 403.805 39.7135 403.539 39.8438C403.273 39.9688 403.049 40.1693 402.867 40.4453C402.69 40.7214 402.555 41.0833 402.461 41.5312C402.367 41.9792 402.32 42.5234 402.32 43.1641V45.375C402.32 45.8854 402.349 46.3359 402.406 46.7266C402.469 47.1172 402.56 47.4557 402.68 47.7422C402.799 48.0234 402.945 48.2552 403.117 48.4375C403.289 48.6198 403.487 48.7552 403.711 48.8438C403.94 48.9271 404.193 48.9688 404.469 48.9688C404.823 48.9688 405.133 48.901 405.398 48.7656C405.664 48.6302 405.885 48.4193 406.062 48.1328C406.245 47.8411 406.38 47.4688 406.469 47.0156C406.557 46.5573 406.602 46.0104 406.602 45.375ZM414.664 38.5625V50H413.219V40.3672L410.305 41.4297V40.125L414.438 38.5625H414.664ZM424.461 38.6094H424.586V39.8359H424.461C423.695 39.8359 423.055 39.9609 422.539 40.2109C422.023 40.4557 421.615 40.7865 421.312 41.2031C421.01 41.6146 420.792 42.0781 420.656 42.5938C420.526 43.1094 420.461 43.6328 420.461 44.1641V45.8359C420.461 46.3411 420.521 46.7891 420.641 47.1797C420.76 47.5651 420.924 47.8906 421.133 48.1562C421.341 48.4219 421.576 48.6224 421.836 48.7578C422.102 48.8932 422.378 48.9609 422.664 48.9609C422.997 48.9609 423.294 48.8984 423.555 48.7734C423.815 48.6432 424.034 48.4635 424.211 48.2344C424.393 48 424.531 47.724 424.625 47.4062C424.719 47.0885 424.766 46.7396 424.766 46.3594C424.766 46.0208 424.724 45.6953 424.641 45.3828C424.557 45.0651 424.43 44.7839 424.258 44.5391C424.086 44.2891 423.87 44.0938 423.609 43.9531C423.354 43.8073 423.049 43.7344 422.695 43.7344C422.294 43.7344 421.919 43.8333 421.57 44.0312C421.227 44.224 420.943 44.4792 420.719 44.7969C420.5 45.1094 420.375 45.4505 420.344 45.8203L419.578 45.8125C419.651 45.2292 419.786 44.7318 419.984 44.3203C420.188 43.9036 420.438 43.5651 420.734 43.3047C421.036 43.0391 421.372 42.8464 421.742 42.7266C422.117 42.6016 422.513 42.5391 422.93 42.5391C423.497 42.5391 423.987 42.6458 424.398 42.8594C424.81 43.0729 425.148 43.3594 425.414 43.7188C425.68 44.0729 425.875 44.474 426 44.9219C426.13 45.3646 426.195 45.8203 426.195 46.2891C426.195 46.8255 426.12 47.3281 425.969 47.7969C425.818 48.2656 425.591 48.6771 425.289 49.0312C424.992 49.3854 424.625 49.6615 424.188 49.8594C423.75 50.0573 423.242 50.1562 422.664 50.1562C422.049 50.1562 421.513 50.0312 421.055 49.7812C420.596 49.526 420.216 49.1875 419.914 48.7656C419.612 48.3438 419.385 47.875 419.234 47.3594C419.083 46.8438 419.008 46.3203 419.008 45.7891V45.1094C419.008 44.3073 419.089 43.5208 419.25 42.75C419.411 41.9792 419.69 41.2812 420.086 40.6562C420.487 40.0312 421.042 39.5339 421.75 39.1641C422.458 38.7943 423.362 38.6094 424.461 38.6094ZM435.047 44.5703V45.7578H431.234V44.5703H435.047ZM441.125 38.625H442.586L446.312 47.8984L450.031 38.625H451.5L446.875 50H445.734L441.125 38.625ZM440.648 38.625H441.938L442.148 45.5625V50H440.648V38.625ZM450.68 38.625H451.969V50H450.469V45.5625L450.68 38.625ZM459.383 48.5547V44.2031C459.383 43.8698 459.315 43.5807 459.18 43.3359C459.049 43.0859 458.852 42.8932 458.586 42.7578C458.32 42.6224 457.992 42.5547 457.602 42.5547C457.237 42.5547 456.917 42.6172 456.641 42.7422C456.37 42.8672 456.156 43.0312 456 43.2344C455.849 43.4375 455.773 43.6562 455.773 43.8906H454.328C454.328 43.5885 454.406 43.2891 454.562 42.9922C454.719 42.6953 454.943 42.4271 455.234 42.1875C455.531 41.9427 455.885 41.75 456.297 41.6094C456.714 41.4635 457.177 41.3906 457.688 41.3906C458.302 41.3906 458.844 41.4948 459.312 41.7031C459.786 41.9115 460.156 42.2266 460.422 42.6484C460.693 43.0651 460.828 43.5885 460.828 44.2188V48.1562C460.828 48.4375 460.852 48.737 460.898 49.0547C460.951 49.3724 461.026 49.6458 461.125 49.875V50H459.617C459.544 49.8333 459.487 49.612 459.445 49.3359C459.404 49.0547 459.383 48.7943 459.383 48.5547ZM459.633 44.875L459.648 45.8906H458.188C457.776 45.8906 457.409 45.9245 457.086 45.9922C456.763 46.0547 456.492 46.151 456.273 46.2812C456.055 46.4115 455.888 46.5755 455.773 46.7734C455.659 46.9661 455.602 47.1927 455.602 47.4531C455.602 47.7188 455.661 47.9609 455.781 48.1797C455.901 48.3984 456.081 48.5729 456.32 48.7031C456.565 48.8281 456.865 48.8906 457.219 48.8906C457.661 48.8906 458.052 48.7969 458.391 48.6094C458.729 48.4219 458.997 48.1927 459.195 47.9219C459.398 47.651 459.508 47.388 459.523 47.1328L460.141 47.8281C460.104 48.0469 460.005 48.2891 459.844 48.5547C459.682 48.8203 459.466 49.0755 459.195 49.3203C458.93 49.5599 458.612 49.7604 458.242 49.9219C457.878 50.0781 457.466 50.1562 457.008 50.1562C456.435 50.1562 455.932 50.0443 455.5 49.8203C455.073 49.5964 454.74 49.2969 454.5 48.9219C454.266 48.5417 454.148 48.1172 454.148 47.6484C454.148 47.1953 454.237 46.7969 454.414 46.4531C454.591 46.1042 454.846 45.8151 455.18 45.5859C455.513 45.3516 455.914 45.1745 456.383 45.0547C456.852 44.9349 457.375 44.875 457.953 44.875H459.633ZM465.352 49.125L467.703 41.5469H469.25L465.859 51.3047C465.781 51.513 465.677 51.737 465.547 51.9766C465.422 52.2214 465.26 52.4531 465.062 52.6719C464.865 52.8906 464.625 53.0677 464.344 53.2031C464.068 53.3438 463.737 53.4141 463.352 53.4141C463.237 53.4141 463.091 53.3984 462.914 53.3672C462.737 53.3359 462.612 53.3099 462.539 53.2891L462.531 52.1172C462.573 52.1224 462.638 52.1276 462.727 52.1328C462.82 52.1432 462.885 52.1484 462.922 52.1484C463.25 52.1484 463.529 52.1042 463.758 52.0156C463.987 51.9323 464.18 51.7891 464.336 51.5859C464.497 51.388 464.635 51.1146 464.75 50.7656L465.352 49.125ZM463.625 41.5469L465.82 48.1094L466.195 49.6328L465.156 50.1641L462.047 41.5469H463.625ZM481.82 48.8125V50H474.375V48.9609L478.102 44.8125C478.56 44.3021 478.914 43.8698 479.164 43.5156C479.419 43.1562 479.596 42.8359 479.695 42.5547C479.799 42.2682 479.852 41.9766 479.852 41.6797C479.852 41.3047 479.773 40.9661 479.617 40.6641C479.466 40.3568 479.242 40.112 478.945 39.9297C478.648 39.7474 478.289 39.6562 477.867 39.6562C477.362 39.6562 476.94 39.7552 476.602 39.9531C476.268 40.1458 476.018 40.4167 475.852 40.7656C475.685 41.1146 475.602 41.5156 475.602 41.9688H474.156C474.156 41.3281 474.297 40.7422 474.578 40.2109C474.859 39.6797 475.276 39.2578 475.828 38.9453C476.38 38.6276 477.06 38.4688 477.867 38.4688C478.586 38.4688 479.201 38.5964 479.711 38.8516C480.221 39.1016 480.612 39.4557 480.883 39.9141C481.159 40.3672 481.297 40.8984 481.297 41.5078C481.297 41.8411 481.24 42.1797 481.125 42.5234C481.016 42.862 480.862 43.2005 480.664 43.5391C480.471 43.8776 480.245 44.2109 479.984 44.5391C479.729 44.8672 479.456 45.1901 479.164 45.5078L476.117 48.8125H481.82ZM490.508 43.4062V45.1406C490.508 46.0729 490.424 46.8594 490.258 47.5C490.091 48.1406 489.852 48.6562 489.539 49.0469C489.227 49.4375 488.849 49.7214 488.406 49.8984C487.969 50.0703 487.474 50.1562 486.922 50.1562C486.484 50.1562 486.081 50.1016 485.711 49.9922C485.341 49.8828 485.008 49.7083 484.711 49.4688C484.419 49.224 484.169 48.9062 483.961 48.5156C483.753 48.125 483.594 47.651 483.484 47.0938C483.375 46.5365 483.32 45.8854 483.32 45.1406V43.4062C483.32 42.474 483.404 41.6927 483.57 41.0625C483.742 40.4323 483.984 39.9271 484.297 39.5469C484.609 39.1615 484.984 38.8854 485.422 38.7188C485.865 38.5521 486.359 38.4688 486.906 38.4688C487.349 38.4688 487.755 38.5234 488.125 38.6328C488.5 38.737 488.833 38.9062 489.125 39.1406C489.417 39.3698 489.664 39.6771 489.867 40.0625C490.076 40.4427 490.234 40.9089 490.344 41.4609C490.453 42.013 490.508 42.6615 490.508 43.4062ZM489.055 45.375V43.1641C489.055 42.6536 489.023 42.2057 488.961 41.8203C488.904 41.4297 488.818 41.0964 488.703 40.8203C488.589 40.5443 488.443 40.3203 488.266 40.1484C488.094 39.9766 487.893 39.8516 487.664 39.7734C487.44 39.6901 487.188 39.6484 486.906 39.6484C486.562 39.6484 486.258 39.7135 485.992 39.8438C485.727 39.9688 485.503 40.1693 485.32 40.4453C485.143 40.7214 485.008 41.0833 484.914 41.5312C484.82 41.9792 484.773 42.5234 484.773 43.1641V45.375C484.773 45.8854 484.802 46.3359 484.859 46.7266C484.922 47.1172 485.013 47.4557 485.133 47.7422C485.253 48.0234 485.398 48.2552 485.57 48.4375C485.742 48.6198 485.94 48.7552 486.164 48.8438C486.393 48.9271 486.646 48.9688 486.922 48.9688C487.276 48.9688 487.586 48.901 487.852 48.7656C488.117 48.6302 488.339 48.4193 488.516 48.1328C488.698 47.8411 488.833 47.4688 488.922 47.0156C489.01 46.5573 489.055 46.0104 489.055 45.375ZM497.117 38.5625V50H495.672V40.3672L492.758 41.4297V40.125L496.891 38.5625H497.117ZM508.719 38.625V39.4375L504.008 50H502.484L507.188 39.8125H501.031V38.625H508.719Z" fill="black" fill-opacity="0.6"/>
<g clip-path="url(#clip1_1_784)">
<path d="M0 94H583V95H0V94Z" fill="#E5E5E5"/>
</g>
<defs>
<clipPath id="clip0_1_784">
<rect width="50" height="50" fill="white" transform="translate(0 3)"/>
</clipPath>
<clipPath id="clip1_1_784">
<rect width="583" height="1" fill="white" transform="translate(0 94)"/>
</clipPath>
</defs>
</svg>
