<svg width="584" height="95" viewBox="0 0 584 95" fill="none" xmlns="http://www.w3.org/2000/svg">
<path d="M575.671 10.8062L566.705 19.7719L565.232 18.299L574.197 9.33333H566.296V7.25H577.754V18.7083H575.671V10.8062Z" fill="black"/>
<path d="M428.086 44.2812V43.9609C428.086 43.513 428.227 43.1432 428.508 42.8516C428.794 42.5599 429.182 42.4141 429.672 42.4141C430.167 42.4141 430.557 42.5599 430.844 42.8516C431.13 43.1432 431.273 43.513 431.273 43.9609V44.2812C431.273 44.724 431.13 45.0911 430.844 45.3828C430.562 45.6693 430.174 45.8125 429.68 45.8125C429.19 45.8125 428.802 45.6693 428.516 45.3828C428.229 45.0911 428.086 44.724 428.086 44.2812ZM444.773 48.8125V50H437.328V48.9609L441.055 44.8125C441.513 44.3021 441.867 43.8698 442.117 43.5156C442.372 43.1562 442.549 42.8359 442.648 42.5547C442.753 42.2682 442.805 41.9766 442.805 41.6797C442.805 41.3047 442.727 40.9661 442.57 40.6641C442.419 40.3568 442.195 40.112 441.898 39.9297C441.602 39.7474 441.242 39.6562 440.82 39.6562C440.315 39.6562 439.893 39.7552 439.555 39.9531C439.221 40.1458 438.971 40.4167 438.805 40.7656C438.638 41.1146 438.555 41.5156 438.555 41.9688H437.109C437.109 41.3281 437.25 40.7422 437.531 40.2109C437.812 39.6797 438.229 39.2578 438.781 38.9453C439.333 38.6276 440.013 38.4688 440.82 38.4688C441.539 38.4688 442.154 38.5964 442.664 38.8516C443.174 39.1016 443.565 39.4557 443.836 39.9141C444.112 40.3672 444.25 40.8984 444.25 41.5078C444.25 41.8411 444.193 42.1797 444.078 42.5234C443.969 42.862 443.815 43.2005 443.617 43.5391C443.424 43.8776 443.198 44.2109 442.938 44.5391C442.682 44.8672 442.409 45.1901 442.117 45.5078L439.07 48.8125H444.773ZM453.461 43.4062V45.1406C453.461 46.0729 453.378 46.8594 453.211 47.5C453.044 48.1406 452.805 48.6562 452.492 49.0469C452.18 49.4375 451.802 49.7214 451.359 49.8984C450.922 50.0703 450.427 50.1562 449.875 50.1562C449.438 50.1562 449.034 50.1016 448.664 49.9922C448.294 49.8828 447.961 49.7083 447.664 49.4688C447.372 49.224 447.122 48.9062 446.914 48.5156C446.706 48.125 446.547 47.651 446.438 47.0938C446.328 46.5365 446.273 45.8854 446.273 45.1406V43.4062C446.273 42.474 446.357 41.6927 446.523 41.0625C446.695 40.4323 446.938 39.9271 447.25 39.5469C447.562 39.1615 447.938 38.8854 448.375 38.7188C448.818 38.5521 449.312 38.4688 449.859 38.4688C450.302 38.4688 450.708 38.5234 451.078 38.6328C451.453 38.737 451.786 38.9062 452.078 39.1406C452.37 39.3698 452.617 39.6771 452.82 40.0625C453.029 40.4427 453.188 40.9089 453.297 41.4609C453.406 42.013 453.461 42.6615 453.461 43.4062ZM452.008 45.375V43.1641C452.008 42.6536 451.977 42.2057 451.914 41.8203C451.857 41.4297 451.771 41.0964 451.656 40.8203C451.542 40.5443 451.396 40.3203 451.219 40.1484C451.047 39.9766 450.846 39.8516 450.617 39.7734C450.393 39.6901 450.141 39.6484 449.859 39.6484C449.516 39.6484 449.211 39.7135 448.945 39.8438C448.68 39.9688 448.456 40.1693 448.273 40.4453C448.096 40.7214 447.961 41.0833 447.867 41.5312C447.773 41.9792 447.727 42.5234 447.727 43.1641V45.375C447.727 45.8854 447.755 46.3359 447.812 46.7266C447.875 47.1172 447.966 47.4557 448.086 47.7422C448.206 48.0234 448.352 48.2552 448.523 48.4375C448.695 48.6198 448.893 48.7552 449.117 48.8438C449.346 48.9271 449.599 48.9688 449.875 48.9688C450.229 48.9688 450.539 48.901 450.805 48.7656C451.07 48.6302 451.292 48.4193 451.469 48.1328C451.651 47.8411 451.786 47.4688 451.875 47.0156C451.964 46.5573 452.008 46.0104 452.008 45.375ZM460.07 38.5625V50H458.625V40.3672L455.711 41.4297V40.125L459.844 38.5625H460.07ZM466.43 43.6016H467.461C467.966 43.6016 468.383 43.5182 468.711 43.3516C469.044 43.1797 469.292 42.9479 469.453 42.6562C469.62 42.3594 469.703 42.026 469.703 41.6562C469.703 41.2188 469.63 40.8516 469.484 40.5547C469.339 40.2578 469.12 40.0339 468.828 39.8828C468.536 39.7318 468.167 39.6562 467.719 39.6562C467.312 39.6562 466.953 39.737 466.641 39.8984C466.333 40.0547 466.091 40.2786 465.914 40.5703C465.742 40.862 465.656 41.2057 465.656 41.6016H464.211C464.211 41.0234 464.357 40.4974 464.648 40.0234C464.94 39.5495 465.349 39.1719 465.875 38.8906C466.406 38.6094 467.021 38.4688 467.719 38.4688C468.406 38.4688 469.008 38.5911 469.523 38.8359C470.039 39.0755 470.44 39.4349 470.727 39.9141C471.013 40.388 471.156 40.9792 471.156 41.6875C471.156 41.974 471.089 42.2812 470.953 42.6094C470.823 42.9323 470.617 43.2344 470.336 43.5156C470.06 43.7969 469.701 44.0286 469.258 44.2109C468.815 44.388 468.284 44.4766 467.664 44.4766H466.43V43.6016ZM466.43 44.7891V43.9219H467.664C468.388 43.9219 468.987 44.0078 469.461 44.1797C469.935 44.3516 470.307 44.5807 470.578 44.8672C470.854 45.1536 471.047 45.4688 471.156 45.8125C471.271 46.151 471.328 46.4896 471.328 46.8281C471.328 47.3594 471.237 47.8307 471.055 48.2422C470.878 48.6536 470.625 49.0026 470.297 49.2891C469.974 49.5755 469.594 49.7917 469.156 49.9375C468.719 50.0833 468.242 50.1562 467.727 50.1562C467.232 50.1562 466.766 50.0859 466.328 49.9453C465.896 49.8047 465.513 49.6016 465.18 49.3359C464.846 49.0651 464.586 48.7344 464.398 48.3438C464.211 47.9479 464.117 47.4974 464.117 46.9922H465.562C465.562 47.388 465.648 47.7344 465.82 48.0312C465.997 48.3281 466.247 48.5599 466.57 48.7266C466.898 48.888 467.284 48.9688 467.727 48.9688C468.169 48.9688 468.549 48.8932 468.867 48.7422C469.19 48.5859 469.438 48.3516 469.609 48.0391C469.786 47.7266 469.875 47.3333 469.875 46.8594C469.875 46.3854 469.776 45.9974 469.578 45.6953C469.38 45.388 469.099 45.1615 468.734 45.0156C468.375 44.8646 467.951 44.7891 467.461 44.7891H466.43ZM476.484 44.5703V45.7578H472.672V44.5703H476.484ZM485.195 48.8125V50H477.75V48.9609L481.477 44.8125C481.935 44.3021 482.289 43.8698 482.539 43.5156C482.794 43.1562 482.971 42.8359 483.07 42.5547C483.174 42.2682 483.227 41.9766 483.227 41.6797C483.227 41.3047 483.148 40.9661 482.992 40.6641C482.841 40.3568 482.617 40.112 482.32 39.9297C482.023 39.7474 481.664 39.6562 481.242 39.6562C480.737 39.6562 480.315 39.7552 479.977 39.9531C479.643 40.1458 479.393 40.4167 479.227 40.7656C479.06 41.1146 478.977 41.5156 478.977 41.9688H477.531C477.531 41.3281 477.672 40.7422 477.953 40.2109C478.234 39.6797 478.651 39.2578 479.203 38.9453C479.755 38.6276 480.435 38.4688 481.242 38.4688C481.961 38.4688 482.576 38.5964 483.086 38.8516C483.596 39.1016 483.987 39.4557 484.258 39.9141C484.534 40.3672 484.672 40.8984 484.672 41.5078C484.672 41.8411 484.615 42.1797 484.5 42.5234C484.391 42.862 484.237 43.2005 484.039 43.5391C483.846 43.8776 483.62 44.2109 483.359 44.5391C483.104 44.8672 482.831 45.1901 482.539 45.5078L479.492 48.8125H485.195ZM493.883 43.4062V45.1406C493.883 46.0729 493.799 46.8594 493.633 47.5C493.466 48.1406 493.227 48.6562 492.914 49.0469C492.602 49.4375 492.224 49.7214 491.781 49.8984C491.344 50.0703 490.849 50.1562 490.297 50.1562C489.859 50.1562 489.456 50.1016 489.086 49.9922C488.716 49.8828 488.383 49.7083 488.086 49.4688C487.794 49.224 487.544 48.9062 487.336 48.5156C487.128 48.125 486.969 47.651 486.859 47.0938C486.75 46.5365 486.695 45.8854 486.695 45.1406V43.4062C486.695 42.474 486.779 41.6927 486.945 41.0625C487.117 40.4323 487.359 39.9271 487.672 39.5469C487.984 39.1615 488.359 38.8854 488.797 38.7188C489.24 38.5521 489.734 38.4688 490.281 38.4688C490.724 38.4688 491.13 38.5234 491.5 38.6328C491.875 38.737 492.208 38.9062 492.5 39.1406C492.792 39.3698 493.039 39.6771 493.242 40.0625C493.451 40.4427 493.609 40.9089 493.719 41.4609C493.828 42.013 493.883 42.6615 493.883 43.4062ZM492.43 45.375V43.1641C492.43 42.6536 492.398 42.2057 492.336 41.8203C492.279 41.4297 492.193 41.0964 492.078 40.8203C491.964 40.5443 491.818 40.3203 491.641 40.1484C491.469 39.9766 491.268 39.8516 491.039 39.7734C490.815 39.6901 490.562 39.6484 490.281 39.6484C489.938 39.6484 489.633 39.7135 489.367 39.8438C489.102 39.9688 488.878 40.1693 488.695 40.4453C488.518 40.7214 488.383 41.0833 488.289 41.5312C488.195 41.9792 488.148 42.5234 488.148 43.1641V45.375C488.148 45.8854 488.177 46.3359 488.234 46.7266C488.297 47.1172 488.388 47.4557 488.508 47.7422C488.628 48.0234 488.773 48.2552 488.945 48.4375C489.117 48.6198 489.315 48.7552 489.539 48.8438C489.768 48.9271 490.021 48.9688 490.297 48.9688C490.651 48.9688 490.961 48.901 491.227 48.7656C491.492 48.6302 491.714 48.4193 491.891 48.1328C492.073 47.8411 492.208 47.4688 492.297 47.0156C492.385 46.5573 492.43 46.0104 492.43 45.375ZM500.492 38.5625V50H499.047V40.3672L496.133 41.4297V40.125L500.266 38.5625H500.492ZM506.57 44.5859L505.414 44.2891L505.984 38.625H511.82V39.9609H507.211L506.867 43.0547C507.076 42.9349 507.339 42.8229 507.656 42.7188C507.979 42.6146 508.349 42.5625 508.766 42.5625C509.292 42.5625 509.763 42.6536 510.18 42.8359C510.596 43.013 510.951 43.2682 511.242 43.6016C511.539 43.9349 511.766 44.3359 511.922 44.8047C512.078 45.2734 512.156 45.7969 512.156 46.375C512.156 46.9219 512.081 47.4245 511.93 47.8828C511.784 48.3411 511.562 48.7422 511.266 49.0859C510.969 49.4245 510.594 49.6875 510.141 49.875C509.693 50.0625 509.164 50.1562 508.555 50.1562C508.096 50.1562 507.661 50.0938 507.25 49.9688C506.844 49.8385 506.479 49.6432 506.156 49.3828C505.839 49.1172 505.578 48.7891 505.375 48.3984C505.177 48.0026 505.052 47.5391 505 47.0078H506.375C506.438 47.4349 506.562 47.7943 506.75 48.0859C506.938 48.3776 507.182 48.599 507.484 48.75C507.792 48.8958 508.148 48.9688 508.555 48.9688C508.898 48.9688 509.203 48.9089 509.469 48.7891C509.734 48.6693 509.958 48.4974 510.141 48.2734C510.323 48.0495 510.461 47.7786 510.555 47.4609C510.654 47.1432 510.703 46.7865 510.703 46.3906C510.703 46.0312 510.654 45.6979 510.555 45.3906C510.456 45.0833 510.307 44.8151 510.109 44.5859C509.917 44.3568 509.68 44.1797 509.398 44.0547C509.117 43.9245 508.794 43.8594 508.43 43.8594C507.945 43.8594 507.578 43.9245 507.328 44.0547C507.083 44.1849 506.831 44.362 506.57 44.5859Z" fill="black" fill-opacity="0.6"/>
<g clip-path="url(#clip0_1_732)">
<path d="M1 94H584V95H1V94Z" fill="#E5E5E5"/>
</g>
<path d="M11.4062 14.5352C11.4062 14.2305 11.3594 13.957 11.2656 13.7148C11.1797 13.4648 11.0156 13.2383 10.7734 13.0352C10.5312 12.8242 10.1914 12.6172 9.75391 12.4141C9.31641 12.2109 8.75 12 8.05469 11.7812C7.28125 11.5312 6.54688 11.25 5.85156 10.9375C5.16406 10.625 4.55469 10.2617 4.02344 9.84766C3.5 9.42578 3.08594 8.9375 2.78125 8.38281C2.48438 7.82812 2.33594 7.18359 2.33594 6.44922C2.33594 5.73828 2.49219 5.09375 2.80469 4.51562C3.11719 3.92969 3.55469 3.42969 4.11719 3.01562C4.67969 2.59375 5.34375 2.26953 6.10938 2.04297C6.88281 1.81641 7.73047 1.70312 8.65234 1.70312C9.91016 1.70312 11.0078 1.92969 11.9453 2.38281C12.8828 2.83594 13.6094 3.45703 14.125 4.24609C14.6484 5.03516 14.9102 5.9375 14.9102 6.95312H11.418C11.418 6.45312 11.3125 6.01562 11.1016 5.64062C10.8984 5.25781 10.5859 4.95703 10.1641 4.73828C9.75 4.51953 9.22656 4.41016 8.59375 4.41016C7.98438 4.41016 7.47656 4.50391 7.07031 4.69141C6.66406 4.87109 6.35938 5.11719 6.15625 5.42969C5.95312 5.73438 5.85156 6.07812 5.85156 6.46094C5.85156 6.75 5.92188 7.01172 6.0625 7.24609C6.21094 7.48047 6.42969 7.69922 6.71875 7.90234C7.00781 8.10547 7.36328 8.29688 7.78516 8.47656C8.20703 8.65625 8.69531 8.83203 9.25 9.00391C10.1797 9.28516 10.9961 9.60156 11.6992 9.95312C12.4102 10.3047 13.0039 10.6992 13.4805 11.1367C13.957 11.5742 14.3164 12.0703 14.5586 12.625C14.8008 13.1797 14.9219 13.8086 14.9219 14.5117C14.9219 15.2539 14.7773 15.918 14.4883 16.5039C14.1992 17.0898 13.7812 17.5859 13.2344 17.9922C12.6875 18.3984 12.0352 18.707 11.2773 18.918C10.5195 19.1289 9.67188 19.2344 8.73438 19.2344C7.89062 19.2344 7.05859 19.125 6.23828 18.9062C5.41797 18.6797 4.67188 18.3398 4 17.8867C3.33594 17.4336 2.80469 16.8555 2.40625 16.1523C2.00781 15.4492 1.80859 14.6172 1.80859 13.6562H5.33594C5.33594 14.1875 5.41797 14.6367 5.58203 15.0039C5.74609 15.3711 5.97656 15.668 6.27344 15.8945C6.57812 16.1211 6.9375 16.2852 7.35156 16.3867C7.77344 16.4883 8.23438 16.5391 8.73438 16.5391C9.34375 16.5391 9.84375 16.4531 10.2344 16.2812C10.6328 16.1094 10.9258 15.8711 11.1133 15.5664C11.3086 15.2617 11.4062 14.918 11.4062 14.5352ZM23.3125 6.32031V8.71094H15.9297V6.32031H23.3125ZM17.7578 3.19141H21.1328V15.1797C21.1328 15.5469 21.1797 15.8281 21.2734 16.0234C21.375 16.2188 21.5234 16.3555 21.7188 16.4336C21.9141 16.5039 22.1602 16.5391 22.457 16.5391C22.668 16.5391 22.8555 16.5312 23.0195 16.5156C23.1914 16.4922 23.3359 16.4688 23.4531 16.4453L23.4648 18.9297C23.1758 19.0234 22.8633 19.0977 22.5273 19.1523C22.1914 19.207 21.8203 19.2344 21.4141 19.2344C20.6719 19.2344 20.0234 19.1133 19.4688 18.8711C18.9219 18.6211 18.5 18.2227 18.2031 17.6758C17.9062 17.1289 17.7578 16.4102 17.7578 15.5195V3.19141ZM32.0781 16.1406V10.4922C32.0781 10.0859 32.0117 9.73828 31.8789 9.44922C31.7461 9.15234 31.5391 8.92188 31.2578 8.75781C30.9844 8.59375 30.6289 8.51172 30.1914 8.51172C29.8164 8.51172 29.4922 8.57812 29.2188 8.71094C28.9453 8.83594 28.7344 9.01953 28.5859 9.26172C28.4375 9.49609 28.3633 9.77344 28.3633 10.0938H24.9883C24.9883 9.55469 25.1133 9.04297 25.3633 8.55859C25.6133 8.07422 25.9766 7.64844 26.4531 7.28125C26.9297 6.90625 27.4961 6.61328 28.1523 6.40234C28.8164 6.19141 29.5586 6.08594 30.3789 6.08594C31.3633 6.08594 32.2383 6.25 33.0039 6.57812C33.7695 6.90625 34.3711 7.39844 34.8086 8.05469C35.2539 8.71094 35.4766 9.53125 35.4766 10.5156V15.9414C35.4766 16.6367 35.5195 17.207 35.6055 17.6523C35.6914 18.0898 35.8164 18.4727 35.9805 18.8008V19H32.5703C32.4062 18.6562 32.2812 18.2266 32.1953 17.7109C32.1172 17.1875 32.0781 16.6641 32.0781 16.1406ZM32.5234 11.2773L32.5469 13.1875H30.6602C30.2148 13.1875 29.8281 13.2383 29.5 13.3398C29.1719 13.4414 28.9023 13.5859 28.6914 13.7734C28.4805 13.9531 28.3242 14.1641 28.2227 14.4062C28.1289 14.6484 28.082 14.9141 28.082 15.2031C28.082 15.4922 28.1484 15.7539 28.2812 15.9883C28.4141 16.2148 28.6055 16.3945 28.8555 16.5273C29.1055 16.6523 29.3984 16.7148 29.7344 16.7148C30.2422 16.7148 30.6836 16.6133 31.0586 16.4102C31.4336 16.207 31.7227 15.957 31.9258 15.6602C32.1367 15.3633 32.2461 15.082 32.2539 14.8164L33.1445 16.2461C33.0195 16.5664 32.8477 16.8984 32.6289 17.2422C32.418 17.5859 32.1484 17.9102 31.8203 18.2148C31.4922 18.5117 31.0977 18.7578 30.6367 18.9531C30.1758 19.1406 29.6289 19.2344 28.9961 19.2344C28.1914 19.2344 27.4609 19.0742 26.8047 18.7539C26.1562 18.4258 25.6406 17.9766 25.2578 17.4062C24.8828 16.8281 24.6953 16.1719 24.6953 15.4375C24.6953 14.7734 24.8203 14.1836 25.0703 13.668C25.3203 13.1523 25.6875 12.7188 26.1719 12.3672C26.6641 12.0078 27.2773 11.7383 28.0117 11.5586C28.7461 11.3711 29.5977 11.2773 30.5664 11.2773H32.5234ZM41.3828 9.02734V19H38.0078V6.32031H41.1719L41.3828 9.02734ZM40.8906 12.2148H39.9766C39.9766 11.2773 40.0977 10.4336 40.3398 9.68359C40.582 8.92578 40.9219 8.28125 41.3594 7.75C41.7969 7.21094 42.3164 6.80078 42.918 6.51953C43.5273 6.23047 44.207 6.08594 44.957 6.08594C45.5508 6.08594 46.0938 6.17188 46.5859 6.34375C47.0781 6.51562 47.5 6.78906 47.8516 7.16406C48.2109 7.53906 48.4844 8.03516 48.6719 8.65234C48.8672 9.26953 48.9648 10.0234 48.9648 10.9141V19H45.5664V10.9023C45.5664 10.3398 45.4883 9.90234 45.332 9.58984C45.1758 9.27734 44.9453 9.05859 44.6406 8.93359C44.3438 8.80078 43.9766 8.73438 43.5391 8.73438C43.0859 8.73438 42.6914 8.82422 42.3555 9.00391C42.0273 9.18359 41.7539 9.43359 41.5352 9.75391C41.3242 10.0664 41.1641 10.4336 41.0547 10.8555C40.9453 11.2773 40.8906 11.7305 40.8906 12.2148ZM55.832 19H52.4336V5.19531C52.4336 4.23438 52.6211 3.42578 52.9961 2.76953C53.3789 2.10547 53.9141 1.60547 54.6016 1.26953C55.2969 0.925781 56.1211 0.753906 57.0742 0.753906C57.3867 0.753906 57.6875 0.777344 57.9766 0.824219C58.2656 0.863281 58.5469 0.914063 58.8203 0.976562L58.7852 3.51953C58.6367 3.48047 58.4805 3.45312 58.3164 3.4375C58.1523 3.42188 57.9609 3.41406 57.7422 3.41406C57.3359 3.41406 56.9883 3.48438 56.6992 3.625C56.418 3.75781 56.2031 3.95703 56.0547 4.22266C55.9062 4.48828 55.832 4.8125 55.832 5.19531V19ZM58.3633 6.32031V8.71094H50.5469V6.32031H58.3633ZM59.5938 12.7891V12.543C59.5938 11.6133 59.7266 10.7578 59.9922 9.97656C60.2578 9.1875 60.6445 8.50391 61.1523 7.92578C61.6602 7.34766 62.2852 6.89844 63.0273 6.57812C63.7695 6.25 64.6211 6.08594 65.582 6.08594C66.543 6.08594 67.3984 6.25 68.1484 6.57812C68.8984 6.89844 69.5273 7.34766 70.0352 7.92578C70.5508 8.50391 70.9414 9.1875 71.207 9.97656C71.4727 10.7578 71.6055 11.6133 71.6055 12.543V12.7891C71.6055 13.7109 71.4727 14.5664 71.207 15.3555C70.9414 16.1367 70.5508 16.8203 70.0352 17.4062C69.5273 17.9844 68.9023 18.4336 68.1602 18.7539C67.418 19.0742 66.5664 19.2344 65.6055 19.2344C64.6445 19.2344 63.7891 19.0742 63.0391 18.7539C62.2969 18.4336 61.668 17.9844 61.1523 17.4062C60.6445 16.8203 60.2578 16.1367 59.9922 15.3555C59.7266 14.5664 59.5938 13.7109 59.5938 12.7891ZM62.9688 12.543V12.7891C62.9688 13.3203 63.0156 13.8164 63.1094 14.2773C63.2031 14.7383 63.3516 15.1445 63.5547 15.4961C63.7656 15.8398 64.0391 16.1094 64.375 16.3047C64.7109 16.5 65.1211 16.5977 65.6055 16.5977C66.0742 16.5977 66.4766 16.5 66.8125 16.3047C67.1484 16.1094 67.418 15.8398 67.6211 15.4961C67.8242 15.1445 67.9727 14.7383 68.0664 14.2773C68.168 13.8164 68.2188 13.3203 68.2188 12.7891V12.543C68.2188 12.0273 68.168 11.543 68.0664 11.0898C67.9727 10.6289 67.8203 10.2227 67.6094 9.87109C67.4062 9.51172 67.1367 9.23047 66.8008 9.02734C66.4648 8.82422 66.0586 8.72266 65.582 8.72266C65.1055 8.72266 64.6992 8.82422 64.3633 9.02734C64.0352 9.23047 63.7656 9.51172 63.5547 9.87109C63.3516 10.2227 63.2031 10.6289 63.1094 11.0898C63.0156 11.543 62.9688 12.0273 62.9688 12.543ZM77.0547 9.08594V19H73.6797V6.32031H76.8555L77.0547 9.08594ZM80.875 6.23828L80.8164 9.36719C80.6523 9.34375 80.4531 9.32422 80.2188 9.30859C79.9922 9.28516 79.7852 9.27344 79.5977 9.27344C79.1211 9.27344 78.707 9.33594 78.3555 9.46094C78.0117 9.57812 77.7227 9.75391 77.4883 9.98828C77.2617 10.2227 77.0898 10.5078 76.9727 10.8438C76.8633 11.1797 76.8008 11.5625 76.7852 11.9922L76.1055 11.7812C76.1055 10.9609 76.1875 10.207 76.3516 9.51953C76.5156 8.82422 76.7539 8.21875 77.0664 7.70312C77.3867 7.1875 77.7773 6.78906 78.2383 6.50781C78.6992 6.22656 79.2266 6.08594 79.8203 6.08594C80.0078 6.08594 80.1992 6.10156 80.3945 6.13281C80.5898 6.15625 80.75 6.19141 80.875 6.23828ZM89.7227 16.2344V1H93.1211V19H90.0625L89.7227 16.2344ZM81.707 12.8125V12.5664C81.707 11.5977 81.8164 10.7188 82.0352 9.92969C82.2539 9.13281 82.5742 8.44922 82.9961 7.87891C83.418 7.30859 83.9375 6.86719 84.5547 6.55469C85.1719 6.24219 85.875 6.08594 86.6641 6.08594C87.4062 6.08594 88.0547 6.24219 88.6094 6.55469C89.1719 6.86719 89.6484 7.3125 90.0391 7.89062C90.4375 8.46094 90.7578 9.13672 91 9.91797C91.2422 10.6914 91.418 11.5391 91.5273 12.4609V13C91.418 13.8828 91.2422 14.7031 91 15.4609C90.7578 16.2188 90.4375 16.8828 90.0391 17.4531C89.6484 18.0156 89.1719 18.4531 88.6094 18.7656C88.0469 19.0781 87.3906 19.2344 86.6406 19.2344C85.8516 19.2344 85.1484 19.0742 84.5312 18.7539C83.9219 18.4336 83.4062 17.9844 82.9844 17.4062C82.5703 16.8281 82.2539 16.1484 82.0352 15.3672C81.8164 14.5859 81.707 13.7344 81.707 12.8125ZM85.082 12.5664V12.8125C85.082 13.3359 85.1211 13.8242 85.1992 14.2773C85.2852 14.7305 85.4219 15.1328 85.6094 15.4844C85.8047 15.8281 86.0547 16.0977 86.3594 16.293C86.6719 16.4805 87.0508 16.5742 87.4961 16.5742C88.0742 16.5742 88.5508 16.4453 88.9258 16.1875C89.3008 15.9219 89.5859 15.5586 89.7812 15.0977C89.9844 14.6367 90.1016 14.1055 90.1328 13.5039V11.9688C90.1094 11.4766 90.0391 11.0352 89.9219 10.6445C89.8125 10.2461 89.6484 9.90625 89.4297 9.625C89.2188 9.34375 88.9531 9.125 88.6328 8.96875C88.3203 8.8125 87.9492 8.73438 87.5195 8.73438C87.082 8.73438 86.707 8.83594 86.3945 9.03906C86.082 9.23438 85.8281 9.50391 85.6328 9.84766C85.4453 10.1914 85.3047 10.5977 85.2109 11.0664C85.125 11.5273 85.082 12.0273 85.082 12.5664ZM111.367 1.9375H114.871V13.2109C114.871 14.5234 114.59 15.6289 114.027 16.5273C113.473 17.4258 112.703 18.1016 111.719 18.5547C110.742 19.0078 109.617 19.2344 108.344 19.2344C107.07 19.2344 105.938 19.0078 104.945 18.5547C103.961 18.1016 103.188 17.4258 102.625 16.5273C102.07 15.6289 101.793 14.5234 101.793 13.2109V1.9375H105.309V13.2109C105.309 13.9766 105.43 14.6016 105.672 15.0859C105.914 15.5703 106.262 15.9258 106.715 16.1523C107.176 16.3789 107.719 16.4922 108.344 16.4922C108.984 16.4922 109.527 16.3789 109.973 16.1523C110.426 15.9258 110.77 15.5703 111.004 15.0859C111.246 14.6016 111.367 13.9766 111.367 13.2109V1.9375ZM120.859 9.02734V19H117.484V6.32031H120.648L120.859 9.02734ZM120.367 12.2148H119.453C119.453 11.2773 119.574 10.4336 119.816 9.68359C120.059 8.92578 120.398 8.28125 120.836 7.75C121.273 7.21094 121.793 6.80078 122.395 6.51953C123.004 6.23047 123.684 6.08594 124.434 6.08594C125.027 6.08594 125.57 6.17188 126.062 6.34375C126.555 6.51562 126.977 6.78906 127.328 7.16406C127.688 7.53906 127.961 8.03516 128.148 8.65234C128.344 9.26953 128.441 10.0234 128.441 10.9141V19H125.043V10.9023C125.043 10.3398 124.965 9.90234 124.809 9.58984C124.652 9.27734 124.422 9.05859 124.117 8.93359C123.82 8.80078 123.453 8.73438 123.016 8.73438C122.562 8.73438 122.168 8.82422 121.832 9.00391C121.504 9.18359 121.23 9.43359 121.012 9.75391C120.801 10.0664 120.641 10.4336 120.531 10.8555C120.422 11.2773 120.367 11.7305 120.367 12.2148ZM134.57 6.32031V19H131.184V6.32031H134.57ZM130.973 3.01562C130.973 2.52344 131.145 2.11719 131.488 1.79688C131.832 1.47656 132.293 1.31641 132.871 1.31641C133.441 1.31641 133.898 1.47656 134.242 1.79688C134.594 2.11719 134.77 2.52344 134.77 3.01562C134.77 3.50781 134.594 3.91406 134.242 4.23438C133.898 4.55469 133.441 4.71484 132.871 4.71484C132.293 4.71484 131.832 4.55469 131.488 4.23438C131.145 3.91406 130.973 3.50781 130.973 3.01562ZM141.672 16.5391L144.484 6.32031H148.012L143.734 19H141.602L141.672 16.5391ZM139.738 6.32031L142.562 16.5508L142.621 19H140.477L136.199 6.32031H139.738ZM155.195 19.2344C154.211 19.2344 153.328 19.0781 152.547 18.7656C151.766 18.4453 151.102 18.0039 150.555 17.4414C150.016 16.8789 149.602 16.2266 149.312 15.4844C149.023 14.7344 148.879 13.9375 148.879 13.0938V12.625C148.879 11.6641 149.016 10.7852 149.289 9.98828C149.562 9.19141 149.953 8.5 150.461 7.91406C150.977 7.32812 151.602 6.87891 152.336 6.56641C153.07 6.24609 153.898 6.08594 154.82 6.08594C155.719 6.08594 156.516 6.23438 157.211 6.53125C157.906 6.82812 158.488 7.25 158.957 7.79688C159.434 8.34375 159.793 9 160.035 9.76562C160.277 10.5234 160.398 11.3672 160.398 12.2969V13.7031H150.32V11.4531H157.082V11.1953C157.082 10.7266 156.996 10.3086 156.824 9.94141C156.66 9.56641 156.41 9.26953 156.074 9.05078C155.738 8.83203 155.309 8.72266 154.785 8.72266C154.34 8.72266 153.957 8.82031 153.637 9.01562C153.316 9.21094 153.055 9.48438 152.852 9.83594C152.656 10.1875 152.508 10.6016 152.406 11.0781C152.312 11.5469 152.266 12.0625 152.266 12.625V13.0938C152.266 13.6016 152.336 14.0703 152.477 14.5C152.625 14.9297 152.832 15.3008 153.098 15.6133C153.371 15.9258 153.699 16.168 154.082 16.3398C154.473 16.5117 154.914 16.5977 155.406 16.5977C156.016 16.5977 156.582 16.4805 157.105 16.2461C157.637 16.0039 158.094 15.6406 158.477 15.1562L160.117 16.9375C159.852 17.3203 159.488 17.6875 159.027 18.0391C158.574 18.3906 158.027 18.6797 157.387 18.9062C156.746 19.125 156.016 19.2344 155.195 19.2344ZM165.695 9.08594V19H162.32V6.32031H165.496L165.695 9.08594ZM169.516 6.23828L169.457 9.36719C169.293 9.34375 169.094 9.32422 168.859 9.30859C168.633 9.28516 168.426 9.27344 168.238 9.27344C167.762 9.27344 167.348 9.33594 166.996 9.46094C166.652 9.57812 166.363 9.75391 166.129 9.98828C165.902 10.2227 165.73 10.5078 165.613 10.8438C165.504 11.1797 165.441 11.5625 165.426 11.9922L164.746 11.7812C164.746 10.9609 164.828 10.207 164.992 9.51953C165.156 8.82422 165.395 8.21875 165.707 7.70312C166.027 7.1875 166.418 6.78906 166.879 6.50781C167.34 6.22656 167.867 6.08594 168.461 6.08594C168.648 6.08594 168.84 6.10156 169.035 6.13281C169.23 6.15625 169.391 6.19141 169.516 6.23828ZM177.965 15.4961C177.965 15.2539 177.895 15.0352 177.754 14.8398C177.613 14.6445 177.352 14.4648 176.969 14.3008C176.594 14.1289 176.051 13.9727 175.34 13.832C174.699 13.6914 174.102 13.5156 173.547 13.3047C173 13.0859 172.523 12.8242 172.117 12.5195C171.719 12.2148 171.406 11.8555 171.18 11.4414C170.953 11.0195 170.84 10.5391 170.84 10C170.84 9.46875 170.953 8.96875 171.18 8.5C171.414 8.03125 171.746 7.61719 172.176 7.25781C172.613 6.89062 173.145 6.60547 173.77 6.40234C174.402 6.19141 175.113 6.08594 175.902 6.08594C177.004 6.08594 177.949 6.26172 178.738 6.61328C179.535 6.96484 180.145 7.44922 180.566 8.06641C180.996 8.67578 181.211 9.37109 181.211 10.1523H177.836C177.836 9.82422 177.766 9.53125 177.625 9.27344C177.492 9.00781 177.281 8.80078 176.992 8.65234C176.711 8.49609 176.344 8.41797 175.891 8.41797C175.516 8.41797 175.191 8.48438 174.918 8.61719C174.645 8.74219 174.434 8.91406 174.285 9.13281C174.145 9.34375 174.074 9.57812 174.074 9.83594C174.074 10.0312 174.113 10.207 174.191 10.3633C174.277 10.5117 174.414 10.6484 174.602 10.7734C174.789 10.8984 175.031 11.0156 175.328 11.125C175.633 11.2266 176.008 11.3203 176.453 11.4062C177.367 11.5938 178.184 11.8398 178.902 12.1445C179.621 12.4414 180.191 12.8477 180.613 13.3633C181.035 13.8711 181.246 14.5391 181.246 15.3672C181.246 15.9297 181.121 16.4453 180.871 16.9141C180.621 17.3828 180.262 17.793 179.793 18.1445C179.324 18.4883 178.762 18.7578 178.105 18.9531C177.457 19.1406 176.727 19.2344 175.914 19.2344C174.734 19.2344 173.734 19.0234 172.914 18.6016C172.102 18.1797 171.484 17.6445 171.062 16.9961C170.648 16.3398 170.441 15.668 170.441 14.9805H173.641C173.656 15.4414 173.773 15.8125 173.992 16.0938C174.219 16.375 174.504 16.5781 174.848 16.7031C175.199 16.8281 175.578 16.8906 175.984 16.8906C176.422 16.8906 176.785 16.832 177.074 16.7148C177.363 16.5898 177.582 16.4258 177.73 16.2227C177.887 16.0117 177.965 15.7695 177.965 15.4961ZM187 6.32031V19H183.613V6.32031H187ZM183.402 3.01562C183.402 2.52344 183.574 2.11719 183.918 1.79688C184.262 1.47656 184.723 1.31641 185.301 1.31641C185.871 1.31641 186.328 1.47656 186.672 1.79688C187.023 2.11719 187.199 2.52344 187.199 3.01562C187.199 3.50781 187.023 3.91406 186.672 4.23438C186.328 4.55469 185.871 4.71484 185.301 4.71484C184.723 4.71484 184.262 4.55469 183.918 4.23438C183.574 3.91406 183.402 3.50781 183.402 3.01562ZM196 6.32031V8.71094H188.617V6.32031H196ZM190.445 3.19141H193.82V15.1797C193.82 15.5469 193.867 15.8281 193.961 16.0234C194.062 16.2188 194.211 16.3555 194.406 16.4336C194.602 16.5039 194.848 16.5391 195.145 16.5391C195.355 16.5391 195.543 16.5312 195.707 16.5156C195.879 16.4922 196.023 16.4688 196.141 16.4453L196.152 18.9297C195.863 19.0234 195.551 19.0977 195.215 19.1523C194.879 19.207 194.508 19.2344 194.102 19.2344C193.359 19.2344 192.711 19.1133 192.156 18.8711C191.609 18.6211 191.188 18.2227 190.891 17.6758C190.594 17.1289 190.445 16.4102 190.445 15.5195V3.19141ZM201.684 17.5703L205.047 6.32031H208.668L203.57 20.9102C203.461 21.2305 203.312 21.5742 203.125 21.9414C202.945 22.3086 202.699 22.6562 202.387 22.9844C202.082 23.3203 201.695 23.5938 201.227 23.8047C200.766 24.0156 200.199 24.1211 199.527 24.1211C199.207 24.1211 198.945 24.1016 198.742 24.0625C198.539 24.0234 198.297 23.9688 198.016 23.8984V21.4258C198.102 21.4258 198.191 21.4258 198.285 21.4258C198.379 21.4336 198.469 21.4375 198.555 21.4375C199 21.4375 199.363 21.3867 199.645 21.2852C199.926 21.1836 200.152 21.0273 200.324 20.8164C200.496 20.6133 200.633 20.3477 200.734 20.0195L201.684 17.5703ZM200.277 6.32031L203.031 15.5078L203.512 19.082L201.215 19.3281L196.656 6.32031H200.277Z" fill="black"/>
<path d="M2.79688 38.625H4.25781L7.98438 47.8984L11.7031 38.625H13.1719L8.54688 50H7.40625L2.79688 38.625ZM2.32031 38.625H3.60938L3.82031 45.5625V50H2.32031V38.625ZM12.3516 38.625H13.6406V50H12.1406V45.5625L12.3516 38.625ZM22.3516 47.125C22.3516 46.8594 22.3099 46.625 22.2266 46.4219C22.1484 46.2135 22.0078 46.026 21.8047 45.8594C21.6068 45.6927 21.3307 45.5339 20.9766 45.3828C20.6276 45.2318 20.1849 45.0781 19.6484 44.9219C19.0859 44.7552 18.5781 44.5703 18.125 44.3672C17.6719 44.1589 17.2839 43.9219 16.9609 43.6562C16.638 43.3906 16.3906 43.0859 16.2188 42.7422C16.0469 42.3984 15.9609 42.0052 15.9609 41.5625C15.9609 41.1198 16.0521 40.7109 16.2344 40.3359C16.4167 39.9609 16.6771 39.6354 17.0156 39.3594C17.3594 39.0781 17.7682 38.8594 18.2422 38.7031C18.7161 38.5469 19.2448 38.4688 19.8281 38.4688C20.6823 38.4688 21.4062 38.6328 22 38.9609C22.599 39.2839 23.0547 39.7083 23.3672 40.2344C23.6797 40.7552 23.8359 41.3125 23.8359 41.9062H22.3359C22.3359 41.4792 22.2448 41.1016 22.0625 40.7734C21.8802 40.4401 21.6042 40.1797 21.2344 39.9922C20.8646 39.7995 20.3958 39.7031 19.8281 39.7031C19.2917 39.7031 18.849 39.7839 18.5 39.9453C18.151 40.1068 17.8906 40.3255 17.7188 40.6016C17.5521 40.8776 17.4688 41.1927 17.4688 41.5469C17.4688 41.7865 17.5182 42.0052 17.6172 42.2031C17.7214 42.3958 17.8802 42.5755 18.0938 42.7422C18.3125 42.9089 18.5885 43.0625 18.9219 43.2031C19.2604 43.3438 19.6641 43.4792 20.1328 43.6094C20.7786 43.7917 21.3359 43.9948 21.8047 44.2188C22.2734 44.4427 22.6589 44.6953 22.9609 44.9766C23.2682 45.2526 23.4948 45.5677 23.6406 45.9219C23.7917 46.2708 23.8672 46.6667 23.8672 47.1094C23.8672 47.5729 23.7734 47.9922 23.5859 48.3672C23.3984 48.7422 23.1302 49.0625 22.7812 49.3281C22.4323 49.5938 22.013 49.7995 21.5234 49.9453C21.0391 50.0859 20.4974 50.1562 19.8984 50.1562C19.3724 50.1562 18.8542 50.0833 18.3438 49.9375C17.8385 49.7917 17.3776 49.5729 16.9609 49.2812C16.5495 48.9896 16.2188 48.6302 15.9688 48.2031C15.724 47.7708 15.6016 47.2708 15.6016 46.7031H17.1016C17.1016 47.0938 17.1771 47.4297 17.3281 47.7109C17.4792 47.987 17.6849 48.2161 17.9453 48.3984C18.2109 48.5807 18.5104 48.7161 18.8438 48.8047C19.1823 48.888 19.5339 48.9297 19.8984 48.9297C20.4245 48.9297 20.8698 48.8568 21.2344 48.7109C21.599 48.5651 21.875 48.3568 22.0625 48.0859C22.2552 47.8151 22.3516 47.4948 22.3516 47.125ZM28.9531 48.9688C29.2969 48.9688 29.6146 48.8984 29.9062 48.7578C30.1979 48.6172 30.4375 48.4245 30.625 48.1797C30.8125 47.9297 30.9193 47.6458 30.9453 47.3281H32.3203C32.2943 47.8281 32.125 48.2943 31.8125 48.7266C31.5052 49.1536 31.1016 49.5 30.6016 49.7656C30.1016 50.026 29.5521 50.1562 28.9531 50.1562C28.3177 50.1562 27.763 50.0443 27.2891 49.8203C26.8203 49.5964 26.4297 49.2891 26.1172 48.8984C25.8099 48.5078 25.5781 48.0599 25.4219 47.5547C25.2708 47.0443 25.1953 46.5052 25.1953 45.9375V45.6094C25.1953 45.0417 25.2708 44.5052 25.4219 44C25.5781 43.4896 25.8099 43.0391 26.1172 42.6484C26.4297 42.2578 26.8203 41.9505 27.2891 41.7266C27.763 41.5026 28.3177 41.3906 28.9531 41.3906C29.6146 41.3906 30.1927 41.526 30.6875 41.7969C31.1823 42.0625 31.5703 42.4271 31.8516 42.8906C32.138 43.349 32.2943 43.8698 32.3203 44.4531H30.9453C30.9193 44.1042 30.8203 43.7891 30.6484 43.5078C30.4818 43.2266 30.2526 43.0026 29.9609 42.8359C29.6745 42.6641 29.3385 42.5781 28.9531 42.5781C28.5104 42.5781 28.138 42.6667 27.8359 42.8438C27.5391 43.0156 27.3021 43.25 27.125 43.5469C26.9531 43.8385 26.8281 44.1641 26.75 44.5234C26.6771 44.8776 26.6406 45.2396 26.6406 45.6094V45.9375C26.6406 46.3073 26.6771 46.6719 26.75 47.0312C26.8229 47.3906 26.9453 47.7161 27.1172 48.0078C27.2943 48.2995 27.5312 48.5339 27.8281 48.7109C28.1302 48.8828 28.5052 48.9688 28.9531 48.9688ZM37.8594 45.4531V45.375C37.8594 44.2396 37.987 43.2135 38.2422 42.2969C38.4974 41.375 38.8229 40.5677 39.2188 39.875C39.6146 39.1823 40.0312 38.6094 40.4688 38.1562C40.9062 37.6979 41.3099 37.3672 41.6797 37.1641L41.9844 38.1172C41.6771 38.3516 41.3646 38.6745 41.0469 39.0859C40.7344 39.4974 40.4453 40.0026 40.1797 40.6016C39.9193 41.2005 39.7083 41.8958 39.5469 42.6875C39.3854 43.4792 39.3047 44.3698 39.3047 45.3594V45.4688C39.3047 46.4583 39.3854 47.3516 39.5469 48.1484C39.7083 48.9401 39.9193 49.638 40.1797 50.2422C40.4453 50.8464 40.7344 51.3594 41.0469 51.7812C41.3646 52.2083 41.6771 52.5469 41.9844 52.7969L41.6797 53.6719C41.3099 53.4688 40.9062 53.138 40.4688 52.6797C40.0312 52.2266 39.6146 51.6536 39.2188 50.9609C38.8229 50.2734 38.4974 49.4688 38.2422 48.5469C37.987 47.625 37.8594 46.5938 37.8594 45.4531ZM51.0469 43.5156V44.7422H44.8906V43.5156H51.0469ZM45.125 38.625V50H43.6172V38.625H45.125ZM52.3594 38.625V50H50.8594V38.625H52.3594ZM59.9922 48.0469V41.5469H61.4453V50H60.0625L59.9922 48.0469ZM60.2656 46.2656L60.8672 46.25C60.8672 46.8125 60.8073 47.3333 60.6875 47.8125C60.5729 48.2865 60.3854 48.6979 60.125 49.0469C59.8646 49.3958 59.5234 49.6693 59.1016 49.8672C58.6797 50.0599 58.1667 50.1562 57.5625 50.1562C57.151 50.1562 56.7734 50.0964 56.4297 49.9766C56.0911 49.8568 55.7995 49.6719 55.5547 49.4219C55.3099 49.1719 55.1198 48.8464 54.9844 48.4453C54.8542 48.0443 54.7891 47.5625 54.7891 47V41.5469H56.2344V47.0156C56.2344 47.3958 56.276 47.7109 56.3594 47.9609C56.4479 48.2057 56.5651 48.401 56.7109 48.5469C56.862 48.6875 57.0286 48.7865 57.2109 48.8438C57.3984 48.901 57.5911 48.9297 57.7891 48.9297C58.4036 48.9297 58.8906 48.8125 59.25 48.5781C59.6094 48.3385 59.8672 48.0182 60.0234 47.6172C60.1849 47.2109 60.2656 46.7604 60.2656 46.2656ZM65.0859 43.2266V50H63.6328V41.5469H65.0078L65.0859 43.2266ZM64.7891 45.4531L64.1172 45.4297C64.1224 44.8516 64.1979 44.3177 64.3438 43.8281C64.4896 43.3333 64.7057 42.9036 64.9922 42.5391C65.2786 42.1745 65.6354 41.8932 66.0625 41.6953C66.4896 41.4922 66.9844 41.3906 67.5469 41.3906C67.9427 41.3906 68.3073 41.4479 68.6406 41.5625C68.974 41.6719 69.263 41.8464 69.5078 42.0859C69.7526 42.3255 69.9427 42.6328 70.0781 43.0078C70.2135 43.3828 70.2812 43.8359 70.2812 44.3672V50H68.8359V44.4375C68.8359 43.9948 68.7604 43.6406 68.6094 43.375C68.4635 43.1094 68.2552 42.9167 67.9844 42.7969C67.7135 42.6719 67.3958 42.6094 67.0312 42.6094C66.6042 42.6094 66.2474 42.6849 65.9609 42.8359C65.6745 42.987 65.4453 43.1953 65.2734 43.4609C65.1016 43.7266 64.9766 44.0312 64.8984 44.375C64.8255 44.7135 64.7891 45.0729 64.7891 45.4531ZM70.2656 44.6562L69.2969 44.9531C69.3021 44.4896 69.3776 44.0443 69.5234 43.6172C69.6745 43.1901 69.8906 42.8099 70.1719 42.4766C70.4583 42.1432 70.8099 41.8802 71.2266 41.6875C71.6432 41.4896 72.1198 41.3906 72.6562 41.3906C73.1094 41.3906 73.5104 41.4505 73.8594 41.5703C74.2135 41.6901 74.5104 41.875 74.75 42.125C74.9948 42.3698 75.1797 42.6849 75.3047 43.0703C75.4297 43.4557 75.4922 43.9141 75.4922 44.4453V50H74.0391V44.4297C74.0391 43.9557 73.9635 43.5885 73.8125 43.3281C73.6667 43.0625 73.4583 42.8776 73.1875 42.7734C72.9219 42.6641 72.6042 42.6094 72.2344 42.6094C71.9167 42.6094 71.6354 42.6641 71.3906 42.7734C71.1458 42.8828 70.9401 43.0339 70.7734 43.2266C70.6068 43.4141 70.4792 43.6302 70.3906 43.875C70.3073 44.1198 70.2656 44.3802 70.2656 44.6562ZM82.6641 48.5547V44.2031C82.6641 43.8698 82.5964 43.5807 82.4609 43.3359C82.3307 43.0859 82.1328 42.8932 81.8672 42.7578C81.6016 42.6224 81.2734 42.5547 80.8828 42.5547C80.5182 42.5547 80.1979 42.6172 79.9219 42.7422C79.651 42.8672 79.4375 43.0312 79.2812 43.2344C79.1302 43.4375 79.0547 43.6562 79.0547 43.8906H77.6094C77.6094 43.5885 77.6875 43.2891 77.8438 42.9922C78 42.6953 78.224 42.4271 78.5156 42.1875C78.8125 41.9427 79.1667 41.75 79.5781 41.6094C79.9948 41.4635 80.4583 41.3906 80.9688 41.3906C81.5833 41.3906 82.125 41.4948 82.5938 41.7031C83.0677 41.9115 83.4375 42.2266 83.7031 42.6484C83.974 43.0651 84.1094 43.5885 84.1094 44.2188V48.1562C84.1094 48.4375 84.1328 48.737 84.1797 49.0547C84.2318 49.3724 84.3073 49.6458 84.4062 49.875V50H82.8984C82.8255 49.8333 82.7682 49.612 82.7266 49.3359C82.6849 49.0547 82.6641 48.7943 82.6641 48.5547ZM82.9141 44.875L82.9297 45.8906H81.4688C81.0573 45.8906 80.6901 45.9245 80.3672 45.9922C80.0443 46.0547 79.7734 46.151 79.5547 46.2812C79.3359 46.4115 79.1693 46.5755 79.0547 46.7734C78.9401 46.9661 78.8828 47.1927 78.8828 47.4531C78.8828 47.7188 78.9427 47.9609 79.0625 48.1797C79.1823 48.3984 79.362 48.5729 79.6016 48.7031C79.8464 48.8281 80.1458 48.8906 80.5 48.8906C80.9427 48.8906 81.3333 48.7969 81.6719 48.6094C82.0104 48.4219 82.2786 48.1927 82.4766 47.9219C82.6797 47.651 82.7891 47.388 82.8047 47.1328L83.4219 47.8281C83.3854 48.0469 83.2865 48.2891 83.125 48.5547C82.9635 48.8203 82.7474 49.0755 82.4766 49.3203C82.2109 49.5599 81.8932 49.7604 81.5234 49.9219C81.1589 50.0781 80.7474 50.1562 80.2891 50.1562C79.7161 50.1562 79.2135 50.0443 78.7812 49.8203C78.3542 49.5964 78.0208 49.2969 77.7812 48.9219C77.5469 48.5417 77.4297 48.1172 77.4297 47.6484C77.4297 47.1953 77.5182 46.7969 77.6953 46.4531C77.8724 46.1042 78.1276 45.8151 78.4609 45.5859C78.7943 45.3516 79.1953 45.1745 79.6641 45.0547C80.1328 44.9349 80.6562 44.875 81.2344 44.875H82.9141ZM87.8281 43.3516V50H86.3828V41.5469H87.75L87.8281 43.3516ZM87.4844 45.4531L86.8828 45.4297C86.888 44.8516 86.974 44.3177 87.1406 43.8281C87.3073 43.3333 87.5417 42.9036 87.8438 42.5391C88.1458 42.1745 88.5052 41.8932 88.9219 41.6953C89.3438 41.4922 89.8099 41.3906 90.3203 41.3906C90.737 41.3906 91.112 41.4479 91.4453 41.5625C91.7786 41.6719 92.0625 41.849 92.2969 42.0938C92.5365 42.3385 92.7188 42.6562 92.8438 43.0469C92.9688 43.4323 93.0312 43.9036 93.0312 44.4609V50H91.5781V44.4453C91.5781 44.0026 91.513 43.6484 91.3828 43.3828C91.2526 43.112 91.0625 42.9167 90.8125 42.7969C90.5625 42.6719 90.2552 42.6094 89.8906 42.6094C89.5312 42.6094 89.2031 42.6849 88.9062 42.8359C88.6146 42.987 88.362 43.1953 88.1484 43.4609C87.9401 43.7266 87.776 44.0312 87.6562 44.375C87.5417 44.7135 87.4844 45.0729 87.4844 45.4531ZM106.281 46.3828H107.781C107.703 47.1016 107.497 47.7448 107.164 48.3125C106.831 48.8802 106.359 49.3307 105.75 49.6641C105.141 49.9922 104.38 50.1562 103.469 50.1562C102.802 50.1562 102.195 50.0312 101.648 49.7812C101.107 49.5312 100.641 49.1771 100.25 48.7188C99.8594 48.2552 99.5573 47.7005 99.3438 47.0547C99.1354 46.4036 99.0312 45.6797 99.0312 44.8828V43.75C99.0312 42.9531 99.1354 42.2318 99.3438 41.5859C99.5573 40.9349 99.862 40.3776 100.258 39.9141C100.659 39.4505 101.141 39.0938 101.703 38.8438C102.266 38.5938 102.898 38.4688 103.602 38.4688C104.461 38.4688 105.188 38.6302 105.781 38.9531C106.375 39.276 106.836 39.724 107.164 40.2969C107.497 40.8646 107.703 41.5234 107.781 42.2734H106.281C106.208 41.7422 106.073 41.2865 105.875 40.9062C105.677 40.5208 105.396 40.224 105.031 40.0156C104.667 39.8073 104.19 39.7031 103.602 39.7031C103.096 39.7031 102.651 39.7995 102.266 39.9922C101.885 40.1849 101.565 40.4583 101.305 40.8125C101.049 41.1667 100.857 41.5911 100.727 42.0859C100.596 42.5807 100.531 43.1302 100.531 43.7344V44.8828C100.531 45.4401 100.589 45.9635 100.703 46.4531C100.823 46.9427 101.003 47.3724 101.242 47.7422C101.482 48.112 101.786 48.4036 102.156 48.6172C102.526 48.8255 102.964 48.9297 103.469 48.9297C104.109 48.9297 104.62 48.8281 105 48.625C105.38 48.4219 105.667 48.1302 105.859 47.75C106.057 47.3698 106.198 46.9141 106.281 46.3828ZM109.234 45.8672V45.6875C109.234 45.0781 109.323 44.513 109.5 43.9922C109.677 43.4661 109.932 43.0104 110.266 42.625C110.599 42.2344 111.003 41.9323 111.477 41.7188C111.951 41.5 112.482 41.3906 113.07 41.3906C113.664 41.3906 114.198 41.5 114.672 41.7188C115.151 41.9323 115.557 42.2344 115.891 42.625C116.229 43.0104 116.487 43.4661 116.664 43.9922C116.841 44.513 116.93 45.0781 116.93 45.6875V45.8672C116.93 46.4766 116.841 47.0417 116.664 47.5625C116.487 48.0833 116.229 48.5391 115.891 48.9297C115.557 49.3151 115.154 49.6172 114.68 49.8359C114.211 50.0495 113.68 50.1562 113.086 50.1562C112.492 50.1562 111.958 50.0495 111.484 49.8359C111.01 49.6172 110.604 49.3151 110.266 48.9297C109.932 48.5391 109.677 48.0833 109.5 47.5625C109.323 47.0417 109.234 46.4766 109.234 45.8672ZM110.68 45.6875V45.8672C110.68 46.2891 110.729 46.6875 110.828 47.0625C110.927 47.4323 111.076 47.7604 111.273 48.0469C111.477 48.3333 111.729 48.5599 112.031 48.7266C112.333 48.888 112.685 48.9688 113.086 48.9688C113.482 48.9688 113.828 48.888 114.125 48.7266C114.427 48.5599 114.677 48.3333 114.875 48.0469C115.073 47.7604 115.221 47.4323 115.32 47.0625C115.424 46.6875 115.477 46.2891 115.477 45.8672V45.6875C115.477 45.2708 115.424 44.8776 115.32 44.5078C115.221 44.1328 115.07 43.8021 114.867 43.5156C114.669 43.224 114.419 42.9948 114.117 42.8281C113.82 42.6615 113.471 42.5781 113.07 42.5781C112.674 42.5781 112.326 42.6615 112.023 42.8281C111.727 42.9948 111.477 43.224 111.273 43.5156C111.076 43.8021 110.927 44.1328 110.828 44.5078C110.729 44.8776 110.68 45.2708 110.68 45.6875ZM120.18 43.2266V50H118.727V41.5469H120.102L120.18 43.2266ZM119.883 45.4531L119.211 45.4297C119.216 44.8516 119.292 44.3177 119.438 43.8281C119.583 43.3333 119.799 42.9036 120.086 42.5391C120.372 42.1745 120.729 41.8932 121.156 41.6953C121.583 41.4922 122.078 41.3906 122.641 41.3906C123.036 41.3906 123.401 41.4479 123.734 41.5625C124.068 41.6719 124.357 41.8464 124.602 42.0859C124.846 42.3255 125.036 42.6328 125.172 43.0078C125.307 43.3828 125.375 43.8359 125.375 44.3672V50H123.93V44.4375C123.93 43.9948 123.854 43.6406 123.703 43.375C123.557 43.1094 123.349 42.9167 123.078 42.7969C122.807 42.6719 122.49 42.6094 122.125 42.6094C121.698 42.6094 121.341 42.6849 121.055 42.8359C120.768 42.987 120.539 43.1953 120.367 43.4609C120.195 43.7266 120.07 44.0312 119.992 44.375C119.919 44.7135 119.883 45.0729 119.883 45.4531ZM125.359 44.6562L124.391 44.9531C124.396 44.4896 124.471 44.0443 124.617 43.6172C124.768 43.1901 124.984 42.8099 125.266 42.4766C125.552 42.1432 125.904 41.8802 126.32 41.6875C126.737 41.4896 127.214 41.3906 127.75 41.3906C128.203 41.3906 128.604 41.4505 128.953 41.5703C129.307 41.6901 129.604 41.875 129.844 42.125C130.089 42.3698 130.273 42.6849 130.398 43.0703C130.523 43.4557 130.586 43.9141 130.586 44.4453V50H129.133V44.4297C129.133 43.9557 129.057 43.5885 128.906 43.3281C128.76 43.0625 128.552 42.8776 128.281 42.7734C128.016 42.6641 127.698 42.6094 127.328 42.6094C127.01 42.6094 126.729 42.6641 126.484 42.7734C126.24 42.8828 126.034 43.0339 125.867 43.2266C125.701 43.4141 125.573 43.6302 125.484 43.875C125.401 44.1198 125.359 44.3802 125.359 44.6562ZM134.219 43.1719V53.25H132.766V41.5469H134.094L134.219 43.1719ZM139.914 45.7031V45.8672C139.914 46.4818 139.841 47.0521 139.695 47.5781C139.549 48.099 139.336 48.5521 139.055 48.9375C138.779 49.3229 138.438 49.6224 138.031 49.8359C137.625 50.0495 137.159 50.1562 136.633 50.1562C136.096 50.1562 135.622 50.0677 135.211 49.8906C134.799 49.7135 134.451 49.4557 134.164 49.1172C133.878 48.7786 133.648 48.3724 133.477 47.8984C133.31 47.4245 133.195 46.8906 133.133 46.2969V45.4219C133.195 44.7969 133.312 44.237 133.484 43.7422C133.656 43.2474 133.883 42.8255 134.164 42.4766C134.451 42.1224 134.797 41.8542 135.203 41.6719C135.609 41.4844 136.078 41.3906 136.609 41.3906C137.141 41.3906 137.612 41.4948 138.023 41.7031C138.435 41.9062 138.781 42.1979 139.062 42.5781C139.344 42.9583 139.555 43.4141 139.695 43.9453C139.841 44.4714 139.914 45.0573 139.914 45.7031ZM138.461 45.8672V45.7031C138.461 45.2812 138.417 44.8854 138.328 44.5156C138.24 44.1406 138.102 43.8125 137.914 43.5312C137.732 43.2448 137.497 43.0208 137.211 42.8594C136.924 42.6927 136.583 42.6094 136.188 42.6094C135.823 42.6094 135.505 42.6719 135.234 42.7969C134.969 42.9219 134.742 43.0911 134.555 43.3047C134.367 43.513 134.214 43.7526 134.094 44.0234C133.979 44.2891 133.893 44.5651 133.836 44.8516V46.875C133.94 47.2396 134.086 47.5833 134.273 47.9062C134.461 48.224 134.711 48.4818 135.023 48.6797C135.336 48.8724 135.729 48.9688 136.203 48.9688C136.594 48.9688 136.93 48.888 137.211 48.7266C137.497 48.5599 137.732 48.3333 137.914 48.0469C138.102 47.7604 138.24 47.4323 138.328 47.0625C138.417 46.6875 138.461 46.2891 138.461 45.8672ZM146.93 48.0469V41.5469H148.383V50H147L146.93 48.0469ZM147.203 46.2656L147.805 46.25C147.805 46.8125 147.745 47.3333 147.625 47.8125C147.51 48.2865 147.323 48.6979 147.062 49.0469C146.802 49.3958 146.461 49.6693 146.039 49.8672C145.617 50.0599 145.104 50.1562 144.5 50.1562C144.089 50.1562 143.711 50.0964 143.367 49.9766C143.029 49.8568 142.737 49.6719 142.492 49.4219C142.247 49.1719 142.057 48.8464 141.922 48.4453C141.792 48.0443 141.727 47.5625 141.727 47V41.5469H143.172V47.0156C143.172 47.3958 143.214 47.7109 143.297 47.9609C143.385 48.2057 143.503 48.401 143.648 48.5469C143.799 48.6875 143.966 48.7865 144.148 48.8438C144.336 48.901 144.529 48.9297 144.727 48.9297C145.341 48.9297 145.828 48.8125 146.188 48.5781C146.547 48.3385 146.805 48.0182 146.961 47.6172C147.122 47.2109 147.203 46.7604 147.203 46.2656ZM154.125 41.5469V42.6562H149.555V41.5469H154.125ZM151.102 39.4922H152.547V47.9062C152.547 48.1927 152.591 48.4089 152.68 48.5547C152.768 48.7005 152.883 48.7969 153.023 48.8438C153.164 48.8906 153.315 48.9141 153.477 48.9141C153.596 48.9141 153.721 48.9036 153.852 48.8828C153.987 48.8568 154.089 48.8359 154.156 48.8203L154.164 50C154.049 50.0365 153.898 50.0703 153.711 50.1016C153.529 50.138 153.307 50.1562 153.047 50.1562C152.693 50.1562 152.367 50.0859 152.07 49.9453C151.773 49.8047 151.536 49.5703 151.359 49.2422C151.188 48.9089 151.102 48.4609 151.102 47.8984V39.4922ZM159.328 50.1562C158.74 50.1562 158.206 50.0573 157.727 49.8594C157.253 49.6562 156.844 49.3724 156.5 49.0078C156.161 48.6432 155.901 48.2109 155.719 47.7109C155.536 47.2109 155.445 46.6641 155.445 46.0703V45.7422C155.445 45.0547 155.547 44.4427 155.75 43.9062C155.953 43.3646 156.229 42.9062 156.578 42.5312C156.927 42.1562 157.323 41.8724 157.766 41.6797C158.208 41.487 158.667 41.3906 159.141 41.3906C159.745 41.3906 160.266 41.4948 160.703 41.7031C161.146 41.9115 161.508 42.2031 161.789 42.5781C162.07 42.9479 162.279 43.3854 162.414 43.8906C162.549 44.3906 162.617 44.9375 162.617 45.5312V46.1797H156.305V45H161.172V44.8906C161.151 44.5156 161.073 44.151 160.938 43.7969C160.807 43.4427 160.599 43.151 160.312 42.9219C160.026 42.6927 159.635 42.5781 159.141 42.5781C158.812 42.5781 158.51 42.6484 158.234 42.7891C157.958 42.9245 157.721 43.1276 157.523 43.3984C157.326 43.6693 157.172 44 157.062 44.3906C156.953 44.7812 156.898 45.2318 156.898 45.7422V46.0703C156.898 46.4714 156.953 46.849 157.062 47.2031C157.177 47.5521 157.341 47.8594 157.555 48.125C157.773 48.3906 158.036 48.599 158.344 48.75C158.656 48.901 159.01 48.9766 159.406 48.9766C159.917 48.9766 160.349 48.8724 160.703 48.6641C161.057 48.4557 161.367 48.1771 161.633 47.8281L162.508 48.5234C162.326 48.7995 162.094 49.0625 161.812 49.3125C161.531 49.5625 161.185 49.7656 160.773 49.9219C160.367 50.0781 159.885 50.1562 159.328 50.1562ZM165.75 42.875V50H164.305V41.5469H165.711L165.75 42.875ZM168.391 41.5L168.383 42.8438C168.263 42.8177 168.148 42.8021 168.039 42.7969C167.935 42.7865 167.815 42.7812 167.68 42.7812C167.346 42.7812 167.052 42.8333 166.797 42.9375C166.542 43.0417 166.326 43.1875 166.148 43.375C165.971 43.5625 165.831 43.7865 165.727 44.0469C165.628 44.3021 165.562 44.5833 165.531 44.8906L165.125 45.125C165.125 44.6146 165.174 44.1354 165.273 43.6875C165.378 43.2396 165.536 42.8438 165.75 42.5C165.964 42.151 166.234 41.8802 166.562 41.6875C166.896 41.4896 167.292 41.3906 167.75 41.3906C167.854 41.3906 167.974 41.4036 168.109 41.4297C168.245 41.4505 168.339 41.474 168.391 41.5ZM175.531 38.625V50H174.023V38.625H175.531ZM179.5 43.3516V50H178.055V41.5469H179.422L179.5 43.3516ZM179.156 45.4531L178.555 45.4297C178.56 44.8516 178.646 44.3177 178.812 43.8281C178.979 43.3333 179.214 42.9036 179.516 42.5391C179.818 42.1745 180.177 41.8932 180.594 41.6953C181.016 41.4922 181.482 41.3906 181.992 41.3906C182.409 41.3906 182.784 41.4479 183.117 41.5625C183.451 41.6719 183.734 41.849 183.969 42.0938C184.208 42.3385 184.391 42.6562 184.516 43.0469C184.641 43.4323 184.703 43.9036 184.703 44.4609V50H183.25V44.4453C183.25 44.0026 183.185 43.6484 183.055 43.3828C182.924 43.112 182.734 42.9167 182.484 42.7969C182.234 42.6719 181.927 42.6094 181.562 42.6094C181.203 42.6094 180.875 42.6849 180.578 42.8359C180.286 42.987 180.034 43.1953 179.82 43.4609C179.612 43.7266 179.448 44.0312 179.328 44.375C179.214 44.7135 179.156 45.0729 179.156 45.4531ZM190.438 41.5469V42.6562H185.867V41.5469H190.438ZM187.414 39.4922H188.859V47.9062C188.859 48.1927 188.904 48.4089 188.992 48.5547C189.081 48.7005 189.195 48.7969 189.336 48.8438C189.477 48.8906 189.628 48.9141 189.789 48.9141C189.909 48.9141 190.034 48.9036 190.164 48.8828C190.299 48.8568 190.401 48.8359 190.469 48.8203L190.477 50C190.362 50.0365 190.211 50.0703 190.023 50.1016C189.841 50.138 189.62 50.1562 189.359 50.1562C189.005 50.1562 188.68 50.0859 188.383 49.9453C188.086 49.8047 187.849 49.5703 187.672 49.2422C187.5 48.9089 187.414 48.4609 187.414 47.8984V39.4922ZM195.641 50.1562C195.052 50.1562 194.518 50.0573 194.039 49.8594C193.565 49.6562 193.156 49.3724 192.812 49.0078C192.474 48.6432 192.214 48.2109 192.031 47.7109C191.849 47.2109 191.758 46.6641 191.758 46.0703V45.7422C191.758 45.0547 191.859 44.4427 192.062 43.9062C192.266 43.3646 192.542 42.9062 192.891 42.5312C193.24 42.1562 193.635 41.8724 194.078 41.6797C194.521 41.487 194.979 41.3906 195.453 41.3906C196.057 41.3906 196.578 41.4948 197.016 41.7031C197.458 41.9115 197.82 42.2031 198.102 42.5781C198.383 42.9479 198.591 43.3854 198.727 43.8906C198.862 44.3906 198.93 44.9375 198.93 45.5312V46.1797H192.617V45H197.484V44.8906C197.464 44.5156 197.385 44.151 197.25 43.7969C197.12 43.4427 196.911 43.151 196.625 42.9219C196.339 42.6927 195.948 42.5781 195.453 42.5781C195.125 42.5781 194.823 42.6484 194.547 42.7891C194.271 42.9245 194.034 43.1276 193.836 43.3984C193.638 43.6693 193.484 44 193.375 44.3906C193.266 44.7812 193.211 45.2318 193.211 45.7422V46.0703C193.211 46.4714 193.266 46.849 193.375 47.2031C193.49 47.5521 193.654 47.8594 193.867 48.125C194.086 48.3906 194.349 48.599 194.656 48.75C194.969 48.901 195.323 48.9766 195.719 48.9766C196.229 48.9766 196.661 48.8724 197.016 48.6641C197.37 48.4557 197.68 48.1771 197.945 47.8281L198.82 48.5234C198.638 48.7995 198.406 49.0625 198.125 49.3125C197.844 49.5625 197.497 49.7656 197.086 49.9219C196.68 50.0781 196.198 50.1562 195.641 50.1562ZM202.062 42.875V50H200.617V41.5469H202.023L202.062 42.875ZM204.703 41.5L204.695 42.8438C204.576 42.8177 204.461 42.8021 204.352 42.7969C204.247 42.7865 204.128 42.7812 203.992 42.7812C203.659 42.7812 203.365 42.8333 203.109 42.9375C202.854 43.0417 202.638 43.1875 202.461 43.375C202.284 43.5625 202.143 43.7865 202.039 44.0469C201.94 44.3021 201.875 44.5833 201.844 44.8906L201.438 45.125C201.438 44.6146 201.487 44.1354 201.586 43.6875C201.69 43.2396 201.849 42.8438 202.062 42.5C202.276 42.151 202.547 41.8802 202.875 41.6875C203.208 41.4896 203.604 41.3906 204.062 41.3906C204.167 41.3906 204.286 41.4036 204.422 41.4297C204.557 41.4505 204.651 41.474 204.703 41.5ZM210.711 48.5547V44.2031C210.711 43.8698 210.643 43.5807 210.508 43.3359C210.378 43.0859 210.18 42.8932 209.914 42.7578C209.648 42.6224 209.32 42.5547 208.93 42.5547C208.565 42.5547 208.245 42.6172 207.969 42.7422C207.698 42.8672 207.484 43.0312 207.328 43.2344C207.177 43.4375 207.102 43.6562 207.102 43.8906H205.656C205.656 43.5885 205.734 43.2891 205.891 42.9922C206.047 42.6953 206.271 42.4271 206.562 42.1875C206.859 41.9427 207.214 41.75 207.625 41.6094C208.042 41.4635 208.505 41.3906 209.016 41.3906C209.63 41.3906 210.172 41.4948 210.641 41.7031C211.115 41.9115 211.484 42.2266 211.75 42.6484C212.021 43.0651 212.156 43.5885 212.156 44.2188V48.1562C212.156 48.4375 212.18 48.737 212.227 49.0547C212.279 49.3724 212.354 49.6458 212.453 49.875V50H210.945C210.872 49.8333 210.815 49.612 210.773 49.3359C210.732 49.0547 210.711 48.7943 210.711 48.5547ZM210.961 44.875L210.977 45.8906H209.516C209.104 45.8906 208.737 45.9245 208.414 45.9922C208.091 46.0547 207.82 46.151 207.602 46.2812C207.383 46.4115 207.216 46.5755 207.102 46.7734C206.987 46.9661 206.93 47.1927 206.93 47.4531C206.93 47.7188 206.99 47.9609 207.109 48.1797C207.229 48.3984 207.409 48.5729 207.648 48.7031C207.893 48.8281 208.193 48.8906 208.547 48.8906C208.99 48.8906 209.38 48.7969 209.719 48.6094C210.057 48.4219 210.326 48.1927 210.523 47.9219C210.727 47.651 210.836 47.388 210.852 47.1328L211.469 47.8281C211.432 48.0469 211.333 48.2891 211.172 48.5547C211.01 48.8203 210.794 49.0755 210.523 49.3203C210.258 49.5599 209.94 49.7604 209.57 49.9219C209.206 50.0781 208.794 50.1562 208.336 50.1562C207.763 50.1562 207.26 50.0443 206.828 49.8203C206.401 49.5964 206.068 49.2969 205.828 48.9219C205.594 48.5417 205.477 48.1172 205.477 47.6484C205.477 47.1953 205.565 46.7969 205.742 46.4531C205.919 46.1042 206.174 45.8151 206.508 45.5859C206.841 45.3516 207.242 45.1745 207.711 45.0547C208.18 44.9349 208.703 44.875 209.281 44.875H210.961ZM217.812 48.9688C218.156 48.9688 218.474 48.8984 218.766 48.7578C219.057 48.6172 219.297 48.4245 219.484 48.1797C219.672 47.9297 219.779 47.6458 219.805 47.3281H221.18C221.154 47.8281 220.984 48.2943 220.672 48.7266C220.365 49.1536 219.961 49.5 219.461 49.7656C218.961 50.026 218.411 50.1562 217.812 50.1562C217.177 50.1562 216.622 50.0443 216.148 49.8203C215.68 49.5964 215.289 49.2891 214.977 48.8984C214.669 48.5078 214.438 48.0599 214.281 47.5547C214.13 47.0443 214.055 46.5052 214.055 45.9375V45.6094C214.055 45.0417 214.13 44.5052 214.281 44C214.438 43.4896 214.669 43.0391 214.977 42.6484C215.289 42.2578 215.68 41.9505 216.148 41.7266C216.622 41.5026 217.177 41.3906 217.812 41.3906C218.474 41.3906 219.052 41.526 219.547 41.7969C220.042 42.0625 220.43 42.4271 220.711 42.8906C220.997 43.349 221.154 43.8698 221.18 44.4531H219.805C219.779 44.1042 219.68 43.7891 219.508 43.5078C219.341 43.2266 219.112 43.0026 218.82 42.8359C218.534 42.6641 218.198 42.5781 217.812 42.5781C217.37 42.5781 216.997 42.6667 216.695 42.8438C216.398 43.0156 216.161 43.25 215.984 43.5469C215.812 43.8385 215.688 44.1641 215.609 44.5234C215.536 44.8776 215.5 45.2396 215.5 45.6094V45.9375C215.5 46.3073 215.536 46.6719 215.609 47.0312C215.682 47.3906 215.805 47.7161 215.977 48.0078C216.154 48.2995 216.391 48.5339 216.688 48.7109C216.99 48.8828 217.365 48.9688 217.812 48.9688ZM226.344 41.5469V42.6562H221.773V41.5469H226.344ZM223.32 39.4922H224.766V47.9062C224.766 48.1927 224.81 48.4089 224.898 48.5547C224.987 48.7005 225.102 48.7969 225.242 48.8438C225.383 48.8906 225.534 48.9141 225.695 48.9141C225.815 48.9141 225.94 48.9036 226.07 48.8828C226.206 48.8568 226.307 48.8359 226.375 48.8203L226.383 50C226.268 50.0365 226.117 50.0703 225.93 50.1016C225.747 50.138 225.526 50.1562 225.266 50.1562C224.911 50.1562 224.586 50.0859 224.289 49.9453C223.992 49.8047 223.755 49.5703 223.578 49.2422C223.406 48.9089 223.32 48.4609 223.32 47.8984V39.4922ZM229.609 41.5469V50H228.156V41.5469H229.609ZM228.047 39.3047C228.047 39.0703 228.117 38.8724 228.258 38.7109C228.404 38.5495 228.617 38.4688 228.898 38.4688C229.174 38.4688 229.385 38.5495 229.531 38.7109C229.682 38.8724 229.758 39.0703 229.758 39.3047C229.758 39.5286 229.682 39.7214 229.531 39.8828C229.385 40.0391 229.174 40.1172 228.898 40.1172C228.617 40.1172 228.404 40.0391 228.258 39.8828C228.117 39.7214 228.047 39.5286 228.047 39.3047ZM231.547 45.8672V45.6875C231.547 45.0781 231.635 44.513 231.812 43.9922C231.99 43.4661 232.245 43.0104 232.578 42.625C232.911 42.2344 233.315 41.9323 233.789 41.7188C234.263 41.5 234.794 41.3906 235.383 41.3906C235.977 41.3906 236.51 41.5 236.984 41.7188C237.464 41.9323 237.87 42.2344 238.203 42.625C238.542 43.0104 238.799 43.4661 238.977 43.9922C239.154 44.513 239.242 45.0781 239.242 45.6875V45.8672C239.242 46.4766 239.154 47.0417 238.977 47.5625C238.799 48.0833 238.542 48.5391 238.203 48.9297C237.87 49.3151 237.466 49.6172 236.992 49.8359C236.523 50.0495 235.992 50.1562 235.398 50.1562C234.805 50.1562 234.271 50.0495 233.797 49.8359C233.323 49.6172 232.917 49.3151 232.578 48.9297C232.245 48.5391 231.99 48.0833 231.812 47.5625C231.635 47.0417 231.547 46.4766 231.547 45.8672ZM232.992 45.6875V45.8672C232.992 46.2891 233.042 46.6875 233.141 47.0625C233.24 47.4323 233.388 47.7604 233.586 48.0469C233.789 48.3333 234.042 48.5599 234.344 48.7266C234.646 48.888 234.997 48.9688 235.398 48.9688C235.794 48.9688 236.141 48.888 236.438 48.7266C236.74 48.5599 236.99 48.3333 237.188 48.0469C237.385 47.7604 237.534 47.4323 237.633 47.0625C237.737 46.6875 237.789 46.2891 237.789 45.8672V45.6875C237.789 45.2708 237.737 44.8776 237.633 44.5078C237.534 44.1328 237.383 43.8021 237.18 43.5156C236.982 43.224 236.732 42.9948 236.43 42.8281C236.133 42.6615 235.784 42.5781 235.383 42.5781C234.987 42.5781 234.638 42.6615 234.336 42.8281C234.039 42.9948 233.789 43.224 233.586 43.5156C233.388 43.8021 233.24 44.1328 233.141 44.5078C233.042 44.8776 232.992 45.2708 232.992 45.6875ZM242.5 43.3516V50H241.055V41.5469H242.422L242.5 43.3516ZM242.156 45.4531L241.555 45.4297C241.56 44.8516 241.646 44.3177 241.812 43.8281C241.979 43.3333 242.214 42.9036 242.516 42.5391C242.818 42.1745 243.177 41.8932 243.594 41.6953C244.016 41.4922 244.482 41.3906 244.992 41.3906C245.409 41.3906 245.784 41.4479 246.117 41.5625C246.451 41.6719 246.734 41.849 246.969 42.0938C247.208 42.3385 247.391 42.6562 247.516 43.0469C247.641 43.4323 247.703 43.9036 247.703 44.4609V50H246.25V44.4453C246.25 44.0026 246.185 43.6484 246.055 43.3828C245.924 43.112 245.734 42.9167 245.484 42.7969C245.234 42.6719 244.927 42.6094 244.562 42.6094C244.203 42.6094 243.875 42.6849 243.578 42.8359C243.286 42.987 243.034 43.1953 242.82 43.4609C242.612 43.7266 242.448 44.0312 242.328 44.375C242.214 44.7135 242.156 45.0729 242.156 45.4531ZM253.227 45.375V45.4531C253.227 46.5938 253.099 47.625 252.844 48.5469C252.589 49.4688 252.263 50.2734 251.867 50.9609C251.471 51.6536 251.055 52.2266 250.617 52.6797C250.18 53.138 249.776 53.4688 249.406 53.6719L249.102 52.7969C249.409 52.5625 249.719 52.2344 250.031 51.8125C250.344 51.3958 250.633 50.8802 250.898 50.2656C251.164 49.6562 251.378 48.9531 251.539 48.1562C251.701 47.3542 251.781 46.4583 251.781 45.4688V45.3594C251.781 44.3698 251.695 43.4766 251.523 42.6797C251.352 41.8776 251.128 41.1719 250.852 40.5625C250.581 39.9531 250.289 39.4401 249.977 39.0234C249.669 38.6016 249.378 38.276 249.102 38.0469L249.406 37.1641C249.776 37.3672 250.18 37.6979 250.617 38.1562C251.055 38.6094 251.471 39.1823 251.867 39.875C252.263 40.5677 252.589 41.375 252.844 42.2969C253.099 43.2135 253.227 44.2396 253.227 45.375Z" fill="black" fill-opacity="0.6"/>
<defs>
<clipPath id="clip0_1_732">
<rect width="583" height="1" fill="white" transform="translate(1 94)"/>
</clipPath>
</defs>
</svg>
